<?xml version="1.0" encoding="utf-8" standalone="no"?>
<!DOCTYPE svg PUBLIC "-//W3C//DTD SVG 1.1//EN"
  "http://www.w3.org/Graphics/SVG/1.1/DTD/svg11.dtd">
<svg xmlns:xlink="http://www.w3.org/1999/xlink" width="802.046006pt" height="433.169pt" viewBox="0 0 802.046006 433.169" xmlns="http://www.w3.org/2000/svg" version="1.1">
 <metadata>
  <rdf:RDF xmlns:dc="http://purl.org/dc/elements/1.1/" xmlns:cc="http://creativecommons.org/ns#" xmlns:rdf="http://www.w3.org/1999/02/22-rdf-syntax-ns#">
   <cc:Work>
    <dc:type rdf:resource="http://purl.org/dc/dcmitype/StillImage"/>
    <dc:date>2025-11-02T16:33:42.367299</dc:date>
    <dc:format>image/svg+xml</dc:format>
    <dc:creator>
     <cc:Agent>
      <dc:title>Matplotlib v3.10.7, https://matplotlib.org/</dc:title>
     </cc:Agent>
    </dc:creator>
   </cc:Work>
  </rdf:RDF>
 </metadata>
 <defs>
  <style type="text/css">*{stroke-linejoin: round; stroke-linecap: butt}</style>
 </defs>
 <g id="figure_1">
  <g id="patch_1">
   <path d="M 0 433.169
L 802.046006 433.169
L 802.046006 0
L 0 0
L 0 433.169
z
" style="fill: none"/>
  </g>
  <g id="axes_1">
   <g id="patch_2">
    <path d="M 114.97625 368.514
L 784.57625 368.514
L 784.57625 35.874
L 114.97625 35.874
L 114.97625 368.514
z
" style="fill: none"/>
   </g>
   <g id="matplotlib.axis_1">
    <g id="xtick_1">
     <g id="line2d_1">
      <defs>
       <path id="mfe90eb6582" d="M 0 0
L 0 3.5
" style="stroke: #000000; stroke-width: 3"/>
      </defs>
      <g>
       <use xlink:href="#mfe90eb6582" x="133.848981" y="368.514" style="stroke: #000000; stroke-width: 3"/>
      </g>
     </g>
     <g id="text_1">
      <!-- 0 -->
      <g transform="translate(126.213981 393.75025) scale(0.24 -0.24)">
       <defs>
        <path id="DejaVuSans-30" d="M 2034 4250
Q 1547 4250 1301 3770
Q 1056 3291 1056 2328
Q 1056 1369 1301 889
Q 1547 409 2034 409
Q 2525 409 2770 889
Q 3016 1369 3016 2328
Q 3016 3291 2770 3770
Q 2525 4250 2034 4250
z
M 2034 4750
Q 2819 4750 3233 4129
Q 3647 3509 3647 2328
Q 3647 1150 3233 529
Q 2819 -91 2034 -91
Q 1250 -91 836 529
Q 422 1150 422 2328
Q 422 3509 836 4129
Q 1250 4750 2034 4750
z
" transform="scale(0.015625)"/>
       </defs>
       <use xlink:href="#DejaVuSans-30"/>
      </g>
     </g>
    </g>
    <g id="xtick_2">
     <g id="line2d_2">
      <g>
       <use xlink:href="#mfe90eb6582" x="212.656109" y="368.514" style="stroke: #000000; stroke-width: 3"/>
      </g>
     </g>
     <g id="text_2">
      <!-- 250 -->
      <g transform="translate(189.751109 393.75025) scale(0.24 -0.24)">
       <defs>
        <path id="DejaVuSans-32" d="M 1228 531
L 3431 531
L 3431 0
L 469 0
L 469 531
Q 828 903 1448 1529
Q 2069 2156 2228 2338
Q 2531 2678 2651 2914
Q 2772 3150 2772 3378
Q 2772 3750 2511 3984
Q 2250 4219 1831 4219
Q 1534 4219 1204 4116
Q 875 4013 500 3803
L 500 4441
Q 881 4594 1212 4672
Q 1544 4750 1819 4750
Q 2544 4750 2975 4387
Q 3406 4025 3406 3419
Q 3406 3131 3298 2873
Q 3191 2616 2906 2266
Q 2828 2175 2409 1742
Q 1991 1309 1228 531
z
" transform="scale(0.015625)"/>
        <path id="DejaVuSans-35" d="M 691 4666
L 3169 4666
L 3169 4134
L 1269 4134
L 1269 2991
Q 1406 3038 1543 3061
Q 1681 3084 1819 3084
Q 2600 3084 3056 2656
Q 3513 2228 3513 1497
Q 3513 744 3044 326
Q 2575 -91 1722 -91
Q 1428 -91 1123 -41
Q 819 9 494 109
L 494 744
Q 775 591 1075 516
Q 1375 441 1709 441
Q 2250 441 2565 725
Q 2881 1009 2881 1497
Q 2881 1984 2565 2268
Q 2250 2553 1709 2553
Q 1456 2553 1204 2497
Q 953 2441 691 2322
L 691 4666
z
" transform="scale(0.015625)"/>
       </defs>
       <use xlink:href="#DejaVuSans-32"/>
       <use xlink:href="#DejaVuSans-35" transform="translate(63.623047 0)"/>
       <use xlink:href="#DejaVuSans-30" transform="translate(127.246094 0)"/>
      </g>
     </g>
    </g>
    <g id="xtick_3">
     <g id="line2d_3">
      <g>
       <use xlink:href="#mfe90eb6582" x="291.463237" y="368.514" style="stroke: #000000; stroke-width: 3"/>
      </g>
     </g>
     <g id="text_3">
      <!-- 500 -->
      <g transform="translate(268.558237 393.75025) scale(0.24 -0.24)">
       <use xlink:href="#DejaVuSans-35"/>
       <use xlink:href="#DejaVuSans-30" transform="translate(63.623047 0)"/>
       <use xlink:href="#DejaVuSans-30" transform="translate(127.246094 0)"/>
      </g>
     </g>
    </g>
    <g id="xtick_4">
     <g id="line2d_4">
      <g>
       <use xlink:href="#mfe90eb6582" x="370.270365" y="368.514" style="stroke: #000000; stroke-width: 3"/>
      </g>
     </g>
     <g id="text_4">
      <!-- 750 -->
      <g transform="translate(347.365365 393.75025) scale(0.24 -0.24)">
       <defs>
        <path id="DejaVuSans-37" d="M 525 4666
L 3525 4666
L 3525 4397
L 1831 0
L 1172 0
L 2766 4134
L 525 4134
L 525 4666
z
" transform="scale(0.015625)"/>
       </defs>
       <use xlink:href="#DejaVuSans-37"/>
       <use xlink:href="#DejaVuSans-35" transform="translate(63.623047 0)"/>
       <use xlink:href="#DejaVuSans-30" transform="translate(127.246094 0)"/>
      </g>
     </g>
    </g>
    <g id="xtick_5">
     <g id="line2d_5">
      <g>
       <use xlink:href="#mfe90eb6582" x="449.077493" y="368.514" style="stroke: #000000; stroke-width: 3"/>
      </g>
     </g>
     <g id="text_5">
      <!-- 1000 -->
      <g transform="translate(418.537493 393.75025) scale(0.24 -0.24)">
       <defs>
        <path id="DejaVuSans-31" d="M 794 531
L 1825 531
L 1825 4091
L 703 3866
L 703 4441
L 1819 4666
L 2450 4666
L 2450 531
L 3481 531
L 3481 0
L 794 0
L 794 531
z
" transform="scale(0.015625)"/>
       </defs>
       <use xlink:href="#DejaVuSans-31"/>
       <use xlink:href="#DejaVuSans-30" transform="translate(63.623047 0)"/>
       <use xlink:href="#DejaVuSans-30" transform="translate(127.246094 0)"/>
       <use xlink:href="#DejaVuSans-30" transform="translate(190.869141 0)"/>
      </g>
     </g>
    </g>
    <g id="xtick_6">
     <g id="line2d_6">
      <g>
       <use xlink:href="#mfe90eb6582" x="527.884622" y="368.514" style="stroke: #000000; stroke-width: 3"/>
      </g>
     </g>
     <g id="text_6">
      <!-- 1250 -->
      <g transform="translate(497.344622 393.75025) scale(0.24 -0.24)">
       <use xlink:href="#DejaVuSans-31"/>
       <use xlink:href="#DejaVuSans-32" transform="translate(63.623047 0)"/>
       <use xlink:href="#DejaVuSans-35" transform="translate(127.246094 0)"/>
       <use xlink:href="#DejaVuSans-30" transform="translate(190.869141 0)"/>
      </g>
     </g>
    </g>
    <g id="xtick_7">
     <g id="line2d_7">
      <g>
       <use xlink:href="#mfe90eb6582" x="606.69175" y="368.514" style="stroke: #000000; stroke-width: 3"/>
      </g>
     </g>
     <g id="text_7">
      <!-- 1500 -->
      <g transform="translate(576.15175 393.75025) scale(0.24 -0.24)">
       <use xlink:href="#DejaVuSans-31"/>
       <use xlink:href="#DejaVuSans-35" transform="translate(63.623047 0)"/>
       <use xlink:href="#DejaVuSans-30" transform="translate(127.246094 0)"/>
       <use xlink:href="#DejaVuSans-30" transform="translate(190.869141 0)"/>
      </g>
     </g>
    </g>
    <g id="xtick_8">
     <g id="line2d_8">
      <g>
       <use xlink:href="#mfe90eb6582" x="685.498878" y="368.514" style="stroke: #000000; stroke-width: 3"/>
      </g>
     </g>
     <g id="text_8">
      <!-- 1750 -->
      <g transform="translate(654.958878 393.75025) scale(0.24 -0.24)">
       <use xlink:href="#DejaVuSans-31"/>
       <use xlink:href="#DejaVuSans-37" transform="translate(63.623047 0)"/>
       <use xlink:href="#DejaVuSans-35" transform="translate(127.246094 0)"/>
       <use xlink:href="#DejaVuSans-30" transform="translate(190.869141 0)"/>
      </g>
     </g>
    </g>
    <g id="xtick_9">
     <g id="line2d_9">
      <g>
       <use xlink:href="#mfe90eb6582" x="764.306006" y="368.514" style="stroke: #000000; stroke-width: 3"/>
      </g>
     </g>
     <g id="text_9">
      <!-- 2000 -->
      <g transform="translate(733.766006 393.75025) scale(0.24 -0.24)">
       <use xlink:href="#DejaVuSans-32"/>
       <use xlink:href="#DejaVuSans-30" transform="translate(63.623047 0)"/>
       <use xlink:href="#DejaVuSans-30" transform="translate(127.246094 0)"/>
       <use xlink:href="#DejaVuSans-30" transform="translate(190.869141 0)"/>
      </g>
     </g>
    </g>
    <g id="text_10">
     <!-- Time / min -->
     <g transform="translate(386.118125 420.97775) scale(0.24 -0.24)">
      <defs>
       <path id="DejaVuSans-54" d="M -19 4666
L 3928 4666
L 3928 4134
L 2272 4134
L 2272 0
L 1638 0
L 1638 4134
L -19 4134
L -19 4666
z
" transform="scale(0.015625)"/>
       <path id="DejaVuSans-69" d="M 603 3500
L 1178 3500
L 1178 0
L 603 0
L 603 3500
z
M 603 4863
L 1178 4863
L 1178 4134
L 603 4134
L 603 4863
z
" transform="scale(0.015625)"/>
       <path id="DejaVuSans-6d" d="M 3328 2828
Q 3544 3216 3844 3400
Q 4144 3584 4550 3584
Q 5097 3584 5394 3201
Q 5691 2819 5691 2113
L 5691 0
L 5113 0
L 5113 2094
Q 5113 2597 4934 2840
Q 4756 3084 4391 3084
Q 3944 3084 3684 2787
Q 3425 2491 3425 1978
L 3425 0
L 2847 0
L 2847 2094
Q 2847 2600 2669 2842
Q 2491 3084 2119 3084
Q 1678 3084 1418 2786
Q 1159 2488 1159 1978
L 1159 0
L 581 0
L 581 3500
L 1159 3500
L 1159 2956
Q 1356 3278 1631 3431
Q 1906 3584 2284 3584
Q 2666 3584 2933 3390
Q 3200 3197 3328 2828
z
" transform="scale(0.015625)"/>
       <path id="DejaVuSans-65" d="M 3597 1894
L 3597 1613
L 953 1613
Q 991 1019 1311 708
Q 1631 397 2203 397
Q 2534 397 2845 478
Q 3156 559 3463 722
L 3463 178
Q 3153 47 2828 -22
Q 2503 -91 2169 -91
Q 1331 -91 842 396
Q 353 884 353 1716
Q 353 2575 817 3079
Q 1281 3584 2069 3584
Q 2775 3584 3186 3129
Q 3597 2675 3597 1894
z
M 3022 2063
Q 3016 2534 2758 2815
Q 2500 3097 2075 3097
Q 1594 3097 1305 2825
Q 1016 2553 972 2059
L 3022 2063
z
" transform="scale(0.015625)"/>
       <path id="DejaVuSans-20" transform="scale(0.015625)"/>
       <path id="DejaVuSans-2f" d="M 1625 4666
L 2156 4666
L 531 -594
L 0 -594
L 1625 4666
z
" transform="scale(0.015625)"/>
       <path id="DejaVuSans-6e" d="M 3513 2113
L 3513 0
L 2938 0
L 2938 2094
Q 2938 2591 2744 2837
Q 2550 3084 2163 3084
Q 1697 3084 1428 2787
Q 1159 2491 1159 1978
L 1159 0
L 581 0
L 581 3500
L 1159 3500
L 1159 2956
Q 1366 3272 1645 3428
Q 1925 3584 2291 3584
Q 2894 3584 3203 3211
Q 3513 2838 3513 2113
z
" transform="scale(0.015625)"/>
      </defs>
      <use xlink:href="#DejaVuSans-54"/>
      <use xlink:href="#DejaVuSans-69" transform="translate(57.958984 0)"/>
      <use xlink:href="#DejaVuSans-6d" transform="translate(85.742188 0)"/>
      <use xlink:href="#DejaVuSans-65" transform="translate(183.154297 0)"/>
      <use xlink:href="#DejaVuSans-20" transform="translate(244.677734 0)"/>
      <use xlink:href="#DejaVuSans-2f" transform="translate(276.464844 0)"/>
      <use xlink:href="#DejaVuSans-20" transform="translate(310.15625 0)"/>
      <use xlink:href="#DejaVuSans-6d" transform="translate(341.943359 0)"/>
      <use xlink:href="#DejaVuSans-69" transform="translate(439.355469 0)"/>
      <use xlink:href="#DejaVuSans-6e" transform="translate(467.138672 0)"/>
     </g>
    </g>
   </g>
   <g id="matplotlib.axis_2">
    <g id="ytick_1">
     <g id="line2d_10">
      <defs>
       <path id="m2c96b48850" d="M 0 0
L -3.5 0
" style="stroke: #000000; stroke-width: 3"/>
      </defs>
      <g>
       <use xlink:href="#m2c96b48850" x="114.97625" y="353.394" style="stroke: #000000; stroke-width: 3"/>
      </g>
     </g>
     <g id="text_11">
      <!-- −1.00 -->
      <g transform="translate(34.4275 362.512125) scale(0.24 -0.24)">
       <defs>
        <path id="DejaVuSans-2212" d="M 678 2272
L 4684 2272
L 4684 1741
L 678 1741
L 678 2272
z
" transform="scale(0.015625)"/>
        <path id="DejaVuSans-2e" d="M 684 794
L 1344 794
L 1344 0
L 684 0
L 684 794
z
" transform="scale(0.015625)"/>
       </defs>
       <use xlink:href="#DejaVuSans-2212"/>
       <use xlink:href="#DejaVuSans-31" transform="translate(83.789062 0)"/>
       <use xlink:href="#DejaVuSans-2e" transform="translate(147.412109 0)"/>
       <use xlink:href="#DejaVuSans-30" transform="translate(179.199219 0)"/>
       <use xlink:href="#DejaVuSans-30" transform="translate(242.822266 0)"/>
      </g>
     </g>
    </g>
    <g id="ytick_2">
     <g id="line2d_11">
      <g>
       <use xlink:href="#m2c96b48850" x="114.97625" y="251.255486" style="stroke: #000000; stroke-width: 3"/>
      </g>
     </g>
     <g id="text_12">
      <!-- −0.95 -->
      <g transform="translate(34.4275 260.373611) scale(0.24 -0.24)">
       <defs>
        <path id="DejaVuSans-39" d="M 703 97
L 703 672
Q 941 559 1184 500
Q 1428 441 1663 441
Q 2288 441 2617 861
Q 2947 1281 2994 2138
Q 2813 1869 2534 1725
Q 2256 1581 1919 1581
Q 1219 1581 811 2004
Q 403 2428 403 3163
Q 403 3881 828 4315
Q 1253 4750 1959 4750
Q 2769 4750 3195 4129
Q 3622 3509 3622 2328
Q 3622 1225 3098 567
Q 2575 -91 1691 -91
Q 1453 -91 1209 -44
Q 966 3 703 97
z
M 1959 2075
Q 2384 2075 2632 2365
Q 2881 2656 2881 3163
Q 2881 3666 2632 3958
Q 2384 4250 1959 4250
Q 1534 4250 1286 3958
Q 1038 3666 1038 3163
Q 1038 2656 1286 2365
Q 1534 2075 1959 2075
z
" transform="scale(0.015625)"/>
       </defs>
       <use xlink:href="#DejaVuSans-2212"/>
       <use xlink:href="#DejaVuSans-30" transform="translate(83.789062 0)"/>
       <use xlink:href="#DejaVuSans-2e" transform="translate(147.412109 0)"/>
       <use xlink:href="#DejaVuSans-39" transform="translate(179.199219 0)"/>
       <use xlink:href="#DejaVuSans-35" transform="translate(242.822266 0)"/>
      </g>
     </g>
    </g>
    <g id="ytick_3">
     <g id="line2d_12">
      <g>
       <use xlink:href="#m2c96b48850" x="114.97625" y="149.116971" style="stroke: #000000; stroke-width: 3"/>
      </g>
     </g>
     <g id="text_13">
      <!-- −0.90 -->
      <g transform="translate(34.4275 158.235096) scale(0.24 -0.24)">
       <use xlink:href="#DejaVuSans-2212"/>
       <use xlink:href="#DejaVuSans-30" transform="translate(83.789062 0)"/>
       <use xlink:href="#DejaVuSans-2e" transform="translate(147.412109 0)"/>
       <use xlink:href="#DejaVuSans-39" transform="translate(179.199219 0)"/>
       <use xlink:href="#DejaVuSans-30" transform="translate(242.822266 0)"/>
      </g>
     </g>
    </g>
    <g id="ytick_4">
     <g id="line2d_13">
      <g>
       <use xlink:href="#m2c96b48850" x="114.97625" y="46.978457" style="stroke: #000000; stroke-width: 3"/>
      </g>
     </g>
     <g id="text_14">
      <!-- −0.85 -->
      <g transform="translate(34.4275 56.096582) scale(0.24 -0.24)">
       <defs>
        <path id="DejaVuSans-38" d="M 2034 2216
Q 1584 2216 1326 1975
Q 1069 1734 1069 1313
Q 1069 891 1326 650
Q 1584 409 2034 409
Q 2484 409 2743 651
Q 3003 894 3003 1313
Q 3003 1734 2745 1975
Q 2488 2216 2034 2216
z
M 1403 2484
Q 997 2584 770 2862
Q 544 3141 544 3541
Q 544 4100 942 4425
Q 1341 4750 2034 4750
Q 2731 4750 3128 4425
Q 3525 4100 3525 3541
Q 3525 3141 3298 2862
Q 3072 2584 2669 2484
Q 3125 2378 3379 2068
Q 3634 1759 3634 1313
Q 3634 634 3220 271
Q 2806 -91 2034 -91
Q 1263 -91 848 271
Q 434 634 434 1313
Q 434 1759 690 2068
Q 947 2378 1403 2484
z
M 1172 3481
Q 1172 3119 1398 2916
Q 1625 2713 2034 2713
Q 2441 2713 2670 2916
Q 2900 3119 2900 3481
Q 2900 3844 2670 4047
Q 2441 4250 2034 4250
Q 1625 4250 1398 4047
Q 1172 3844 1172 3481
z
" transform="scale(0.015625)"/>
       </defs>
       <use xlink:href="#DejaVuSans-2212"/>
       <use xlink:href="#DejaVuSans-30" transform="translate(83.789062 0)"/>
       <use xlink:href="#DejaVuSans-2e" transform="translate(147.412109 0)"/>
       <use xlink:href="#DejaVuSans-38" transform="translate(179.199219 0)"/>
       <use xlink:href="#DejaVuSans-35" transform="translate(242.822266 0)"/>
      </g>
     </g>
    </g>
    <g id="text_15">
     <!-- Spearman correlation -->
     <g transform="translate(25.43625 331.735875) rotate(-90) scale(0.24 -0.24)">
      <defs>
       <path id="DejaVuSans-53" d="M 3425 4513
L 3425 3897
Q 3066 4069 2747 4153
Q 2428 4238 2131 4238
Q 1616 4238 1336 4038
Q 1056 3838 1056 3469
Q 1056 3159 1242 3001
Q 1428 2844 1947 2747
L 2328 2669
Q 3034 2534 3370 2195
Q 3706 1856 3706 1288
Q 3706 609 3251 259
Q 2797 -91 1919 -91
Q 1588 -91 1214 -16
Q 841 59 441 206
L 441 856
Q 825 641 1194 531
Q 1563 422 1919 422
Q 2459 422 2753 634
Q 3047 847 3047 1241
Q 3047 1584 2836 1778
Q 2625 1972 2144 2069
L 1759 2144
Q 1053 2284 737 2584
Q 422 2884 422 3419
Q 422 4038 858 4394
Q 1294 4750 2059 4750
Q 2388 4750 2728 4690
Q 3069 4631 3425 4513
z
" transform="scale(0.015625)"/>
       <path id="DejaVuSans-70" d="M 1159 525
L 1159 -1331
L 581 -1331
L 581 3500
L 1159 3500
L 1159 2969
Q 1341 3281 1617 3432
Q 1894 3584 2278 3584
Q 2916 3584 3314 3078
Q 3713 2572 3713 1747
Q 3713 922 3314 415
Q 2916 -91 2278 -91
Q 1894 -91 1617 61
Q 1341 213 1159 525
z
M 3116 1747
Q 3116 2381 2855 2742
Q 2594 3103 2138 3103
Q 1681 3103 1420 2742
Q 1159 2381 1159 1747
Q 1159 1113 1420 752
Q 1681 391 2138 391
Q 2594 391 2855 752
Q 3116 1113 3116 1747
z
" transform="scale(0.015625)"/>
       <path id="DejaVuSans-61" d="M 2194 1759
Q 1497 1759 1228 1600
Q 959 1441 959 1056
Q 959 750 1161 570
Q 1363 391 1709 391
Q 2188 391 2477 730
Q 2766 1069 2766 1631
L 2766 1759
L 2194 1759
z
M 3341 1997
L 3341 0
L 2766 0
L 2766 531
Q 2569 213 2275 61
Q 1981 -91 1556 -91
Q 1019 -91 701 211
Q 384 513 384 1019
Q 384 1609 779 1909
Q 1175 2209 1959 2209
L 2766 2209
L 2766 2266
Q 2766 2663 2505 2880
Q 2244 3097 1772 3097
Q 1472 3097 1187 3025
Q 903 2953 641 2809
L 641 3341
Q 956 3463 1253 3523
Q 1550 3584 1831 3584
Q 2591 3584 2966 3190
Q 3341 2797 3341 1997
z
" transform="scale(0.015625)"/>
       <path id="DejaVuSans-72" d="M 2631 2963
Q 2534 3019 2420 3045
Q 2306 3072 2169 3072
Q 1681 3072 1420 2755
Q 1159 2438 1159 1844
L 1159 0
L 581 0
L 581 3500
L 1159 3500
L 1159 2956
Q 1341 3275 1631 3429
Q 1922 3584 2338 3584
Q 2397 3584 2469 3576
Q 2541 3569 2628 3553
L 2631 2963
z
" transform="scale(0.015625)"/>
       <path id="DejaVuSans-63" d="M 3122 3366
L 3122 2828
Q 2878 2963 2633 3030
Q 2388 3097 2138 3097
Q 1578 3097 1268 2742
Q 959 2388 959 1747
Q 959 1106 1268 751
Q 1578 397 2138 397
Q 2388 397 2633 464
Q 2878 531 3122 666
L 3122 134
Q 2881 22 2623 -34
Q 2366 -91 2075 -91
Q 1284 -91 818 406
Q 353 903 353 1747
Q 353 2603 823 3093
Q 1294 3584 2113 3584
Q 2378 3584 2631 3529
Q 2884 3475 3122 3366
z
" transform="scale(0.015625)"/>
       <path id="DejaVuSans-6f" d="M 1959 3097
Q 1497 3097 1228 2736
Q 959 2375 959 1747
Q 959 1119 1226 758
Q 1494 397 1959 397
Q 2419 397 2687 759
Q 2956 1122 2956 1747
Q 2956 2369 2687 2733
Q 2419 3097 1959 3097
z
M 1959 3584
Q 2709 3584 3137 3096
Q 3566 2609 3566 1747
Q 3566 888 3137 398
Q 2709 -91 1959 -91
Q 1206 -91 779 398
Q 353 888 353 1747
Q 353 2609 779 3096
Q 1206 3584 1959 3584
z
" transform="scale(0.015625)"/>
       <path id="DejaVuSans-6c" d="M 603 4863
L 1178 4863
L 1178 0
L 603 0
L 603 4863
z
" transform="scale(0.015625)"/>
       <path id="DejaVuSans-74" d="M 1172 4494
L 1172 3500
L 2356 3500
L 2356 3053
L 1172 3053
L 1172 1153
Q 1172 725 1289 603
Q 1406 481 1766 481
L 2356 481
L 2356 0
L 1766 0
Q 1100 0 847 248
Q 594 497 594 1153
L 594 3053
L 172 3053
L 172 3500
L 594 3500
L 594 4494
L 1172 4494
z
" transform="scale(0.015625)"/>
      </defs>
      <use xlink:href="#DejaVuSans-53"/>
      <use xlink:href="#DejaVuSans-70" transform="translate(63.476562 0)"/>
      <use xlink:href="#DejaVuSans-65" transform="translate(126.953125 0)"/>
      <use xlink:href="#DejaVuSans-61" transform="translate(188.476562 0)"/>
      <use xlink:href="#DejaVuSans-72" transform="translate(249.755859 0)"/>
      <use xlink:href="#DejaVuSans-6d" transform="translate(289.119141 0)"/>
      <use xlink:href="#DejaVuSans-61" transform="translate(386.53125 0)"/>
      <use xlink:href="#DejaVuSans-6e" transform="translate(447.810547 0)"/>
      <use xlink:href="#DejaVuSans-20" transform="translate(511.189453 0)"/>
      <use xlink:href="#DejaVuSans-63" transform="translate(542.976562 0)"/>
      <use xlink:href="#DejaVuSans-6f" transform="translate(597.957031 0)"/>
      <use xlink:href="#DejaVuSans-72" transform="translate(659.138672 0)"/>
      <use xlink:href="#DejaVuSans-72" transform="translate(698.501953 0)"/>
      <use xlink:href="#DejaVuSans-65" transform="translate(737.365234 0)"/>
      <use xlink:href="#DejaVuSans-6c" transform="translate(798.888672 0)"/>
      <use xlink:href="#DejaVuSans-61" transform="translate(826.671875 0)"/>
      <use xlink:href="#DejaVuSans-74" transform="translate(887.951172 0)"/>
      <use xlink:href="#DejaVuSans-69" transform="translate(927.160156 0)"/>
      <use xlink:href="#DejaVuSans-6f" transform="translate(954.943359 0)"/>
      <use xlink:href="#DejaVuSans-6e" transform="translate(1016.125 0)"/>
     </g>
    </g>
   </g>
   <g id="line2d_14">
    <defs>
     <path id="m76a338520c" d="M 0 3
C 0.795609 3 1.55874 2.683901 2.12132 2.12132
C 2.683901 1.55874 3 0.795609 3 0
C 3 -0.795609 2.683901 -1.55874 2.12132 -2.12132
C 1.55874 -2.683901 0.795609 -3 0 -3
C -0.795609 -3 -1.55874 -2.683901 -2.12132 -2.12132
C -2.683901 -1.55874 -3 -0.795609 -3 0
C -3 0.795609 -2.683901 1.55874 -2.12132 2.12132
C -1.55874 2.683901 -0.795609 3 0 3
z
" style="stroke: #1f77b4"/>
    </defs>
    <g clip-path="url(#p6f32660f31)">
     <use xlink:href="#m76a338520c" x="145.412614" y="353.394" style="fill: #1f77b4; stroke: #1f77b4"/>
     <use xlink:href="#m76a338520c" x="150.330178" y="353.394" style="fill: #1f77b4; stroke: #1f77b4"/>
     <use xlink:href="#m76a338520c" x="155.247743" y="353.394" style="fill: #1f77b4; stroke: #1f77b4"/>
     <use xlink:href="#m76a338520c" x="160.175816" y="353.394" style="fill: #1f77b4; stroke: #1f77b4"/>
     <use xlink:href="#m76a338520c" x="165.09338" y="353.394" style="fill: #1f77b4; stroke: #1f77b4"/>
     <use xlink:href="#m76a338520c" x="170.010945" y="353.394" style="fill: #1f77b4; stroke: #1f77b4"/>
     <use xlink:href="#m76a338520c" x="174.92851" y="353.394" style="fill: #1f77b4; stroke: #1f77b4"/>
     <use xlink:href="#m76a338520c" x="179.851329" y="353.394" style="fill: #1f77b4; stroke: #1f77b4"/>
     <use xlink:href="#m76a338520c" x="184.774147" y="353.394" style="fill: #1f77b4; stroke: #1f77b4"/>
     <use xlink:href="#m76a338520c" x="189.70222" y="353.394" style="fill: #1f77b4; stroke: #1f77b4"/>
     <use xlink:href="#m76a338520c" x="196.579455" y="353.394" style="fill: #1f77b4; stroke: #1f77b4"/>
     <use xlink:href="#m76a338520c" x="201.491766" y="353.394" style="fill: #1f77b4; stroke: #1f77b4"/>
     <use xlink:href="#m76a338520c" x="206.409331" y="353.394" style="fill: #1f77b4; stroke: #1f77b4"/>
     <use xlink:href="#m76a338520c" x="211.326896" y="353.394" style="fill: #1f77b4; stroke: #1f77b4"/>
     <use xlink:href="#m76a338520c" x="217.001009" y="347.385852" style="fill: #1f77b4; stroke: #1f77b4"/>
     <use xlink:href="#m76a338520c" x="221.918574" y="333.36684" style="fill: #1f77b4; stroke: #1f77b4"/>
     <use xlink:href="#m76a338520c" x="226.841392" y="323.880291" style="fill: #1f77b4; stroke: #1f77b4"/>
     <use xlink:href="#m76a338520c" x="231.769465" y="328.307347" style="fill: #1f77b4; stroke: #1f77b4"/>
     <use xlink:href="#m76a338520c" x="236.692283" y="331.891155" style="fill: #1f77b4; stroke: #1f77b4"/>
     <use xlink:href="#m76a338520c" x="241.641371" y="334.823361" style="fill: #1f77b4; stroke: #1f77b4"/>
     <use xlink:href="#m76a338520c" x="248.508099" y="337.245618" style="fill: #1f77b4; stroke: #1f77b4"/>
     <use xlink:href="#m76a338520c" x="253.430917" y="337.245618" style="fill: #1f77b4; stroke: #1f77b4"/>
     <use xlink:href="#m76a338520c" x="258.369497" y="335.63078" style="fill: #1f77b4; stroke: #1f77b4"/>
     <use xlink:href="#m76a338520c" x="263.287062" y="337.680382" style="fill: #1f77b4; stroke: #1f77b4"/>
     <use xlink:href="#m76a338520c" x="268.215134" y="338.029574" style="fill: #1f77b4; stroke: #1f77b4"/>
     <use xlink:href="#m76a338520c" x="273.132699" y="337.181537" style="fill: #1f77b4; stroke: #1f77b4"/>
     <use xlink:href="#m76a338520c" x="278.050264" y="334.386285" style="fill: #1f77b4; stroke: #1f77b4"/>
     <use xlink:href="#m76a338520c" x="282.973083" y="332.261894" style="fill: #1f77b4; stroke: #1f77b4"/>
     <use xlink:href="#m76a338520c" x="287.895901" y="329.762397" style="fill: #1f77b4; stroke: #1f77b4"/>
     <use xlink:href="#m76a338520c" x="292.823974" y="326.211976" style="fill: #1f77b4; stroke: #1f77b4"/>
     <use xlink:href="#m76a338520c" x="299.706463" y="318.94846" style="fill: #1f77b4; stroke: #1f77b4"/>
     <use xlink:href="#m76a338520c" x="304.624028" y="321.987772" style="fill: #1f77b4; stroke: #1f77b4"/>
     <use xlink:href="#m76a338520c" x="309.546846" y="324.055512" style="fill: #1f77b4; stroke: #1f77b4"/>
     <use xlink:href="#m76a338520c" x="314.474919" y="324.783772" style="fill: #1f77b4; stroke: #1f77b4"/>
     <use xlink:href="#m76a338520c" x="319.402991" y="327.10352" style="fill: #1f77b4; stroke: #1f77b4"/>
     <use xlink:href="#m76a338520c" x="324.320556" y="328.694786" style="fill: #1f77b4; stroke: #1f77b4"/>
     <use xlink:href="#m76a338520c" x="329.248628" y="325.23019" style="fill: #1f77b4; stroke: #1f77b4"/>
     <use xlink:href="#m76a338520c" x="334.181954" y="320.726216" style="fill: #1f77b4; stroke: #1f77b4"/>
     <use xlink:href="#m76a338520c" x="339.104773" y="320.433729" style="fill: #1f77b4; stroke: #1f77b4"/>
     <use xlink:href="#m76a338520c" x="344.022338" y="321.008617" style="fill: #1f77b4; stroke: #1f77b4"/>
     <use xlink:href="#m76a338520c" x="350.910081" y="321.281737" style="fill: #1f77b4; stroke: #1f77b4"/>
     <use xlink:href="#m76a338520c" x="355.838153" y="323.47121" style="fill: #1f77b4; stroke: #1f77b4"/>
     <use xlink:href="#m76a338520c" x="360.77148" y="325.393098" style="fill: #1f77b4; stroke: #1f77b4"/>
     <use xlink:href="#m76a338520c" x="365.699552" y="326.411858" style="fill: #1f77b4; stroke: #1f77b4"/>
     <use xlink:href="#m76a338520c" x="370.627624" y="324.102682" style="fill: #1f77b4; stroke: #1f77b4"/>
     <use xlink:href="#m76a338520c" x="375.550443" y="323.807463" style="fill: #1f77b4; stroke: #1f77b4"/>
     <use xlink:href="#m76a338520c" x="380.478515" y="324.785026" style="fill: #1f77b4; stroke: #1f77b4"/>
     <use xlink:href="#m76a338520c" x="385.411842" y="325.559431" style="fill: #1f77b4; stroke: #1f77b4"/>
     <use xlink:href="#m76a338520c" x="390.339914" y="326.111497" style="fill: #1f77b4; stroke: #1f77b4"/>
     <use xlink:href="#m76a338520c" x="395.257479" y="326.429048" style="fill: #1f77b4; stroke: #1f77b4"/>
     <use xlink:href="#m76a338520c" x="402.134714" y="326.505399" style="fill: #1f77b4; stroke: #1f77b4"/>
     <use xlink:href="#m76a338520c" x="407.06804" y="326.338154" style="fill: #1f77b4; stroke: #1f77b4"/>
     <use xlink:href="#m76a338520c" x="412.001367" y="325.928229" style="fill: #1f77b4; stroke: #1f77b4"/>
     <use xlink:href="#m76a338520c" x="416.918931" y="325.279083" style="fill: #1f77b4; stroke: #1f77b4"/>
     <use xlink:href="#m76a338520c" x="421.852258" y="324.396095" style="fill: #1f77b4; stroke: #1f77b4"/>
     <use xlink:href="#m76a338520c" x="426.838122" y="323.286068" style="fill: #1f77b4; stroke: #1f77b4"/>
     <use xlink:href="#m76a338520c" x="431.771448" y="321.956838" style="fill: #1f77b4; stroke: #1f77b4"/>
     <use xlink:href="#m76a338520c" x="436.694267" y="320.416954" style="fill: #1f77b4; stroke: #1f77b4"/>
     <use xlink:href="#m76a338520c" x="441.617085" y="318.675434" style="fill: #1f77b4; stroke: #1f77b4"/>
     <use xlink:href="#m76a338520c" x="446.539904" y="316.741562" style="fill: #1f77b4; stroke: #1f77b4"/>
     <use xlink:href="#m76a338520c" x="453.432901" y="314.624741" style="fill: #1f77b4; stroke: #1f77b4"/>
     <use xlink:href="#m76a338520c" x="458.366227" y="312.334365" style="fill: #1f77b4; stroke: #1f77b4"/>
     <use xlink:href="#m76a338520c" x="463.294299" y="309.879731" style="fill: #1f77b4; stroke: #1f77b4"/>
     <use xlink:href="#m76a338520c" x="468.217118" y="307.269964" style="fill: #1f77b4; stroke: #1f77b4"/>
     <use xlink:href="#m76a338520c" x="473.14519" y="304.513967" style="fill: #1f77b4; stroke: #1f77b4"/>
     <use xlink:href="#m76a338520c" x="478.078517" y="301.62038" style="fill: #1f77b4; stroke: #1f77b4"/>
     <use xlink:href="#m76a338520c" x="483.048619" y="298.597551" style="fill: #1f77b4; stroke: #1f77b4"/>
     <use xlink:href="#m76a338520c" x="487.971438" y="295.45352" style="fill: #1f77b4; stroke: #1f77b4"/>
     <use xlink:href="#m76a338520c" x="492.894257" y="292.196004" style="fill: #1f77b4; stroke: #1f77b4"/>
     <use xlink:href="#m76a338520c" x="497.811821" y="288.832396" style="fill: #1f77b4; stroke: #1f77b4"/>
     <use xlink:href="#m76a338520c" x="504.699564" y="285.36976" style="fill: #1f77b4; stroke: #1f77b4"/>
     <use xlink:href="#m76a338520c" x="509.622383" y="281.814833" style="fill: #1f77b4; stroke: #1f77b4"/>
     <use xlink:href="#m76a338520c" x="514.550455" y="278.174033" style="fill: #1f77b4; stroke: #1f77b4"/>
     <use xlink:href="#m76a338520c" x="519.473274" y="274.453464" style="fill: #1f77b4; stroke: #1f77b4"/>
     <use xlink:href="#m76a338520c" x="524.396093" y="270.658924" style="fill: #1f77b4; stroke: #1f77b4"/>
     <use xlink:href="#m76a338520c" x="529.329419" y="266.795915" style="fill: #1f77b4; stroke: #1f77b4"/>
     <use xlink:href="#m76a338520c" x="534.252238" y="235.884651" style="fill: #1f77b4; stroke: #1f77b4"/>
     <use xlink:href="#m76a338520c" x="539.185564" y="232.460861" style="fill: #1f77b4; stroke: #1f77b4"/>
     <use xlink:href="#m76a338520c" x="544.103129" y="228.97696" style="fill: #1f77b4; stroke: #1f77b4"/>
     <use xlink:href="#m76a338520c" x="549.031201" y="225.436957" style="fill: #1f77b4; stroke: #1f77b4"/>
     <use xlink:href="#m76a338520c" x="555.929452" y="221.844692" style="fill: #1f77b4; stroke: #1f77b4"/>
     <use xlink:href="#m76a338520c" x="560.862778" y="218.203841" style="fill: #1f77b4; stroke: #1f77b4"/>
     <use xlink:href="#m76a338520c" x="565.796104" y="214.517918" style="fill: #1f77b4; stroke: #1f77b4"/>
     <use xlink:href="#m76a338520c" x="570.724176" y="210.79028" style="fill: #1f77b4; stroke: #1f77b4"/>
     <use xlink:href="#m76a338520c" x="575.652249" y="207.024125" style="fill: #1f77b4; stroke: #1f77b4"/>
     <use xlink:href="#m76a338520c" x="580.575067" y="203.222507" style="fill: #1f77b4; stroke: #1f77b4"/>
     <use xlink:href="#m76a338520c" x="585.513647" y="199.388331" style="fill: #1f77b4; stroke: #1f77b4"/>
     <use xlink:href="#m76a338520c" x="590.436466" y="165.006809" style="fill: #1f77b4; stroke: #1f77b4"/>
     <use xlink:href="#m76a338520c" x="595.369792" y="161.697921" style="fill: #1f77b4; stroke: #1f77b4"/>
     <use xlink:href="#m76a338520c" x="600.297865" y="158.35488" style="fill: #1f77b4; stroke: #1f77b4"/>
     <use xlink:href="#m76a338520c" x="607.180354" y="154.980058" style="fill: #1f77b4; stroke: #1f77b4"/>
     <use xlink:href="#m76a338520c" x="612.118934" y="151.575732" style="fill: #1f77b4; stroke: #1f77b4"/>
     <use xlink:href="#m76a338520c" x="617.047006" y="148.144082" style="fill: #1f77b4; stroke: #1f77b4"/>
     <use xlink:href="#m76a338520c" x="621.975079" y="144.687201" style="fill: #1f77b4; stroke: #1f77b4"/>
     <use xlink:href="#m76a338520c" x="626.903151" y="141.207089" style="fill: #1f77b4; stroke: #1f77b4"/>
     <use xlink:href="#m76a338520c" x="631.836477" y="137.70566" style="fill: #1f77b4; stroke: #1f77b4"/>
     <use xlink:href="#m76a338520c" x="636.759296" y="134.184745" style="fill: #1f77b4; stroke: #1f77b4"/>
     <use xlink:href="#m76a338520c" x="641.697876" y="130.646092" style="fill: #1f77b4; stroke: #1f77b4"/>
     <use xlink:href="#m76a338520c" x="646.625948" y="127.091372" style="fill: #1f77b4; stroke: #1f77b4"/>
     <use xlink:href="#m76a338520c" x="651.554021" y="123.522179" style="fill: #1f77b4; stroke: #1f77b4"/>
     <use xlink:href="#m76a338520c" x="658.447018" y="119.940035" style="fill: #1f77b4; stroke: #1f77b4"/>
     <use xlink:href="#m76a338520c" x="663.385598" y="116.34639" style="fill: #1f77b4; stroke: #1f77b4"/>
     <use xlink:href="#m76a338520c" x="668.303162" y="112.742628" style="fill: #1f77b4; stroke: #1f77b4"/>
     <use xlink:href="#m76a338520c" x="673.246996" y="109.130067" style="fill: #1f77b4; stroke: #1f77b4"/>
     <use xlink:href="#m76a338520c" x="678.180322" y="105.509964" style="fill: #1f77b4; stroke: #1f77b4"/>
     <use xlink:href="#m76a338520c" x="683.103141" y="101.883514" style="fill: #1f77b4; stroke: #1f77b4"/>
     <use xlink:href="#m76a338520c" x="688.036467" y="98.251857" style="fill: #1f77b4; stroke: #1f77b4"/>
     <use xlink:href="#m76a338520c" x="692.975047" y="94.616076" style="fill: #1f77b4; stroke: #1f77b4"/>
     <use xlink:href="#m76a338520c" x="697.897866" y="90.977202" style="fill: #1f77b4; stroke: #1f77b4"/>
     <use xlink:href="#m76a338520c" x="702.825938" y="87.336217" style="fill: #1f77b4; stroke: #1f77b4"/>
     <use xlink:href="#m76a338520c" x="709.718935" y="83.694051" style="fill: #1f77b4; stroke: #1f77b4"/>
     <use xlink:href="#m76a338520c" x="714.657515" y="80.051593" style="fill: #1f77b4; stroke: #1f77b4"/>
     <use xlink:href="#m76a338520c" x="719.580334" y="76.409684" style="fill: #1f77b4; stroke: #1f77b4"/>
     <use xlink:href="#m76a338520c" x="724.518914" y="72.769123" style="fill: #1f77b4; stroke: #1f77b4"/>
     <use xlink:href="#m76a338520c" x="729.489017" y="69.13067" style="fill: #1f77b4; stroke: #1f77b4"/>
     <use xlink:href="#m76a338520c" x="734.411835" y="65.495046" style="fill: #1f77b4; stroke: #1f77b4"/>
     <use xlink:href="#m76a338520c" x="739.350415" y="61.862935" style="fill: #1f77b4; stroke: #1f77b4"/>
     <use xlink:href="#m76a338520c" x="744.278488" y="58.234986" style="fill: #1f77b4; stroke: #1f77b4"/>
     <use xlink:href="#m76a338520c" x="749.211814" y="54.611813" style="fill: #1f77b4; stroke: #1f77b4"/>
     <use xlink:href="#m76a338520c" x="754.139886" y="50.994" style="fill: #1f77b4; stroke: #1f77b4"/>
    </g>
   </g>
   <g id="patch_3">
    <path d="M 114.97625 368.514
L 114.97625 35.874
" style="fill: none; stroke: #000000; stroke-width: 3; stroke-linejoin: miter; stroke-linecap: square"/>
   </g>
   <g id="patch_4">
    <path d="M 784.57625 368.514
L 784.57625 35.874
" style="fill: none; stroke: #000000; stroke-width: 3; stroke-linejoin: miter; stroke-linecap: square"/>
   </g>
   <g id="patch_5">
    <path d="M 114.97625 368.514
L 784.57625 368.514
" style="fill: none; stroke: #000000; stroke-width: 3; stroke-linejoin: miter; stroke-linecap: square"/>
   </g>
   <g id="patch_6">
    <path d="M 114.97625 35.874
L 784.57625 35.874
" style="fill: none; stroke: #000000; stroke-width: 3; stroke-linejoin: miter; stroke-linecap: square"/>
   </g>
   <g id="text_16">
    <!-- Spearman correlation for BH_v7_19F -->
    <g transform="translate(185.97275 29.0835) scale(0.288 -0.288)">
     <defs>
      <path id="DejaVuSans-66" d="M 2375 4863
L 2375 4384
L 1825 4384
Q 1516 4384 1395 4259
Q 1275 4134 1275 3809
L 1275 3500
L 2222 3500
L 2222 3053
L 1275 3053
L 1275 0
L 697 0
L 697 3053
L 147 3053
L 147 3500
L 697 3500
L 697 3744
Q 697 4328 969 4595
Q 1241 4863 1831 4863
L 2375 4863
z
" transform="scale(0.015625)"/>
      <path id="DejaVuSans-42" d="M 1259 2228
L 1259 519
L 2272 519
Q 2781 519 3026 730
Q 3272 941 3272 1375
Q 3272 1813 3026 2020
Q 2781 2228 2272 2228
L 1259 2228
z
M 1259 4147
L 1259 2741
L 2194 2741
Q 2656 2741 2882 2914
Q 3109 3088 3109 3444
Q 3109 3797 2882 3972
Q 2656 4147 2194 4147
L 1259 4147
z
M 628 4666
L 2241 4666
Q 2963 4666 3353 4366
Q 3744 4066 3744 3513
Q 3744 3084 3544 2831
Q 3344 2578 2956 2516
Q 3422 2416 3680 2098
Q 3938 1781 3938 1306
Q 3938 681 3513 340
Q 3088 0 2303 0
L 628 0
L 628 4666
z
" transform="scale(0.015625)"/>
      <path id="DejaVuSans-48" d="M 628 4666
L 1259 4666
L 1259 2753
L 3553 2753
L 3553 4666
L 4184 4666
L 4184 0
L 3553 0
L 3553 2222
L 1259 2222
L 1259 0
L 628 0
L 628 4666
z
" transform="scale(0.015625)"/>
      <path id="DejaVuSans-5f" d="M 3263 -1063
L 3263 -1509
L -63 -1509
L -63 -1063
L 3263 -1063
z
" transform="scale(0.015625)"/>
      <path id="DejaVuSans-76" d="M 191 3500
L 800 3500
L 1894 563
L 2988 3500
L 3597 3500
L 2284 0
L 1503 0
L 191 3500
z
" transform="scale(0.015625)"/>
      <path id="DejaVuSans-46" d="M 628 4666
L 3309 4666
L 3309 4134
L 1259 4134
L 1259 2759
L 3109 2759
L 3109 2228
L 1259 2228
L 1259 0
L 628 0
L 628 4666
z
" transform="scale(0.015625)"/>
     </defs>
     <use xlink:href="#DejaVuSans-53"/>
     <use xlink:href="#DejaVuSans-70" transform="translate(63.476562 0)"/>
     <use xlink:href="#DejaVuSans-65" transform="translate(126.953125 0)"/>
     <use xlink:href="#DejaVuSans-61" transform="translate(188.476562 0)"/>
     <use xlink:href="#DejaVuSans-72" transform="translate(249.755859 0)"/>
     <use xlink:href="#DejaVuSans-6d" transform="translate(289.119141 0)"/>
     <use xlink:href="#DejaVuSans-61" transform="translate(386.53125 0)"/>
     <use xlink:href="#DejaVuSans-6e" transform="translate(447.810547 0)"/>
     <use xlink:href="#DejaVuSans-20" transform="translate(511.189453 0)"/>
     <use xlink:href="#DejaVuSans-63" transform="translate(542.976562 0)"/>
     <use xlink:href="#DejaVuSans-6f" transform="translate(597.957031 0)"/>
     <use xlink:href="#DejaVuSans-72" transform="translate(659.138672 0)"/>
     <use xlink:href="#DejaVuSans-72" transform="translate(698.501953 0)"/>
     <use xlink:href="#DejaVuSans-65" transform="translate(737.365234 0)"/>
     <use xlink:href="#DejaVuSans-6c" transform="translate(798.888672 0)"/>
     <use xlink:href="#DejaVuSans-61" transform="translate(826.671875 0)"/>
     <use xlink:href="#DejaVuSans-74" transform="translate(887.951172 0)"/>
     <use xlink:href="#DejaVuSans-69" transform="translate(927.160156 0)"/>
     <use xlink:href="#DejaVuSans-6f" transform="translate(954.943359 0)"/>
     <use xlink:href="#DejaVuSans-6e" transform="translate(1016.125 0)"/>
     <use xlink:href="#DejaVuSans-20" transform="translate(1079.503906 0)"/>
     <use xlink:href="#DejaVuSans-66" transform="translate(1111.291016 0)"/>
     <use xlink:href="#DejaVuSans-6f" transform="translate(1146.496094 0)"/>
     <use xlink:href="#DejaVuSans-72" transform="translate(1207.677734 0)"/>
     <use xlink:href="#DejaVuSans-20" transform="translate(1248.791016 0)"/>
     <use xlink:href="#DejaVuSans-42" transform="translate(1280.578125 0)"/>
     <use xlink:href="#DejaVuSans-48" transform="translate(1349.181641 0)"/>
     <use xlink:href="#DejaVuSans-5f" transform="translate(1424.376953 0)"/>
     <use xlink:href="#DejaVuSans-76" transform="translate(1474.376953 0)"/>
     <use xlink:href="#DejaVuSans-37" transform="translate(1533.556641 0)"/>
     <use xlink:href="#DejaVuSans-5f" transform="translate(1597.179688 0)"/>
     <use xlink:href="#DejaVuSans-31" transform="translate(1647.179688 0)"/>
     <use xlink:href="#DejaVuSans-39" transform="translate(1710.802734 0)"/>
     <use xlink:href="#DejaVuSans-46" transform="translate(1774.425781 0)"/>
    </g>
   </g>
  </g>
 </g>
 <defs>
  <clipPath id="p6f32660f31">
   <rect x="114.97625" y="35.874" width="669.6" height="332.64"/>
  </clipPath>
 </defs>
</svg>
