<?xml version="1.0" encoding="utf-8" standalone="no"?>
<!DOCTYPE svg PUBLIC "-//W3C//DTD SVG 1.1//EN"
  "http://www.w3.org/Graphics/SVG/1.1/DTD/svg11.dtd">
<svg xmlns:xlink="http://www.w3.org/1999/xlink" width="766.475236pt" height="433.169pt" viewBox="0 0 766.475236 433.169" xmlns="http://www.w3.org/2000/svg" version="1.1">
 <metadata>
  <rdf:RDF xmlns:dc="http://purl.org/dc/elements/1.1/" xmlns:cc="http://creativecommons.org/ns#" xmlns:rdf="http://www.w3.org/1999/02/22-rdf-syntax-ns#">
   <cc:Work>
    <dc:type rdf:resource="http://purl.org/dc/dcmitype/StillImage"/>
    <dc:date>2025-11-02T16:33:39.611509</dc:date>
    <dc:format>image/svg+xml</dc:format>
    <dc:creator>
     <cc:Agent>
      <dc:title>Matplotlib v3.10.7, https://matplotlib.org/</dc:title>
     </cc:Agent>
    </dc:creator>
   </cc:Work>
  </rdf:RDF>
 </metadata>
 <defs>
  <style type="text/css">*{stroke-linejoin: round; stroke-linecap: butt}</style>
 </defs>
 <g id="figure_1">
  <g id="patch_1">
   <path d="M -0 433.169
L 766.475236 433.169
L 766.475236 0
L -0 0
L -0 433.169
z
" style="fill: none"/>
  </g>
  <g id="axes_1">
   <g id="patch_2">
    <path d="M 79.595 368.514
L 749.195 368.514
L 749.195 35.874
L 79.595 35.874
L 79.595 368.514
z
" style="fill: none"/>
   </g>
   <g id="matplotlib.axis_1">
    <g id="xtick_1">
     <g id="line2d_1">
      <defs>
       <path id="m89e27f7ee6" d="M 0 0
L 0 3.5
" style="stroke: #000000; stroke-width: 3"/>
      </defs>
      <g>
       <use xlink:href="#m89e27f7ee6" x="110.031364" y="368.514" style="stroke: #000000; stroke-width: 3"/>
      </g>
     </g>
     <g id="text_1">
      <!-- 0 -->
      <g transform="translate(102.396364 393.75025) scale(0.24 -0.24)">
       <defs>
        <path id="DejaVuSans-30" d="M 2034 4250
Q 1547 4250 1301 3770
Q 1056 3291 1056 2328
Q 1056 1369 1301 889
Q 1547 409 2034 409
Q 2525 409 2770 889
Q 3016 1369 3016 2328
Q 3016 3291 2770 3770
Q 2525 4250 2034 4250
z
M 2034 4750
Q 2819 4750 3233 4129
Q 3647 3509 3647 2328
Q 3647 1150 3233 529
Q 2819 -91 2034 -91
Q 1250 -91 836 529
Q 422 1150 422 2328
Q 422 3509 836 4129
Q 1250 4750 2034 4750
z
" transform="scale(0.015625)"/>
       </defs>
       <use xlink:href="#DejaVuSans-30"/>
      </g>
     </g>
    </g>
    <g id="xtick_2">
     <g id="line2d_2">
      <g>
       <use xlink:href="#m89e27f7ee6" x="187.369348" y="368.514" style="stroke: #000000; stroke-width: 3"/>
      </g>
     </g>
     <g id="text_2">
      <!-- 250 -->
      <g transform="translate(164.464348 393.75025) scale(0.24 -0.24)">
       <defs>
        <path id="DejaVuSans-32" d="M 1228 531
L 3431 531
L 3431 0
L 469 0
L 469 531
Q 828 903 1448 1529
Q 2069 2156 2228 2338
Q 2531 2678 2651 2914
Q 2772 3150 2772 3378
Q 2772 3750 2511 3984
Q 2250 4219 1831 4219
Q 1534 4219 1204 4116
Q 875 4013 500 3803
L 500 4441
Q 881 4594 1212 4672
Q 1544 4750 1819 4750
Q 2544 4750 2975 4387
Q 3406 4025 3406 3419
Q 3406 3131 3298 2873
Q 3191 2616 2906 2266
Q 2828 2175 2409 1742
Q 1991 1309 1228 531
z
" transform="scale(0.015625)"/>
        <path id="DejaVuSans-35" d="M 691 4666
L 3169 4666
L 3169 4134
L 1269 4134
L 1269 2991
Q 1406 3038 1543 3061
Q 1681 3084 1819 3084
Q 2600 3084 3056 2656
Q 3513 2228 3513 1497
Q 3513 744 3044 326
Q 2575 -91 1722 -91
Q 1428 -91 1123 -41
Q 819 9 494 109
L 494 744
Q 775 591 1075 516
Q 1375 441 1709 441
Q 2250 441 2565 725
Q 2881 1009 2881 1497
Q 2881 1984 2565 2268
Q 2250 2553 1709 2553
Q 1456 2553 1204 2497
Q 953 2441 691 2322
L 691 4666
z
" transform="scale(0.015625)"/>
       </defs>
       <use xlink:href="#DejaVuSans-32"/>
       <use xlink:href="#DejaVuSans-35" transform="translate(63.623047 0)"/>
       <use xlink:href="#DejaVuSans-30" transform="translate(127.246094 0)"/>
      </g>
     </g>
    </g>
    <g id="xtick_3">
     <g id="line2d_3">
      <g>
       <use xlink:href="#m89e27f7ee6" x="264.707332" y="368.514" style="stroke: #000000; stroke-width: 3"/>
      </g>
     </g>
     <g id="text_3">
      <!-- 500 -->
      <g transform="translate(241.802332 393.75025) scale(0.24 -0.24)">
       <use xlink:href="#DejaVuSans-35"/>
       <use xlink:href="#DejaVuSans-30" transform="translate(63.623047 0)"/>
       <use xlink:href="#DejaVuSans-30" transform="translate(127.246094 0)"/>
      </g>
     </g>
    </g>
    <g id="xtick_4">
     <g id="line2d_4">
      <g>
       <use xlink:href="#m89e27f7ee6" x="342.045316" y="368.514" style="stroke: #000000; stroke-width: 3"/>
      </g>
     </g>
     <g id="text_4">
      <!-- 750 -->
      <g transform="translate(319.140316 393.75025) scale(0.24 -0.24)">
       <defs>
        <path id="DejaVuSans-37" d="M 525 4666
L 3525 4666
L 3525 4397
L 1831 0
L 1172 0
L 2766 4134
L 525 4134
L 525 4666
z
" transform="scale(0.015625)"/>
       </defs>
       <use xlink:href="#DejaVuSans-37"/>
       <use xlink:href="#DejaVuSans-35" transform="translate(63.623047 0)"/>
       <use xlink:href="#DejaVuSans-30" transform="translate(127.246094 0)"/>
      </g>
     </g>
    </g>
    <g id="xtick_5">
     <g id="line2d_5">
      <g>
       <use xlink:href="#m89e27f7ee6" x="419.3833" y="368.514" style="stroke: #000000; stroke-width: 3"/>
      </g>
     </g>
     <g id="text_5">
      <!-- 1000 -->
      <g transform="translate(388.8433 393.75025) scale(0.24 -0.24)">
       <defs>
        <path id="DejaVuSans-31" d="M 794 531
L 1825 531
L 1825 4091
L 703 3866
L 703 4441
L 1819 4666
L 2450 4666
L 2450 531
L 3481 531
L 3481 0
L 794 0
L 794 531
z
" transform="scale(0.015625)"/>
       </defs>
       <use xlink:href="#DejaVuSans-31"/>
       <use xlink:href="#DejaVuSans-30" transform="translate(63.623047 0)"/>
       <use xlink:href="#DejaVuSans-30" transform="translate(127.246094 0)"/>
       <use xlink:href="#DejaVuSans-30" transform="translate(190.869141 0)"/>
      </g>
     </g>
    </g>
    <g id="xtick_6">
     <g id="line2d_6">
      <g>
       <use xlink:href="#m89e27f7ee6" x="496.721284" y="368.514" style="stroke: #000000; stroke-width: 3"/>
      </g>
     </g>
     <g id="text_6">
      <!-- 1250 -->
      <g transform="translate(466.181284 393.75025) scale(0.24 -0.24)">
       <use xlink:href="#DejaVuSans-31"/>
       <use xlink:href="#DejaVuSans-32" transform="translate(63.623047 0)"/>
       <use xlink:href="#DejaVuSans-35" transform="translate(127.246094 0)"/>
       <use xlink:href="#DejaVuSans-30" transform="translate(190.869141 0)"/>
      </g>
     </g>
    </g>
    <g id="xtick_7">
     <g id="line2d_7">
      <g>
       <use xlink:href="#m89e27f7ee6" x="574.059268" y="368.514" style="stroke: #000000; stroke-width: 3"/>
      </g>
     </g>
     <g id="text_7">
      <!-- 1500 -->
      <g transform="translate(543.519268 393.75025) scale(0.24 -0.24)">
       <use xlink:href="#DejaVuSans-31"/>
       <use xlink:href="#DejaVuSans-35" transform="translate(63.623047 0)"/>
       <use xlink:href="#DejaVuSans-30" transform="translate(127.246094 0)"/>
       <use xlink:href="#DejaVuSans-30" transform="translate(190.869141 0)"/>
      </g>
     </g>
    </g>
    <g id="xtick_8">
     <g id="line2d_8">
      <g>
       <use xlink:href="#m89e27f7ee6" x="651.397252" y="368.514" style="stroke: #000000; stroke-width: 3"/>
      </g>
     </g>
     <g id="text_8">
      <!-- 1750 -->
      <g transform="translate(620.857252 393.75025) scale(0.24 -0.24)">
       <use xlink:href="#DejaVuSans-31"/>
       <use xlink:href="#DejaVuSans-37" transform="translate(63.623047 0)"/>
       <use xlink:href="#DejaVuSans-35" transform="translate(127.246094 0)"/>
       <use xlink:href="#DejaVuSans-30" transform="translate(190.869141 0)"/>
      </g>
     </g>
    </g>
    <g id="xtick_9">
     <g id="line2d_9">
      <g>
       <use xlink:href="#m89e27f7ee6" x="728.735236" y="368.514" style="stroke: #000000; stroke-width: 3"/>
      </g>
     </g>
     <g id="text_9">
      <!-- 2000 -->
      <g transform="translate(698.195236 393.75025) scale(0.24 -0.24)">
       <use xlink:href="#DejaVuSans-32"/>
       <use xlink:href="#DejaVuSans-30" transform="translate(63.623047 0)"/>
       <use xlink:href="#DejaVuSans-30" transform="translate(127.246094 0)"/>
       <use xlink:href="#DejaVuSans-30" transform="translate(190.869141 0)"/>
      </g>
     </g>
    </g>
    <g id="text_10">
     <!-- Time / min -->
     <g transform="translate(350.736875 420.97775) scale(0.24 -0.24)">
      <defs>
       <path id="DejaVuSans-54" d="M -19 4666
L 3928 4666
L 3928 4134
L 2272 4134
L 2272 0
L 1638 0
L 1638 4134
L -19 4134
L -19 4666
z
" transform="scale(0.015625)"/>
       <path id="DejaVuSans-69" d="M 603 3500
L 1178 3500
L 1178 0
L 603 0
L 603 3500
z
M 603 4863
L 1178 4863
L 1178 4134
L 603 4134
L 603 4863
z
" transform="scale(0.015625)"/>
       <path id="DejaVuSans-6d" d="M 3328 2828
Q 3544 3216 3844 3400
Q 4144 3584 4550 3584
Q 5097 3584 5394 3201
Q 5691 2819 5691 2113
L 5691 0
L 5113 0
L 5113 2094
Q 5113 2597 4934 2840
Q 4756 3084 4391 3084
Q 3944 3084 3684 2787
Q 3425 2491 3425 1978
L 3425 0
L 2847 0
L 2847 2094
Q 2847 2600 2669 2842
Q 2491 3084 2119 3084
Q 1678 3084 1418 2786
Q 1159 2488 1159 1978
L 1159 0
L 581 0
L 581 3500
L 1159 3500
L 1159 2956
Q 1356 3278 1631 3431
Q 1906 3584 2284 3584
Q 2666 3584 2933 3390
Q 3200 3197 3328 2828
z
" transform="scale(0.015625)"/>
       <path id="DejaVuSans-65" d="M 3597 1894
L 3597 1613
L 953 1613
Q 991 1019 1311 708
Q 1631 397 2203 397
Q 2534 397 2845 478
Q 3156 559 3463 722
L 3463 178
Q 3153 47 2828 -22
Q 2503 -91 2169 -91
Q 1331 -91 842 396
Q 353 884 353 1716
Q 353 2575 817 3079
Q 1281 3584 2069 3584
Q 2775 3584 3186 3129
Q 3597 2675 3597 1894
z
M 3022 2063
Q 3016 2534 2758 2815
Q 2500 3097 2075 3097
Q 1594 3097 1305 2825
Q 1016 2553 972 2059
L 3022 2063
z
" transform="scale(0.015625)"/>
       <path id="DejaVuSans-20" transform="scale(0.015625)"/>
       <path id="DejaVuSans-2f" d="M 1625 4666
L 2156 4666
L 531 -594
L 0 -594
L 1625 4666
z
" transform="scale(0.015625)"/>
       <path id="DejaVuSans-6e" d="M 3513 2113
L 3513 0
L 2938 0
L 2938 2094
Q 2938 2591 2744 2837
Q 2550 3084 2163 3084
Q 1697 3084 1428 2787
Q 1159 2491 1159 1978
L 1159 0
L 581 0
L 581 3500
L 1159 3500
L 1159 2956
Q 1366 3272 1645 3428
Q 1925 3584 2291 3584
Q 2894 3584 3203 3211
Q 3513 2838 3513 2113
z
" transform="scale(0.015625)"/>
      </defs>
      <use xlink:href="#DejaVuSans-54"/>
      <use xlink:href="#DejaVuSans-69" transform="translate(57.958984 0)"/>
      <use xlink:href="#DejaVuSans-6d" transform="translate(85.742188 0)"/>
      <use xlink:href="#DejaVuSans-65" transform="translate(183.154297 0)"/>
      <use xlink:href="#DejaVuSans-20" transform="translate(244.677734 0)"/>
      <use xlink:href="#DejaVuSans-2f" transform="translate(276.464844 0)"/>
      <use xlink:href="#DejaVuSans-20" transform="translate(310.15625 0)"/>
      <use xlink:href="#DejaVuSans-6d" transform="translate(341.943359 0)"/>
      <use xlink:href="#DejaVuSans-69" transform="translate(439.355469 0)"/>
      <use xlink:href="#DejaVuSans-6e" transform="translate(467.138672 0)"/>
     </g>
    </g>
   </g>
   <g id="matplotlib.axis_2">
    <g id="ytick_1">
     <g id="line2d_10">
      <defs>
       <path id="m4cabe5819d" d="M 0 0
L -3.5 0
" style="stroke: #000000; stroke-width: 3"/>
      </defs>
      <g>
       <use xlink:href="#m4cabe5819d" x="79.595" y="353.394" style="stroke: #000000; stroke-width: 3"/>
      </g>
     </g>
     <g id="text_11">
      <!-- 0.0 -->
      <g transform="translate(34.4275 362.512125) scale(0.24 -0.24)">
       <defs>
        <path id="DejaVuSans-2e" d="M 684 794
L 1344 794
L 1344 0
L 684 0
L 684 794
z
" transform="scale(0.015625)"/>
       </defs>
       <use xlink:href="#DejaVuSans-30"/>
       <use xlink:href="#DejaVuSans-2e" transform="translate(63.623047 0)"/>
       <use xlink:href="#DejaVuSans-30" transform="translate(95.410156 0)"/>
      </g>
     </g>
    </g>
    <g id="ytick_2">
     <g id="line2d_11">
      <g>
       <use xlink:href="#m4cabe5819d" x="79.595" y="292.914" style="stroke: #000000; stroke-width: 3"/>
      </g>
     </g>
     <g id="text_12">
      <!-- 0.2 -->
      <g transform="translate(34.4275 302.032125) scale(0.24 -0.24)">
       <use xlink:href="#DejaVuSans-30"/>
       <use xlink:href="#DejaVuSans-2e" transform="translate(63.623047 0)"/>
       <use xlink:href="#DejaVuSans-32" transform="translate(95.410156 0)"/>
      </g>
     </g>
    </g>
    <g id="ytick_3">
     <g id="line2d_12">
      <g>
       <use xlink:href="#m4cabe5819d" x="79.595" y="232.434" style="stroke: #000000; stroke-width: 3"/>
      </g>
     </g>
     <g id="text_13">
      <!-- 0.4 -->
      <g transform="translate(34.4275 241.552125) scale(0.24 -0.24)">
       <defs>
        <path id="DejaVuSans-34" d="M 2419 4116
L 825 1625
L 2419 1625
L 2419 4116
z
M 2253 4666
L 3047 4666
L 3047 1625
L 3713 1625
L 3713 1100
L 3047 1100
L 3047 0
L 2419 0
L 2419 1100
L 313 1100
L 313 1709
L 2253 4666
z
" transform="scale(0.015625)"/>
       </defs>
       <use xlink:href="#DejaVuSans-30"/>
       <use xlink:href="#DejaVuSans-2e" transform="translate(63.623047 0)"/>
       <use xlink:href="#DejaVuSans-34" transform="translate(95.410156 0)"/>
      </g>
     </g>
    </g>
    <g id="ytick_4">
     <g id="line2d_13">
      <g>
       <use xlink:href="#m4cabe5819d" x="79.595" y="171.954" style="stroke: #000000; stroke-width: 3"/>
      </g>
     </g>
     <g id="text_14">
      <!-- 0.6 -->
      <g transform="translate(34.4275 181.072125) scale(0.24 -0.24)">
       <defs>
        <path id="DejaVuSans-36" d="M 2113 2584
Q 1688 2584 1439 2293
Q 1191 2003 1191 1497
Q 1191 994 1439 701
Q 1688 409 2113 409
Q 2538 409 2786 701
Q 3034 994 3034 1497
Q 3034 2003 2786 2293
Q 2538 2584 2113 2584
z
M 3366 4563
L 3366 3988
Q 3128 4100 2886 4159
Q 2644 4219 2406 4219
Q 1781 4219 1451 3797
Q 1122 3375 1075 2522
Q 1259 2794 1537 2939
Q 1816 3084 2150 3084
Q 2853 3084 3261 2657
Q 3669 2231 3669 1497
Q 3669 778 3244 343
Q 2819 -91 2113 -91
Q 1303 -91 875 529
Q 447 1150 447 2328
Q 447 3434 972 4092
Q 1497 4750 2381 4750
Q 2619 4750 2861 4703
Q 3103 4656 3366 4563
z
" transform="scale(0.015625)"/>
       </defs>
       <use xlink:href="#DejaVuSans-30"/>
       <use xlink:href="#DejaVuSans-2e" transform="translate(63.623047 0)"/>
       <use xlink:href="#DejaVuSans-36" transform="translate(95.410156 0)"/>
      </g>
     </g>
    </g>
    <g id="ytick_5">
     <g id="line2d_14">
      <g>
       <use xlink:href="#m4cabe5819d" x="79.595" y="111.474" style="stroke: #000000; stroke-width: 3"/>
      </g>
     </g>
     <g id="text_15">
      <!-- 0.8 -->
      <g transform="translate(34.4275 120.592125) scale(0.24 -0.24)">
       <defs>
        <path id="DejaVuSans-38" d="M 2034 2216
Q 1584 2216 1326 1975
Q 1069 1734 1069 1313
Q 1069 891 1326 650
Q 1584 409 2034 409
Q 2484 409 2743 651
Q 3003 894 3003 1313
Q 3003 1734 2745 1975
Q 2488 2216 2034 2216
z
M 1403 2484
Q 997 2584 770 2862
Q 544 3141 544 3541
Q 544 4100 942 4425
Q 1341 4750 2034 4750
Q 2731 4750 3128 4425
Q 3525 4100 3525 3541
Q 3525 3141 3298 2862
Q 3072 2584 2669 2484
Q 3125 2378 3379 2068
Q 3634 1759 3634 1313
Q 3634 634 3220 271
Q 2806 -91 2034 -91
Q 1263 -91 848 271
Q 434 634 434 1313
Q 434 1759 690 2068
Q 947 2378 1403 2484
z
M 1172 3481
Q 1172 3119 1398 2916
Q 1625 2713 2034 2713
Q 2441 2713 2670 2916
Q 2900 3119 2900 3481
Q 2900 3844 2670 4047
Q 2441 4250 2034 4250
Q 1625 4250 1398 4047
Q 1172 3844 1172 3481
z
" transform="scale(0.015625)"/>
       </defs>
       <use xlink:href="#DejaVuSans-30"/>
       <use xlink:href="#DejaVuSans-2e" transform="translate(63.623047 0)"/>
       <use xlink:href="#DejaVuSans-38" transform="translate(95.410156 0)"/>
      </g>
     </g>
    </g>
    <g id="ytick_6">
     <g id="line2d_15">
      <g>
       <use xlink:href="#m4cabe5819d" x="79.595" y="50.994" style="stroke: #000000; stroke-width: 3"/>
      </g>
     </g>
     <g id="text_16">
      <!-- 1.0 -->
      <g transform="translate(34.4275 60.112125) scale(0.24 -0.24)">
       <use xlink:href="#DejaVuSans-31"/>
       <use xlink:href="#DejaVuSans-2e" transform="translate(63.623047 0)"/>
       <use xlink:href="#DejaVuSans-30" transform="translate(95.410156 0)"/>
      </g>
     </g>
    </g>
    <g id="text_17">
     <!-- Jaccard index -->
     <g transform="translate(25.43625 282.625875) rotate(-90) scale(0.24 -0.24)">
      <defs>
       <path id="DejaVuSans-4a" d="M 628 4666
L 1259 4666
L 1259 325
Q 1259 -519 939 -900
Q 619 -1281 -91 -1281
L -331 -1281
L -331 -750
L -134 -750
Q 284 -750 456 -515
Q 628 -281 628 325
L 628 4666
z
" transform="scale(0.015625)"/>
       <path id="DejaVuSans-61" d="M 2194 1759
Q 1497 1759 1228 1600
Q 959 1441 959 1056
Q 959 750 1161 570
Q 1363 391 1709 391
Q 2188 391 2477 730
Q 2766 1069 2766 1631
L 2766 1759
L 2194 1759
z
M 3341 1997
L 3341 0
L 2766 0
L 2766 531
Q 2569 213 2275 61
Q 1981 -91 1556 -91
Q 1019 -91 701 211
Q 384 513 384 1019
Q 384 1609 779 1909
Q 1175 2209 1959 2209
L 2766 2209
L 2766 2266
Q 2766 2663 2505 2880
Q 2244 3097 1772 3097
Q 1472 3097 1187 3025
Q 903 2953 641 2809
L 641 3341
Q 956 3463 1253 3523
Q 1550 3584 1831 3584
Q 2591 3584 2966 3190
Q 3341 2797 3341 1997
z
" transform="scale(0.015625)"/>
       <path id="DejaVuSans-63" d="M 3122 3366
L 3122 2828
Q 2878 2963 2633 3030
Q 2388 3097 2138 3097
Q 1578 3097 1268 2742
Q 959 2388 959 1747
Q 959 1106 1268 751
Q 1578 397 2138 397
Q 2388 397 2633 464
Q 2878 531 3122 666
L 3122 134
Q 2881 22 2623 -34
Q 2366 -91 2075 -91
Q 1284 -91 818 406
Q 353 903 353 1747
Q 353 2603 823 3093
Q 1294 3584 2113 3584
Q 2378 3584 2631 3529
Q 2884 3475 3122 3366
z
" transform="scale(0.015625)"/>
       <path id="DejaVuSans-72" d="M 2631 2963
Q 2534 3019 2420 3045
Q 2306 3072 2169 3072
Q 1681 3072 1420 2755
Q 1159 2438 1159 1844
L 1159 0
L 581 0
L 581 3500
L 1159 3500
L 1159 2956
Q 1341 3275 1631 3429
Q 1922 3584 2338 3584
Q 2397 3584 2469 3576
Q 2541 3569 2628 3553
L 2631 2963
z
" transform="scale(0.015625)"/>
       <path id="DejaVuSans-64" d="M 2906 2969
L 2906 4863
L 3481 4863
L 3481 0
L 2906 0
L 2906 525
Q 2725 213 2448 61
Q 2172 -91 1784 -91
Q 1150 -91 751 415
Q 353 922 353 1747
Q 353 2572 751 3078
Q 1150 3584 1784 3584
Q 2172 3584 2448 3432
Q 2725 3281 2906 2969
z
M 947 1747
Q 947 1113 1208 752
Q 1469 391 1925 391
Q 2381 391 2643 752
Q 2906 1113 2906 1747
Q 2906 2381 2643 2742
Q 2381 3103 1925 3103
Q 1469 3103 1208 2742
Q 947 2381 947 1747
z
" transform="scale(0.015625)"/>
       <path id="DejaVuSans-78" d="M 3513 3500
L 2247 1797
L 3578 0
L 2900 0
L 1881 1375
L 863 0
L 184 0
L 1544 1831
L 300 3500
L 978 3500
L 1906 2253
L 2834 3500
L 3513 3500
z
" transform="scale(0.015625)"/>
      </defs>
      <use xlink:href="#DejaVuSans-4a"/>
      <use xlink:href="#DejaVuSans-61" transform="translate(29.492188 0)"/>
      <use xlink:href="#DejaVuSans-63" transform="translate(90.771484 0)"/>
      <use xlink:href="#DejaVuSans-63" transform="translate(145.751953 0)"/>
      <use xlink:href="#DejaVuSans-61" transform="translate(200.732422 0)"/>
      <use xlink:href="#DejaVuSans-72" transform="translate(262.011719 0)"/>
      <use xlink:href="#DejaVuSans-64" transform="translate(301.375 0)"/>
      <use xlink:href="#DejaVuSans-20" transform="translate(364.851562 0)"/>
      <use xlink:href="#DejaVuSans-69" transform="translate(396.638672 0)"/>
      <use xlink:href="#DejaVuSans-6e" transform="translate(424.421875 0)"/>
      <use xlink:href="#DejaVuSans-64" transform="translate(487.800781 0)"/>
      <use xlink:href="#DejaVuSans-65" transform="translate(551.277344 0)"/>
      <use xlink:href="#DejaVuSans-78" transform="translate(611.050781 0)"/>
     </g>
    </g>
   </g>
   <g id="line2d_16">
    <path d="M 110.031364 62.472122
L 116.104973 171.690713
L 121.379424 232.560425
L 126.205314 270.121752
L 131.031204 295.929486
L 135.867406 313.692741
L 140.693296 325.866353
L 145.519187 334.23063
L 150.345077 339.977579
L 155.176123 343.929684
L 160.007169 346.644017
L 164.843371 348.50988
L 171.592399 350.178632
L 176.413133 350.934507
L 181.239024 351.454522
L 186.064914 351.811816
L 191.633249 352.087547
L 196.459139 352.246756
L 201.290185 352.356242
L 206.126387 352.431504
L 210.957433 352.483128
L 215.814258 352.51874
L 222.552975 352.55039
L 227.384021 352.56478
L 232.230534 352.574689
L 237.056425 352.581463
L 241.892627 352.586125
L 246.718517 352.58932
L 251.544407 352.591516
L 256.375453 352.593025
L 261.206499 352.594062
L 266.042701 352.594775
L 272.796885 352.595413
L 277.622775 352.595702
L 282.453821 352.5959
L 287.290023 352.596037
L 292.126225 352.596131
L 296.952115 352.596195
L 301.788317 352.596239
L 306.629675 352.596269
L 311.460721 352.59629
L 316.286611 352.596305
L 323.045951 352.596317
L 327.882153 352.596323
L 332.723511 352.596327
L 337.559713 352.59633
L 342.395915 352.596332
L 347.226961 352.596333
L 352.063163 352.596334
L 356.904521 352.596335
L 361.740723 352.596335
L 366.566613 352.596335
L 373.315641 352.596336
L 378.156999 352.596336
L 382.998356 352.596336
L 387.824247 352.596336
L 392.665604 352.596336
L 397.558521 352.596336
L 402.399879 352.596336
L 407.230925 352.596336
L 412.061971 352.596336
L 416.893017 352.596336
L 423.657513 352.596336
L 428.49887 352.596336
L 433.335072 352.596336
L 438.166118 352.596336
L 443.00232 352.596336
L 447.843678 352.596336
L 452.721127 352.596336
L 457.552173 352.596336
L 462.383219 352.596336
L 467.209109 352.596336
L 473.968449 352.596336
L 478.799495 352.596336
L 483.635697 352.596336
L 488.466743 352.596336
L 493.297789 352.596336
L 498.139147 352.596336
L 502.970193 352.596336
L 507.811551 352.596336
L 512.637441 352.596336
L 517.473643 352.596336
L 524.243295 352.596336
L 529.084652 352.596336
L 533.92601 352.596336
L 538.762212 352.596336
L 543.598414 352.596336
L 548.42946 352.596336
L 553.275974 352.596336
L 558.10702 352.596336
L 562.948378 352.596336
L 567.78458 352.596336
L 574.538764 352.596336
L 579.385277 352.596336
L 584.221479 352.596336
L 589.057681 352.596336
L 593.893883 352.596336
L 598.735241 352.596336
L 603.566287 352.596336
L 608.412801 352.596336
L 613.249003 352.596336
L 618.085205 352.596336
L 624.8497 352.596336
L 629.696214 352.596336
L 634.522104 352.596336
L 639.373774 352.596336
L 644.215131 352.596336
L 649.046178 352.596336
L 653.887535 352.596336
L 658.734049 352.596336
L 663.565095 352.596336
L 668.401297 352.596336
L 675.165793 352.596336
L 680.012306 352.596336
L 684.843352 352.596336
L 689.689866 352.596336
L 694.567315 352.596336
L 699.398361 352.596336
L 704.244875 352.596336
L 709.081077 352.596336
L 713.922434 352.596336
L 718.758636 352.596336
" clip-path="url(#p535907231d)" style="fill: none; stroke: #ff0000; stroke-width: 1.5; stroke-linecap: square"/>
   </g>
   <g id="line2d_17">
    <defs>
     <path id="mf9adb3909a" d="M 0 3
C 0.795609 3 1.55874 2.683901 2.12132 2.12132
C 2.683901 1.55874 3 0.795609 3 0
C 3 -0.795609 2.683901 -1.55874 2.12132 -2.12132
C 1.55874 -2.683901 0.795609 -3 0 -3
C -0.795609 -3 -1.55874 -2.683901 -2.12132 -2.12132
C -2.683901 -1.55874 -3 -0.795609 -3 0
C -3 0.795609 -2.683901 1.55874 -2.12132 2.12132
C -1.55874 2.683901 -0.795609 3 0 3
z
" style="stroke: #1f77b4"/>
    </defs>
    <g clip-path="url(#p535907231d)">
     <use xlink:href="#mf9adb3909a" x="110.031364" y="50.994" style="fill: #1f77b4; stroke: #1f77b4"/>
     <use xlink:href="#mf9adb3909a" x="116.104973" y="190.431528" style="fill: #1f77b4; stroke: #1f77b4"/>
     <use xlink:href="#mf9adb3909a" x="121.379424" y="241.076613" style="fill: #1f77b4; stroke: #1f77b4"/>
     <use xlink:href="#mf9adb3909a" x="126.205314" y="270.846123" style="fill: #1f77b4; stroke: #1f77b4"/>
     <use xlink:href="#mf9adb3909a" x="131.031204" y="289.231607" style="fill: #1f77b4; stroke: #1f77b4"/>
     <use xlink:href="#mf9adb3909a" x="135.867406" y="305.088315" style="fill: #1f77b4; stroke: #1f77b4"/>
     <use xlink:href="#mf9adb3909a" x="140.693296" y="320.33531" style="fill: #1f77b4; stroke: #1f77b4"/>
     <use xlink:href="#mf9adb3909a" x="145.519187" y="328.675025" style="fill: #1f77b4; stroke: #1f77b4"/>
     <use xlink:href="#mf9adb3909a" x="150.345077" y="333.593384" style="fill: #1f77b4; stroke: #1f77b4"/>
     <use xlink:href="#mf9adb3909a" x="155.176123" y="338.344806" style="fill: #1f77b4; stroke: #1f77b4"/>
     <use xlink:href="#mf9adb3909a" x="160.007169" y="344.305776" style="fill: #1f77b4; stroke: #1f77b4"/>
     <use xlink:href="#mf9adb3909a" x="164.843371" y="344.888684" style="fill: #1f77b4; stroke: #1f77b4"/>
     <use xlink:href="#mf9adb3909a" x="171.592399" y="347.416555" style="fill: #1f77b4; stroke: #1f77b4"/>
     <use xlink:href="#mf9adb3909a" x="176.413133" y="347.61853" style="fill: #1f77b4; stroke: #1f77b4"/>
     <use xlink:href="#mf9adb3909a" x="181.239024" y="350.287738" style="fill: #1f77b4; stroke: #1f77b4"/>
     <use xlink:href="#mf9adb3909a" x="186.064914" y="348.705251" style="fill: #1f77b4; stroke: #1f77b4"/>
     <use xlink:href="#mf9adb3909a" x="191.633249" y="347.84665" style="fill: #1f77b4; stroke: #1f77b4"/>
     <use xlink:href="#mf9adb3909a" x="196.459139" y="349.433376" style="fill: #1f77b4; stroke: #1f77b4"/>
     <use xlink:href="#mf9adb3909a" x="201.290185" y="350.402813" style="fill: #1f77b4; stroke: #1f77b4"/>
     <use xlink:href="#mf9adb3909a" x="206.126387" y="350.54949" style="fill: #1f77b4; stroke: #1f77b4"/>
     <use xlink:href="#mf9adb3909a" x="210.957433" y="350.602192" style="fill: #1f77b4; stroke: #1f77b4"/>
     <use xlink:href="#mf9adb3909a" x="215.814258" y="351.145611" style="fill: #1f77b4; stroke: #1f77b4"/>
     <use xlink:href="#mf9adb3909a" x="222.552975" y="350.711595" style="fill: #1f77b4; stroke: #1f77b4"/>
     <use xlink:href="#mf9adb3909a" x="227.384021" y="351.139669" style="fill: #1f77b4; stroke: #1f77b4"/>
     <use xlink:href="#mf9adb3909a" x="232.230534" y="352.079784" style="fill: #1f77b4; stroke: #1f77b4"/>
     <use xlink:href="#mf9adb3909a" x="237.056425" y="351.425396" style="fill: #1f77b4; stroke: #1f77b4"/>
     <use xlink:href="#mf9adb3909a" x="241.892627" y="351.512254" style="fill: #1f77b4; stroke: #1f77b4"/>
     <use xlink:href="#mf9adb3909a" x="246.718517" y="351.462169" style="fill: #1f77b4; stroke: #1f77b4"/>
     <use xlink:href="#mf9adb3909a" x="251.544407" y="351.960818" style="fill: #1f77b4; stroke: #1f77b4"/>
     <use xlink:href="#mf9adb3909a" x="256.375453" y="352.005216" style="fill: #1f77b4; stroke: #1f77b4"/>
     <use xlink:href="#mf9adb3909a" x="261.206499" y="351.9889" style="fill: #1f77b4; stroke: #1f77b4"/>
     <use xlink:href="#mf9adb3909a" x="266.042701" y="351.957475" style="fill: #1f77b4; stroke: #1f77b4"/>
     <use xlink:href="#mf9adb3909a" x="272.796885" y="352.516477" style="fill: #1f77b4; stroke: #1f77b4"/>
     <use xlink:href="#mf9adb3909a" x="277.622775" y="352.502804" style="fill: #1f77b4; stroke: #1f77b4"/>
     <use xlink:href="#mf9adb3909a" x="282.453821" y="352.466846" style="fill: #1f77b4; stroke: #1f77b4"/>
     <use xlink:href="#mf9adb3909a" x="287.290023" y="352.996031" style="fill: #1f77b4; stroke: #1f77b4"/>
     <use xlink:href="#mf9adb3909a" x="292.126225" y="352.519825" style="fill: #1f77b4; stroke: #1f77b4"/>
     <use xlink:href="#mf9adb3909a" x="296.952115" y="352.475757" style="fill: #1f77b4; stroke: #1f77b4"/>
     <use xlink:href="#mf9adb3909a" x="301.788317" y="352.493574" style="fill: #1f77b4; stroke: #1f77b4"/>
     <use xlink:href="#mf9adb3909a" x="306.629675" y="352.519171" style="fill: #1f77b4; stroke: #1f77b4"/>
     <use xlink:href="#mf9adb3909a" x="311.460721" y="352.53303" style="fill: #1f77b4; stroke: #1f77b4"/>
     <use xlink:href="#mf9adb3909a" x="316.286611" y="352.986374" style="fill: #1f77b4; stroke: #1f77b4"/>
     <use xlink:href="#mf9adb3909a" x="323.045951" y="353.394" style="fill: #1f77b4; stroke: #1f77b4"/>
     <use xlink:href="#mf9adb3909a" x="327.882153" y="353.394" style="fill: #1f77b4; stroke: #1f77b4"/>
     <use xlink:href="#mf9adb3909a" x="332.723511" y="353.016958" style="fill: #1f77b4; stroke: #1f77b4"/>
     <use xlink:href="#mf9adb3909a" x="337.559713" y="352.989694" style="fill: #1f77b4; stroke: #1f77b4"/>
     <use xlink:href="#mf9adb3909a" x="342.395915" y="353.005958" style="fill: #1f77b4; stroke: #1f77b4"/>
     <use xlink:href="#mf9adb3909a" x="347.226961" y="353.394" style="fill: #1f77b4; stroke: #1f77b4"/>
     <use xlink:href="#mf9adb3909a" x="352.063163" y="353.394" style="fill: #1f77b4; stroke: #1f77b4"/>
     <use xlink:href="#mf9adb3909a" x="356.904521" y="353.394" style="fill: #1f77b4; stroke: #1f77b4"/>
     <use xlink:href="#mf9adb3909a" x="361.740723" y="353.394" style="fill: #1f77b4; stroke: #1f77b4"/>
     <use xlink:href="#mf9adb3909a" x="366.566613" y="353.394" style="fill: #1f77b4; stroke: #1f77b4"/>
     <use xlink:href="#mf9adb3909a" x="373.315641" y="353.394" style="fill: #1f77b4; stroke: #1f77b4"/>
     <use xlink:href="#mf9adb3909a" x="378.156999" y="353.394" style="fill: #1f77b4; stroke: #1f77b4"/>
     <use xlink:href="#mf9adb3909a" x="382.998356" y="353.394" style="fill: #1f77b4; stroke: #1f77b4"/>
     <use xlink:href="#mf9adb3909a" x="387.824247" y="353.394" style="fill: #1f77b4; stroke: #1f77b4"/>
     <use xlink:href="#mf9adb3909a" x="392.665604" y="353.394" style="fill: #1f77b4; stroke: #1f77b4"/>
     <use xlink:href="#mf9adb3909a" x="397.558521" y="353.394" style="fill: #1f77b4; stroke: #1f77b4"/>
     <use xlink:href="#mf9adb3909a" x="402.399879" y="353.394" style="fill: #1f77b4; stroke: #1f77b4"/>
     <use xlink:href="#mf9adb3909a" x="407.230925" y="353.394" style="fill: #1f77b4; stroke: #1f77b4"/>
     <use xlink:href="#mf9adb3909a" x="412.061971" y="353.394" style="fill: #1f77b4; stroke: #1f77b4"/>
     <use xlink:href="#mf9adb3909a" x="416.893017" y="353.394" style="fill: #1f77b4; stroke: #1f77b4"/>
     <use xlink:href="#mf9adb3909a" x="423.657513" y="353.394" style="fill: #1f77b4; stroke: #1f77b4"/>
     <use xlink:href="#mf9adb3909a" x="428.49887" y="353.394" style="fill: #1f77b4; stroke: #1f77b4"/>
     <use xlink:href="#mf9adb3909a" x="433.335072" y="353.394" style="fill: #1f77b4; stroke: #1f77b4"/>
     <use xlink:href="#mf9adb3909a" x="438.166118" y="353.394" style="fill: #1f77b4; stroke: #1f77b4"/>
     <use xlink:href="#mf9adb3909a" x="443.00232" y="353.394" style="fill: #1f77b4; stroke: #1f77b4"/>
     <use xlink:href="#mf9adb3909a" x="447.843678" y="353.394" style="fill: #1f77b4; stroke: #1f77b4"/>
     <use xlink:href="#mf9adb3909a" x="452.721127" y="353.394" style="fill: #1f77b4; stroke: #1f77b4"/>
     <use xlink:href="#mf9adb3909a" x="457.552173" y="353.394" style="fill: #1f77b4; stroke: #1f77b4"/>
     <use xlink:href="#mf9adb3909a" x="462.383219" y="353.394" style="fill: #1f77b4; stroke: #1f77b4"/>
     <use xlink:href="#mf9adb3909a" x="467.209109" y="353.394" style="fill: #1f77b4; stroke: #1f77b4"/>
     <use xlink:href="#mf9adb3909a" x="473.968449" y="353.394" style="fill: #1f77b4; stroke: #1f77b4"/>
     <use xlink:href="#mf9adb3909a" x="478.799495" y="353.394" style="fill: #1f77b4; stroke: #1f77b4"/>
     <use xlink:href="#mf9adb3909a" x="483.635697" y="353.394" style="fill: #1f77b4; stroke: #1f77b4"/>
     <use xlink:href="#mf9adb3909a" x="488.466743" y="353.394" style="fill: #1f77b4; stroke: #1f77b4"/>
     <use xlink:href="#mf9adb3909a" x="493.297789" y="353.394" style="fill: #1f77b4; stroke: #1f77b4"/>
     <use xlink:href="#mf9adb3909a" x="498.139147" y="352.99032" style="fill: #1f77b4; stroke: #1f77b4"/>
     <use xlink:href="#mf9adb3909a" x="502.970193" y="353.394" style="fill: #1f77b4; stroke: #1f77b4"/>
     <use xlink:href="#mf9adb3909a" x="507.811551" y="353.394" style="fill: #1f77b4; stroke: #1f77b4"/>
     <use xlink:href="#mf9adb3909a" x="512.637441" y="353.394" style="fill: #1f77b4; stroke: #1f77b4"/>
     <use xlink:href="#mf9adb3909a" x="517.473643" y="353.394" style="fill: #1f77b4; stroke: #1f77b4"/>
     <use xlink:href="#mf9adb3909a" x="524.243295" y="353.394" style="fill: #1f77b4; stroke: #1f77b4"/>
     <use xlink:href="#mf9adb3909a" x="529.084652" y="353.394" style="fill: #1f77b4; stroke: #1f77b4"/>
     <use xlink:href="#mf9adb3909a" x="533.92601" y="353.394" style="fill: #1f77b4; stroke: #1f77b4"/>
     <use xlink:href="#mf9adb3909a" x="538.762212" y="353.394" style="fill: #1f77b4; stroke: #1f77b4"/>
     <use xlink:href="#mf9adb3909a" x="543.598414" y="353.394" style="fill: #1f77b4; stroke: #1f77b4"/>
     <use xlink:href="#mf9adb3909a" x="548.42946" y="353.394" style="fill: #1f77b4; stroke: #1f77b4"/>
     <use xlink:href="#mf9adb3909a" x="553.275974" y="352.990743" style="fill: #1f77b4; stroke: #1f77b4"/>
     <use xlink:href="#mf9adb3909a" x="558.10702" y="353.394" style="fill: #1f77b4; stroke: #1f77b4"/>
     <use xlink:href="#mf9adb3909a" x="562.948378" y="353.394" style="fill: #1f77b4; stroke: #1f77b4"/>
     <use xlink:href="#mf9adb3909a" x="567.78458" y="353.394" style="fill: #1f77b4; stroke: #1f77b4"/>
     <use xlink:href="#mf9adb3909a" x="574.538764" y="353.394" style="fill: #1f77b4; stroke: #1f77b4"/>
     <use xlink:href="#mf9adb3909a" x="579.385277" y="353.394" style="fill: #1f77b4; stroke: #1f77b4"/>
     <use xlink:href="#mf9adb3909a" x="584.221479" y="353.394" style="fill: #1f77b4; stroke: #1f77b4"/>
     <use xlink:href="#mf9adb3909a" x="589.057681" y="353.394" style="fill: #1f77b4; stroke: #1f77b4"/>
     <use xlink:href="#mf9adb3909a" x="593.893883" y="353.394" style="fill: #1f77b4; stroke: #1f77b4"/>
     <use xlink:href="#mf9adb3909a" x="598.735241" y="353.394" style="fill: #1f77b4; stroke: #1f77b4"/>
     <use xlink:href="#mf9adb3909a" x="603.566287" y="353.394" style="fill: #1f77b4; stroke: #1f77b4"/>
     <use xlink:href="#mf9adb3909a" x="608.412801" y="353.394" style="fill: #1f77b4; stroke: #1f77b4"/>
     <use xlink:href="#mf9adb3909a" x="613.249003" y="353.394" style="fill: #1f77b4; stroke: #1f77b4"/>
     <use xlink:href="#mf9adb3909a" x="618.085205" y="353.394" style="fill: #1f77b4; stroke: #1f77b4"/>
     <use xlink:href="#mf9adb3909a" x="624.8497" y="353.394" style="fill: #1f77b4; stroke: #1f77b4"/>
     <use xlink:href="#mf9adb3909a" x="629.696214" y="353.394" style="fill: #1f77b4; stroke: #1f77b4"/>
     <use xlink:href="#mf9adb3909a" x="634.522104" y="353.394" style="fill: #1f77b4; stroke: #1f77b4"/>
     <use xlink:href="#mf9adb3909a" x="639.373774" y="353.394" style="fill: #1f77b4; stroke: #1f77b4"/>
     <use xlink:href="#mf9adb3909a" x="644.215131" y="353.394" style="fill: #1f77b4; stroke: #1f77b4"/>
     <use xlink:href="#mf9adb3909a" x="649.046178" y="353.394" style="fill: #1f77b4; stroke: #1f77b4"/>
     <use xlink:href="#mf9adb3909a" x="653.887535" y="353.394" style="fill: #1f77b4; stroke: #1f77b4"/>
     <use xlink:href="#mf9adb3909a" x="658.734049" y="353.394" style="fill: #1f77b4; stroke: #1f77b4"/>
     <use xlink:href="#mf9adb3909a" x="663.565095" y="353.394" style="fill: #1f77b4; stroke: #1f77b4"/>
     <use xlink:href="#mf9adb3909a" x="668.401297" y="353.394" style="fill: #1f77b4; stroke: #1f77b4"/>
     <use xlink:href="#mf9adb3909a" x="675.165793" y="353.394" style="fill: #1f77b4; stroke: #1f77b4"/>
     <use xlink:href="#mf9adb3909a" x="680.012306" y="353.394" style="fill: #1f77b4; stroke: #1f77b4"/>
     <use xlink:href="#mf9adb3909a" x="684.843352" y="353.394" style="fill: #1f77b4; stroke: #1f77b4"/>
     <use xlink:href="#mf9adb3909a" x="689.689866" y="353.394" style="fill: #1f77b4; stroke: #1f77b4"/>
     <use xlink:href="#mf9adb3909a" x="694.567315" y="353.394" style="fill: #1f77b4; stroke: #1f77b4"/>
     <use xlink:href="#mf9adb3909a" x="699.398361" y="353.394" style="fill: #1f77b4; stroke: #1f77b4"/>
     <use xlink:href="#mf9adb3909a" x="704.244875" y="353.394" style="fill: #1f77b4; stroke: #1f77b4"/>
     <use xlink:href="#mf9adb3909a" x="709.081077" y="353.394" style="fill: #1f77b4; stroke: #1f77b4"/>
     <use xlink:href="#mf9adb3909a" x="713.922434" y="353.394" style="fill: #1f77b4; stroke: #1f77b4"/>
     <use xlink:href="#mf9adb3909a" x="718.758636" y="353.394" style="fill: #1f77b4; stroke: #1f77b4"/>
    </g>
   </g>
   <g id="line2d_18">
    <path d="M 227.384021 368.514
L 227.384021 35.874
" clip-path="url(#p535907231d)" style="fill: none; stroke-dasharray: 5.55,2.4; stroke-dashoffset: 0; stroke: #ff0000; stroke-width: 1.5"/>
   </g>
   <g id="patch_3">
    <path d="M 79.595 368.514
L 79.595 35.874
" style="fill: none; stroke: #000000; stroke-width: 3; stroke-linejoin: miter; stroke-linecap: square"/>
   </g>
   <g id="patch_4">
    <path d="M 749.195 368.514
L 749.195 35.874
" style="fill: none; stroke: #000000; stroke-width: 3; stroke-linejoin: miter; stroke-linecap: square"/>
   </g>
   <g id="patch_5">
    <path d="M 79.595 368.514
L 749.195 368.514
" style="fill: none; stroke: #000000; stroke-width: 3; stroke-linejoin: miter; stroke-linecap: square"/>
   </g>
   <g id="patch_6">
    <path d="M 79.595 35.874
L 749.195 35.874
" style="fill: none; stroke: #000000; stroke-width: 3; stroke-linejoin: miter; stroke-linecap: square"/>
   </g>
   <g id="text_18">
    <!-- Jaccard index for BH_v7_19F -->
    <g transform="translate(209.5235 29.0835) scale(0.288 -0.288)">
     <defs>
      <path id="DejaVuSans-66" d="M 2375 4863
L 2375 4384
L 1825 4384
Q 1516 4384 1395 4259
Q 1275 4134 1275 3809
L 1275 3500
L 2222 3500
L 2222 3053
L 1275 3053
L 1275 0
L 697 0
L 697 3053
L 147 3053
L 147 3500
L 697 3500
L 697 3744
Q 697 4328 969 4595
Q 1241 4863 1831 4863
L 2375 4863
z
" transform="scale(0.015625)"/>
      <path id="DejaVuSans-6f" d="M 1959 3097
Q 1497 3097 1228 2736
Q 959 2375 959 1747
Q 959 1119 1226 758
Q 1494 397 1959 397
Q 2419 397 2687 759
Q 2956 1122 2956 1747
Q 2956 2369 2687 2733
Q 2419 3097 1959 3097
z
M 1959 3584
Q 2709 3584 3137 3096
Q 3566 2609 3566 1747
Q 3566 888 3137 398
Q 2709 -91 1959 -91
Q 1206 -91 779 398
Q 353 888 353 1747
Q 353 2609 779 3096
Q 1206 3584 1959 3584
z
" transform="scale(0.015625)"/>
      <path id="DejaVuSans-42" d="M 1259 2228
L 1259 519
L 2272 519
Q 2781 519 3026 730
Q 3272 941 3272 1375
Q 3272 1813 3026 2020
Q 2781 2228 2272 2228
L 1259 2228
z
M 1259 4147
L 1259 2741
L 2194 2741
Q 2656 2741 2882 2914
Q 3109 3088 3109 3444
Q 3109 3797 2882 3972
Q 2656 4147 2194 4147
L 1259 4147
z
M 628 4666
L 2241 4666
Q 2963 4666 3353 4366
Q 3744 4066 3744 3513
Q 3744 3084 3544 2831
Q 3344 2578 2956 2516
Q 3422 2416 3680 2098
Q 3938 1781 3938 1306
Q 3938 681 3513 340
Q 3088 0 2303 0
L 628 0
L 628 4666
z
" transform="scale(0.015625)"/>
      <path id="DejaVuSans-48" d="M 628 4666
L 1259 4666
L 1259 2753
L 3553 2753
L 3553 4666
L 4184 4666
L 4184 0
L 3553 0
L 3553 2222
L 1259 2222
L 1259 0
L 628 0
L 628 4666
z
" transform="scale(0.015625)"/>
      <path id="DejaVuSans-5f" d="M 3263 -1063
L 3263 -1509
L -63 -1509
L -63 -1063
L 3263 -1063
z
" transform="scale(0.015625)"/>
      <path id="DejaVuSans-76" d="M 191 3500
L 800 3500
L 1894 563
L 2988 3500
L 3597 3500
L 2284 0
L 1503 0
L 191 3500
z
" transform="scale(0.015625)"/>
      <path id="DejaVuSans-39" d="M 703 97
L 703 672
Q 941 559 1184 500
Q 1428 441 1663 441
Q 2288 441 2617 861
Q 2947 1281 2994 2138
Q 2813 1869 2534 1725
Q 2256 1581 1919 1581
Q 1219 1581 811 2004
Q 403 2428 403 3163
Q 403 3881 828 4315
Q 1253 4750 1959 4750
Q 2769 4750 3195 4129
Q 3622 3509 3622 2328
Q 3622 1225 3098 567
Q 2575 -91 1691 -91
Q 1453 -91 1209 -44
Q 966 3 703 97
z
M 1959 2075
Q 2384 2075 2632 2365
Q 2881 2656 2881 3163
Q 2881 3666 2632 3958
Q 2384 4250 1959 4250
Q 1534 4250 1286 3958
Q 1038 3666 1038 3163
Q 1038 2656 1286 2365
Q 1534 2075 1959 2075
z
" transform="scale(0.015625)"/>
      <path id="DejaVuSans-46" d="M 628 4666
L 3309 4666
L 3309 4134
L 1259 4134
L 1259 2759
L 3109 2759
L 3109 2228
L 1259 2228
L 1259 0
L 628 0
L 628 4666
z
" transform="scale(0.015625)"/>
     </defs>
     <use xlink:href="#DejaVuSans-4a"/>
     <use xlink:href="#DejaVuSans-61" transform="translate(29.492188 0)"/>
     <use xlink:href="#DejaVuSans-63" transform="translate(90.771484 0)"/>
     <use xlink:href="#DejaVuSans-63" transform="translate(145.751953 0)"/>
     <use xlink:href="#DejaVuSans-61" transform="translate(200.732422 0)"/>
     <use xlink:href="#DejaVuSans-72" transform="translate(262.011719 0)"/>
     <use xlink:href="#DejaVuSans-64" transform="translate(301.375 0)"/>
     <use xlink:href="#DejaVuSans-20" transform="translate(364.851562 0)"/>
     <use xlink:href="#DejaVuSans-69" transform="translate(396.638672 0)"/>
     <use xlink:href="#DejaVuSans-6e" transform="translate(424.421875 0)"/>
     <use xlink:href="#DejaVuSans-64" transform="translate(487.800781 0)"/>
     <use xlink:href="#DejaVuSans-65" transform="translate(551.277344 0)"/>
     <use xlink:href="#DejaVuSans-78" transform="translate(611.050781 0)"/>
     <use xlink:href="#DejaVuSans-20" transform="translate(670.230469 0)"/>
     <use xlink:href="#DejaVuSans-66" transform="translate(702.017578 0)"/>
     <use xlink:href="#DejaVuSans-6f" transform="translate(737.222656 0)"/>
     <use xlink:href="#DejaVuSans-72" transform="translate(798.404297 0)"/>
     <use xlink:href="#DejaVuSans-20" transform="translate(839.517578 0)"/>
     <use xlink:href="#DejaVuSans-42" transform="translate(871.304688 0)"/>
     <use xlink:href="#DejaVuSans-48" transform="translate(939.908203 0)"/>
     <use xlink:href="#DejaVuSans-5f" transform="translate(1015.103516 0)"/>
     <use xlink:href="#DejaVuSans-76" transform="translate(1065.103516 0)"/>
     <use xlink:href="#DejaVuSans-37" transform="translate(1124.283203 0)"/>
     <use xlink:href="#DejaVuSans-5f" transform="translate(1187.90625 0)"/>
     <use xlink:href="#DejaVuSans-31" transform="translate(1237.90625 0)"/>
     <use xlink:href="#DejaVuSans-39" transform="translate(1301.529297 0)"/>
     <use xlink:href="#DejaVuSans-46" transform="translate(1365.152344 0)"/>
    </g>
   </g>
   <g id="legend_1">
    <g id="patch_7">
     <path d="M 176.47625 125.529
L 732.395 125.529
Q 737.195 125.529 737.195 120.729
L 737.195 52.674
Q 737.195 47.874 732.395 47.874
L 176.47625 47.874
Q 171.67625 47.874 171.67625 52.674
L 171.67625 120.729
Q 171.67625 125.529 176.47625 125.529
z
" style="fill: #ffffff; opacity: 0.8; stroke: #cccccc; stroke-linejoin: miter"/>
    </g>
    <g id="line2d_19">
     <path d="M 181.27625 67.31025
L 205.27625 67.31025
L 229.27625 67.31025
" style="fill: none; stroke: #ff0000; stroke-width: 1.5; stroke-linecap: square"/>
    </g>
    <g id="text_19">
     <!-- fit 1st: a=0.959, b=4.010e-04, c=0.003 -->
     <g transform="translate(248.47625 75.71025) scale(0.24 -0.24)">
      <defs>
       <path id="DejaVuSans-74" d="M 1172 4494
L 1172 3500
L 2356 3500
L 2356 3053
L 1172 3053
L 1172 1153
Q 1172 725 1289 603
Q 1406 481 1766 481
L 2356 481
L 2356 0
L 1766 0
Q 1100 0 847 248
Q 594 497 594 1153
L 594 3053
L 172 3053
L 172 3500
L 594 3500
L 594 4494
L 1172 4494
z
" transform="scale(0.015625)"/>
       <path id="DejaVuSans-73" d="M 2834 3397
L 2834 2853
Q 2591 2978 2328 3040
Q 2066 3103 1784 3103
Q 1356 3103 1142 2972
Q 928 2841 928 2578
Q 928 2378 1081 2264
Q 1234 2150 1697 2047
L 1894 2003
Q 2506 1872 2764 1633
Q 3022 1394 3022 966
Q 3022 478 2636 193
Q 2250 -91 1575 -91
Q 1294 -91 989 -36
Q 684 19 347 128
L 347 722
Q 666 556 975 473
Q 1284 391 1588 391
Q 1994 391 2212 530
Q 2431 669 2431 922
Q 2431 1156 2273 1281
Q 2116 1406 1581 1522
L 1381 1569
Q 847 1681 609 1914
Q 372 2147 372 2553
Q 372 3047 722 3315
Q 1072 3584 1716 3584
Q 2034 3584 2315 3537
Q 2597 3491 2834 3397
z
" transform="scale(0.015625)"/>
       <path id="DejaVuSans-3a" d="M 750 794
L 1409 794
L 1409 0
L 750 0
L 750 794
z
M 750 3309
L 1409 3309
L 1409 2516
L 750 2516
L 750 3309
z
" transform="scale(0.015625)"/>
       <path id="DejaVuSans-3d" d="M 678 2906
L 4684 2906
L 4684 2381
L 678 2381
L 678 2906
z
M 678 1631
L 4684 1631
L 4684 1100
L 678 1100
L 678 1631
z
" transform="scale(0.015625)"/>
       <path id="DejaVuSans-2c" d="M 750 794
L 1409 794
L 1409 256
L 897 -744
L 494 -744
L 750 256
L 750 794
z
" transform="scale(0.015625)"/>
       <path id="DejaVuSans-62" d="M 3116 1747
Q 3116 2381 2855 2742
Q 2594 3103 2138 3103
Q 1681 3103 1420 2742
Q 1159 2381 1159 1747
Q 1159 1113 1420 752
Q 1681 391 2138 391
Q 2594 391 2855 752
Q 3116 1113 3116 1747
z
M 1159 2969
Q 1341 3281 1617 3432
Q 1894 3584 2278 3584
Q 2916 3584 3314 3078
Q 3713 2572 3713 1747
Q 3713 922 3314 415
Q 2916 -91 2278 -91
Q 1894 -91 1617 61
Q 1341 213 1159 525
L 1159 0
L 581 0
L 581 4863
L 1159 4863
L 1159 2969
z
" transform="scale(0.015625)"/>
       <path id="DejaVuSans-2d" d="M 313 2009
L 1997 2009
L 1997 1497
L 313 1497
L 313 2009
z
" transform="scale(0.015625)"/>
       <path id="DejaVuSans-33" d="M 2597 2516
Q 3050 2419 3304 2112
Q 3559 1806 3559 1356
Q 3559 666 3084 287
Q 2609 -91 1734 -91
Q 1441 -91 1130 -33
Q 819 25 488 141
L 488 750
Q 750 597 1062 519
Q 1375 441 1716 441
Q 2309 441 2620 675
Q 2931 909 2931 1356
Q 2931 1769 2642 2001
Q 2353 2234 1838 2234
L 1294 2234
L 1294 2753
L 1863 2753
Q 2328 2753 2575 2939
Q 2822 3125 2822 3475
Q 2822 3834 2567 4026
Q 2313 4219 1838 4219
Q 1578 4219 1281 4162
Q 984 4106 628 3988
L 628 4550
Q 988 4650 1302 4700
Q 1616 4750 1894 4750
Q 2613 4750 3031 4423
Q 3450 4097 3450 3541
Q 3450 3153 3228 2886
Q 3006 2619 2597 2516
z
" transform="scale(0.015625)"/>
      </defs>
      <use xlink:href="#DejaVuSans-66"/>
      <use xlink:href="#DejaVuSans-69" transform="translate(35.205078 0)"/>
      <use xlink:href="#DejaVuSans-74" transform="translate(62.988281 0)"/>
      <use xlink:href="#DejaVuSans-20" transform="translate(102.197266 0)"/>
      <use xlink:href="#DejaVuSans-31" transform="translate(133.984375 0)"/>
      <use xlink:href="#DejaVuSans-73" transform="translate(197.607422 0)"/>
      <use xlink:href="#DejaVuSans-74" transform="translate(249.707031 0)"/>
      <use xlink:href="#DejaVuSans-3a" transform="translate(288.916016 0)"/>
      <use xlink:href="#DejaVuSans-20" transform="translate(322.607422 0)"/>
      <use xlink:href="#DejaVuSans-61" transform="translate(354.394531 0)"/>
      <use xlink:href="#DejaVuSans-3d" transform="translate(415.673828 0)"/>
      <use xlink:href="#DejaVuSans-30" transform="translate(499.462891 0)"/>
      <use xlink:href="#DejaVuSans-2e" transform="translate(563.085938 0)"/>
      <use xlink:href="#DejaVuSans-39" transform="translate(594.873047 0)"/>
      <use xlink:href="#DejaVuSans-35" transform="translate(658.496094 0)"/>
      <use xlink:href="#DejaVuSans-39" transform="translate(722.119141 0)"/>
      <use xlink:href="#DejaVuSans-2c" transform="translate(785.742188 0)"/>
      <use xlink:href="#DejaVuSans-20" transform="translate(817.529297 0)"/>
      <use xlink:href="#DejaVuSans-62" transform="translate(849.316406 0)"/>
      <use xlink:href="#DejaVuSans-3d" transform="translate(912.792969 0)"/>
      <use xlink:href="#DejaVuSans-34" transform="translate(996.582031 0)"/>
      <use xlink:href="#DejaVuSans-2e" transform="translate(1060.205078 0)"/>
      <use xlink:href="#DejaVuSans-30" transform="translate(1091.992188 0)"/>
      <use xlink:href="#DejaVuSans-31" transform="translate(1155.615234 0)"/>
      <use xlink:href="#DejaVuSans-30" transform="translate(1219.238281 0)"/>
      <use xlink:href="#DejaVuSans-65" transform="translate(1282.861328 0)"/>
      <use xlink:href="#DejaVuSans-2d" transform="translate(1344.384766 0)"/>
      <use xlink:href="#DejaVuSans-30" transform="translate(1380.46875 0)"/>
      <use xlink:href="#DejaVuSans-34" transform="translate(1444.091797 0)"/>
      <use xlink:href="#DejaVuSans-2c" transform="translate(1507.714844 0)"/>
      <use xlink:href="#DejaVuSans-20" transform="translate(1539.501953 0)"/>
      <use xlink:href="#DejaVuSans-63" transform="translate(1571.289062 0)"/>
      <use xlink:href="#DejaVuSans-3d" transform="translate(1626.269531 0)"/>
      <use xlink:href="#DejaVuSans-30" transform="translate(1710.058594 0)"/>
      <use xlink:href="#DejaVuSans-2e" transform="translate(1773.681641 0)"/>
      <use xlink:href="#DejaVuSans-30" transform="translate(1805.46875 0)"/>
      <use xlink:href="#DejaVuSans-30" transform="translate(1869.091797 0)"/>
      <use xlink:href="#DejaVuSans-33" transform="translate(1932.714844 0)"/>
     </g>
    </g>
    <g id="line2d_20">
     <path d="M 181.27625 102.53775
L 205.27625 102.53775
L 229.27625 102.53775
" style="fill: none; stroke-dasharray: 5.55,2.4; stroke-dashoffset: 0; stroke: #ff0000; stroke-width: 1.5"/>
    </g>
    <g id="text_20">
     <!-- Plateau after 6:19:21 -->
     <g transform="translate(248.47625 110.93775) scale(0.24 -0.24)">
      <defs>
       <path id="DejaVuSans-50" d="M 1259 4147
L 1259 2394
L 2053 2394
Q 2494 2394 2734 2622
Q 2975 2850 2975 3272
Q 2975 3691 2734 3919
Q 2494 4147 2053 4147
L 1259 4147
z
M 628 4666
L 2053 4666
Q 2838 4666 3239 4311
Q 3641 3956 3641 3272
Q 3641 2581 3239 2228
Q 2838 1875 2053 1875
L 1259 1875
L 1259 0
L 628 0
L 628 4666
z
" transform="scale(0.015625)"/>
       <path id="DejaVuSans-6c" d="M 603 4863
L 1178 4863
L 1178 0
L 603 0
L 603 4863
z
" transform="scale(0.015625)"/>
       <path id="DejaVuSans-75" d="M 544 1381
L 544 3500
L 1119 3500
L 1119 1403
Q 1119 906 1312 657
Q 1506 409 1894 409
Q 2359 409 2629 706
Q 2900 1003 2900 1516
L 2900 3500
L 3475 3500
L 3475 0
L 2900 0
L 2900 538
Q 2691 219 2414 64
Q 2138 -91 1772 -91
Q 1169 -91 856 284
Q 544 659 544 1381
z
M 1991 3584
L 1991 3584
z
" transform="scale(0.015625)"/>
      </defs>
      <use xlink:href="#DejaVuSans-50"/>
      <use xlink:href="#DejaVuSans-6c" transform="translate(60.302734 0)"/>
      <use xlink:href="#DejaVuSans-61" transform="translate(88.085938 0)"/>
      <use xlink:href="#DejaVuSans-74" transform="translate(149.365234 0)"/>
      <use xlink:href="#DejaVuSans-65" transform="translate(188.574219 0)"/>
      <use xlink:href="#DejaVuSans-61" transform="translate(250.097656 0)"/>
      <use xlink:href="#DejaVuSans-75" transform="translate(311.376953 0)"/>
      <use xlink:href="#DejaVuSans-20" transform="translate(374.755859 0)"/>
      <use xlink:href="#DejaVuSans-61" transform="translate(406.542969 0)"/>
      <use xlink:href="#DejaVuSans-66" transform="translate(467.822266 0)"/>
      <use xlink:href="#DejaVuSans-74" transform="translate(501.277344 0)"/>
      <use xlink:href="#DejaVuSans-65" transform="translate(540.486328 0)"/>
      <use xlink:href="#DejaVuSans-72" transform="translate(602.009766 0)"/>
      <use xlink:href="#DejaVuSans-20" transform="translate(643.123047 0)"/>
      <use xlink:href="#DejaVuSans-36" transform="translate(674.910156 0)"/>
      <use xlink:href="#DejaVuSans-3a" transform="translate(738.533203 0)"/>
      <use xlink:href="#DejaVuSans-31" transform="translate(772.224609 0)"/>
      <use xlink:href="#DejaVuSans-39" transform="translate(835.847656 0)"/>
      <use xlink:href="#DejaVuSans-3a" transform="translate(899.470703 0)"/>
      <use xlink:href="#DejaVuSans-32" transform="translate(933.162109 0)"/>
      <use xlink:href="#DejaVuSans-31" transform="translate(996.785156 0)"/>
     </g>
    </g>
   </g>
  </g>
 </g>
 <defs>
  <clipPath id="p535907231d">
   <rect x="79.595" y="35.874" width="669.6" height="332.64"/>
  </clipPath>
 </defs>
</svg>
