<?xml version="1.0" encoding="utf-8" standalone="no"?>
<!DOCTYPE svg PUBLIC "-//W3C//DTD SVG 1.1//EN"
  "http://www.w3.org/Graphics/SVG/1.1/DTD/svg11.dtd">
<svg xmlns:xlink="http://www.w3.org/1999/xlink" width="778.217506pt" height="433.169pt" viewBox="0 0 778.217506 433.169" xmlns="http://www.w3.org/2000/svg" version="1.1">
 <metadata>
  <rdf:RDF xmlns:dc="http://purl.org/dc/elements/1.1/" xmlns:cc="http://creativecommons.org/ns#" xmlns:rdf="http://www.w3.org/1999/02/22-rdf-syntax-ns#">
   <cc:Work>
    <dc:type rdf:resource="http://purl.org/dc/dcmitype/StillImage"/>
    <dc:date>2025-11-02T14:14:32.949515</dc:date>
    <dc:format>image/svg+xml</dc:format>
    <dc:creator>
     <cc:Agent>
      <dc:title>Matplotlib v3.10.7, https://matplotlib.org/</dc:title>
     </cc:Agent>
    </dc:creator>
   </cc:Work>
  </rdf:RDF>
 </metadata>
 <defs>
  <style type="text/css">*{stroke-linejoin: round; stroke-linecap: butt}</style>
 </defs>
 <g id="figure_1">
  <g id="patch_1">
   <path d="M -0 433.169
L 778.217506 433.169
L 778.217506 0
L -0 0
L -0 433.169
z
" style="fill: none"/>
  </g>
  <g id="axes_1">
   <g id="patch_2">
    <path d="M 79.595 368.514
L 749.195 368.514
L 749.195 35.874
L 79.595 35.874
L 79.595 368.514
z
" style="fill: none"/>
   </g>
   <g id="matplotlib.axis_1">
    <g id="xtick_1">
     <g id="line2d_1">
      <defs>
       <path id="m76faf6ca2f" d="M 0 0
L 0 3.5
" style="stroke: #000000; stroke-width: 3"/>
      </defs>
      <g>
       <use xlink:href="#m76faf6ca2f" x="110.031364" y="368.514" style="stroke: #000000; stroke-width: 3"/>
      </g>
     </g>
     <g id="text_1">
      <!-- 0 -->
      <g transform="translate(102.396364 393.75025) scale(0.24 -0.24)">
       <defs>
        <path id="DejaVuSans-30" d="M 2034 4250
Q 1547 4250 1301 3770
Q 1056 3291 1056 2328
Q 1056 1369 1301 889
Q 1547 409 2034 409
Q 2525 409 2770 889
Q 3016 1369 3016 2328
Q 3016 3291 2770 3770
Q 2525 4250 2034 4250
z
M 2034 4750
Q 2819 4750 3233 4129
Q 3647 3509 3647 2328
Q 3647 1150 3233 529
Q 2819 -91 2034 -91
Q 1250 -91 836 529
Q 422 1150 422 2328
Q 422 3509 836 4129
Q 1250 4750 2034 4750
z
" transform="scale(0.015625)"/>
       </defs>
       <use xlink:href="#DejaVuSans-30"/>
      </g>
     </g>
    </g>
    <g id="xtick_2">
     <g id="line2d_2">
      <g>
       <use xlink:href="#m76faf6ca2f" x="188.837131" y="368.514" style="stroke: #000000; stroke-width: 3"/>
      </g>
     </g>
     <g id="text_2">
      <!-- 250 -->
      <g transform="translate(165.932131 393.75025) scale(0.24 -0.24)">
       <defs>
        <path id="DejaVuSans-32" d="M 1228 531
L 3431 531
L 3431 0
L 469 0
L 469 531
Q 828 903 1448 1529
Q 2069 2156 2228 2338
Q 2531 2678 2651 2914
Q 2772 3150 2772 3378
Q 2772 3750 2511 3984
Q 2250 4219 1831 4219
Q 1534 4219 1204 4116
Q 875 4013 500 3803
L 500 4441
Q 881 4594 1212 4672
Q 1544 4750 1819 4750
Q 2544 4750 2975 4387
Q 3406 4025 3406 3419
Q 3406 3131 3298 2873
Q 3191 2616 2906 2266
Q 2828 2175 2409 1742
Q 1991 1309 1228 531
z
" transform="scale(0.015625)"/>
        <path id="DejaVuSans-35" d="M 691 4666
L 3169 4666
L 3169 4134
L 1269 4134
L 1269 2991
Q 1406 3038 1543 3061
Q 1681 3084 1819 3084
Q 2600 3084 3056 2656
Q 3513 2228 3513 1497
Q 3513 744 3044 326
Q 2575 -91 1722 -91
Q 1428 -91 1123 -41
Q 819 9 494 109
L 494 744
Q 775 591 1075 516
Q 1375 441 1709 441
Q 2250 441 2565 725
Q 2881 1009 2881 1497
Q 2881 1984 2565 2268
Q 2250 2553 1709 2553
Q 1456 2553 1204 2497
Q 953 2441 691 2322
L 691 4666
z
" transform="scale(0.015625)"/>
       </defs>
       <use xlink:href="#DejaVuSans-32"/>
       <use xlink:href="#DejaVuSans-35" transform="translate(63.623047 0)"/>
       <use xlink:href="#DejaVuSans-30" transform="translate(127.246094 0)"/>
      </g>
     </g>
    </g>
    <g id="xtick_3">
     <g id="line2d_3">
      <g>
       <use xlink:href="#m76faf6ca2f" x="267.642899" y="368.514" style="stroke: #000000; stroke-width: 3"/>
      </g>
     </g>
     <g id="text_3">
      <!-- 500 -->
      <g transform="translate(244.737899 393.75025) scale(0.24 -0.24)">
       <use xlink:href="#DejaVuSans-35"/>
       <use xlink:href="#DejaVuSans-30" transform="translate(63.623047 0)"/>
       <use xlink:href="#DejaVuSans-30" transform="translate(127.246094 0)"/>
      </g>
     </g>
    </g>
    <g id="xtick_4">
     <g id="line2d_4">
      <g>
       <use xlink:href="#m76faf6ca2f" x="346.448667" y="368.514" style="stroke: #000000; stroke-width: 3"/>
      </g>
     </g>
     <g id="text_4">
      <!-- 750 -->
      <g transform="translate(323.543667 393.75025) scale(0.24 -0.24)">
       <defs>
        <path id="DejaVuSans-37" d="M 525 4666
L 3525 4666
L 3525 4397
L 1831 0
L 1172 0
L 2766 4134
L 525 4134
L 525 4666
z
" transform="scale(0.015625)"/>
       </defs>
       <use xlink:href="#DejaVuSans-37"/>
       <use xlink:href="#DejaVuSans-35" transform="translate(63.623047 0)"/>
       <use xlink:href="#DejaVuSans-30" transform="translate(127.246094 0)"/>
      </g>
     </g>
    </g>
    <g id="xtick_5">
     <g id="line2d_5">
      <g>
       <use xlink:href="#m76faf6ca2f" x="425.254435" y="368.514" style="stroke: #000000; stroke-width: 3"/>
      </g>
     </g>
     <g id="text_5">
      <!-- 1000 -->
      <g transform="translate(394.714435 393.75025) scale(0.24 -0.24)">
       <defs>
        <path id="DejaVuSans-31" d="M 794 531
L 1825 531
L 1825 4091
L 703 3866
L 703 4441
L 1819 4666
L 2450 4666
L 2450 531
L 3481 531
L 3481 0
L 794 0
L 794 531
z
" transform="scale(0.015625)"/>
       </defs>
       <use xlink:href="#DejaVuSans-31"/>
       <use xlink:href="#DejaVuSans-30" transform="translate(63.623047 0)"/>
       <use xlink:href="#DejaVuSans-30" transform="translate(127.246094 0)"/>
       <use xlink:href="#DejaVuSans-30" transform="translate(190.869141 0)"/>
      </g>
     </g>
    </g>
    <g id="xtick_6">
     <g id="line2d_6">
      <g>
       <use xlink:href="#m76faf6ca2f" x="504.060203" y="368.514" style="stroke: #000000; stroke-width: 3"/>
      </g>
     </g>
     <g id="text_6">
      <!-- 1250 -->
      <g transform="translate(473.520203 393.75025) scale(0.24 -0.24)">
       <use xlink:href="#DejaVuSans-31"/>
       <use xlink:href="#DejaVuSans-32" transform="translate(63.623047 0)"/>
       <use xlink:href="#DejaVuSans-35" transform="translate(127.246094 0)"/>
       <use xlink:href="#DejaVuSans-30" transform="translate(190.869141 0)"/>
      </g>
     </g>
    </g>
    <g id="xtick_7">
     <g id="line2d_7">
      <g>
       <use xlink:href="#m76faf6ca2f" x="582.86597" y="368.514" style="stroke: #000000; stroke-width: 3"/>
      </g>
     </g>
     <g id="text_7">
      <!-- 1500 -->
      <g transform="translate(552.32597 393.75025) scale(0.24 -0.24)">
       <use xlink:href="#DejaVuSans-31"/>
       <use xlink:href="#DejaVuSans-35" transform="translate(63.623047 0)"/>
       <use xlink:href="#DejaVuSans-30" transform="translate(127.246094 0)"/>
       <use xlink:href="#DejaVuSans-30" transform="translate(190.869141 0)"/>
      </g>
     </g>
    </g>
    <g id="xtick_8">
     <g id="line2d_8">
      <g>
       <use xlink:href="#m76faf6ca2f" x="661.671738" y="368.514" style="stroke: #000000; stroke-width: 3"/>
      </g>
     </g>
     <g id="text_8">
      <!-- 1750 -->
      <g transform="translate(631.131738 393.75025) scale(0.24 -0.24)">
       <use xlink:href="#DejaVuSans-31"/>
       <use xlink:href="#DejaVuSans-37" transform="translate(63.623047 0)"/>
       <use xlink:href="#DejaVuSans-35" transform="translate(127.246094 0)"/>
       <use xlink:href="#DejaVuSans-30" transform="translate(190.869141 0)"/>
      </g>
     </g>
    </g>
    <g id="xtick_9">
     <g id="line2d_9">
      <g>
       <use xlink:href="#m76faf6ca2f" x="740.477506" y="368.514" style="stroke: #000000; stroke-width: 3"/>
      </g>
     </g>
     <g id="text_9">
      <!-- 2000 -->
      <g transform="translate(709.937506 393.75025) scale(0.24 -0.24)">
       <use xlink:href="#DejaVuSans-32"/>
       <use xlink:href="#DejaVuSans-30" transform="translate(63.623047 0)"/>
       <use xlink:href="#DejaVuSans-30" transform="translate(127.246094 0)"/>
       <use xlink:href="#DejaVuSans-30" transform="translate(190.869141 0)"/>
      </g>
     </g>
    </g>
    <g id="text_10">
     <!-- Time / min -->
     <g transform="translate(350.736875 420.97775) scale(0.24 -0.24)">
      <defs>
       <path id="DejaVuSans-54" d="M -19 4666
L 3928 4666
L 3928 4134
L 2272 4134
L 2272 0
L 1638 0
L 1638 4134
L -19 4134
L -19 4666
z
" transform="scale(0.015625)"/>
       <path id="DejaVuSans-69" d="M 603 3500
L 1178 3500
L 1178 0
L 603 0
L 603 3500
z
M 603 4863
L 1178 4863
L 1178 4134
L 603 4134
L 603 4863
z
" transform="scale(0.015625)"/>
       <path id="DejaVuSans-6d" d="M 3328 2828
Q 3544 3216 3844 3400
Q 4144 3584 4550 3584
Q 5097 3584 5394 3201
Q 5691 2819 5691 2113
L 5691 0
L 5113 0
L 5113 2094
Q 5113 2597 4934 2840
Q 4756 3084 4391 3084
Q 3944 3084 3684 2787
Q 3425 2491 3425 1978
L 3425 0
L 2847 0
L 2847 2094
Q 2847 2600 2669 2842
Q 2491 3084 2119 3084
Q 1678 3084 1418 2786
Q 1159 2488 1159 1978
L 1159 0
L 581 0
L 581 3500
L 1159 3500
L 1159 2956
Q 1356 3278 1631 3431
Q 1906 3584 2284 3584
Q 2666 3584 2933 3390
Q 3200 3197 3328 2828
z
" transform="scale(0.015625)"/>
       <path id="DejaVuSans-65" d="M 3597 1894
L 3597 1613
L 953 1613
Q 991 1019 1311 708
Q 1631 397 2203 397
Q 2534 397 2845 478
Q 3156 559 3463 722
L 3463 178
Q 3153 47 2828 -22
Q 2503 -91 2169 -91
Q 1331 -91 842 396
Q 353 884 353 1716
Q 353 2575 817 3079
Q 1281 3584 2069 3584
Q 2775 3584 3186 3129
Q 3597 2675 3597 1894
z
M 3022 2063
Q 3016 2534 2758 2815
Q 2500 3097 2075 3097
Q 1594 3097 1305 2825
Q 1016 2553 972 2059
L 3022 2063
z
" transform="scale(0.015625)"/>
       <path id="DejaVuSans-20" transform="scale(0.015625)"/>
       <path id="DejaVuSans-2f" d="M 1625 4666
L 2156 4666
L 531 -594
L 0 -594
L 1625 4666
z
" transform="scale(0.015625)"/>
       <path id="DejaVuSans-6e" d="M 3513 2113
L 3513 0
L 2938 0
L 2938 2094
Q 2938 2591 2744 2837
Q 2550 3084 2163 3084
Q 1697 3084 1428 2787
Q 1159 2491 1159 1978
L 1159 0
L 581 0
L 581 3500
L 1159 3500
L 1159 2956
Q 1366 3272 1645 3428
Q 1925 3584 2291 3584
Q 2894 3584 3203 3211
Q 3513 2838 3513 2113
z
" transform="scale(0.015625)"/>
      </defs>
      <use xlink:href="#DejaVuSans-54"/>
      <use xlink:href="#DejaVuSans-69" transform="translate(57.958984 0)"/>
      <use xlink:href="#DejaVuSans-6d" transform="translate(85.742188 0)"/>
      <use xlink:href="#DejaVuSans-65" transform="translate(183.154297 0)"/>
      <use xlink:href="#DejaVuSans-20" transform="translate(244.677734 0)"/>
      <use xlink:href="#DejaVuSans-2f" transform="translate(276.464844 0)"/>
      <use xlink:href="#DejaVuSans-20" transform="translate(310.15625 0)"/>
      <use xlink:href="#DejaVuSans-6d" transform="translate(341.943359 0)"/>
      <use xlink:href="#DejaVuSans-69" transform="translate(439.355469 0)"/>
      <use xlink:href="#DejaVuSans-6e" transform="translate(467.138672 0)"/>
     </g>
    </g>
   </g>
   <g id="matplotlib.axis_2">
    <g id="ytick_1">
     <g id="line2d_10">
      <defs>
       <path id="m38359f6cc9" d="M 0 0
L -3.5 0
" style="stroke: #000000; stroke-width: 3"/>
      </defs>
      <g>
       <use xlink:href="#m38359f6cc9" x="79.595" y="335.398663" style="stroke: #000000; stroke-width: 3"/>
      </g>
     </g>
     <g id="text_11">
      <!-- 0.7 -->
      <g transform="translate(34.4275 344.516788) scale(0.24 -0.24)">
       <defs>
        <path id="DejaVuSans-2e" d="M 684 794
L 1344 794
L 1344 0
L 684 0
L 684 794
z
" transform="scale(0.015625)"/>
       </defs>
       <use xlink:href="#DejaVuSans-30"/>
       <use xlink:href="#DejaVuSans-2e" transform="translate(63.623047 0)"/>
       <use xlink:href="#DejaVuSans-37" transform="translate(95.410156 0)"/>
      </g>
     </g>
    </g>
    <g id="ytick_2">
     <g id="line2d_11">
      <g>
       <use xlink:href="#m38359f6cc9" x="79.595" y="243.303166" style="stroke: #000000; stroke-width: 3"/>
      </g>
     </g>
     <g id="text_12">
      <!-- 0.8 -->
      <g transform="translate(34.4275 252.421291) scale(0.24 -0.24)">
       <defs>
        <path id="DejaVuSans-38" d="M 2034 2216
Q 1584 2216 1326 1975
Q 1069 1734 1069 1313
Q 1069 891 1326 650
Q 1584 409 2034 409
Q 2484 409 2743 651
Q 3003 894 3003 1313
Q 3003 1734 2745 1975
Q 2488 2216 2034 2216
z
M 1403 2484
Q 997 2584 770 2862
Q 544 3141 544 3541
Q 544 4100 942 4425
Q 1341 4750 2034 4750
Q 2731 4750 3128 4425
Q 3525 4100 3525 3541
Q 3525 3141 3298 2862
Q 3072 2584 2669 2484
Q 3125 2378 3379 2068
Q 3634 1759 3634 1313
Q 3634 634 3220 271
Q 2806 -91 2034 -91
Q 1263 -91 848 271
Q 434 634 434 1313
Q 434 1759 690 2068
Q 947 2378 1403 2484
z
M 1172 3481
Q 1172 3119 1398 2916
Q 1625 2713 2034 2713
Q 2441 2713 2670 2916
Q 2900 3119 2900 3481
Q 2900 3844 2670 4047
Q 2441 4250 2034 4250
Q 1625 4250 1398 4047
Q 1172 3844 1172 3481
z
" transform="scale(0.015625)"/>
       </defs>
       <use xlink:href="#DejaVuSans-30"/>
       <use xlink:href="#DejaVuSans-2e" transform="translate(63.623047 0)"/>
       <use xlink:href="#DejaVuSans-38" transform="translate(95.410156 0)"/>
      </g>
     </g>
    </g>
    <g id="ytick_3">
     <g id="line2d_12">
      <g>
       <use xlink:href="#m38359f6cc9" x="79.595" y="151.207669" style="stroke: #000000; stroke-width: 3"/>
      </g>
     </g>
     <g id="text_13">
      <!-- 0.9 -->
      <g transform="translate(34.4275 160.325794) scale(0.24 -0.24)">
       <defs>
        <path id="DejaVuSans-39" d="M 703 97
L 703 672
Q 941 559 1184 500
Q 1428 441 1663 441
Q 2288 441 2617 861
Q 2947 1281 2994 2138
Q 2813 1869 2534 1725
Q 2256 1581 1919 1581
Q 1219 1581 811 2004
Q 403 2428 403 3163
Q 403 3881 828 4315
Q 1253 4750 1959 4750
Q 2769 4750 3195 4129
Q 3622 3509 3622 2328
Q 3622 1225 3098 567
Q 2575 -91 1691 -91
Q 1453 -91 1209 -44
Q 966 3 703 97
z
M 1959 2075
Q 2384 2075 2632 2365
Q 2881 2656 2881 3163
Q 2881 3666 2632 3958
Q 2384 4250 1959 4250
Q 1534 4250 1286 3958
Q 1038 3666 1038 3163
Q 1038 2656 1286 2365
Q 1534 2075 1959 2075
z
" transform="scale(0.015625)"/>
       </defs>
       <use xlink:href="#DejaVuSans-30"/>
       <use xlink:href="#DejaVuSans-2e" transform="translate(63.623047 0)"/>
       <use xlink:href="#DejaVuSans-39" transform="translate(95.410156 0)"/>
      </g>
     </g>
    </g>
    <g id="ytick_4">
     <g id="line2d_13">
      <g>
       <use xlink:href="#m38359f6cc9" x="79.595" y="59.112172" style="stroke: #000000; stroke-width: 3"/>
      </g>
     </g>
     <g id="text_14">
      <!-- 1.0 -->
      <g transform="translate(34.4275 68.230297) scale(0.24 -0.24)">
       <use xlink:href="#DejaVuSans-31"/>
       <use xlink:href="#DejaVuSans-2e" transform="translate(63.623047 0)"/>
       <use xlink:href="#DejaVuSans-30" transform="translate(95.410156 0)"/>
      </g>
     </g>
    </g>
    <g id="text_15">
     <!-- Jaccard index -->
     <g transform="translate(25.43625 282.625875) rotate(-90) scale(0.24 -0.24)">
      <defs>
       <path id="DejaVuSans-4a" d="M 628 4666
L 1259 4666
L 1259 325
Q 1259 -519 939 -900
Q 619 -1281 -91 -1281
L -331 -1281
L -331 -750
L -134 -750
Q 284 -750 456 -515
Q 628 -281 628 325
L 628 4666
z
" transform="scale(0.015625)"/>
       <path id="DejaVuSans-61" d="M 2194 1759
Q 1497 1759 1228 1600
Q 959 1441 959 1056
Q 959 750 1161 570
Q 1363 391 1709 391
Q 2188 391 2477 730
Q 2766 1069 2766 1631
L 2766 1759
L 2194 1759
z
M 3341 1997
L 3341 0
L 2766 0
L 2766 531
Q 2569 213 2275 61
Q 1981 -91 1556 -91
Q 1019 -91 701 211
Q 384 513 384 1019
Q 384 1609 779 1909
Q 1175 2209 1959 2209
L 2766 2209
L 2766 2266
Q 2766 2663 2505 2880
Q 2244 3097 1772 3097
Q 1472 3097 1187 3025
Q 903 2953 641 2809
L 641 3341
Q 956 3463 1253 3523
Q 1550 3584 1831 3584
Q 2591 3584 2966 3190
Q 3341 2797 3341 1997
z
" transform="scale(0.015625)"/>
       <path id="DejaVuSans-63" d="M 3122 3366
L 3122 2828
Q 2878 2963 2633 3030
Q 2388 3097 2138 3097
Q 1578 3097 1268 2742
Q 959 2388 959 1747
Q 959 1106 1268 751
Q 1578 397 2138 397
Q 2388 397 2633 464
Q 2878 531 3122 666
L 3122 134
Q 2881 22 2623 -34
Q 2366 -91 2075 -91
Q 1284 -91 818 406
Q 353 903 353 1747
Q 353 2603 823 3093
Q 1294 3584 2113 3584
Q 2378 3584 2631 3529
Q 2884 3475 3122 3366
z
" transform="scale(0.015625)"/>
       <path id="DejaVuSans-72" d="M 2631 2963
Q 2534 3019 2420 3045
Q 2306 3072 2169 3072
Q 1681 3072 1420 2755
Q 1159 2438 1159 1844
L 1159 0
L 581 0
L 581 3500
L 1159 3500
L 1159 2956
Q 1341 3275 1631 3429
Q 1922 3584 2338 3584
Q 2397 3584 2469 3576
Q 2541 3569 2628 3553
L 2631 2963
z
" transform="scale(0.015625)"/>
       <path id="DejaVuSans-64" d="M 2906 2969
L 2906 4863
L 3481 4863
L 3481 0
L 2906 0
L 2906 525
Q 2725 213 2448 61
Q 2172 -91 1784 -91
Q 1150 -91 751 415
Q 353 922 353 1747
Q 353 2572 751 3078
Q 1150 3584 1784 3584
Q 2172 3584 2448 3432
Q 2725 3281 2906 2969
z
M 947 1747
Q 947 1113 1208 752
Q 1469 391 1925 391
Q 2381 391 2643 752
Q 2906 1113 2906 1747
Q 2906 2381 2643 2742
Q 2381 3103 1925 3103
Q 1469 3103 1208 2742
Q 947 2381 947 1747
z
" transform="scale(0.015625)"/>
       <path id="DejaVuSans-78" d="M 3513 3500
L 2247 1797
L 3578 0
L 2900 0
L 1881 1375
L 863 0
L 184 0
L 1544 1831
L 300 3500
L 978 3500
L 1906 2253
L 2834 3500
L 3513 3500
z
" transform="scale(0.015625)"/>
      </defs>
      <use xlink:href="#DejaVuSans-4a"/>
      <use xlink:href="#DejaVuSans-61" transform="translate(29.492188 0)"/>
      <use xlink:href="#DejaVuSans-63" transform="translate(90.771484 0)"/>
      <use xlink:href="#DejaVuSans-63" transform="translate(145.751953 0)"/>
      <use xlink:href="#DejaVuSans-61" transform="translate(200.732422 0)"/>
      <use xlink:href="#DejaVuSans-72" transform="translate(262.011719 0)"/>
      <use xlink:href="#DejaVuSans-64" transform="translate(301.375 0)"/>
      <use xlink:href="#DejaVuSans-20" transform="translate(364.851562 0)"/>
      <use xlink:href="#DejaVuSans-69" transform="translate(396.638672 0)"/>
      <use xlink:href="#DejaVuSans-6e" transform="translate(424.421875 0)"/>
      <use xlink:href="#DejaVuSans-64" transform="translate(487.800781 0)"/>
      <use xlink:href="#DejaVuSans-65" transform="translate(551.277344 0)"/>
      <use xlink:href="#DejaVuSans-78" transform="translate(611.050781 0)"/>
     </g>
    </g>
   </g>
   <g id="line2d_14">
    <path d="M 110.031364 50.994
L 114.948844 96.96177
L 119.876831 135.03185
L 124.799565 166.456867
L 129.717044 192.401954
L 134.629271 213.827041
L 139.546751 231.557556
L 144.474738 246.241804
L 149.397472 258.362943
L 154.325459 268.389791
L 161.197322 279.531602
L 166.109548 285.86199
L 171.027028 291.100757
L 175.955015 295.439456
L 181.618523 299.503077
L 186.541257 302.379098
L 191.46399 304.755898
L 196.391978 306.722035
L 201.335726 308.351272
L 206.25846 309.691419
L 213.125069 311.181338
L 218.05831 312.031885
L 222.986297 312.733829
L 227.914285 313.313811
L 232.831765 313.792094
L 237.749245 314.187437
L 242.677232 314.514857
L 247.594712 314.784864
L 252.517446 315.008265
L 257.445433 315.193067
L 264.32255 315.398555
L 269.245283 315.515432
L 274.173271 315.612114
L 279.101258 315.691998
L 284.023991 315.757938
L 288.946725 315.812433
L 293.874712 315.857511
L 298.797446 315.894722
L 303.72018 315.925473
L 308.642913 315.950887
L 315.535791 315.979235
L 320.463779 315.995332
L 325.391766 316.008632
L 330.319753 316.019622
L 335.247741 316.028702
L 340.170474 316.036197
L 345.103715 316.042403
L 350.031703 316.047525
L 354.954436 316.051753
L 359.87717 316.055246
L 366.754287 316.059136
L 371.692781 316.061355
L 376.620769 316.063184
L 381.543502 316.064693
L 386.534534 316.065957
L 391.462522 316.066986
L 396.385255 316.067836
L 401.313243 316.068539
L 406.235976 316.069119
L 411.163964 316.069599
L 418.056841 316.070134
L 422.984829 316.070437
L 427.907562 316.070688
L 432.840803 316.070895
L 437.768791 316.071067
L 442.744062 316.071209
L 447.661541 316.071326
L 452.589529 316.071422
L 457.507009 316.071502
L 462.434996 316.071568
L 469.312113 316.071641
L 474.2401 316.071683
L 479.162834 316.071717
L 484.090821 316.071746
L 489.018808 316.071769
L 493.946796 316.071789
L 498.874783 316.071805
L 503.797517 316.071818
L 508.725504 316.071829
L 513.653491 316.071838
L 520.551623 316.071848
L 525.484864 316.071854
L 530.412851 316.071859
L 535.340839 316.071863
L 540.268826 316.071866
L 545.196813 316.071868
L 550.130054 316.071871
L 555.058042 316.071873
L 559.991283 316.071874
L 564.914016 316.071875
L 571.801641 316.071877
L 576.740135 316.071877
L 581.668123 316.071878
L 586.590856 316.071879
L 591.524097 316.071879
L 596.452085 316.071879
L 601.385326 316.07188
L 606.313313 316.07188
L 611.241301 316.07188
L 616.169288 316.07188
L 623.072673 316.071881
L 627.995407 316.071881
L 632.928648 316.071881
L 637.867143 316.071881
L 642.79513 316.071881
L 647.723117 316.071881
L 652.661612 316.071881
L 657.589599 316.071881
L 662.517587 316.071881
L 667.445574 316.071881
L 674.343706 316.071881
L 679.271693 316.071881
L 684.19968 316.071881
L 689.180205 316.071881
L 694.108192 316.071881
L 699.03618 316.071881
L 703.964167 316.071881
L 708.897408 316.071881
L 713.830649 316.071881
L 718.758636 316.071881
" clip-path="url(#pd23f9d706b)" style="fill: none; stroke: #ff0000; stroke-width: 1.5; stroke-linecap: square"/>
   </g>
   <g id="line2d_15">
    <defs>
     <path id="m7bda375655" d="M 0 3
C 0.795609 3 1.55874 2.683901 2.12132 2.12132
C 2.683901 1.55874 3 0.795609 3 0
C 3 -0.795609 2.683901 -1.55874 2.12132 -2.12132
C 1.55874 -2.683901 0.795609 -3 0 -3
C -0.795609 -3 -1.55874 -2.683901 -2.12132 -2.12132
C -2.683901 -1.55874 -3 -0.795609 -3 0
C -3 0.795609 -2.683901 1.55874 -2.12132 2.12132
C -1.55874 2.683901 -0.795609 3 0 3
z
" style="stroke: #1f77b4"/>
    </defs>
    <g clip-path="url(#pd23f9d706b)">
     <use xlink:href="#m7bda375655" x="110.031364" y="59.112172" style="fill: #1f77b4; stroke: #1f77b4"/>
     <use xlink:href="#m7bda375655" x="114.948844" y="75.038995" style="fill: #1f77b4; stroke: #1f77b4"/>
     <use xlink:href="#m7bda375655" x="119.876831" y="141.654057" style="fill: #1f77b4; stroke: #1f77b4"/>
     <use xlink:href="#m7bda375655" x="124.799565" y="161.310805" style="fill: #1f77b4; stroke: #1f77b4"/>
     <use xlink:href="#m7bda375655" x="129.717044" y="183.902276" style="fill: #1f77b4; stroke: #1f77b4"/>
     <use xlink:href="#m7bda375655" x="134.629271" y="210.4684" style="fill: #1f77b4; stroke: #1f77b4"/>
     <use xlink:href="#m7bda375655" x="139.546751" y="246.925074" style="fill: #1f77b4; stroke: #1f77b4"/>
     <use xlink:href="#m7bda375655" x="144.474738" y="272.757546" style="fill: #1f77b4; stroke: #1f77b4"/>
     <use xlink:href="#m7bda375655" x="149.397472" y="260.509097" style="fill: #1f77b4; stroke: #1f77b4"/>
     <use xlink:href="#m7bda375655" x="154.325459" y="271.484912" style="fill: #1f77b4; stroke: #1f77b4"/>
     <use xlink:href="#m7bda375655" x="161.197322" y="302.274364" style="fill: #1f77b4; stroke: #1f77b4"/>
     <use xlink:href="#m7bda375655" x="166.109548" y="296.26003" style="fill: #1f77b4; stroke: #1f77b4"/>
     <use xlink:href="#m7bda375655" x="171.027028" y="306.860367" style="fill: #1f77b4; stroke: #1f77b4"/>
     <use xlink:href="#m7bda375655" x="175.955015" y="299.179266" style="fill: #1f77b4; stroke: #1f77b4"/>
     <use xlink:href="#m7bda375655" x="181.618523" y="307.247869" style="fill: #1f77b4; stroke: #1f77b4"/>
     <use xlink:href="#m7bda375655" x="186.541257" y="279.564985" style="fill: #1f77b4; stroke: #1f77b4"/>
     <use xlink:href="#m7bda375655" x="191.46399" y="307.693762" style="fill: #1f77b4; stroke: #1f77b4"/>
     <use xlink:href="#m7bda375655" x="196.391978" y="248.914919" style="fill: #1f77b4; stroke: #1f77b4"/>
     <use xlink:href="#m7bda375655" x="201.335726" y="301.56697" style="fill: #1f77b4; stroke: #1f77b4"/>
     <use xlink:href="#m7bda375655" x="206.25846" y="298.819684" style="fill: #1f77b4; stroke: #1f77b4"/>
     <use xlink:href="#m7bda375655" x="213.125069" y="293.553806" style="fill: #1f77b4; stroke: #1f77b4"/>
     <use xlink:href="#m7bda375655" x="218.05831" y="295.23827" style="fill: #1f77b4; stroke: #1f77b4"/>
     <use xlink:href="#m7bda375655" x="222.986297" y="306.889773" style="fill: #1f77b4; stroke: #1f77b4"/>
     <use xlink:href="#m7bda375655" x="227.914285" y="315.236148" style="fill: #1f77b4; stroke: #1f77b4"/>
     <use xlink:href="#m7bda375655" x="232.831765" y="254.652032" style="fill: #1f77b4; stroke: #1f77b4"/>
     <use xlink:href="#m7bda375655" x="237.749245" y="318.979886" style="fill: #1f77b4; stroke: #1f77b4"/>
     <use xlink:href="#m7bda375655" x="242.677232" y="264.922003" style="fill: #1f77b4; stroke: #1f77b4"/>
     <use xlink:href="#m7bda375655" x="247.594712" y="260.403036" style="fill: #1f77b4; stroke: #1f77b4"/>
     <use xlink:href="#m7bda375655" x="252.517446" y="273.549125" style="fill: #1f77b4; stroke: #1f77b4"/>
     <use xlink:href="#m7bda375655" x="257.445433" y="322.220071" style="fill: #1f77b4; stroke: #1f77b4"/>
     <use xlink:href="#m7bda375655" x="264.32255" y="261.424533" style="fill: #1f77b4; stroke: #1f77b4"/>
     <use xlink:href="#m7bda375655" x="269.245283" y="267.41075" style="fill: #1f77b4; stroke: #1f77b4"/>
     <use xlink:href="#m7bda375655" x="274.173271" y="321.995188" style="fill: #1f77b4; stroke: #1f77b4"/>
     <use xlink:href="#m7bda375655" x="279.101258" y="259.551794" style="fill: #1f77b4; stroke: #1f77b4"/>
     <use xlink:href="#m7bda375655" x="284.023991" y="292.591375" style="fill: #1f77b4; stroke: #1f77b4"/>
     <use xlink:href="#m7bda375655" x="288.946725" y="271.023517" style="fill: #1f77b4; stroke: #1f77b4"/>
     <use xlink:href="#m7bda375655" x="293.874712" y="277.419553" style="fill: #1f77b4; stroke: #1f77b4"/>
     <use xlink:href="#m7bda375655" x="298.797446" y="282.016157" style="fill: #1f77b4; stroke: #1f77b4"/>
     <use xlink:href="#m7bda375655" x="303.72018" y="296.83904" style="fill: #1f77b4; stroke: #1f77b4"/>
     <use xlink:href="#m7bda375655" x="308.642913" y="292.91054" style="fill: #1f77b4; stroke: #1f77b4"/>
     <use xlink:href="#m7bda375655" x="315.535791" y="309.466447" style="fill: #1f77b4; stroke: #1f77b4"/>
     <use xlink:href="#m7bda375655" x="320.463779" y="289.705553" style="fill: #1f77b4; stroke: #1f77b4"/>
     <use xlink:href="#m7bda375655" x="325.391766" y="293.574428" style="fill: #1f77b4; stroke: #1f77b4"/>
     <use xlink:href="#m7bda375655" x="330.319753" y="290.531663" style="fill: #1f77b4; stroke: #1f77b4"/>
     <use xlink:href="#m7bda375655" x="335.247741" y="296.567883" style="fill: #1f77b4; stroke: #1f77b4"/>
     <use xlink:href="#m7bda375655" x="340.170474" y="307.986319" style="fill: #1f77b4; stroke: #1f77b4"/>
     <use xlink:href="#m7bda375655" x="345.103715" y="296.716189" style="fill: #1f77b4; stroke: #1f77b4"/>
     <use xlink:href="#m7bda375655" x="350.031703" y="321.117885" style="fill: #1f77b4; stroke: #1f77b4"/>
     <use xlink:href="#m7bda375655" x="354.954436" y="292.708045" style="fill: #1f77b4; stroke: #1f77b4"/>
     <use xlink:href="#m7bda375655" x="359.87717" y="293.650147" style="fill: #1f77b4; stroke: #1f77b4"/>
     <use xlink:href="#m7bda375655" x="366.754287" y="312.103905" style="fill: #1f77b4; stroke: #1f77b4"/>
     <use xlink:href="#m7bda375655" x="371.692781" y="298.807249" style="fill: #1f77b4; stroke: #1f77b4"/>
     <use xlink:href="#m7bda375655" x="376.620769" y="294.895103" style="fill: #1f77b4; stroke: #1f77b4"/>
     <use xlink:href="#m7bda375655" x="381.543502" y="317.770948" style="fill: #1f77b4; stroke: #1f77b4"/>
     <use xlink:href="#m7bda375655" x="386.534534" y="319.141095" style="fill: #1f77b4; stroke: #1f77b4"/>
     <use xlink:href="#m7bda375655" x="391.462522" y="320.061598" style="fill: #1f77b4; stroke: #1f77b4"/>
     <use xlink:href="#m7bda375655" x="396.385255" y="316.622055" style="fill: #1f77b4; stroke: #1f77b4"/>
     <use xlink:href="#m7bda375655" x="401.313243" y="330.365702" style="fill: #1f77b4; stroke: #1f77b4"/>
     <use xlink:href="#m7bda375655" x="406.235976" y="320.595088" style="fill: #1f77b4; stroke: #1f77b4"/>
     <use xlink:href="#m7bda375655" x="411.163964" y="334.999636" style="fill: #1f77b4; stroke: #1f77b4"/>
     <use xlink:href="#m7bda375655" x="418.056841" y="313.321644" style="fill: #1f77b4; stroke: #1f77b4"/>
     <use xlink:href="#m7bda375655" x="422.984829" y="307.869974" style="fill: #1f77b4; stroke: #1f77b4"/>
     <use xlink:href="#m7bda375655" x="427.907562" y="318.743947" style="fill: #1f77b4; stroke: #1f77b4"/>
     <use xlink:href="#m7bda375655" x="432.840803" y="306.663393" style="fill: #1f77b4; stroke: #1f77b4"/>
     <use xlink:href="#m7bda375655" x="437.768791" y="317.289062" style="fill: #1f77b4; stroke: #1f77b4"/>
     <use xlink:href="#m7bda375655" x="442.744062" y="318.51144" style="fill: #1f77b4; stroke: #1f77b4"/>
     <use xlink:href="#m7bda375655" x="447.661541" y="306.406934" style="fill: #1f77b4; stroke: #1f77b4"/>
     <use xlink:href="#m7bda375655" x="452.589529" y="317.106363" style="fill: #1f77b4; stroke: #1f77b4"/>
     <use xlink:href="#m7bda375655" x="457.507009" y="329.132915" style="fill: #1f77b4; stroke: #1f77b4"/>
     <use xlink:href="#m7bda375655" x="462.434996" y="336.757092" style="fill: #1f77b4; stroke: #1f77b4"/>
     <use xlink:href="#m7bda375655" x="469.312113" y="309.036736" style="fill: #1f77b4; stroke: #1f77b4"/>
     <use xlink:href="#m7bda375655" x="474.2401" y="332.936814" style="fill: #1f77b4; stroke: #1f77b4"/>
     <use xlink:href="#m7bda375655" x="479.162834" y="341.99258" style="fill: #1f77b4; stroke: #1f77b4"/>
     <use xlink:href="#m7bda375655" x="484.090821" y="339.007192" style="fill: #1f77b4; stroke: #1f77b4"/>
     <use xlink:href="#m7bda375655" x="489.018808" y="340.05086" style="fill: #1f77b4; stroke: #1f77b4"/>
     <use xlink:href="#m7bda375655" x="493.946796" y="338.857756" style="fill: #1f77b4; stroke: #1f77b4"/>
     <use xlink:href="#m7bda375655" x="498.874783" y="338.420903" style="fill: #1f77b4; stroke: #1f77b4"/>
     <use xlink:href="#m7bda375655" x="503.797517" y="324.955422" style="fill: #1f77b4; stroke: #1f77b4"/>
     <use xlink:href="#m7bda375655" x="508.725504" y="346.670504" style="fill: #1f77b4; stroke: #1f77b4"/>
     <use xlink:href="#m7bda375655" x="513.653491" y="338.215619" style="fill: #1f77b4; stroke: #1f77b4"/>
     <use xlink:href="#m7bda375655" x="520.551623" y="314.626069" style="fill: #1f77b4; stroke: #1f77b4"/>
     <use xlink:href="#m7bda375655" x="525.484864" y="318.331217" style="fill: #1f77b4; stroke: #1f77b4"/>
     <use xlink:href="#m7bda375655" x="530.412851" y="328.215018" style="fill: #1f77b4; stroke: #1f77b4"/>
     <use xlink:href="#m7bda375655" x="535.340839" y="323.477188" style="fill: #1f77b4; stroke: #1f77b4"/>
     <use xlink:href="#m7bda375655" x="540.268826" y="320.387711" style="fill: #1f77b4; stroke: #1f77b4"/>
     <use xlink:href="#m7bda375655" x="545.196813" y="323.678982" style="fill: #1f77b4; stroke: #1f77b4"/>
     <use xlink:href="#m7bda375655" x="550.130054" y="330.859131" style="fill: #1f77b4; stroke: #1f77b4"/>
     <use xlink:href="#m7bda375655" x="555.058042" y="312.10301" style="fill: #1f77b4; stroke: #1f77b4"/>
     <use xlink:href="#m7bda375655" x="559.991283" y="318.957495" style="fill: #1f77b4; stroke: #1f77b4"/>
     <use xlink:href="#m7bda375655" x="564.914016" y="321.467425" style="fill: #1f77b4; stroke: #1f77b4"/>
     <use xlink:href="#m7bda375655" x="571.801641" y="327.372135" style="fill: #1f77b4; stroke: #1f77b4"/>
     <use xlink:href="#m7bda375655" x="576.740135" y="346.960227" style="fill: #1f77b4; stroke: #1f77b4"/>
     <use xlink:href="#m7bda375655" x="581.668123" y="339.048115" style="fill: #1f77b4; stroke: #1f77b4"/>
     <use xlink:href="#m7bda375655" x="586.590856" y="322.335151" style="fill: #1f77b4; stroke: #1f77b4"/>
     <use xlink:href="#m7bda375655" x="591.524097" y="316.356644" style="fill: #1f77b4; stroke: #1f77b4"/>
     <use xlink:href="#m7bda375655" x="596.452085" y="320.045247" style="fill: #1f77b4; stroke: #1f77b4"/>
     <use xlink:href="#m7bda375655" x="601.385326" y="326.105098" style="fill: #1f77b4; stroke: #1f77b4"/>
     <use xlink:href="#m7bda375655" x="606.313313" y="344.672901" style="fill: #1f77b4; stroke: #1f77b4"/>
     <use xlink:href="#m7bda375655" x="611.241301" y="342.87956" style="fill: #1f77b4; stroke: #1f77b4"/>
     <use xlink:href="#m7bda375655" x="616.169288" y="320.718457" style="fill: #1f77b4; stroke: #1f77b4"/>
     <use xlink:href="#m7bda375655" x="623.072673" y="320.921478" style="fill: #1f77b4; stroke: #1f77b4"/>
     <use xlink:href="#m7bda375655" x="627.995407" y="327.346016" style="fill: #1f77b4; stroke: #1f77b4"/>
     <use xlink:href="#m7bda375655" x="632.928648" y="345.432064" style="fill: #1f77b4; stroke: #1f77b4"/>
     <use xlink:href="#m7bda375655" x="637.867143" y="319.446169" style="fill: #1f77b4; stroke: #1f77b4"/>
     <use xlink:href="#m7bda375655" x="642.79513" y="338.576905" style="fill: #1f77b4; stroke: #1f77b4"/>
     <use xlink:href="#m7bda375655" x="647.723117" y="339.244768" style="fill: #1f77b4; stroke: #1f77b4"/>
     <use xlink:href="#m7bda375655" x="652.661612" y="327.379183" style="fill: #1f77b4; stroke: #1f77b4"/>
     <use xlink:href="#m7bda375655" x="657.589599" y="353.394" style="fill: #1f77b4; stroke: #1f77b4"/>
     <use xlink:href="#m7bda375655" x="662.517587" y="346.307274" style="fill: #1f77b4; stroke: #1f77b4"/>
     <use xlink:href="#m7bda375655" x="667.445574" y="334.371855" style="fill: #1f77b4; stroke: #1f77b4"/>
     <use xlink:href="#m7bda375655" x="674.343706" y="334.215827" style="fill: #1f77b4; stroke: #1f77b4"/>
     <use xlink:href="#m7bda375655" x="679.271693" y="324.346725" style="fill: #1f77b4; stroke: #1f77b4"/>
     <use xlink:href="#m7bda375655" x="684.19968" y="322.040572" style="fill: #1f77b4; stroke: #1f77b4"/>
     <use xlink:href="#m7bda375655" x="689.180205" y="321.717605" style="fill: #1f77b4; stroke: #1f77b4"/>
     <use xlink:href="#m7bda375655" x="694.108192" y="348.262559" style="fill: #1f77b4; stroke: #1f77b4"/>
     <use xlink:href="#m7bda375655" x="699.03618" y="336.124309" style="fill: #1f77b4; stroke: #1f77b4"/>
     <use xlink:href="#m7bda375655" x="703.964167" y="327.469224" style="fill: #1f77b4; stroke: #1f77b4"/>
     <use xlink:href="#m7bda375655" x="708.897408" y="331.369167" style="fill: #1f77b4; stroke: #1f77b4"/>
     <use xlink:href="#m7bda375655" x="713.830649" y="329.624452" style="fill: #1f77b4; stroke: #1f77b4"/>
     <use xlink:href="#m7bda375655" x="718.758636" y="337.051515" style="fill: #1f77b4; stroke: #1f77b4"/>
    </g>
   </g>
   <g id="line2d_16">
    <path d="M 718.758636 368.514
L 718.758636 35.874
" clip-path="url(#pd23f9d706b)" style="fill: none; stroke-dasharray: 5.55,2.4; stroke-dashoffset: 0; stroke: #ff0000; stroke-width: 1.5"/>
   </g>
   <g id="patch_3">
    <path d="M 79.595 368.514
L 79.595 35.874
" style="fill: none; stroke: #000000; stroke-width: 3; stroke-linejoin: miter; stroke-linecap: square"/>
   </g>
   <g id="patch_4">
    <path d="M 749.195 368.514
L 749.195 35.874
" style="fill: none; stroke: #000000; stroke-width: 3; stroke-linejoin: miter; stroke-linecap: square"/>
   </g>
   <g id="patch_5">
    <path d="M 79.595 368.514
L 749.195 368.514
" style="fill: none; stroke: #000000; stroke-width: 3; stroke-linejoin: miter; stroke-linecap: square"/>
   </g>
   <g id="patch_6">
    <path d="M 79.595 35.874
L 749.195 35.874
" style="fill: none; stroke: #000000; stroke-width: 3; stroke-linejoin: miter; stroke-linecap: square"/>
   </g>
   <g id="text_16">
    <!-- Jaccard index for BH_v7_1H -->
    <g transform="translate(216.1385 29.0835) scale(0.288 -0.288)">
     <defs>
      <path id="DejaVuSans-66" d="M 2375 4863
L 2375 4384
L 1825 4384
Q 1516 4384 1395 4259
Q 1275 4134 1275 3809
L 1275 3500
L 2222 3500
L 2222 3053
L 1275 3053
L 1275 0
L 697 0
L 697 3053
L 147 3053
L 147 3500
L 697 3500
L 697 3744
Q 697 4328 969 4595
Q 1241 4863 1831 4863
L 2375 4863
z
" transform="scale(0.015625)"/>
      <path id="DejaVuSans-6f" d="M 1959 3097
Q 1497 3097 1228 2736
Q 959 2375 959 1747
Q 959 1119 1226 758
Q 1494 397 1959 397
Q 2419 397 2687 759
Q 2956 1122 2956 1747
Q 2956 2369 2687 2733
Q 2419 3097 1959 3097
z
M 1959 3584
Q 2709 3584 3137 3096
Q 3566 2609 3566 1747
Q 3566 888 3137 398
Q 2709 -91 1959 -91
Q 1206 -91 779 398
Q 353 888 353 1747
Q 353 2609 779 3096
Q 1206 3584 1959 3584
z
" transform="scale(0.015625)"/>
      <path id="DejaVuSans-42" d="M 1259 2228
L 1259 519
L 2272 519
Q 2781 519 3026 730
Q 3272 941 3272 1375
Q 3272 1813 3026 2020
Q 2781 2228 2272 2228
L 1259 2228
z
M 1259 4147
L 1259 2741
L 2194 2741
Q 2656 2741 2882 2914
Q 3109 3088 3109 3444
Q 3109 3797 2882 3972
Q 2656 4147 2194 4147
L 1259 4147
z
M 628 4666
L 2241 4666
Q 2963 4666 3353 4366
Q 3744 4066 3744 3513
Q 3744 3084 3544 2831
Q 3344 2578 2956 2516
Q 3422 2416 3680 2098
Q 3938 1781 3938 1306
Q 3938 681 3513 340
Q 3088 0 2303 0
L 628 0
L 628 4666
z
" transform="scale(0.015625)"/>
      <path id="DejaVuSans-48" d="M 628 4666
L 1259 4666
L 1259 2753
L 3553 2753
L 3553 4666
L 4184 4666
L 4184 0
L 3553 0
L 3553 2222
L 1259 2222
L 1259 0
L 628 0
L 628 4666
z
" transform="scale(0.015625)"/>
      <path id="DejaVuSans-5f" d="M 3263 -1063
L 3263 -1509
L -63 -1509
L -63 -1063
L 3263 -1063
z
" transform="scale(0.015625)"/>
      <path id="DejaVuSans-76" d="M 191 3500
L 800 3500
L 1894 563
L 2988 3500
L 3597 3500
L 2284 0
L 1503 0
L 191 3500
z
" transform="scale(0.015625)"/>
     </defs>
     <use xlink:href="#DejaVuSans-4a"/>
     <use xlink:href="#DejaVuSans-61" transform="translate(29.492188 0)"/>
     <use xlink:href="#DejaVuSans-63" transform="translate(90.771484 0)"/>
     <use xlink:href="#DejaVuSans-63" transform="translate(145.751953 0)"/>
     <use xlink:href="#DejaVuSans-61" transform="translate(200.732422 0)"/>
     <use xlink:href="#DejaVuSans-72" transform="translate(262.011719 0)"/>
     <use xlink:href="#DejaVuSans-64" transform="translate(301.375 0)"/>
     <use xlink:href="#DejaVuSans-20" transform="translate(364.851562 0)"/>
     <use xlink:href="#DejaVuSans-69" transform="translate(396.638672 0)"/>
     <use xlink:href="#DejaVuSans-6e" transform="translate(424.421875 0)"/>
     <use xlink:href="#DejaVuSans-64" transform="translate(487.800781 0)"/>
     <use xlink:href="#DejaVuSans-65" transform="translate(551.277344 0)"/>
     <use xlink:href="#DejaVuSans-78" transform="translate(611.050781 0)"/>
     <use xlink:href="#DejaVuSans-20" transform="translate(670.230469 0)"/>
     <use xlink:href="#DejaVuSans-66" transform="translate(702.017578 0)"/>
     <use xlink:href="#DejaVuSans-6f" transform="translate(737.222656 0)"/>
     <use xlink:href="#DejaVuSans-72" transform="translate(798.404297 0)"/>
     <use xlink:href="#DejaVuSans-20" transform="translate(839.517578 0)"/>
     <use xlink:href="#DejaVuSans-42" transform="translate(871.304688 0)"/>
     <use xlink:href="#DejaVuSans-48" transform="translate(939.908203 0)"/>
     <use xlink:href="#DejaVuSans-5f" transform="translate(1015.103516 0)"/>
     <use xlink:href="#DejaVuSans-76" transform="translate(1065.103516 0)"/>
     <use xlink:href="#DejaVuSans-37" transform="translate(1124.283203 0)"/>
     <use xlink:href="#DejaVuSans-5f" transform="translate(1187.90625 0)"/>
     <use xlink:href="#DejaVuSans-31" transform="translate(1237.90625 0)"/>
     <use xlink:href="#DejaVuSans-48" transform="translate(1301.529297 0)"/>
    </g>
   </g>
   <g id="legend_1">
    <g id="patch_7">
     <path d="M 136.435625 125.529
L 692.354375 125.529
Q 697.154375 125.529 697.154375 120.729
L 697.154375 52.674
Q 697.154375 47.874 692.354375 47.874
L 136.435625 47.874
Q 131.635625 47.874 131.635625 52.674
L 131.635625 120.729
Q 131.635625 125.529 136.435625 125.529
z
" style="fill: #ffffff; opacity: 0.8; stroke: #cccccc; stroke-linejoin: miter"/>
    </g>
    <g id="line2d_17">
     <path d="M 141.235625 67.31025
L 165.235625 67.31025
L 189.235625 67.31025
" style="fill: none; stroke: #ff0000; stroke-width: 1.5; stroke-linecap: square"/>
    </g>
    <g id="text_17">
     <!-- fit 1st: a=0.288, b=2.035e-04, c=0.721 -->
     <g transform="translate(208.435625 75.71025) scale(0.24 -0.24)">
      <defs>
       <path id="DejaVuSans-74" d="M 1172 4494
L 1172 3500
L 2356 3500
L 2356 3053
L 1172 3053
L 1172 1153
Q 1172 725 1289 603
Q 1406 481 1766 481
L 2356 481
L 2356 0
L 1766 0
Q 1100 0 847 248
Q 594 497 594 1153
L 594 3053
L 172 3053
L 172 3500
L 594 3500
L 594 4494
L 1172 4494
z
" transform="scale(0.015625)"/>
       <path id="DejaVuSans-73" d="M 2834 3397
L 2834 2853
Q 2591 2978 2328 3040
Q 2066 3103 1784 3103
Q 1356 3103 1142 2972
Q 928 2841 928 2578
Q 928 2378 1081 2264
Q 1234 2150 1697 2047
L 1894 2003
Q 2506 1872 2764 1633
Q 3022 1394 3022 966
Q 3022 478 2636 193
Q 2250 -91 1575 -91
Q 1294 -91 989 -36
Q 684 19 347 128
L 347 722
Q 666 556 975 473
Q 1284 391 1588 391
Q 1994 391 2212 530
Q 2431 669 2431 922
Q 2431 1156 2273 1281
Q 2116 1406 1581 1522
L 1381 1569
Q 847 1681 609 1914
Q 372 2147 372 2553
Q 372 3047 722 3315
Q 1072 3584 1716 3584
Q 2034 3584 2315 3537
Q 2597 3491 2834 3397
z
" transform="scale(0.015625)"/>
       <path id="DejaVuSans-3a" d="M 750 794
L 1409 794
L 1409 0
L 750 0
L 750 794
z
M 750 3309
L 1409 3309
L 1409 2516
L 750 2516
L 750 3309
z
" transform="scale(0.015625)"/>
       <path id="DejaVuSans-3d" d="M 678 2906
L 4684 2906
L 4684 2381
L 678 2381
L 678 2906
z
M 678 1631
L 4684 1631
L 4684 1100
L 678 1100
L 678 1631
z
" transform="scale(0.015625)"/>
       <path id="DejaVuSans-2c" d="M 750 794
L 1409 794
L 1409 256
L 897 -744
L 494 -744
L 750 256
L 750 794
z
" transform="scale(0.015625)"/>
       <path id="DejaVuSans-62" d="M 3116 1747
Q 3116 2381 2855 2742
Q 2594 3103 2138 3103
Q 1681 3103 1420 2742
Q 1159 2381 1159 1747
Q 1159 1113 1420 752
Q 1681 391 2138 391
Q 2594 391 2855 752
Q 3116 1113 3116 1747
z
M 1159 2969
Q 1341 3281 1617 3432
Q 1894 3584 2278 3584
Q 2916 3584 3314 3078
Q 3713 2572 3713 1747
Q 3713 922 3314 415
Q 2916 -91 2278 -91
Q 1894 -91 1617 61
Q 1341 213 1159 525
L 1159 0
L 581 0
L 581 4863
L 1159 4863
L 1159 2969
z
" transform="scale(0.015625)"/>
       <path id="DejaVuSans-33" d="M 2597 2516
Q 3050 2419 3304 2112
Q 3559 1806 3559 1356
Q 3559 666 3084 287
Q 2609 -91 1734 -91
Q 1441 -91 1130 -33
Q 819 25 488 141
L 488 750
Q 750 597 1062 519
Q 1375 441 1716 441
Q 2309 441 2620 675
Q 2931 909 2931 1356
Q 2931 1769 2642 2001
Q 2353 2234 1838 2234
L 1294 2234
L 1294 2753
L 1863 2753
Q 2328 2753 2575 2939
Q 2822 3125 2822 3475
Q 2822 3834 2567 4026
Q 2313 4219 1838 4219
Q 1578 4219 1281 4162
Q 984 4106 628 3988
L 628 4550
Q 988 4650 1302 4700
Q 1616 4750 1894 4750
Q 2613 4750 3031 4423
Q 3450 4097 3450 3541
Q 3450 3153 3228 2886
Q 3006 2619 2597 2516
z
" transform="scale(0.015625)"/>
       <path id="DejaVuSans-2d" d="M 313 2009
L 1997 2009
L 1997 1497
L 313 1497
L 313 2009
z
" transform="scale(0.015625)"/>
       <path id="DejaVuSans-34" d="M 2419 4116
L 825 1625
L 2419 1625
L 2419 4116
z
M 2253 4666
L 3047 4666
L 3047 1625
L 3713 1625
L 3713 1100
L 3047 1100
L 3047 0
L 2419 0
L 2419 1100
L 313 1100
L 313 1709
L 2253 4666
z
" transform="scale(0.015625)"/>
      </defs>
      <use xlink:href="#DejaVuSans-66"/>
      <use xlink:href="#DejaVuSans-69" transform="translate(35.205078 0)"/>
      <use xlink:href="#DejaVuSans-74" transform="translate(62.988281 0)"/>
      <use xlink:href="#DejaVuSans-20" transform="translate(102.197266 0)"/>
      <use xlink:href="#DejaVuSans-31" transform="translate(133.984375 0)"/>
      <use xlink:href="#DejaVuSans-73" transform="translate(197.607422 0)"/>
      <use xlink:href="#DejaVuSans-74" transform="translate(249.707031 0)"/>
      <use xlink:href="#DejaVuSans-3a" transform="translate(288.916016 0)"/>
      <use xlink:href="#DejaVuSans-20" transform="translate(322.607422 0)"/>
      <use xlink:href="#DejaVuSans-61" transform="translate(354.394531 0)"/>
      <use xlink:href="#DejaVuSans-3d" transform="translate(415.673828 0)"/>
      <use xlink:href="#DejaVuSans-30" transform="translate(499.462891 0)"/>
      <use xlink:href="#DejaVuSans-2e" transform="translate(563.085938 0)"/>
      <use xlink:href="#DejaVuSans-32" transform="translate(594.873047 0)"/>
      <use xlink:href="#DejaVuSans-38" transform="translate(658.496094 0)"/>
      <use xlink:href="#DejaVuSans-38" transform="translate(722.119141 0)"/>
      <use xlink:href="#DejaVuSans-2c" transform="translate(785.742188 0)"/>
      <use xlink:href="#DejaVuSans-20" transform="translate(817.529297 0)"/>
      <use xlink:href="#DejaVuSans-62" transform="translate(849.316406 0)"/>
      <use xlink:href="#DejaVuSans-3d" transform="translate(912.792969 0)"/>
      <use xlink:href="#DejaVuSans-32" transform="translate(996.582031 0)"/>
      <use xlink:href="#DejaVuSans-2e" transform="translate(1060.205078 0)"/>
      <use xlink:href="#DejaVuSans-30" transform="translate(1091.992188 0)"/>
      <use xlink:href="#DejaVuSans-33" transform="translate(1155.615234 0)"/>
      <use xlink:href="#DejaVuSans-35" transform="translate(1219.238281 0)"/>
      <use xlink:href="#DejaVuSans-65" transform="translate(1282.861328 0)"/>
      <use xlink:href="#DejaVuSans-2d" transform="translate(1344.384766 0)"/>
      <use xlink:href="#DejaVuSans-30" transform="translate(1380.46875 0)"/>
      <use xlink:href="#DejaVuSans-34" transform="translate(1444.091797 0)"/>
      <use xlink:href="#DejaVuSans-2c" transform="translate(1507.714844 0)"/>
      <use xlink:href="#DejaVuSans-20" transform="translate(1539.501953 0)"/>
      <use xlink:href="#DejaVuSans-63" transform="translate(1571.289062 0)"/>
      <use xlink:href="#DejaVuSans-3d" transform="translate(1626.269531 0)"/>
      <use xlink:href="#DejaVuSans-30" transform="translate(1710.058594 0)"/>
      <use xlink:href="#DejaVuSans-2e" transform="translate(1773.681641 0)"/>
      <use xlink:href="#DejaVuSans-37" transform="translate(1805.46875 0)"/>
      <use xlink:href="#DejaVuSans-32" transform="translate(1869.091797 0)"/>
      <use xlink:href="#DejaVuSans-31" transform="translate(1932.714844 0)"/>
     </g>
    </g>
    <g id="line2d_18">
     <path d="M 141.235625 102.53775
L 165.235625 102.53775
L 189.235625 102.53775
" style="fill: none; stroke-dasharray: 5.55,2.4; stroke-dashoffset: 0; stroke: #ff0000; stroke-width: 1.5"/>
    </g>
    <g id="text_18">
     <!-- Plateau after None -->
     <g transform="translate(208.435625 110.93775) scale(0.24 -0.24)">
      <defs>
       <path id="DejaVuSans-50" d="M 1259 4147
L 1259 2394
L 2053 2394
Q 2494 2394 2734 2622
Q 2975 2850 2975 3272
Q 2975 3691 2734 3919
Q 2494 4147 2053 4147
L 1259 4147
z
M 628 4666
L 2053 4666
Q 2838 4666 3239 4311
Q 3641 3956 3641 3272
Q 3641 2581 3239 2228
Q 2838 1875 2053 1875
L 1259 1875
L 1259 0
L 628 0
L 628 4666
z
" transform="scale(0.015625)"/>
       <path id="DejaVuSans-6c" d="M 603 4863
L 1178 4863
L 1178 0
L 603 0
L 603 4863
z
" transform="scale(0.015625)"/>
       <path id="DejaVuSans-75" d="M 544 1381
L 544 3500
L 1119 3500
L 1119 1403
Q 1119 906 1312 657
Q 1506 409 1894 409
Q 2359 409 2629 706
Q 2900 1003 2900 1516
L 2900 3500
L 3475 3500
L 3475 0
L 2900 0
L 2900 538
Q 2691 219 2414 64
Q 2138 -91 1772 -91
Q 1169 -91 856 284
Q 544 659 544 1381
z
M 1991 3584
L 1991 3584
z
" transform="scale(0.015625)"/>
       <path id="DejaVuSans-4e" d="M 628 4666
L 1478 4666
L 3547 763
L 3547 4666
L 4159 4666
L 4159 0
L 3309 0
L 1241 3903
L 1241 0
L 628 0
L 628 4666
z
" transform="scale(0.015625)"/>
      </defs>
      <use xlink:href="#DejaVuSans-50"/>
      <use xlink:href="#DejaVuSans-6c" transform="translate(60.302734 0)"/>
      <use xlink:href="#DejaVuSans-61" transform="translate(88.085938 0)"/>
      <use xlink:href="#DejaVuSans-74" transform="translate(149.365234 0)"/>
      <use xlink:href="#DejaVuSans-65" transform="translate(188.574219 0)"/>
      <use xlink:href="#DejaVuSans-61" transform="translate(250.097656 0)"/>
      <use xlink:href="#DejaVuSans-75" transform="translate(311.376953 0)"/>
      <use xlink:href="#DejaVuSans-20" transform="translate(374.755859 0)"/>
      <use xlink:href="#DejaVuSans-61" transform="translate(406.542969 0)"/>
      <use xlink:href="#DejaVuSans-66" transform="translate(467.822266 0)"/>
      <use xlink:href="#DejaVuSans-74" transform="translate(501.277344 0)"/>
      <use xlink:href="#DejaVuSans-65" transform="translate(540.486328 0)"/>
      <use xlink:href="#DejaVuSans-72" transform="translate(602.009766 0)"/>
      <use xlink:href="#DejaVuSans-20" transform="translate(643.123047 0)"/>
      <use xlink:href="#DejaVuSans-4e" transform="translate(674.910156 0)"/>
      <use xlink:href="#DejaVuSans-6f" transform="translate(749.714844 0)"/>
      <use xlink:href="#DejaVuSans-6e" transform="translate(810.896484 0)"/>
      <use xlink:href="#DejaVuSans-65" transform="translate(874.275391 0)"/>
     </g>
    </g>
   </g>
  </g>
 </g>
 <defs>
  <clipPath id="pd23f9d706b">
   <rect x="79.595" y="35.874" width="669.6" height="332.64"/>
  </clipPath>
 </defs>
</svg>
