<?xml version="1.0" encoding="utf-8" standalone="no"?>
<!DOCTYPE svg PUBLIC "-//W3C//DTD SVG 1.1//EN"
  "http://www.w3.org/Graphics/SVG/1.1/DTD/svg11.dtd">
<svg xmlns:xlink="http://www.w3.org/1999/xlink" width="798.685809pt" height="433.169pt" viewBox="0 0 798.685809 433.169" xmlns="http://www.w3.org/2000/svg" version="1.1">
 <metadata>
  <rdf:RDF xmlns:dc="http://purl.org/dc/elements/1.1/" xmlns:cc="http://creativecommons.org/ns#" xmlns:rdf="http://www.w3.org/1999/02/22-rdf-syntax-ns#">
   <cc:Work>
    <dc:type rdf:resource="http://purl.org/dc/dcmitype/StillImage"/>
    <dc:date>2025-11-02T14:14:39.311022</dc:date>
    <dc:format>image/svg+xml</dc:format>
    <dc:creator>
     <cc:Agent>
      <dc:title>Matplotlib v3.10.7, https://matplotlib.org/</dc:title>
     </cc:Agent>
    </dc:creator>
   </cc:Work>
  </rdf:RDF>
 </metadata>
 <defs>
  <style type="text/css">*{stroke-linejoin: round; stroke-linecap: butt}</style>
 </defs>
 <g id="figure_1">
  <g id="patch_1">
   <path d="M 0 433.169
L 798.685809 433.169
L 798.685809 0
L 0 0
L 0 433.169
z
" style="fill: none"/>
  </g>
  <g id="axes_1">
   <g id="patch_2">
    <path d="M 99.70625 368.514
L 769.30625 368.514
L 769.30625 35.874
L 99.70625 35.874
L 99.70625 368.514
z
" style="fill: none"/>
   </g>
   <g id="matplotlib.axis_1">
    <g id="xtick_1">
     <g id="line2d_1">
      <defs>
       <path id="m276bbd6ac6" d="M 0 0
L 0 3.5
" style="stroke: #000000; stroke-width: 3"/>
      </defs>
      <g>
       <use xlink:href="#m276bbd6ac6" x="120.135289" y="368.514" style="stroke: #000000; stroke-width: 3"/>
      </g>
     </g>
     <g id="text_1">
      <!-- 0 -->
      <g transform="translate(112.500289 393.75025) scale(0.24 -0.24)">
       <defs>
        <path id="DejaVuSans-30" d="M 2034 4250
Q 1547 4250 1301 3770
Q 1056 3291 1056 2328
Q 1056 1369 1301 889
Q 1547 409 2034 409
Q 2525 409 2770 889
Q 3016 1369 3016 2328
Q 3016 3291 2770 3770
Q 2525 4250 2034 4250
z
M 2034 4750
Q 2819 4750 3233 4129
Q 3647 3509 3647 2328
Q 3647 1150 3233 529
Q 2819 -91 2034 -91
Q 1250 -91 836 529
Q 422 1150 422 2328
Q 422 3509 836 4129
Q 1250 4750 2034 4750
z
" transform="scale(0.015625)"/>
       </defs>
       <use xlink:href="#DejaVuSans-30"/>
      </g>
     </g>
    </g>
    <g id="xtick_2">
     <g id="line2d_2">
      <g>
       <use xlink:href="#m276bbd6ac6" x="200.236604" y="368.514" style="stroke: #000000; stroke-width: 3"/>
      </g>
     </g>
     <g id="text_2">
      <!-- 250 -->
      <g transform="translate(177.331604 393.75025) scale(0.24 -0.24)">
       <defs>
        <path id="DejaVuSans-32" d="M 1228 531
L 3431 531
L 3431 0
L 469 0
L 469 531
Q 828 903 1448 1529
Q 2069 2156 2228 2338
Q 2531 2678 2651 2914
Q 2772 3150 2772 3378
Q 2772 3750 2511 3984
Q 2250 4219 1831 4219
Q 1534 4219 1204 4116
Q 875 4013 500 3803
L 500 4441
Q 881 4594 1212 4672
Q 1544 4750 1819 4750
Q 2544 4750 2975 4387
Q 3406 4025 3406 3419
Q 3406 3131 3298 2873
Q 3191 2616 2906 2266
Q 2828 2175 2409 1742
Q 1991 1309 1228 531
z
" transform="scale(0.015625)"/>
        <path id="DejaVuSans-35" d="M 691 4666
L 3169 4666
L 3169 4134
L 1269 4134
L 1269 2991
Q 1406 3038 1543 3061
Q 1681 3084 1819 3084
Q 2600 3084 3056 2656
Q 3513 2228 3513 1497
Q 3513 744 3044 326
Q 2575 -91 1722 -91
Q 1428 -91 1123 -41
Q 819 9 494 109
L 494 744
Q 775 591 1075 516
Q 1375 441 1709 441
Q 2250 441 2565 725
Q 2881 1009 2881 1497
Q 2881 1984 2565 2268
Q 2250 2553 1709 2553
Q 1456 2553 1204 2497
Q 953 2441 691 2322
L 691 4666
z
" transform="scale(0.015625)"/>
       </defs>
       <use xlink:href="#DejaVuSans-32"/>
       <use xlink:href="#DejaVuSans-35" transform="translate(63.623047 0)"/>
       <use xlink:href="#DejaVuSans-30" transform="translate(127.246094 0)"/>
      </g>
     </g>
    </g>
    <g id="xtick_3">
     <g id="line2d_3">
      <g>
       <use xlink:href="#m276bbd6ac6" x="280.337919" y="368.514" style="stroke: #000000; stroke-width: 3"/>
      </g>
     </g>
     <g id="text_3">
      <!-- 500 -->
      <g transform="translate(257.432919 393.75025) scale(0.24 -0.24)">
       <use xlink:href="#DejaVuSans-35"/>
       <use xlink:href="#DejaVuSans-30" transform="translate(63.623047 0)"/>
       <use xlink:href="#DejaVuSans-30" transform="translate(127.246094 0)"/>
      </g>
     </g>
    </g>
    <g id="xtick_4">
     <g id="line2d_4">
      <g>
       <use xlink:href="#m276bbd6ac6" x="360.439234" y="368.514" style="stroke: #000000; stroke-width: 3"/>
      </g>
     </g>
     <g id="text_4">
      <!-- 750 -->
      <g transform="translate(337.534234 393.75025) scale(0.24 -0.24)">
       <defs>
        <path id="DejaVuSans-37" d="M 525 4666
L 3525 4666
L 3525 4397
L 1831 0
L 1172 0
L 2766 4134
L 525 4134
L 525 4666
z
" transform="scale(0.015625)"/>
       </defs>
       <use xlink:href="#DejaVuSans-37"/>
       <use xlink:href="#DejaVuSans-35" transform="translate(63.623047 0)"/>
       <use xlink:href="#DejaVuSans-30" transform="translate(127.246094 0)"/>
      </g>
     </g>
    </g>
    <g id="xtick_5">
     <g id="line2d_5">
      <g>
       <use xlink:href="#m276bbd6ac6" x="440.540549" y="368.514" style="stroke: #000000; stroke-width: 3"/>
      </g>
     </g>
     <g id="text_5">
      <!-- 1000 -->
      <g transform="translate(410.000549 393.75025) scale(0.24 -0.24)">
       <defs>
        <path id="DejaVuSans-31" d="M 794 531
L 1825 531
L 1825 4091
L 703 3866
L 703 4441
L 1819 4666
L 2450 4666
L 2450 531
L 3481 531
L 3481 0
L 794 0
L 794 531
z
" transform="scale(0.015625)"/>
       </defs>
       <use xlink:href="#DejaVuSans-31"/>
       <use xlink:href="#DejaVuSans-30" transform="translate(63.623047 0)"/>
       <use xlink:href="#DejaVuSans-30" transform="translate(127.246094 0)"/>
       <use xlink:href="#DejaVuSans-30" transform="translate(190.869141 0)"/>
      </g>
     </g>
    </g>
    <g id="xtick_6">
     <g id="line2d_6">
      <g>
       <use xlink:href="#m276bbd6ac6" x="520.641864" y="368.514" style="stroke: #000000; stroke-width: 3"/>
      </g>
     </g>
     <g id="text_6">
      <!-- 1250 -->
      <g transform="translate(490.101864 393.75025) scale(0.24 -0.24)">
       <use xlink:href="#DejaVuSans-31"/>
       <use xlink:href="#DejaVuSans-32" transform="translate(63.623047 0)"/>
       <use xlink:href="#DejaVuSans-35" transform="translate(127.246094 0)"/>
       <use xlink:href="#DejaVuSans-30" transform="translate(190.869141 0)"/>
      </g>
     </g>
    </g>
    <g id="xtick_7">
     <g id="line2d_7">
      <g>
       <use xlink:href="#m276bbd6ac6" x="600.743179" y="368.514" style="stroke: #000000; stroke-width: 3"/>
      </g>
     </g>
     <g id="text_7">
      <!-- 1500 -->
      <g transform="translate(570.203179 393.75025) scale(0.24 -0.24)">
       <use xlink:href="#DejaVuSans-31"/>
       <use xlink:href="#DejaVuSans-35" transform="translate(63.623047 0)"/>
       <use xlink:href="#DejaVuSans-30" transform="translate(127.246094 0)"/>
       <use xlink:href="#DejaVuSans-30" transform="translate(190.869141 0)"/>
      </g>
     </g>
    </g>
    <g id="xtick_8">
     <g id="line2d_8">
      <g>
       <use xlink:href="#m276bbd6ac6" x="680.844494" y="368.514" style="stroke: #000000; stroke-width: 3"/>
      </g>
     </g>
     <g id="text_8">
      <!-- 1750 -->
      <g transform="translate(650.304494 393.75025) scale(0.24 -0.24)">
       <use xlink:href="#DejaVuSans-31"/>
       <use xlink:href="#DejaVuSans-37" transform="translate(63.623047 0)"/>
       <use xlink:href="#DejaVuSans-35" transform="translate(127.246094 0)"/>
       <use xlink:href="#DejaVuSans-30" transform="translate(190.869141 0)"/>
      </g>
     </g>
    </g>
    <g id="xtick_9">
     <g id="line2d_9">
      <g>
       <use xlink:href="#m276bbd6ac6" x="760.945809" y="368.514" style="stroke: #000000; stroke-width: 3"/>
      </g>
     </g>
     <g id="text_9">
      <!-- 2000 -->
      <g transform="translate(730.405809 393.75025) scale(0.24 -0.24)">
       <use xlink:href="#DejaVuSans-32"/>
       <use xlink:href="#DejaVuSans-30" transform="translate(63.623047 0)"/>
       <use xlink:href="#DejaVuSans-30" transform="translate(127.246094 0)"/>
       <use xlink:href="#DejaVuSans-30" transform="translate(190.869141 0)"/>
      </g>
     </g>
    </g>
    <g id="text_10">
     <!-- Time / min -->
     <g transform="translate(370.848125 420.97775) scale(0.24 -0.24)">
      <defs>
       <path id="DejaVuSans-54" d="M -19 4666
L 3928 4666
L 3928 4134
L 2272 4134
L 2272 0
L 1638 0
L 1638 4134
L -19 4134
L -19 4666
z
" transform="scale(0.015625)"/>
       <path id="DejaVuSans-69" d="M 603 3500
L 1178 3500
L 1178 0
L 603 0
L 603 3500
z
M 603 4863
L 1178 4863
L 1178 4134
L 603 4134
L 603 4863
z
" transform="scale(0.015625)"/>
       <path id="DejaVuSans-6d" d="M 3328 2828
Q 3544 3216 3844 3400
Q 4144 3584 4550 3584
Q 5097 3584 5394 3201
Q 5691 2819 5691 2113
L 5691 0
L 5113 0
L 5113 2094
Q 5113 2597 4934 2840
Q 4756 3084 4391 3084
Q 3944 3084 3684 2787
Q 3425 2491 3425 1978
L 3425 0
L 2847 0
L 2847 2094
Q 2847 2600 2669 2842
Q 2491 3084 2119 3084
Q 1678 3084 1418 2786
Q 1159 2488 1159 1978
L 1159 0
L 581 0
L 581 3500
L 1159 3500
L 1159 2956
Q 1356 3278 1631 3431
Q 1906 3584 2284 3584
Q 2666 3584 2933 3390
Q 3200 3197 3328 2828
z
" transform="scale(0.015625)"/>
       <path id="DejaVuSans-65" d="M 3597 1894
L 3597 1613
L 953 1613
Q 991 1019 1311 708
Q 1631 397 2203 397
Q 2534 397 2845 478
Q 3156 559 3463 722
L 3463 178
Q 3153 47 2828 -22
Q 2503 -91 2169 -91
Q 1331 -91 842 396
Q 353 884 353 1716
Q 353 2575 817 3079
Q 1281 3584 2069 3584
Q 2775 3584 3186 3129
Q 3597 2675 3597 1894
z
M 3022 2063
Q 3016 2534 2758 2815
Q 2500 3097 2075 3097
Q 1594 3097 1305 2825
Q 1016 2553 972 2059
L 3022 2063
z
" transform="scale(0.015625)"/>
       <path id="DejaVuSans-20" transform="scale(0.015625)"/>
       <path id="DejaVuSans-2f" d="M 1625 4666
L 2156 4666
L 531 -594
L 0 -594
L 1625 4666
z
" transform="scale(0.015625)"/>
       <path id="DejaVuSans-6e" d="M 3513 2113
L 3513 0
L 2938 0
L 2938 2094
Q 2938 2591 2744 2837
Q 2550 3084 2163 3084
Q 1697 3084 1428 2787
Q 1159 2491 1159 1978
L 1159 0
L 581 0
L 581 3500
L 1159 3500
L 1159 2956
Q 1366 3272 1645 3428
Q 1925 3584 2291 3584
Q 2894 3584 3203 3211
Q 3513 2838 3513 2113
z
" transform="scale(0.015625)"/>
      </defs>
      <use xlink:href="#DejaVuSans-54"/>
      <use xlink:href="#DejaVuSans-69" transform="translate(57.958984 0)"/>
      <use xlink:href="#DejaVuSans-6d" transform="translate(85.742188 0)"/>
      <use xlink:href="#DejaVuSans-65" transform="translate(183.154297 0)"/>
      <use xlink:href="#DejaVuSans-20" transform="translate(244.677734 0)"/>
      <use xlink:href="#DejaVuSans-2f" transform="translate(276.464844 0)"/>
      <use xlink:href="#DejaVuSans-20" transform="translate(310.15625 0)"/>
      <use xlink:href="#DejaVuSans-6d" transform="translate(341.943359 0)"/>
      <use xlink:href="#DejaVuSans-69" transform="translate(439.355469 0)"/>
      <use xlink:href="#DejaVuSans-6e" transform="translate(467.138672 0)"/>
     </g>
    </g>
   </g>
   <g id="matplotlib.axis_2">
    <g id="ytick_1">
     <g id="line2d_10">
      <defs>
       <path id="m353bdcb523" d="M 0 0
L -3.5 0
" style="stroke: #000000; stroke-width: 3"/>
      </defs>
      <g>
       <use xlink:href="#m353bdcb523" x="99.70625" y="353.394" style="stroke: #000000; stroke-width: 3"/>
      </g>
     </g>
     <g id="text_11">
      <!-- −1.0 -->
      <g transform="translate(34.4275 362.512125) scale(0.24 -0.24)">
       <defs>
        <path id="DejaVuSans-2212" d="M 678 2272
L 4684 2272
L 4684 1741
L 678 1741
L 678 2272
z
" transform="scale(0.015625)"/>
        <path id="DejaVuSans-2e" d="M 684 794
L 1344 794
L 1344 0
L 684 0
L 684 794
z
" transform="scale(0.015625)"/>
       </defs>
       <use xlink:href="#DejaVuSans-2212"/>
       <use xlink:href="#DejaVuSans-31" transform="translate(83.789062 0)"/>
       <use xlink:href="#DejaVuSans-2e" transform="translate(147.412109 0)"/>
       <use xlink:href="#DejaVuSans-30" transform="translate(179.199219 0)"/>
      </g>
     </g>
    </g>
    <g id="ytick_2">
     <g id="line2d_11">
      <g>
       <use xlink:href="#m353bdcb523" x="99.70625" y="256.661448" style="stroke: #000000; stroke-width: 3"/>
      </g>
     </g>
     <g id="text_12">
      <!-- −0.8 -->
      <g transform="translate(34.4275 265.779573) scale(0.24 -0.24)">
       <defs>
        <path id="DejaVuSans-38" d="M 2034 2216
Q 1584 2216 1326 1975
Q 1069 1734 1069 1313
Q 1069 891 1326 650
Q 1584 409 2034 409
Q 2484 409 2743 651
Q 3003 894 3003 1313
Q 3003 1734 2745 1975
Q 2488 2216 2034 2216
z
M 1403 2484
Q 997 2584 770 2862
Q 544 3141 544 3541
Q 544 4100 942 4425
Q 1341 4750 2034 4750
Q 2731 4750 3128 4425
Q 3525 4100 3525 3541
Q 3525 3141 3298 2862
Q 3072 2584 2669 2484
Q 3125 2378 3379 2068
Q 3634 1759 3634 1313
Q 3634 634 3220 271
Q 2806 -91 2034 -91
Q 1263 -91 848 271
Q 434 634 434 1313
Q 434 1759 690 2068
Q 947 2378 1403 2484
z
M 1172 3481
Q 1172 3119 1398 2916
Q 1625 2713 2034 2713
Q 2441 2713 2670 2916
Q 2900 3119 2900 3481
Q 2900 3844 2670 4047
Q 2441 4250 2034 4250
Q 1625 4250 1398 4047
Q 1172 3844 1172 3481
z
" transform="scale(0.015625)"/>
       </defs>
       <use xlink:href="#DejaVuSans-2212"/>
       <use xlink:href="#DejaVuSans-30" transform="translate(83.789062 0)"/>
       <use xlink:href="#DejaVuSans-2e" transform="translate(147.412109 0)"/>
       <use xlink:href="#DejaVuSans-38" transform="translate(179.199219 0)"/>
      </g>
     </g>
    </g>
    <g id="ytick_3">
     <g id="line2d_12">
      <g>
       <use xlink:href="#m353bdcb523" x="99.70625" y="159.928896" style="stroke: #000000; stroke-width: 3"/>
      </g>
     </g>
     <g id="text_13">
      <!-- −0.6 -->
      <g transform="translate(34.4275 169.047021) scale(0.24 -0.24)">
       <defs>
        <path id="DejaVuSans-36" d="M 2113 2584
Q 1688 2584 1439 2293
Q 1191 2003 1191 1497
Q 1191 994 1439 701
Q 1688 409 2113 409
Q 2538 409 2786 701
Q 3034 994 3034 1497
Q 3034 2003 2786 2293
Q 2538 2584 2113 2584
z
M 3366 4563
L 3366 3988
Q 3128 4100 2886 4159
Q 2644 4219 2406 4219
Q 1781 4219 1451 3797
Q 1122 3375 1075 2522
Q 1259 2794 1537 2939
Q 1816 3084 2150 3084
Q 2853 3084 3261 2657
Q 3669 2231 3669 1497
Q 3669 778 3244 343
Q 2819 -91 2113 -91
Q 1303 -91 875 529
Q 447 1150 447 2328
Q 447 3434 972 4092
Q 1497 4750 2381 4750
Q 2619 4750 2861 4703
Q 3103 4656 3366 4563
z
" transform="scale(0.015625)"/>
       </defs>
       <use xlink:href="#DejaVuSans-2212"/>
       <use xlink:href="#DejaVuSans-30" transform="translate(83.789062 0)"/>
       <use xlink:href="#DejaVuSans-2e" transform="translate(147.412109 0)"/>
       <use xlink:href="#DejaVuSans-36" transform="translate(179.199219 0)"/>
      </g>
     </g>
    </g>
    <g id="ytick_4">
     <g id="line2d_13">
      <g>
       <use xlink:href="#m353bdcb523" x="99.70625" y="63.196344" style="stroke: #000000; stroke-width: 3"/>
      </g>
     </g>
     <g id="text_14">
      <!-- −0.4 -->
      <g transform="translate(34.4275 72.314469) scale(0.24 -0.24)">
       <defs>
        <path id="DejaVuSans-34" d="M 2419 4116
L 825 1625
L 2419 1625
L 2419 4116
z
M 2253 4666
L 3047 4666
L 3047 1625
L 3713 1625
L 3713 1100
L 3047 1100
L 3047 0
L 2419 0
L 2419 1100
L 313 1100
L 313 1709
L 2253 4666
z
" transform="scale(0.015625)"/>
       </defs>
       <use xlink:href="#DejaVuSans-2212"/>
       <use xlink:href="#DejaVuSans-30" transform="translate(83.789062 0)"/>
       <use xlink:href="#DejaVuSans-2e" transform="translate(147.412109 0)"/>
       <use xlink:href="#DejaVuSans-34" transform="translate(179.199219 0)"/>
      </g>
     </g>
    </g>
    <g id="text_15">
     <!-- Spearman correlation -->
     <g transform="translate(25.43625 331.735875) rotate(-90) scale(0.24 -0.24)">
      <defs>
       <path id="DejaVuSans-53" d="M 3425 4513
L 3425 3897
Q 3066 4069 2747 4153
Q 2428 4238 2131 4238
Q 1616 4238 1336 4038
Q 1056 3838 1056 3469
Q 1056 3159 1242 3001
Q 1428 2844 1947 2747
L 2328 2669
Q 3034 2534 3370 2195
Q 3706 1856 3706 1288
Q 3706 609 3251 259
Q 2797 -91 1919 -91
Q 1588 -91 1214 -16
Q 841 59 441 206
L 441 856
Q 825 641 1194 531
Q 1563 422 1919 422
Q 2459 422 2753 634
Q 3047 847 3047 1241
Q 3047 1584 2836 1778
Q 2625 1972 2144 2069
L 1759 2144
Q 1053 2284 737 2584
Q 422 2884 422 3419
Q 422 4038 858 4394
Q 1294 4750 2059 4750
Q 2388 4750 2728 4690
Q 3069 4631 3425 4513
z
" transform="scale(0.015625)"/>
       <path id="DejaVuSans-70" d="M 1159 525
L 1159 -1331
L 581 -1331
L 581 3500
L 1159 3500
L 1159 2969
Q 1341 3281 1617 3432
Q 1894 3584 2278 3584
Q 2916 3584 3314 3078
Q 3713 2572 3713 1747
Q 3713 922 3314 415
Q 2916 -91 2278 -91
Q 1894 -91 1617 61
Q 1341 213 1159 525
z
M 3116 1747
Q 3116 2381 2855 2742
Q 2594 3103 2138 3103
Q 1681 3103 1420 2742
Q 1159 2381 1159 1747
Q 1159 1113 1420 752
Q 1681 391 2138 391
Q 2594 391 2855 752
Q 3116 1113 3116 1747
z
" transform="scale(0.015625)"/>
       <path id="DejaVuSans-61" d="M 2194 1759
Q 1497 1759 1228 1600
Q 959 1441 959 1056
Q 959 750 1161 570
Q 1363 391 1709 391
Q 2188 391 2477 730
Q 2766 1069 2766 1631
L 2766 1759
L 2194 1759
z
M 3341 1997
L 3341 0
L 2766 0
L 2766 531
Q 2569 213 2275 61
Q 1981 -91 1556 -91
Q 1019 -91 701 211
Q 384 513 384 1019
Q 384 1609 779 1909
Q 1175 2209 1959 2209
L 2766 2209
L 2766 2266
Q 2766 2663 2505 2880
Q 2244 3097 1772 3097
Q 1472 3097 1187 3025
Q 903 2953 641 2809
L 641 3341
Q 956 3463 1253 3523
Q 1550 3584 1831 3584
Q 2591 3584 2966 3190
Q 3341 2797 3341 1997
z
" transform="scale(0.015625)"/>
       <path id="DejaVuSans-72" d="M 2631 2963
Q 2534 3019 2420 3045
Q 2306 3072 2169 3072
Q 1681 3072 1420 2755
Q 1159 2438 1159 1844
L 1159 0
L 581 0
L 581 3500
L 1159 3500
L 1159 2956
Q 1341 3275 1631 3429
Q 1922 3584 2338 3584
Q 2397 3584 2469 3576
Q 2541 3569 2628 3553
L 2631 2963
z
" transform="scale(0.015625)"/>
       <path id="DejaVuSans-63" d="M 3122 3366
L 3122 2828
Q 2878 2963 2633 3030
Q 2388 3097 2138 3097
Q 1578 3097 1268 2742
Q 959 2388 959 1747
Q 959 1106 1268 751
Q 1578 397 2138 397
Q 2388 397 2633 464
Q 2878 531 3122 666
L 3122 134
Q 2881 22 2623 -34
Q 2366 -91 2075 -91
Q 1284 -91 818 406
Q 353 903 353 1747
Q 353 2603 823 3093
Q 1294 3584 2113 3584
Q 2378 3584 2631 3529
Q 2884 3475 3122 3366
z
" transform="scale(0.015625)"/>
       <path id="DejaVuSans-6f" d="M 1959 3097
Q 1497 3097 1228 2736
Q 959 2375 959 1747
Q 959 1119 1226 758
Q 1494 397 1959 397
Q 2419 397 2687 759
Q 2956 1122 2956 1747
Q 2956 2369 2687 2733
Q 2419 3097 1959 3097
z
M 1959 3584
Q 2709 3584 3137 3096
Q 3566 2609 3566 1747
Q 3566 888 3137 398
Q 2709 -91 1959 -91
Q 1206 -91 779 398
Q 353 888 353 1747
Q 353 2609 779 3096
Q 1206 3584 1959 3584
z
" transform="scale(0.015625)"/>
       <path id="DejaVuSans-6c" d="M 603 4863
L 1178 4863
L 1178 0
L 603 0
L 603 4863
z
" transform="scale(0.015625)"/>
       <path id="DejaVuSans-74" d="M 1172 4494
L 1172 3500
L 2356 3500
L 2356 3053
L 1172 3053
L 1172 1153
Q 1172 725 1289 603
Q 1406 481 1766 481
L 2356 481
L 2356 0
L 1766 0
Q 1100 0 847 248
Q 594 497 594 1153
L 594 3053
L 172 3053
L 172 3500
L 594 3500
L 594 4494
L 1172 4494
z
" transform="scale(0.015625)"/>
      </defs>
      <use xlink:href="#DejaVuSans-53"/>
      <use xlink:href="#DejaVuSans-70" transform="translate(63.476562 0)"/>
      <use xlink:href="#DejaVuSans-65" transform="translate(126.953125 0)"/>
      <use xlink:href="#DejaVuSans-61" transform="translate(188.476562 0)"/>
      <use xlink:href="#DejaVuSans-72" transform="translate(249.755859 0)"/>
      <use xlink:href="#DejaVuSans-6d" transform="translate(289.119141 0)"/>
      <use xlink:href="#DejaVuSans-61" transform="translate(386.53125 0)"/>
      <use xlink:href="#DejaVuSans-6e" transform="translate(447.810547 0)"/>
      <use xlink:href="#DejaVuSans-20" transform="translate(511.189453 0)"/>
      <use xlink:href="#DejaVuSans-63" transform="translate(542.976562 0)"/>
      <use xlink:href="#DejaVuSans-6f" transform="translate(597.957031 0)"/>
      <use xlink:href="#DejaVuSans-72" transform="translate(659.138672 0)"/>
      <use xlink:href="#DejaVuSans-72" transform="translate(698.501953 0)"/>
      <use xlink:href="#DejaVuSans-65" transform="translate(737.365234 0)"/>
      <use xlink:href="#DejaVuSans-6c" transform="translate(798.888672 0)"/>
      <use xlink:href="#DejaVuSans-61" transform="translate(826.671875 0)"/>
      <use xlink:href="#DejaVuSans-74" transform="translate(887.951172 0)"/>
      <use xlink:href="#DejaVuSans-69" transform="translate(927.160156 0)"/>
      <use xlink:href="#DejaVuSans-6f" transform="translate(954.943359 0)"/>
      <use xlink:href="#DejaVuSans-6e" transform="translate(1016.125 0)"/>
     </g>
    </g>
   </g>
   <g id="line2d_14">
    <defs>
     <path id="m8d0dceea6c" d="M 0 3
C 0.795609 3 1.55874 2.683901 2.12132 2.12132
C 2.683901 1.55874 3 0.795609 3 0
C 3 -0.795609 2.683901 -1.55874 2.12132 -2.12132
C 1.55874 -2.683901 0.795609 -3 0 -3
C -0.795609 -3 -1.55874 -2.683901 -2.12132 -2.12132
C -2.683901 -1.55874 -3 -0.795609 -3 0
C -3 0.795609 -2.683901 1.55874 -2.12132 2.12132
C -1.55874 2.683901 -0.795609 3 0 3
z
" style="stroke: #1f77b4"/>
    </defs>
    <g clip-path="url(#p3606c0960c)">
     <use xlink:href="#m8d0dceea6c" x="130.142614" y="353.394" style="fill: #1f77b4; stroke: #1f77b4"/>
     <use xlink:href="#m8d0dceea6c" x="135.146276" y="353.394" style="fill: #1f77b4; stroke: #1f77b4"/>
     <use xlink:href="#m8d0dceea6c" x="140.144598" y="353.394" style="fill: #1f77b4; stroke: #1f77b4"/>
     <use xlink:href="#m8d0dceea6c" x="145.13758" y="353.394" style="fill: #1f77b4; stroke: #1f77b4"/>
     <use xlink:href="#m8d0dceea6c" x="150.135902" y="353.394" style="fill: #1f77b4; stroke: #1f77b4"/>
     <use xlink:href="#m8d0dceea6c" x="155.144904" y="353.394" style="fill: #1f77b4; stroke: #1f77b4"/>
     <use xlink:href="#m8d0dceea6c" x="160.148566" y="353.394" style="fill: #1f77b4; stroke: #1f77b4"/>
     <use xlink:href="#m8d0dceea6c" x="165.157568" y="345.332954" style="fill: #1f77b4; stroke: #1f77b4"/>
     <use xlink:href="#m8d0dceea6c" x="172.142403" y="335.806263" style="fill: #1f77b4; stroke: #1f77b4"/>
     <use xlink:href="#m8d0dceea6c" x="177.135385" y="340.203197" style="fill: #1f77b4; stroke: #1f77b4"/>
     <use xlink:href="#m8d0dceea6c" x="182.133707" y="339.864972" style="fill: #1f77b4; stroke: #1f77b4"/>
     <use xlink:href="#m8d0dceea6c" x="187.142709" y="342.764049" style="fill: #1f77b4; stroke: #1f77b4"/>
     <use xlink:href="#m8d0dceea6c" x="192.899324" y="336.386079" style="fill: #1f77b4; stroke: #1f77b4"/>
     <use xlink:href="#m8d0dceea6c" x="197.902986" y="339.575064" style="fill: #1f77b4; stroke: #1f77b4"/>
     <use xlink:href="#m8d0dceea6c" x="202.906648" y="320.675637" style="fill: #1f77b4; stroke: #1f77b4"/>
     <use xlink:href="#m8d0dceea6c" x="207.91565" y="326.128697" style="fill: #1f77b4; stroke: #1f77b4"/>
     <use xlink:href="#m8d0dceea6c" x="212.940673" y="275.528788" style="fill: #1f77b4; stroke: #1f77b4"/>
     <use xlink:href="#m8d0dceea6c" x="217.944335" y="270.237947" style="fill: #1f77b4; stroke: #1f77b4"/>
     <use xlink:href="#m8d0dceea6c" x="224.92383" y="259.570698" style="fill: #1f77b4; stroke: #1f77b4"/>
     <use xlink:href="#m8d0dceea6c" x="229.938172" y="242.842512" style="fill: #1f77b4; stroke: #1f77b4"/>
     <use xlink:href="#m8d0dceea6c" x="234.947174" y="227.221106" style="fill: #1f77b4; stroke: #1f77b4"/>
     <use xlink:href="#m8d0dceea6c" x="239.956176" y="236.301731" style="fill: #1f77b4; stroke: #1f77b4"/>
     <use xlink:href="#m8d0dceea6c" x="244.954498" y="250.352803" style="fill: #1f77b4; stroke: #1f77b4"/>
     <use xlink:href="#m8d0dceea6c" x="249.95282" y="207.923124" style="fill: #1f77b4; stroke: #1f77b4"/>
     <use xlink:href="#m8d0dceea6c" x="254.961823" y="224.086555" style="fill: #1f77b4; stroke: #1f77b4"/>
     <use xlink:href="#m8d0dceea6c" x="259.960145" y="190.401422" style="fill: #1f77b4; stroke: #1f77b4"/>
     <use xlink:href="#m8d0dceea6c" x="264.963807" y="155.1108" style="fill: #1f77b4; stroke: #1f77b4"/>
     <use xlink:href="#m8d0dceea6c" x="269.972809" y="138.48572" style="fill: #1f77b4; stroke: #1f77b4"/>
     <use xlink:href="#m8d0dceea6c" x="276.962984" y="159.283295" style="fill: #1f77b4; stroke: #1f77b4"/>
     <use xlink:href="#m8d0dceea6c" x="281.966646" y="132.235303" style="fill: #1f77b4; stroke: #1f77b4"/>
     <use xlink:href="#m8d0dceea6c" x="286.975648" y="108.725889" style="fill: #1f77b4; stroke: #1f77b4"/>
     <use xlink:href="#m8d0dceea6c" x="291.98465" y="129.829295" style="fill: #1f77b4; stroke: #1f77b4"/>
     <use xlink:href="#m8d0dceea6c" x="296.988313" y="100.810454" style="fill: #1f77b4; stroke: #1f77b4"/>
     <use xlink:href="#m8d0dceea6c" x="301.991975" y="91.376135" style="fill: #1f77b4; stroke: #1f77b4"/>
     <use xlink:href="#m8d0dceea6c" x="307.000977" y="72.533463" style="fill: #1f77b4; stroke: #1f77b4"/>
     <use xlink:href="#m8d0dceea6c" x="312.004639" y="62.829412" style="fill: #1f77b4; stroke: #1f77b4"/>
     <use xlink:href="#m8d0dceea6c" x="317.008301" y="56.284608" style="fill: #1f77b4; stroke: #1f77b4"/>
     <use xlink:href="#m8d0dceea6c" x="322.011963" y="56.734453" style="fill: #1f77b4; stroke: #1f77b4"/>
     <use xlink:href="#m8d0dceea6c" x="329.018158" y="51.127461" style="fill: #1f77b4; stroke: #1f77b4"/>
     <use xlink:href="#m8d0dceea6c" x="334.027161" y="68.420576" style="fill: #1f77b4; stroke: #1f77b4"/>
     <use xlink:href="#m8d0dceea6c" x="339.036163" y="61.417049" style="fill: #1f77b4; stroke: #1f77b4"/>
     <use xlink:href="#m8d0dceea6c" x="344.045165" y="57.294812" style="fill: #1f77b4; stroke: #1f77b4"/>
     <use xlink:href="#m8d0dceea6c" x="349.054167" y="50.994" style="fill: #1f77b4; stroke: #1f77b4"/>
     <use xlink:href="#m8d0dceea6c" x="354.057829" y="51.280016" style="fill: #1f77b4; stroke: #1f77b4"/>
     <use xlink:href="#m8d0dceea6c" x="359.072172" y="66.030015" style="fill: #1f77b4; stroke: #1f77b4"/>
     <use xlink:href="#m8d0dceea6c" x="364.081174" y="65.310412" style="fill: #1f77b4; stroke: #1f77b4"/>
     <use xlink:href="#m8d0dceea6c" x="369.084836" y="81.215565" style="fill: #1f77b4; stroke: #1f77b4"/>
     <use xlink:href="#m8d0dceea6c" x="374.088498" y="73.955373" style="fill: #1f77b4; stroke: #1f77b4"/>
     <use xlink:href="#m8d0dceea6c" x="381.078673" y="69.258096" style="fill: #1f77b4; stroke: #1f77b4"/>
     <use xlink:href="#m8d0dceea6c" x="386.098355" y="81.536136" style="fill: #1f77b4; stroke: #1f77b4"/>
     <use xlink:href="#m8d0dceea6c" x="391.107358" y="80.365898" style="fill: #1f77b4; stroke: #1f77b4"/>
     <use xlink:href="#m8d0dceea6c" x="396.11102" y="75.332762" style="fill: #1f77b4; stroke: #1f77b4"/>
     <use xlink:href="#m8d0dceea6c" x="401.184103" y="87.586885" style="fill: #1f77b4; stroke: #1f77b4"/>
     <use xlink:href="#m8d0dceea6c" x="406.193105" y="99.942151" style="fill: #1f77b4; stroke: #1f77b4"/>
     <use xlink:href="#m8d0dceea6c" x="411.196767" y="111.397322" style="fill: #1f77b4; stroke: #1f77b4"/>
     <use xlink:href="#m8d0dceea6c" x="416.20577" y="120.873473" style="fill: #1f77b4; stroke: #1f77b4"/>
     <use xlink:href="#m8d0dceea6c" x="421.209432" y="132.696551" style="fill: #1f77b4; stroke: #1f77b4"/>
     <use xlink:href="#m8d0dceea6c" x="426.218434" y="141.837478" style="fill: #1f77b4; stroke: #1f77b4"/>
     <use xlink:href="#m8d0dceea6c" x="433.224629" y="152.241897" style="fill: #1f77b4; stroke: #1f77b4"/>
     <use xlink:href="#m8d0dceea6c" x="438.233631" y="157.575804" style="fill: #1f77b4; stroke: #1f77b4"/>
     <use xlink:href="#m8d0dceea6c" x="443.237293" y="161.224802" style="fill: #1f77b4; stroke: #1f77b4"/>
     <use xlink:href="#m8d0dceea6c" x="448.251636" y="166.935877" style="fill: #1f77b4; stroke: #1f77b4"/>
     <use xlink:href="#m8d0dceea6c" x="453.260638" y="165.443183" style="fill: #1f77b4; stroke: #1f77b4"/>
     <use xlink:href="#m8d0dceea6c" x="458.317701" y="170.329337" style="fill: #1f77b4; stroke: #1f77b4"/>
     <use xlink:href="#m8d0dceea6c" x="463.316023" y="175.053138" style="fill: #1f77b4; stroke: #1f77b4"/>
     <use xlink:href="#m8d0dceea6c" x="468.325025" y="172.729804" style="fill: #1f77b4; stroke: #1f77b4"/>
     <use xlink:href="#m8d0dceea6c" x="473.323347" y="176.689176" style="fill: #1f77b4; stroke: #1f77b4"/>
     <use xlink:href="#m8d0dceea6c" x="478.332349" y="183.908815" style="fill: #1f77b4; stroke: #1f77b4"/>
     <use xlink:href="#m8d0dceea6c" x="485.322524" y="191.07016" style="fill: #1f77b4; stroke: #1f77b4"/>
     <use xlink:href="#m8d0dceea6c" x="490.331526" y="191.718937" style="fill: #1f77b4; stroke: #1f77b4"/>
     <use xlink:href="#m8d0dceea6c" x="495.335189" y="198.145377" style="fill: #1f77b4; stroke: #1f77b4"/>
     <use xlink:href="#m8d0dceea6c" x="500.344191" y="204.439241" style="fill: #1f77b4; stroke: #1f77b4"/>
     <use xlink:href="#m8d0dceea6c" x="505.353193" y="210.383106" style="fill: #1f77b4; stroke: #1f77b4"/>
     <use xlink:href="#m8d0dceea6c" x="510.362195" y="216.000752" style="fill: #1f77b4; stroke: #1f77b4"/>
     <use xlink:href="#m8d0dceea6c" x="515.371197" y="221.274393" style="fill: #1f77b4; stroke: #1f77b4"/>
     <use xlink:href="#m8d0dceea6c" x="520.37486" y="226.228764" style="fill: #1f77b4; stroke: #1f77b4"/>
     <use xlink:href="#m8d0dceea6c" x="525.383862" y="230.128161" style="fill: #1f77b4; stroke: #1f77b4"/>
     <use xlink:href="#m8d0dceea6c" x="530.392864" y="234.75063" style="fill: #1f77b4; stroke: #1f77b4"/>
     <use xlink:href="#m8d0dceea6c" x="537.404399" y="238.850051" style="fill: #1f77b4; stroke: #1f77b4"/>
     <use xlink:href="#m8d0dceea6c" x="542.418741" y="237.120511" style="fill: #1f77b4; stroke: #1f77b4"/>
     <use xlink:href="#m8d0dceea6c" x="547.427744" y="236.827701" style="fill: #1f77b4; stroke: #1f77b4"/>
     <use xlink:href="#m8d0dceea6c" x="552.436746" y="239.640564" style="fill: #1f77b4; stroke: #1f77b4"/>
     <use xlink:href="#m8d0dceea6c" x="557.445748" y="242.166746" style="fill: #1f77b4; stroke: #1f77b4"/>
     <use xlink:href="#m8d0dceea6c" x="562.45475" y="242.861416" style="fill: #1f77b4; stroke: #1f77b4"/>
     <use xlink:href="#m8d0dceea6c" x="567.469093" y="245.030179" style="fill: #1f77b4; stroke: #1f77b4"/>
     <use xlink:href="#m8d0dceea6c" x="572.478095" y="247.543187" style="fill: #1f77b4; stroke: #1f77b4"/>
     <use xlink:href="#m8d0dceea6c" x="577.492437" y="244.100969" style="fill: #1f77b4; stroke: #1f77b4"/>
     <use xlink:href="#m8d0dceea6c" x="582.496099" y="243.198925" style="fill: #1f77b4; stroke: #1f77b4"/>
     <use xlink:href="#m8d0dceea6c" x="589.496954" y="243.917451" style="fill: #1f77b4; stroke: #1f77b4"/>
     <use xlink:href="#m8d0dceea6c" x="594.516637" y="245.630949" style="fill: #1f77b4; stroke: #1f77b4"/>
     <use xlink:href="#m8d0dceea6c" x="599.525639" y="249.107176" style="fill: #1f77b4; stroke: #1f77b4"/>
     <use xlink:href="#m8d0dceea6c" x="604.529301" y="252.053006" style="fill: #1f77b4; stroke: #1f77b4"/>
     <use xlink:href="#m8d0dceea6c" x="609.543643" y="252.995933" style="fill: #1f77b4; stroke: #1f77b4"/>
     <use xlink:href="#m8d0dceea6c" x="614.552646" y="249.816781" style="fill: #1f77b4; stroke: #1f77b4"/>
     <use xlink:href="#m8d0dceea6c" x="619.566988" y="248.847526" style="fill: #1f77b4; stroke: #1f77b4"/>
     <use xlink:href="#m8d0dceea6c" x="624.57599" y="249.885539" style="fill: #1f77b4; stroke: #1f77b4"/>
     <use xlink:href="#m8d0dceea6c" x="629.584992" y="252.867978" style="fill: #1f77b4; stroke: #1f77b4"/>
     <use xlink:href="#m8d0dceea6c" x="634.593995" y="255.716257" style="fill: #1f77b4; stroke: #1f77b4"/>
     <use xlink:href="#m8d0dceea6c" x="641.61087" y="254.821411" style="fill: #1f77b4; stroke: #1f77b4"/>
     <use xlink:href="#m8d0dceea6c" x="646.614532" y="253.878345" style="fill: #1f77b4; stroke: #1f77b4"/>
     <use xlink:href="#m8d0dceea6c" x="651.628874" y="254.41394" style="fill: #1f77b4; stroke: #1f77b4"/>
     <use xlink:href="#m8d0dceea6c" x="656.648557" y="257.083216" style="fill: #1f77b4; stroke: #1f77b4"/>
     <use xlink:href="#m8d0dceea6c" x="661.657559" y="255.21144" style="fill: #1f77b4; stroke: #1f77b4"/>
     <use xlink:href="#m8d0dceea6c" x="666.666561" y="257.047536" style="fill: #1f77b4; stroke: #1f77b4"/>
     <use xlink:href="#m8d0dceea6c" x="671.686243" y="259.149393" style="fill: #1f77b4; stroke: #1f77b4"/>
     <use xlink:href="#m8d0dceea6c" x="676.695246" y="259.312927" style="fill: #1f77b4; stroke: #1f77b4"/>
     <use xlink:href="#m8d0dceea6c" x="681.704248" y="261.902315" style="fill: #1f77b4; stroke: #1f77b4"/>
     <use xlink:href="#m8d0dceea6c" x="686.71325" y="264.182402" style="fill: #1f77b4; stroke: #1f77b4"/>
     <use xlink:href="#m8d0dceea6c" x="693.724785" y="264.836061" style="fill: #1f77b4; stroke: #1f77b4"/>
     <use xlink:href="#m8d0dceea6c" x="698.733787" y="265.417119" style="fill: #1f77b4; stroke: #1f77b4"/>
     <use xlink:href="#m8d0dceea6c" x="703.74279" y="264.786394" style="fill: #1f77b4; stroke: #1f77b4"/>
     <use xlink:href="#m8d0dceea6c" x="708.805193" y="263.469543" style="fill: #1f77b4; stroke: #1f77b4"/>
     <use xlink:href="#m8d0dceea6c" x="713.814195" y="261.803567" style="fill: #1f77b4; stroke: #1f77b4"/>
     <use xlink:href="#m8d0dceea6c" x="718.823197" y="264.145569" style="fill: #1f77b4; stroke: #1f77b4"/>
     <use xlink:href="#m8d0dceea6c" x="723.8322" y="264.738298" style="fill: #1f77b4; stroke: #1f77b4"/>
     <use xlink:href="#m8d0dceea6c" x="728.846542" y="264.23433" style="fill: #1f77b4; stroke: #1f77b4"/>
     <use xlink:href="#m8d0dceea6c" x="733.860884" y="264.316496" style="fill: #1f77b4; stroke: #1f77b4"/>
     <use xlink:href="#m8d0dceea6c" x="738.869886" y="264.029021" style="fill: #1f77b4; stroke: #1f77b4"/>
    </g>
   </g>
   <g id="patch_3">
    <path d="M 99.70625 368.514
L 99.70625 35.874
" style="fill: none; stroke: #000000; stroke-width: 3; stroke-linejoin: miter; stroke-linecap: square"/>
   </g>
   <g id="patch_4">
    <path d="M 769.30625 368.514
L 769.30625 35.874
" style="fill: none; stroke: #000000; stroke-width: 3; stroke-linejoin: miter; stroke-linecap: square"/>
   </g>
   <g id="patch_5">
    <path d="M 99.70625 368.514
L 769.30625 368.514
" style="fill: none; stroke: #000000; stroke-width: 3; stroke-linejoin: miter; stroke-linecap: square"/>
   </g>
   <g id="patch_6">
    <path d="M 99.70625 35.874
L 769.30625 35.874
" style="fill: none; stroke: #000000; stroke-width: 3; stroke-linejoin: miter; stroke-linecap: square"/>
   </g>
   <g id="text_16">
    <!-- Spearman correlation for BH_v7_1H -->
    <g transform="translate(177.31775 29.0835) scale(0.288 -0.288)">
     <defs>
      <path id="DejaVuSans-66" d="M 2375 4863
L 2375 4384
L 1825 4384
Q 1516 4384 1395 4259
Q 1275 4134 1275 3809
L 1275 3500
L 2222 3500
L 2222 3053
L 1275 3053
L 1275 0
L 697 0
L 697 3053
L 147 3053
L 147 3500
L 697 3500
L 697 3744
Q 697 4328 969 4595
Q 1241 4863 1831 4863
L 2375 4863
z
" transform="scale(0.015625)"/>
      <path id="DejaVuSans-42" d="M 1259 2228
L 1259 519
L 2272 519
Q 2781 519 3026 730
Q 3272 941 3272 1375
Q 3272 1813 3026 2020
Q 2781 2228 2272 2228
L 1259 2228
z
M 1259 4147
L 1259 2741
L 2194 2741
Q 2656 2741 2882 2914
Q 3109 3088 3109 3444
Q 3109 3797 2882 3972
Q 2656 4147 2194 4147
L 1259 4147
z
M 628 4666
L 2241 4666
Q 2963 4666 3353 4366
Q 3744 4066 3744 3513
Q 3744 3084 3544 2831
Q 3344 2578 2956 2516
Q 3422 2416 3680 2098
Q 3938 1781 3938 1306
Q 3938 681 3513 340
Q 3088 0 2303 0
L 628 0
L 628 4666
z
" transform="scale(0.015625)"/>
      <path id="DejaVuSans-48" d="M 628 4666
L 1259 4666
L 1259 2753
L 3553 2753
L 3553 4666
L 4184 4666
L 4184 0
L 3553 0
L 3553 2222
L 1259 2222
L 1259 0
L 628 0
L 628 4666
z
" transform="scale(0.015625)"/>
      <path id="DejaVuSans-5f" d="M 3263 -1063
L 3263 -1509
L -63 -1509
L -63 -1063
L 3263 -1063
z
" transform="scale(0.015625)"/>
      <path id="DejaVuSans-76" d="M 191 3500
L 800 3500
L 1894 563
L 2988 3500
L 3597 3500
L 2284 0
L 1503 0
L 191 3500
z
" transform="scale(0.015625)"/>
     </defs>
     <use xlink:href="#DejaVuSans-53"/>
     <use xlink:href="#DejaVuSans-70" transform="translate(63.476562 0)"/>
     <use xlink:href="#DejaVuSans-65" transform="translate(126.953125 0)"/>
     <use xlink:href="#DejaVuSans-61" transform="translate(188.476562 0)"/>
     <use xlink:href="#DejaVuSans-72" transform="translate(249.755859 0)"/>
     <use xlink:href="#DejaVuSans-6d" transform="translate(289.119141 0)"/>
     <use xlink:href="#DejaVuSans-61" transform="translate(386.53125 0)"/>
     <use xlink:href="#DejaVuSans-6e" transform="translate(447.810547 0)"/>
     <use xlink:href="#DejaVuSans-20" transform="translate(511.189453 0)"/>
     <use xlink:href="#DejaVuSans-63" transform="translate(542.976562 0)"/>
     <use xlink:href="#DejaVuSans-6f" transform="translate(597.957031 0)"/>
     <use xlink:href="#DejaVuSans-72" transform="translate(659.138672 0)"/>
     <use xlink:href="#DejaVuSans-72" transform="translate(698.501953 0)"/>
     <use xlink:href="#DejaVuSans-65" transform="translate(737.365234 0)"/>
     <use xlink:href="#DejaVuSans-6c" transform="translate(798.888672 0)"/>
     <use xlink:href="#DejaVuSans-61" transform="translate(826.671875 0)"/>
     <use xlink:href="#DejaVuSans-74" transform="translate(887.951172 0)"/>
     <use xlink:href="#DejaVuSans-69" transform="translate(927.160156 0)"/>
     <use xlink:href="#DejaVuSans-6f" transform="translate(954.943359 0)"/>
     <use xlink:href="#DejaVuSans-6e" transform="translate(1016.125 0)"/>
     <use xlink:href="#DejaVuSans-20" transform="translate(1079.503906 0)"/>
     <use xlink:href="#DejaVuSans-66" transform="translate(1111.291016 0)"/>
     <use xlink:href="#DejaVuSans-6f" transform="translate(1146.496094 0)"/>
     <use xlink:href="#DejaVuSans-72" transform="translate(1207.677734 0)"/>
     <use xlink:href="#DejaVuSans-20" transform="translate(1248.791016 0)"/>
     <use xlink:href="#DejaVuSans-42" transform="translate(1280.578125 0)"/>
     <use xlink:href="#DejaVuSans-48" transform="translate(1349.181641 0)"/>
     <use xlink:href="#DejaVuSans-5f" transform="translate(1424.376953 0)"/>
     <use xlink:href="#DejaVuSans-76" transform="translate(1474.376953 0)"/>
     <use xlink:href="#DejaVuSans-37" transform="translate(1533.556641 0)"/>
     <use xlink:href="#DejaVuSans-5f" transform="translate(1597.179688 0)"/>
     <use xlink:href="#DejaVuSans-31" transform="translate(1647.179688 0)"/>
     <use xlink:href="#DejaVuSans-48" transform="translate(1710.802734 0)"/>
    </g>
   </g>
  </g>
 </g>
 <defs>
  <clipPath id="p3606c0960c">
   <rect x="99.70625" y="35.874" width="669.6" height="332.64"/>
  </clipPath>
 </defs>
</svg>
