<?xml version="1.0" encoding="utf-8" standalone="no"?>
<!DOCTYPE svg PUBLIC "-//W3C//DTD SVG 1.1//EN"
  "http://www.w3.org/Graphics/SVG/1.1/DTD/svg11.dtd">
<svg xmlns:xlink="http://www.w3.org/1999/xlink" width="778.217506pt" height="465.4292pt" viewBox="0 0 778.217506 465.4292" xmlns="http://www.w3.org/2000/svg" version="1.1">
 <metadata>
  <rdf:RDF xmlns:dc="http://purl.org/dc/elements/1.1/" xmlns:cc="http://creativecommons.org/ns#" xmlns:rdf="http://www.w3.org/1999/02/22-rdf-syntax-ns#">
   <cc:Work>
    <dc:type rdf:resource="http://purl.org/dc/dcmitype/StillImage"/>
    <dc:date>2025-11-02T14:14:20.388963</dc:date>
    <dc:format>image/svg+xml</dc:format>
    <dc:creator>
     <cc:Agent>
      <dc:title>Matplotlib v3.10.7, https://matplotlib.org/</dc:title>
     </cc:Agent>
    </dc:creator>
   </cc:Work>
  </rdf:RDF>
 </metadata>
 <defs>
  <style type="text/css">*{stroke-linejoin: round; stroke-linecap: butt}</style>
 </defs>
 <g id="figure_1">
  <g id="patch_1">
   <path d="M -0 465.4292
L 778.217506 465.4292
L 778.217506 0
L -0 0
L -0 465.4292
z
" style="fill: none"/>
  </g>
  <g id="axes_1">
   <g id="patch_2">
    <path d="M 79.595 400.7742
L 749.195 400.7742
L 749.195 68.1342
L 79.595 68.1342
L 79.595 400.7742
z
" style="fill: none"/>
   </g>
   <g id="matplotlib.axis_1">
    <g id="xtick_1">
     <g id="line2d_1">
      <defs>
       <path id="mf2da2370f8" d="M 0 0
L 0 3.5
" style="stroke: #000000; stroke-width: 3"/>
      </defs>
      <g>
       <use xlink:href="#mf2da2370f8" x="110.031364" y="400.7742" style="stroke: #000000; stroke-width: 3"/>
      </g>
     </g>
     <g id="text_1">
      <!-- 0 -->
      <g transform="translate(102.396364 426.01045) scale(0.24 -0.24)">
       <defs>
        <path id="DejaVuSans-30" d="M 2034 4250
Q 1547 4250 1301 3770
Q 1056 3291 1056 2328
Q 1056 1369 1301 889
Q 1547 409 2034 409
Q 2525 409 2770 889
Q 3016 1369 3016 2328
Q 3016 3291 2770 3770
Q 2525 4250 2034 4250
z
M 2034 4750
Q 2819 4750 3233 4129
Q 3647 3509 3647 2328
Q 3647 1150 3233 529
Q 2819 -91 2034 -91
Q 1250 -91 836 529
Q 422 1150 422 2328
Q 422 3509 836 4129
Q 1250 4750 2034 4750
z
" transform="scale(0.015625)"/>
       </defs>
       <use xlink:href="#DejaVuSans-30"/>
      </g>
     </g>
    </g>
    <g id="xtick_2">
     <g id="line2d_2">
      <g>
       <use xlink:href="#mf2da2370f8" x="188.837131" y="400.7742" style="stroke: #000000; stroke-width: 3"/>
      </g>
     </g>
     <g id="text_2">
      <!-- 250 -->
      <g transform="translate(165.932131 426.01045) scale(0.24 -0.24)">
       <defs>
        <path id="DejaVuSans-32" d="M 1228 531
L 3431 531
L 3431 0
L 469 0
L 469 531
Q 828 903 1448 1529
Q 2069 2156 2228 2338
Q 2531 2678 2651 2914
Q 2772 3150 2772 3378
Q 2772 3750 2511 3984
Q 2250 4219 1831 4219
Q 1534 4219 1204 4116
Q 875 4013 500 3803
L 500 4441
Q 881 4594 1212 4672
Q 1544 4750 1819 4750
Q 2544 4750 2975 4387
Q 3406 4025 3406 3419
Q 3406 3131 3298 2873
Q 3191 2616 2906 2266
Q 2828 2175 2409 1742
Q 1991 1309 1228 531
z
" transform="scale(0.015625)"/>
        <path id="DejaVuSans-35" d="M 691 4666
L 3169 4666
L 3169 4134
L 1269 4134
L 1269 2991
Q 1406 3038 1543 3061
Q 1681 3084 1819 3084
Q 2600 3084 3056 2656
Q 3513 2228 3513 1497
Q 3513 744 3044 326
Q 2575 -91 1722 -91
Q 1428 -91 1123 -41
Q 819 9 494 109
L 494 744
Q 775 591 1075 516
Q 1375 441 1709 441
Q 2250 441 2565 725
Q 2881 1009 2881 1497
Q 2881 1984 2565 2268
Q 2250 2553 1709 2553
Q 1456 2553 1204 2497
Q 953 2441 691 2322
L 691 4666
z
" transform="scale(0.015625)"/>
       </defs>
       <use xlink:href="#DejaVuSans-32"/>
       <use xlink:href="#DejaVuSans-35" transform="translate(63.623047 0)"/>
       <use xlink:href="#DejaVuSans-30" transform="translate(127.246094 0)"/>
      </g>
     </g>
    </g>
    <g id="xtick_3">
     <g id="line2d_3">
      <g>
       <use xlink:href="#mf2da2370f8" x="267.642899" y="400.7742" style="stroke: #000000; stroke-width: 3"/>
      </g>
     </g>
     <g id="text_3">
      <!-- 500 -->
      <g transform="translate(244.737899 426.01045) scale(0.24 -0.24)">
       <use xlink:href="#DejaVuSans-35"/>
       <use xlink:href="#DejaVuSans-30" transform="translate(63.623047 0)"/>
       <use xlink:href="#DejaVuSans-30" transform="translate(127.246094 0)"/>
      </g>
     </g>
    </g>
    <g id="xtick_4">
     <g id="line2d_4">
      <g>
       <use xlink:href="#mf2da2370f8" x="346.448667" y="400.7742" style="stroke: #000000; stroke-width: 3"/>
      </g>
     </g>
     <g id="text_4">
      <!-- 750 -->
      <g transform="translate(323.543667 426.01045) scale(0.24 -0.24)">
       <defs>
        <path id="DejaVuSans-37" d="M 525 4666
L 3525 4666
L 3525 4397
L 1831 0
L 1172 0
L 2766 4134
L 525 4134
L 525 4666
z
" transform="scale(0.015625)"/>
       </defs>
       <use xlink:href="#DejaVuSans-37"/>
       <use xlink:href="#DejaVuSans-35" transform="translate(63.623047 0)"/>
       <use xlink:href="#DejaVuSans-30" transform="translate(127.246094 0)"/>
      </g>
     </g>
    </g>
    <g id="xtick_5">
     <g id="line2d_5">
      <g>
       <use xlink:href="#mf2da2370f8" x="425.254435" y="400.7742" style="stroke: #000000; stroke-width: 3"/>
      </g>
     </g>
     <g id="text_5">
      <!-- 1000 -->
      <g transform="translate(394.714435 426.01045) scale(0.24 -0.24)">
       <defs>
        <path id="DejaVuSans-31" d="M 794 531
L 1825 531
L 1825 4091
L 703 3866
L 703 4441
L 1819 4666
L 2450 4666
L 2450 531
L 3481 531
L 3481 0
L 794 0
L 794 531
z
" transform="scale(0.015625)"/>
       </defs>
       <use xlink:href="#DejaVuSans-31"/>
       <use xlink:href="#DejaVuSans-30" transform="translate(63.623047 0)"/>
       <use xlink:href="#DejaVuSans-30" transform="translate(127.246094 0)"/>
       <use xlink:href="#DejaVuSans-30" transform="translate(190.869141 0)"/>
      </g>
     </g>
    </g>
    <g id="xtick_6">
     <g id="line2d_6">
      <g>
       <use xlink:href="#mf2da2370f8" x="504.060203" y="400.7742" style="stroke: #000000; stroke-width: 3"/>
      </g>
     </g>
     <g id="text_6">
      <!-- 1250 -->
      <g transform="translate(473.520203 426.01045) scale(0.24 -0.24)">
       <use xlink:href="#DejaVuSans-31"/>
       <use xlink:href="#DejaVuSans-32" transform="translate(63.623047 0)"/>
       <use xlink:href="#DejaVuSans-35" transform="translate(127.246094 0)"/>
       <use xlink:href="#DejaVuSans-30" transform="translate(190.869141 0)"/>
      </g>
     </g>
    </g>
    <g id="xtick_7">
     <g id="line2d_7">
      <g>
       <use xlink:href="#mf2da2370f8" x="582.86597" y="400.7742" style="stroke: #000000; stroke-width: 3"/>
      </g>
     </g>
     <g id="text_7">
      <!-- 1500 -->
      <g transform="translate(552.32597 426.01045) scale(0.24 -0.24)">
       <use xlink:href="#DejaVuSans-31"/>
       <use xlink:href="#DejaVuSans-35" transform="translate(63.623047 0)"/>
       <use xlink:href="#DejaVuSans-30" transform="translate(127.246094 0)"/>
       <use xlink:href="#DejaVuSans-30" transform="translate(190.869141 0)"/>
      </g>
     </g>
    </g>
    <g id="xtick_8">
     <g id="line2d_8">
      <g>
       <use xlink:href="#mf2da2370f8" x="661.671738" y="400.7742" style="stroke: #000000; stroke-width: 3"/>
      </g>
     </g>
     <g id="text_8">
      <!-- 1750 -->
      <g transform="translate(631.131738 426.01045) scale(0.24 -0.24)">
       <use xlink:href="#DejaVuSans-31"/>
       <use xlink:href="#DejaVuSans-37" transform="translate(63.623047 0)"/>
       <use xlink:href="#DejaVuSans-35" transform="translate(127.246094 0)"/>
       <use xlink:href="#DejaVuSans-30" transform="translate(190.869141 0)"/>
      </g>
     </g>
    </g>
    <g id="xtick_9">
     <g id="line2d_9">
      <g>
       <use xlink:href="#mf2da2370f8" x="740.477506" y="400.7742" style="stroke: #000000; stroke-width: 3"/>
      </g>
     </g>
     <g id="text_9">
      <!-- 2000 -->
      <g transform="translate(709.937506 426.01045) scale(0.24 -0.24)">
       <use xlink:href="#DejaVuSans-32"/>
       <use xlink:href="#DejaVuSans-30" transform="translate(63.623047 0)"/>
       <use xlink:href="#DejaVuSans-30" transform="translate(127.246094 0)"/>
       <use xlink:href="#DejaVuSans-30" transform="translate(190.869141 0)"/>
      </g>
     </g>
    </g>
    <g id="text_10">
     <!-- Time / min -->
     <g transform="translate(350.736875 453.23795) scale(0.24 -0.24)">
      <defs>
       <path id="DejaVuSans-54" d="M -19 4666
L 3928 4666
L 3928 4134
L 2272 4134
L 2272 0
L 1638 0
L 1638 4134
L -19 4134
L -19 4666
z
" transform="scale(0.015625)"/>
       <path id="DejaVuSans-69" d="M 603 3500
L 1178 3500
L 1178 0
L 603 0
L 603 3500
z
M 603 4863
L 1178 4863
L 1178 4134
L 603 4134
L 603 4863
z
" transform="scale(0.015625)"/>
       <path id="DejaVuSans-6d" d="M 3328 2828
Q 3544 3216 3844 3400
Q 4144 3584 4550 3584
Q 5097 3584 5394 3201
Q 5691 2819 5691 2113
L 5691 0
L 5113 0
L 5113 2094
Q 5113 2597 4934 2840
Q 4756 3084 4391 3084
Q 3944 3084 3684 2787
Q 3425 2491 3425 1978
L 3425 0
L 2847 0
L 2847 2094
Q 2847 2600 2669 2842
Q 2491 3084 2119 3084
Q 1678 3084 1418 2786
Q 1159 2488 1159 1978
L 1159 0
L 581 0
L 581 3500
L 1159 3500
L 1159 2956
Q 1356 3278 1631 3431
Q 1906 3584 2284 3584
Q 2666 3584 2933 3390
Q 3200 3197 3328 2828
z
" transform="scale(0.015625)"/>
       <path id="DejaVuSans-65" d="M 3597 1894
L 3597 1613
L 953 1613
Q 991 1019 1311 708
Q 1631 397 2203 397
Q 2534 397 2845 478
Q 3156 559 3463 722
L 3463 178
Q 3153 47 2828 -22
Q 2503 -91 2169 -91
Q 1331 -91 842 396
Q 353 884 353 1716
Q 353 2575 817 3079
Q 1281 3584 2069 3584
Q 2775 3584 3186 3129
Q 3597 2675 3597 1894
z
M 3022 2063
Q 3016 2534 2758 2815
Q 2500 3097 2075 3097
Q 1594 3097 1305 2825
Q 1016 2553 972 2059
L 3022 2063
z
" transform="scale(0.015625)"/>
       <path id="DejaVuSans-20" transform="scale(0.015625)"/>
       <path id="DejaVuSans-2f" d="M 1625 4666
L 2156 4666
L 531 -594
L 0 -594
L 1625 4666
z
" transform="scale(0.015625)"/>
       <path id="DejaVuSans-6e" d="M 3513 2113
L 3513 0
L 2938 0
L 2938 2094
Q 2938 2591 2744 2837
Q 2550 3084 2163 3084
Q 1697 3084 1428 2787
Q 1159 2491 1159 1978
L 1159 0
L 581 0
L 581 3500
L 1159 3500
L 1159 2956
Q 1366 3272 1645 3428
Q 1925 3584 2291 3584
Q 2894 3584 3203 3211
Q 3513 2838 3513 2113
z
" transform="scale(0.015625)"/>
      </defs>
      <use xlink:href="#DejaVuSans-54"/>
      <use xlink:href="#DejaVuSans-69" transform="translate(57.958984 0)"/>
      <use xlink:href="#DejaVuSans-6d" transform="translate(85.742188 0)"/>
      <use xlink:href="#DejaVuSans-65" transform="translate(183.154297 0)"/>
      <use xlink:href="#DejaVuSans-20" transform="translate(244.677734 0)"/>
      <use xlink:href="#DejaVuSans-2f" transform="translate(276.464844 0)"/>
      <use xlink:href="#DejaVuSans-20" transform="translate(310.15625 0)"/>
      <use xlink:href="#DejaVuSans-6d" transform="translate(341.943359 0)"/>
      <use xlink:href="#DejaVuSans-69" transform="translate(439.355469 0)"/>
      <use xlink:href="#DejaVuSans-6e" transform="translate(467.138672 0)"/>
     </g>
    </g>
   </g>
   <g id="matplotlib.axis_2">
    <g id="ytick_1">
     <g id="line2d_10">
      <defs>
       <path id="meb35a3d78c" d="M 0 0
L -3.5 0
" style="stroke: #000000; stroke-width: 3"/>
      </defs>
      <g>
       <use xlink:href="#meb35a3d78c" x="79.595" y="367.162437" style="stroke: #000000; stroke-width: 3"/>
      </g>
     </g>
     <g id="text_11">
      <!-- 0.7 -->
      <g transform="translate(34.4275 376.280562) scale(0.24 -0.24)">
       <defs>
        <path id="DejaVuSans-2e" d="M 684 794
L 1344 794
L 1344 0
L 684 0
L 684 794
z
" transform="scale(0.015625)"/>
       </defs>
       <use xlink:href="#DejaVuSans-30"/>
       <use xlink:href="#DejaVuSans-2e" transform="translate(63.623047 0)"/>
       <use xlink:href="#DejaVuSans-37" transform="translate(95.410156 0)"/>
      </g>
     </g>
    </g>
    <g id="ytick_2">
     <g id="line2d_11">
      <g>
       <use xlink:href="#meb35a3d78c" x="79.595" y="272.526358" style="stroke: #000000; stroke-width: 3"/>
      </g>
     </g>
     <g id="text_12">
      <!-- 0.8 -->
      <g transform="translate(34.4275 281.644483) scale(0.24 -0.24)">
       <defs>
        <path id="DejaVuSans-38" d="M 2034 2216
Q 1584 2216 1326 1975
Q 1069 1734 1069 1313
Q 1069 891 1326 650
Q 1584 409 2034 409
Q 2484 409 2743 651
Q 3003 894 3003 1313
Q 3003 1734 2745 1975
Q 2488 2216 2034 2216
z
M 1403 2484
Q 997 2584 770 2862
Q 544 3141 544 3541
Q 544 4100 942 4425
Q 1341 4750 2034 4750
Q 2731 4750 3128 4425
Q 3525 4100 3525 3541
Q 3525 3141 3298 2862
Q 3072 2584 2669 2484
Q 3125 2378 3379 2068
Q 3634 1759 3634 1313
Q 3634 634 3220 271
Q 2806 -91 2034 -91
Q 1263 -91 848 271
Q 434 634 434 1313
Q 434 1759 690 2068
Q 947 2378 1403 2484
z
M 1172 3481
Q 1172 3119 1398 2916
Q 1625 2713 2034 2713
Q 2441 2713 2670 2916
Q 2900 3119 2900 3481
Q 2900 3844 2670 4047
Q 2441 4250 2034 4250
Q 1625 4250 1398 4047
Q 1172 3844 1172 3481
z
" transform="scale(0.015625)"/>
       </defs>
       <use xlink:href="#DejaVuSans-30"/>
       <use xlink:href="#DejaVuSans-2e" transform="translate(63.623047 0)"/>
       <use xlink:href="#DejaVuSans-38" transform="translate(95.410156 0)"/>
      </g>
     </g>
    </g>
    <g id="ytick_3">
     <g id="line2d_12">
      <g>
       <use xlink:href="#meb35a3d78c" x="79.595" y="177.890279" style="stroke: #000000; stroke-width: 3"/>
      </g>
     </g>
     <g id="text_13">
      <!-- 0.9 -->
      <g transform="translate(34.4275 187.008404) scale(0.24 -0.24)">
       <defs>
        <path id="DejaVuSans-39" d="M 703 97
L 703 672
Q 941 559 1184 500
Q 1428 441 1663 441
Q 2288 441 2617 861
Q 2947 1281 2994 2138
Q 2813 1869 2534 1725
Q 2256 1581 1919 1581
Q 1219 1581 811 2004
Q 403 2428 403 3163
Q 403 3881 828 4315
Q 1253 4750 1959 4750
Q 2769 4750 3195 4129
Q 3622 3509 3622 2328
Q 3622 1225 3098 567
Q 2575 -91 1691 -91
Q 1453 -91 1209 -44
Q 966 3 703 97
z
M 1959 2075
Q 2384 2075 2632 2365
Q 2881 2656 2881 3163
Q 2881 3666 2632 3958
Q 2384 4250 1959 4250
Q 1534 4250 1286 3958
Q 1038 3666 1038 3163
Q 1038 2656 1286 2365
Q 1534 2075 1959 2075
z
" transform="scale(0.015625)"/>
       </defs>
       <use xlink:href="#DejaVuSans-30"/>
       <use xlink:href="#DejaVuSans-2e" transform="translate(63.623047 0)"/>
       <use xlink:href="#DejaVuSans-39" transform="translate(95.410156 0)"/>
      </g>
     </g>
    </g>
    <g id="ytick_4">
     <g id="line2d_13">
      <g>
       <use xlink:href="#meb35a3d78c" x="79.595" y="83.2542" style="stroke: #000000; stroke-width: 3"/>
      </g>
     </g>
     <g id="text_14">
      <!-- 1.0 -->
      <g transform="translate(34.4275 92.372325) scale(0.24 -0.24)">
       <use xlink:href="#DejaVuSans-31"/>
       <use xlink:href="#DejaVuSans-2e" transform="translate(63.623047 0)"/>
       <use xlink:href="#DejaVuSans-30" transform="translate(95.410156 0)"/>
      </g>
     </g>
    </g>
    <g id="text_15">
     <!-- Jaccard index -->
     <g transform="translate(25.43625 314.886075) rotate(-90) scale(0.24 -0.24)">
      <defs>
       <path id="DejaVuSans-4a" d="M 628 4666
L 1259 4666
L 1259 325
Q 1259 -519 939 -900
Q 619 -1281 -91 -1281
L -331 -1281
L -331 -750
L -134 -750
Q 284 -750 456 -515
Q 628 -281 628 325
L 628 4666
z
" transform="scale(0.015625)"/>
       <path id="DejaVuSans-61" d="M 2194 1759
Q 1497 1759 1228 1600
Q 959 1441 959 1056
Q 959 750 1161 570
Q 1363 391 1709 391
Q 2188 391 2477 730
Q 2766 1069 2766 1631
L 2766 1759
L 2194 1759
z
M 3341 1997
L 3341 0
L 2766 0
L 2766 531
Q 2569 213 2275 61
Q 1981 -91 1556 -91
Q 1019 -91 701 211
Q 384 513 384 1019
Q 384 1609 779 1909
Q 1175 2209 1959 2209
L 2766 2209
L 2766 2266
Q 2766 2663 2505 2880
Q 2244 3097 1772 3097
Q 1472 3097 1187 3025
Q 903 2953 641 2809
L 641 3341
Q 956 3463 1253 3523
Q 1550 3584 1831 3584
Q 2591 3584 2966 3190
Q 3341 2797 3341 1997
z
" transform="scale(0.015625)"/>
       <path id="DejaVuSans-63" d="M 3122 3366
L 3122 2828
Q 2878 2963 2633 3030
Q 2388 3097 2138 3097
Q 1578 3097 1268 2742
Q 959 2388 959 1747
Q 959 1106 1268 751
Q 1578 397 2138 397
Q 2388 397 2633 464
Q 2878 531 3122 666
L 3122 134
Q 2881 22 2623 -34
Q 2366 -91 2075 -91
Q 1284 -91 818 406
Q 353 903 353 1747
Q 353 2603 823 3093
Q 1294 3584 2113 3584
Q 2378 3584 2631 3529
Q 2884 3475 3122 3366
z
" transform="scale(0.015625)"/>
       <path id="DejaVuSans-72" d="M 2631 2963
Q 2534 3019 2420 3045
Q 2306 3072 2169 3072
Q 1681 3072 1420 2755
Q 1159 2438 1159 1844
L 1159 0
L 581 0
L 581 3500
L 1159 3500
L 1159 2956
Q 1341 3275 1631 3429
Q 1922 3584 2338 3584
Q 2397 3584 2469 3576
Q 2541 3569 2628 3553
L 2631 2963
z
" transform="scale(0.015625)"/>
       <path id="DejaVuSans-64" d="M 2906 2969
L 2906 4863
L 3481 4863
L 3481 0
L 2906 0
L 2906 525
Q 2725 213 2448 61
Q 2172 -91 1784 -91
Q 1150 -91 751 415
Q 353 922 353 1747
Q 353 2572 751 3078
Q 1150 3584 1784 3584
Q 2172 3584 2448 3432
Q 2725 3281 2906 2969
z
M 947 1747
Q 947 1113 1208 752
Q 1469 391 1925 391
Q 2381 391 2643 752
Q 2906 1113 2906 1747
Q 2906 2381 2643 2742
Q 2381 3103 1925 3103
Q 1469 3103 1208 2742
Q 947 2381 947 1747
z
" transform="scale(0.015625)"/>
       <path id="DejaVuSans-78" d="M 3513 3500
L 2247 1797
L 3578 0
L 2900 0
L 1881 1375
L 863 0
L 184 0
L 1544 1831
L 300 3500
L 978 3500
L 1906 2253
L 2834 3500
L 3513 3500
z
" transform="scale(0.015625)"/>
      </defs>
      <use xlink:href="#DejaVuSans-4a"/>
      <use xlink:href="#DejaVuSans-61" transform="translate(29.492188 0)"/>
      <use xlink:href="#DejaVuSans-63" transform="translate(90.771484 0)"/>
      <use xlink:href="#DejaVuSans-63" transform="translate(145.751953 0)"/>
      <use xlink:href="#DejaVuSans-61" transform="translate(200.732422 0)"/>
      <use xlink:href="#DejaVuSans-72" transform="translate(262.011719 0)"/>
      <use xlink:href="#DejaVuSans-64" transform="translate(301.375 0)"/>
      <use xlink:href="#DejaVuSans-20" transform="translate(364.851562 0)"/>
      <use xlink:href="#DejaVuSans-69" transform="translate(396.638672 0)"/>
      <use xlink:href="#DejaVuSans-6e" transform="translate(424.421875 0)"/>
      <use xlink:href="#DejaVuSans-64" transform="translate(487.800781 0)"/>
      <use xlink:href="#DejaVuSans-65" transform="translate(551.277344 0)"/>
      <use xlink:href="#DejaVuSans-78" transform="translate(611.050781 0)"/>
     </g>
    </g>
   </g>
   <g id="line2d_14">
    <defs>
     <path id="mea1b8e39e7" d="M 0 5
C 1.326016 5 2.597899 4.473168 3.535534 3.535534
C 4.473168 2.597899 5 1.326016 5 0
C 5 -1.326016 4.473168 -2.597899 3.535534 -3.535534
C 2.597899 -4.473168 1.326016 -5 0 -5
C -1.326016 -5 -2.597899 -4.473168 -3.535534 -3.535534
C -4.473168 -2.597899 -5 -1.326016 -5 0
C -5 1.326016 -4.473168 2.597899 -3.535534 3.535534
C -2.597899 4.473168 -1.326016 5 0 5
z
" style="stroke: #1f77b4"/>
    </defs>
    <g clip-path="url(#p47afe3e9c2)">
     <use xlink:href="#mea1b8e39e7" x="110.031364" y="83.2542" style="fill: #1f77b4; stroke: #1f77b4"/>
     <use xlink:href="#mea1b8e39e7" x="114.948844" y="99.620387" style="fill: #1f77b4; stroke: #1f77b4"/>
     <use xlink:href="#mea1b8e39e7" x="119.876831" y="168.073118" style="fill: #1f77b4; stroke: #1f77b4"/>
     <use xlink:href="#mea1b8e39e7" x="124.799565" y="188.272124" style="fill: #1f77b4; stroke: #1f77b4"/>
     <use xlink:href="#mea1b8e39e7" x="129.717044" y="211.486812" style="fill: #1f77b4; stroke: #1f77b4"/>
     <use xlink:href="#mea1b8e39e7" x="134.629271" y="238.785799" style="fill: #1f77b4; stroke: #1f77b4"/>
     <use xlink:href="#mea1b8e39e7" x="139.546751" y="276.248182" style="fill: #1f77b4; stroke: #1f77b4"/>
     <use xlink:href="#mea1b8e39e7" x="144.474738" y="302.793278" style="fill: #1f77b4; stroke: #1f77b4"/>
     <use xlink:href="#mea1b8e39e7" x="149.397472" y="290.206939" style="fill: #1f77b4; stroke: #1f77b4"/>
     <use xlink:href="#mea1b8e39e7" x="154.325459" y="301.485536" style="fill: #1f77b4; stroke: #1f77b4"/>
     <use xlink:href="#mea1b8e39e7" x="161.197322" y="333.124358" style="fill: #1f77b4; stroke: #1f77b4"/>
     <use xlink:href="#mea1b8e39e7" x="166.109548" y="326.944111" style="fill: #1f77b4; stroke: #1f77b4"/>
     <use xlink:href="#mea1b8e39e7" x="171.027028" y="337.836872" style="fill: #1f77b4; stroke: #1f77b4"/>
     <use xlink:href="#mea1b8e39e7" x="175.955015" y="329.943877" style="fill: #1f77b4; stroke: #1f77b4"/>
     <use xlink:href="#mea1b8e39e7" x="181.618523" y="338.235064" style="fill: #1f77b4; stroke: #1f77b4"/>
     <use xlink:href="#mea1b8e39e7" x="186.541257" y="309.788509" style="fill: #1f77b4; stroke: #1f77b4"/>
     <use xlink:href="#mea1b8e39e7" x="191.46399" y="338.693257" style="fill: #1f77b4; stroke: #1f77b4"/>
     <use xlink:href="#mea1b8e39e7" x="196.391978" y="278.292919" style="fill: #1f77b4; stroke: #1f77b4"/>
     <use xlink:href="#mea1b8e39e7" x="201.335726" y="332.39745" style="fill: #1f77b4; stroke: #1f77b4"/>
     <use xlink:href="#mea1b8e39e7" x="206.25846" y="329.574376" style="fill: #1f77b4; stroke: #1f77b4"/>
     <use xlink:href="#mea1b8e39e7" x="213.125069" y="324.163231" style="fill: #1f77b4; stroke: #1f77b4"/>
     <use xlink:href="#mea1b8e39e7" x="218.05831" y="325.894164" style="fill: #1f77b4; stroke: #1f77b4"/>
     <use xlink:href="#mea1b8e39e7" x="222.986297" y="337.867089" style="fill: #1f77b4; stroke: #1f77b4"/>
     <use xlink:href="#mea1b8e39e7" x="227.914285" y="346.443711" style="fill: #1f77b4; stroke: #1f77b4"/>
     <use xlink:href="#mea1b8e39e7" x="232.831765" y="284.188299" style="fill: #1f77b4; stroke: #1f77b4"/>
     <use xlink:href="#mea1b8e39e7" x="237.749245" y="350.290725" style="fill: #1f77b4; stroke: #1f77b4"/>
     <use xlink:href="#mea1b8e39e7" x="242.677232" y="294.74158" style="fill: #1f77b4; stroke: #1f77b4"/>
     <use xlink:href="#mea1b8e39e7" x="247.594712" y="290.097952" style="fill: #1f77b4; stroke: #1f77b4"/>
     <use xlink:href="#mea1b8e39e7" x="252.517446" y="303.606693" style="fill: #1f77b4; stroke: #1f77b4"/>
     <use xlink:href="#mea1b8e39e7" x="257.445433" y="353.620294" style="fill: #1f77b4; stroke: #1f77b4"/>
     <use xlink:href="#mea1b8e39e7" x="264.32255" y="291.147628" style="fill: #1f77b4; stroke: #1f77b4"/>
     <use xlink:href="#mea1b8e39e7" x="269.245283" y="297.298983" style="fill: #1f77b4; stroke: #1f77b4"/>
     <use xlink:href="#mea1b8e39e7" x="274.173271" y="353.389208" style="fill: #1f77b4; stroke: #1f77b4"/>
     <use xlink:href="#mea1b8e39e7" x="279.101258" y="289.223227" style="fill: #1f77b4; stroke: #1f77b4"/>
     <use xlink:href="#mea1b8e39e7" x="284.023991" y="323.17425" style="fill: #1f77b4; stroke: #1f77b4"/>
     <use xlink:href="#mea1b8e39e7" x="288.946725" y="301.011413" style="fill: #1f77b4; stroke: #1f77b4"/>
     <use xlink:href="#mea1b8e39e7" x="293.874712" y="307.583893" style="fill: #1f77b4; stroke: #1f77b4"/>
     <use xlink:href="#mea1b8e39e7" x="298.797446" y="312.3073" style="fill: #1f77b4; stroke: #1f77b4"/>
     <use xlink:href="#mea1b8e39e7" x="303.72018" y="327.539093" style="fill: #1f77b4; stroke: #1f77b4"/>
     <use xlink:href="#mea1b8e39e7" x="308.642913" y="323.50222" style="fill: #1f77b4; stroke: #1f77b4"/>
     <use xlink:href="#mea1b8e39e7" x="315.535791" y="340.514845" style="fill: #1f77b4; stroke: #1f77b4"/>
     <use xlink:href="#mea1b8e39e7" x="320.463779" y="320.208819" style="fill: #1f77b4; stroke: #1f77b4"/>
     <use xlink:href="#mea1b8e39e7" x="325.391766" y="324.184422" style="fill: #1f77b4; stroke: #1f77b4"/>
     <use xlink:href="#mea1b8e39e7" x="330.319753" y="321.057718" style="fill: #1f77b4; stroke: #1f77b4"/>
     <use xlink:href="#mea1b8e39e7" x="335.247741" y="327.260456" style="fill: #1f77b4; stroke: #1f77b4"/>
     <use xlink:href="#mea1b8e39e7" x="340.170474" y="338.993885" style="fill: #1f77b4; stroke: #1f77b4"/>
     <use xlink:href="#mea1b8e39e7" x="345.103715" y="327.412853" style="fill: #1f77b4; stroke: #1f77b4"/>
     <use xlink:href="#mea1b8e39e7" x="350.031703" y="352.487704" style="fill: #1f77b4; stroke: #1f77b4"/>
     <use xlink:href="#mea1b8e39e7" x="354.954436" y="323.294139" style="fill: #1f77b4; stroke: #1f77b4"/>
     <use xlink:href="#mea1b8e39e7" x="359.87717" y="324.26223" style="fill: #1f77b4; stroke: #1f77b4"/>
     <use xlink:href="#mea1b8e39e7" x="366.754287" y="343.225061" style="fill: #1f77b4; stroke: #1f77b4"/>
     <use xlink:href="#mea1b8e39e7" x="371.692781" y="329.561598" style="fill: #1f77b4; stroke: #1f77b4"/>
     <use xlink:href="#mea1b8e39e7" x="376.620769" y="325.541529" style="fill: #1f77b4; stroke: #1f77b4"/>
     <use xlink:href="#mea1b8e39e7" x="381.543502" y="349.048437" style="fill: #1f77b4; stroke: #1f77b4"/>
     <use xlink:href="#mea1b8e39e7" x="386.534534" y="350.456381" style="fill: #1f77b4; stroke: #1f77b4"/>
     <use xlink:href="#mea1b8e39e7" x="391.462522" y="351.402278" style="fill: #1f77b4; stroke: #1f77b4"/>
     <use xlink:href="#mea1b8e39e7" x="396.385255" y="347.86785" style="fill: #1f77b4; stroke: #1f77b4"/>
     <use xlink:href="#mea1b8e39e7" x="401.313243" y="361.990635" style="fill: #1f77b4; stroke: #1f77b4"/>
     <use xlink:href="#mea1b8e39e7" x="406.235976" y="351.950484" style="fill: #1f77b4; stroke: #1f77b4"/>
     <use xlink:href="#mea1b8e39e7" x="411.163964" y="366.752402" style="fill: #1f77b4; stroke: #1f77b4"/>
     <use xlink:href="#mea1b8e39e7" x="418.056841" y="344.476393" style="fill: #1f77b4; stroke: #1f77b4"/>
     <use xlink:href="#mea1b8e39e7" x="422.984829" y="338.874331" style="fill: #1f77b4; stroke: #1f77b4"/>
     <use xlink:href="#mea1b8e39e7" x="427.907562" y="350.048277" style="fill: #1f77b4; stroke: #1f77b4"/>
     <use xlink:href="#mea1b8e39e7" x="432.840803" y="337.634464" style="fill: #1f77b4; stroke: #1f77b4"/>
     <use xlink:href="#mea1b8e39e7" x="437.768791" y="348.553258" style="fill: #1f77b4; stroke: #1f77b4"/>
     <use xlink:href="#mea1b8e39e7" x="442.744062" y="349.809356" style="fill: #1f77b4; stroke: #1f77b4"/>
     <use xlink:href="#mea1b8e39e7" x="447.661541" y="337.37093" style="fill: #1f77b4; stroke: #1f77b4"/>
     <use xlink:href="#mea1b8e39e7" x="452.589529" y="348.365518" style="fill: #1f77b4; stroke: #1f77b4"/>
     <use xlink:href="#mea1b8e39e7" x="457.507009" y="360.723839" style="fill: #1f77b4; stroke: #1f77b4"/>
     <use xlink:href="#mea1b8e39e7" x="462.434996" y="368.55834" style="fill: #1f77b4; stroke: #1f77b4"/>
     <use xlink:href="#mea1b8e39e7" x="469.312113" y="340.073279" style="fill: #1f77b4; stroke: #1f77b4"/>
     <use xlink:href="#mea1b8e39e7" x="474.2401" y="364.632674" style="fill: #1f77b4; stroke: #1f77b4"/>
     <use xlink:href="#mea1b8e39e7" x="479.162834" y="373.938256" style="fill: #1f77b4; stroke: #1f77b4"/>
     <use xlink:href="#mea1b8e39e7" x="484.090821" y="370.870512" style="fill: #1f77b4; stroke: #1f77b4"/>
     <use xlink:href="#mea1b8e39e7" x="489.018808" y="371.942971" style="fill: #1f77b4; stroke: #1f77b4"/>
     <use xlink:href="#mea1b8e39e7" x="493.946796" y="370.716954" style="fill: #1f77b4; stroke: #1f77b4"/>
     <use xlink:href="#mea1b8e39e7" x="498.874783" y="370.268049" style="fill: #1f77b4; stroke: #1f77b4"/>
     <use xlink:href="#mea1b8e39e7" x="503.797517" y="356.431104" style="fill: #1f77b4; stroke: #1f77b4"/>
     <use xlink:href="#mea1b8e39e7" x="508.725504" y="378.745227" style="fill: #1f77b4; stroke: #1f77b4"/>
     <use xlink:href="#mea1b8e39e7" x="513.653491" y="370.057102" style="fill: #1f77b4; stroke: #1f77b4"/>
     <use xlink:href="#mea1b8e39e7" x="520.551623" y="345.816802" style="fill: #1f77b4; stroke: #1f77b4"/>
     <use xlink:href="#mea1b8e39e7" x="525.484864" y="349.624161" style="fill: #1f77b4; stroke: #1f77b4"/>
     <use xlink:href="#mea1b8e39e7" x="530.412851" y="359.780621" style="fill: #1f77b4; stroke: #1f77b4"/>
     <use xlink:href="#mea1b8e39e7" x="535.340839" y="354.912091" style="fill: #1f77b4; stroke: #1f77b4"/>
     <use xlink:href="#mea1b8e39e7" x="540.268826" y="351.737387" style="fill: #1f77b4; stroke: #1f77b4"/>
     <use xlink:href="#mea1b8e39e7" x="545.196813" y="355.119452" style="fill: #1f77b4; stroke: #1f77b4"/>
     <use xlink:href="#mea1b8e39e7" x="550.130054" y="362.497676" style="fill: #1f77b4; stroke: #1f77b4"/>
     <use xlink:href="#mea1b8e39e7" x="555.058042" y="343.224141" style="fill: #1f77b4; stroke: #1f77b4"/>
     <use xlink:href="#mea1b8e39e7" x="559.991283" y="350.267716" style="fill: #1f77b4; stroke: #1f77b4"/>
     <use xlink:href="#mea1b8e39e7" x="564.914016" y="352.846886" style="fill: #1f77b4; stroke: #1f77b4"/>
     <use xlink:href="#mea1b8e39e7" x="571.801641" y="358.914486" style="fill: #1f77b4; stroke: #1f77b4"/>
     <use xlink:href="#mea1b8e39e7" x="576.740135" y="379.042942" style="fill: #1f77b4; stroke: #1f77b4"/>
     <use xlink:href="#mea1b8e39e7" x="581.668123" y="370.912564" style="fill: #1f77b4; stroke: #1f77b4"/>
     <use xlink:href="#mea1b8e39e7" x="586.590856" y="353.73855" style="fill: #1f77b4; stroke: #1f77b4"/>
     <use xlink:href="#mea1b8e39e7" x="591.524097" y="347.595117" style="fill: #1f77b4; stroke: #1f77b4"/>
     <use xlink:href="#mea1b8e39e7" x="596.452085" y="351.385475" style="fill: #1f77b4; stroke: #1f77b4"/>
     <use xlink:href="#mea1b8e39e7" x="601.385326" y="357.612495" style="fill: #1f77b4; stroke: #1f77b4"/>
     <use xlink:href="#mea1b8e39e7" x="606.313313" y="376.692517" style="fill: #1f77b4; stroke: #1f77b4"/>
     <use xlink:href="#mea1b8e39e7" x="611.241301" y="374.849704" style="fill: #1f77b4; stroke: #1f77b4"/>
     <use xlink:href="#mea1b8e39e7" x="616.169288" y="352.077257" style="fill: #1f77b4; stroke: #1f77b4"/>
     <use xlink:href="#mea1b8e39e7" x="623.072673" y="352.285878" style="fill: #1f77b4; stroke: #1f77b4"/>
     <use xlink:href="#mea1b8e39e7" x="627.995407" y="358.887646" style="fill: #1f77b4; stroke: #1f77b4"/>
     <use xlink:href="#mea1b8e39e7" x="632.928648" y="377.472623" style="fill: #1f77b4; stroke: #1f77b4"/>
     <use xlink:href="#mea1b8e39e7" x="637.867143" y="350.769871" style="fill: #1f77b4; stroke: #1f77b4"/>
     <use xlink:href="#mea1b8e39e7" x="642.79513" y="370.428355" style="fill: #1f77b4; stroke: #1f77b4"/>
     <use xlink:href="#mea1b8e39e7" x="647.723117" y="371.114642" style="fill: #1f77b4; stroke: #1f77b4"/>
     <use xlink:href="#mea1b8e39e7" x="652.661612" y="358.921729" style="fill: #1f77b4; stroke: #1f77b4"/>
     <use xlink:href="#mea1b8e39e7" x="657.589599" y="385.6542" style="fill: #1f77b4; stroke: #1f77b4"/>
     <use xlink:href="#mea1b8e39e7" x="662.517587" y="378.371977" style="fill: #1f77b4; stroke: #1f77b4"/>
     <use xlink:href="#mea1b8e39e7" x="667.445574" y="366.107303" style="fill: #1f77b4; stroke: #1f77b4"/>
     <use xlink:href="#mea1b8e39e7" x="674.343706" y="365.94697" style="fill: #1f77b4; stroke: #1f77b4"/>
     <use xlink:href="#mea1b8e39e7" x="679.271693" y="355.805616" style="fill: #1f77b4; stroke: #1f77b4"/>
     <use xlink:href="#mea1b8e39e7" x="684.19968" y="353.435844" style="fill: #1f77b4; stroke: #1f77b4"/>
     <use xlink:href="#mea1b8e39e7" x="689.180205" y="353.103968" style="fill: #1f77b4; stroke: #1f77b4"/>
     <use xlink:href="#mea1b8e39e7" x="694.108192" y="380.381201" style="fill: #1f77b4; stroke: #1f77b4"/>
     <use xlink:href="#mea1b8e39e7" x="699.03618" y="367.908101" style="fill: #1f77b4; stroke: #1f77b4"/>
     <use xlink:href="#mea1b8e39e7" x="703.964167" y="359.014254" style="fill: #1f77b4; stroke: #1f77b4"/>
     <use xlink:href="#mea1b8e39e7" x="708.897408" y="363.021782" style="fill: #1f77b4; stroke: #1f77b4"/>
     <use xlink:href="#mea1b8e39e7" x="713.830649" y="361.228936" style="fill: #1f77b4; stroke: #1f77b4"/>
     <use xlink:href="#mea1b8e39e7" x="718.758636" y="368.860885" style="fill: #1f77b4; stroke: #1f77b4"/>
    </g>
   </g>
   <g id="line2d_15">
    <path d="M 227.914285 400.7742
L 227.914285 68.1342
" clip-path="url(#p47afe3e9c2)" style="fill: none; stroke-dasharray: 5.55,2.4; stroke-dashoffset: 0; stroke: #ff0000; stroke-width: 1.5"/>
   </g>
   <g id="patch_3">
    <path d="M 79.595 400.7742
L 79.595 68.1342
" style="fill: none; stroke: #000000; stroke-width: 3; stroke-linejoin: miter; stroke-linecap: square"/>
   </g>
   <g id="patch_4">
    <path d="M 749.195 400.7742
L 749.195 68.1342
" style="fill: none; stroke: #000000; stroke-width: 3; stroke-linejoin: miter; stroke-linecap: square"/>
   </g>
   <g id="patch_5">
    <path d="M 79.595 400.7742
L 749.195 400.7742
" style="fill: none; stroke: #000000; stroke-width: 3; stroke-linejoin: miter; stroke-linecap: square"/>
   </g>
   <g id="patch_6">
    <path d="M 79.595 68.1342
L 749.195 68.1342
" style="fill: none; stroke: #000000; stroke-width: 3; stroke-linejoin: miter; stroke-linecap: square"/>
   </g>
   <g id="text_16">
    <!-- Jaccard index for BH_v7_1H -->
    <g transform="translate(216.1385 29.0835) scale(0.288 -0.288)">
     <defs>
      <path id="DejaVuSans-66" d="M 2375 4863
L 2375 4384
L 1825 4384
Q 1516 4384 1395 4259
Q 1275 4134 1275 3809
L 1275 3500
L 2222 3500
L 2222 3053
L 1275 3053
L 1275 0
L 697 0
L 697 3053
L 147 3053
L 147 3500
L 697 3500
L 697 3744
Q 697 4328 969 4595
Q 1241 4863 1831 4863
L 2375 4863
z
" transform="scale(0.015625)"/>
      <path id="DejaVuSans-6f" d="M 1959 3097
Q 1497 3097 1228 2736
Q 959 2375 959 1747
Q 959 1119 1226 758
Q 1494 397 1959 397
Q 2419 397 2687 759
Q 2956 1122 2956 1747
Q 2956 2369 2687 2733
Q 2419 3097 1959 3097
z
M 1959 3584
Q 2709 3584 3137 3096
Q 3566 2609 3566 1747
Q 3566 888 3137 398
Q 2709 -91 1959 -91
Q 1206 -91 779 398
Q 353 888 353 1747
Q 353 2609 779 3096
Q 1206 3584 1959 3584
z
" transform="scale(0.015625)"/>
      <path id="DejaVuSans-42" d="M 1259 2228
L 1259 519
L 2272 519
Q 2781 519 3026 730
Q 3272 941 3272 1375
Q 3272 1813 3026 2020
Q 2781 2228 2272 2228
L 1259 2228
z
M 1259 4147
L 1259 2741
L 2194 2741
Q 2656 2741 2882 2914
Q 3109 3088 3109 3444
Q 3109 3797 2882 3972
Q 2656 4147 2194 4147
L 1259 4147
z
M 628 4666
L 2241 4666
Q 2963 4666 3353 4366
Q 3744 4066 3744 3513
Q 3744 3084 3544 2831
Q 3344 2578 2956 2516
Q 3422 2416 3680 2098
Q 3938 1781 3938 1306
Q 3938 681 3513 340
Q 3088 0 2303 0
L 628 0
L 628 4666
z
" transform="scale(0.015625)"/>
      <path id="DejaVuSans-48" d="M 628 4666
L 1259 4666
L 1259 2753
L 3553 2753
L 3553 4666
L 4184 4666
L 4184 0
L 3553 0
L 3553 2222
L 1259 2222
L 1259 0
L 628 0
L 628 4666
z
" transform="scale(0.015625)"/>
      <path id="DejaVuSans-5f" d="M 3263 -1063
L 3263 -1509
L -63 -1509
L -63 -1063
L 3263 -1063
z
" transform="scale(0.015625)"/>
      <path id="DejaVuSans-76" d="M 191 3500
L 800 3500
L 1894 563
L 2988 3500
L 3597 3500
L 2284 0
L 1503 0
L 191 3500
z
" transform="scale(0.015625)"/>
     </defs>
     <use xlink:href="#DejaVuSans-4a"/>
     <use xlink:href="#DejaVuSans-61" transform="translate(29.492188 0)"/>
     <use xlink:href="#DejaVuSans-63" transform="translate(90.771484 0)"/>
     <use xlink:href="#DejaVuSans-63" transform="translate(145.751953 0)"/>
     <use xlink:href="#DejaVuSans-61" transform="translate(200.732422 0)"/>
     <use xlink:href="#DejaVuSans-72" transform="translate(262.011719 0)"/>
     <use xlink:href="#DejaVuSans-64" transform="translate(301.375 0)"/>
     <use xlink:href="#DejaVuSans-20" transform="translate(364.851562 0)"/>
     <use xlink:href="#DejaVuSans-69" transform="translate(396.638672 0)"/>
     <use xlink:href="#DejaVuSans-6e" transform="translate(424.421875 0)"/>
     <use xlink:href="#DejaVuSans-64" transform="translate(487.800781 0)"/>
     <use xlink:href="#DejaVuSans-65" transform="translate(551.277344 0)"/>
     <use xlink:href="#DejaVuSans-78" transform="translate(611.050781 0)"/>
     <use xlink:href="#DejaVuSans-20" transform="translate(670.230469 0)"/>
     <use xlink:href="#DejaVuSans-66" transform="translate(702.017578 0)"/>
     <use xlink:href="#DejaVuSans-6f" transform="translate(737.222656 0)"/>
     <use xlink:href="#DejaVuSans-72" transform="translate(798.404297 0)"/>
     <use xlink:href="#DejaVuSans-20" transform="translate(839.517578 0)"/>
     <use xlink:href="#DejaVuSans-42" transform="translate(871.304688 0)"/>
     <use xlink:href="#DejaVuSans-48" transform="translate(939.908203 0)"/>
     <use xlink:href="#DejaVuSans-5f" transform="translate(1015.103516 0)"/>
     <use xlink:href="#DejaVuSans-76" transform="translate(1065.103516 0)"/>
     <use xlink:href="#DejaVuSans-37" transform="translate(1124.283203 0)"/>
     <use xlink:href="#DejaVuSans-5f" transform="translate(1187.90625 0)"/>
     <use xlink:href="#DejaVuSans-31" transform="translate(1237.90625 0)"/>
     <use xlink:href="#DejaVuSans-48" transform="translate(1301.529297 0)"/>
    </g>
    <!--  excluding signals from [3.2] ppm -->
    <g transform="translate(172.133 62.1342) scale(0.288 -0.288)">
     <defs>
      <path id="DejaVuSans-6c" d="M 603 4863
L 1178 4863
L 1178 0
L 603 0
L 603 4863
z
" transform="scale(0.015625)"/>
      <path id="DejaVuSans-75" d="M 544 1381
L 544 3500
L 1119 3500
L 1119 1403
Q 1119 906 1312 657
Q 1506 409 1894 409
Q 2359 409 2629 706
Q 2900 1003 2900 1516
L 2900 3500
L 3475 3500
L 3475 0
L 2900 0
L 2900 538
Q 2691 219 2414 64
Q 2138 -91 1772 -91
Q 1169 -91 856 284
Q 544 659 544 1381
z
M 1991 3584
L 1991 3584
z
" transform="scale(0.015625)"/>
      <path id="DejaVuSans-67" d="M 2906 1791
Q 2906 2416 2648 2759
Q 2391 3103 1925 3103
Q 1463 3103 1205 2759
Q 947 2416 947 1791
Q 947 1169 1205 825
Q 1463 481 1925 481
Q 2391 481 2648 825
Q 2906 1169 2906 1791
z
M 3481 434
Q 3481 -459 3084 -895
Q 2688 -1331 1869 -1331
Q 1566 -1331 1297 -1286
Q 1028 -1241 775 -1147
L 775 -588
Q 1028 -725 1275 -790
Q 1522 -856 1778 -856
Q 2344 -856 2625 -561
Q 2906 -266 2906 331
L 2906 616
Q 2728 306 2450 153
Q 2172 0 1784 0
Q 1141 0 747 490
Q 353 981 353 1791
Q 353 2603 747 3093
Q 1141 3584 1784 3584
Q 2172 3584 2450 3431
Q 2728 3278 2906 2969
L 2906 3500
L 3481 3500
L 3481 434
z
" transform="scale(0.015625)"/>
      <path id="DejaVuSans-73" d="M 2834 3397
L 2834 2853
Q 2591 2978 2328 3040
Q 2066 3103 1784 3103
Q 1356 3103 1142 2972
Q 928 2841 928 2578
Q 928 2378 1081 2264
Q 1234 2150 1697 2047
L 1894 2003
Q 2506 1872 2764 1633
Q 3022 1394 3022 966
Q 3022 478 2636 193
Q 2250 -91 1575 -91
Q 1294 -91 989 -36
Q 684 19 347 128
L 347 722
Q 666 556 975 473
Q 1284 391 1588 391
Q 1994 391 2212 530
Q 2431 669 2431 922
Q 2431 1156 2273 1281
Q 2116 1406 1581 1522
L 1381 1569
Q 847 1681 609 1914
Q 372 2147 372 2553
Q 372 3047 722 3315
Q 1072 3584 1716 3584
Q 2034 3584 2315 3537
Q 2597 3491 2834 3397
z
" transform="scale(0.015625)"/>
      <path id="DejaVuSans-5b" d="M 550 4863
L 1875 4863
L 1875 4416
L 1125 4416
L 1125 -397
L 1875 -397
L 1875 -844
L 550 -844
L 550 4863
z
" transform="scale(0.015625)"/>
      <path id="DejaVuSans-33" d="M 2597 2516
Q 3050 2419 3304 2112
Q 3559 1806 3559 1356
Q 3559 666 3084 287
Q 2609 -91 1734 -91
Q 1441 -91 1130 -33
Q 819 25 488 141
L 488 750
Q 750 597 1062 519
Q 1375 441 1716 441
Q 2309 441 2620 675
Q 2931 909 2931 1356
Q 2931 1769 2642 2001
Q 2353 2234 1838 2234
L 1294 2234
L 1294 2753
L 1863 2753
Q 2328 2753 2575 2939
Q 2822 3125 2822 3475
Q 2822 3834 2567 4026
Q 2313 4219 1838 4219
Q 1578 4219 1281 4162
Q 984 4106 628 3988
L 628 4550
Q 988 4650 1302 4700
Q 1616 4750 1894 4750
Q 2613 4750 3031 4423
Q 3450 4097 3450 3541
Q 3450 3153 3228 2886
Q 3006 2619 2597 2516
z
" transform="scale(0.015625)"/>
      <path id="DejaVuSans-5d" d="M 1947 4863
L 1947 -844
L 622 -844
L 622 -397
L 1369 -397
L 1369 4416
L 622 4416
L 622 4863
L 1947 4863
z
" transform="scale(0.015625)"/>
      <path id="DejaVuSans-70" d="M 1159 525
L 1159 -1331
L 581 -1331
L 581 3500
L 1159 3500
L 1159 2969
Q 1341 3281 1617 3432
Q 1894 3584 2278 3584
Q 2916 3584 3314 3078
Q 3713 2572 3713 1747
Q 3713 922 3314 415
Q 2916 -91 2278 -91
Q 1894 -91 1617 61
Q 1341 213 1159 525
z
M 3116 1747
Q 3116 2381 2855 2742
Q 2594 3103 2138 3103
Q 1681 3103 1420 2742
Q 1159 2381 1159 1747
Q 1159 1113 1420 752
Q 1681 391 2138 391
Q 2594 391 2855 752
Q 3116 1113 3116 1747
z
" transform="scale(0.015625)"/>
     </defs>
     <use xlink:href="#DejaVuSans-20"/>
     <use xlink:href="#DejaVuSans-65" transform="translate(31.787109 0)"/>
     <use xlink:href="#DejaVuSans-78" transform="translate(91.560547 0)"/>
     <use xlink:href="#DejaVuSans-63" transform="translate(148.990234 0)"/>
     <use xlink:href="#DejaVuSans-6c" transform="translate(203.970703 0)"/>
     <use xlink:href="#DejaVuSans-75" transform="translate(231.753906 0)"/>
     <use xlink:href="#DejaVuSans-64" transform="translate(295.132812 0)"/>
     <use xlink:href="#DejaVuSans-69" transform="translate(358.609375 0)"/>
     <use xlink:href="#DejaVuSans-6e" transform="translate(386.392578 0)"/>
     <use xlink:href="#DejaVuSans-67" transform="translate(449.771484 0)"/>
     <use xlink:href="#DejaVuSans-20" transform="translate(513.248047 0)"/>
     <use xlink:href="#DejaVuSans-73" transform="translate(545.035156 0)"/>
     <use xlink:href="#DejaVuSans-69" transform="translate(597.134766 0)"/>
     <use xlink:href="#DejaVuSans-67" transform="translate(624.917969 0)"/>
     <use xlink:href="#DejaVuSans-6e" transform="translate(688.394531 0)"/>
     <use xlink:href="#DejaVuSans-61" transform="translate(751.773438 0)"/>
     <use xlink:href="#DejaVuSans-6c" transform="translate(813.052734 0)"/>
     <use xlink:href="#DejaVuSans-73" transform="translate(840.835938 0)"/>
     <use xlink:href="#DejaVuSans-20" transform="translate(892.935547 0)"/>
     <use xlink:href="#DejaVuSans-66" transform="translate(924.722656 0)"/>
     <use xlink:href="#DejaVuSans-72" transform="translate(959.927734 0)"/>
     <use xlink:href="#DejaVuSans-6f" transform="translate(998.791016 0)"/>
     <use xlink:href="#DejaVuSans-6d" transform="translate(1059.972656 0)"/>
     <use xlink:href="#DejaVuSans-20" transform="translate(1157.384766 0)"/>
     <use xlink:href="#DejaVuSans-5b" transform="translate(1189.171875 0)"/>
     <use xlink:href="#DejaVuSans-33" transform="translate(1228.185547 0)"/>
     <use xlink:href="#DejaVuSans-2e" transform="translate(1291.808594 0)"/>
     <use xlink:href="#DejaVuSans-32" transform="translate(1323.595703 0)"/>
     <use xlink:href="#DejaVuSans-5d" transform="translate(1387.21875 0)"/>
     <use xlink:href="#DejaVuSans-20" transform="translate(1426.232422 0)"/>
     <use xlink:href="#DejaVuSans-70" transform="translate(1458.019531 0)"/>
     <use xlink:href="#DejaVuSans-70" transform="translate(1521.496094 0)"/>
     <use xlink:href="#DejaVuSans-6d" transform="translate(1584.972656 0)"/>
    </g>
   </g>
   <g id="legend_1">
    <g id="patch_7">
     <path d="M 294.6725 157.7892
L 732.395 157.7892
Q 737.195 157.7892 737.195 152.9892
L 737.195 84.9342
Q 737.195 80.1342 732.395 80.1342
L 294.6725 80.1342
Q 289.8725 80.1342 289.8725 84.9342
L 289.8725 152.9892
Q 289.8725 157.7892 294.6725 157.7892
z
" style="fill: #ffffff; opacity: 0.8; stroke: #cccccc; stroke-width: 3; stroke-linejoin: miter"/>
    </g>
    <g id="line2d_16">
     <g>
      <use xlink:href="#mea1b8e39e7" x="323.4725" y="99.57045" style="fill: #1f77b4; stroke: #1f77b4"/>
     </g>
    </g>
    <g id="text_17">
     <!-- Jaccard index 12.0 to 0.0 ppm -->
     <g transform="translate(366.6725 107.97045) scale(0.24 -0.24)">
      <defs>
       <path id="DejaVuSans-74" d="M 1172 4494
L 1172 3500
L 2356 3500
L 2356 3053
L 1172 3053
L 1172 1153
Q 1172 725 1289 603
Q 1406 481 1766 481
L 2356 481
L 2356 0
L 1766 0
Q 1100 0 847 248
Q 594 497 594 1153
L 594 3053
L 172 3053
L 172 3500
L 594 3500
L 594 4494
L 1172 4494
z
" transform="scale(0.015625)"/>
      </defs>
      <use xlink:href="#DejaVuSans-4a"/>
      <use xlink:href="#DejaVuSans-61" transform="translate(29.492188 0)"/>
      <use xlink:href="#DejaVuSans-63" transform="translate(90.771484 0)"/>
      <use xlink:href="#DejaVuSans-63" transform="translate(145.751953 0)"/>
      <use xlink:href="#DejaVuSans-61" transform="translate(200.732422 0)"/>
      <use xlink:href="#DejaVuSans-72" transform="translate(262.011719 0)"/>
      <use xlink:href="#DejaVuSans-64" transform="translate(301.375 0)"/>
      <use xlink:href="#DejaVuSans-20" transform="translate(364.851562 0)"/>
      <use xlink:href="#DejaVuSans-69" transform="translate(396.638672 0)"/>
      <use xlink:href="#DejaVuSans-6e" transform="translate(424.421875 0)"/>
      <use xlink:href="#DejaVuSans-64" transform="translate(487.800781 0)"/>
      <use xlink:href="#DejaVuSans-65" transform="translate(551.277344 0)"/>
      <use xlink:href="#DejaVuSans-78" transform="translate(611.050781 0)"/>
      <use xlink:href="#DejaVuSans-20" transform="translate(670.230469 0)"/>
      <use xlink:href="#DejaVuSans-31" transform="translate(702.017578 0)"/>
      <use xlink:href="#DejaVuSans-32" transform="translate(765.640625 0)"/>
      <use xlink:href="#DejaVuSans-2e" transform="translate(829.263672 0)"/>
      <use xlink:href="#DejaVuSans-30" transform="translate(861.050781 0)"/>
      <use xlink:href="#DejaVuSans-20" transform="translate(924.673828 0)"/>
      <use xlink:href="#DejaVuSans-74" transform="translate(956.460938 0)"/>
      <use xlink:href="#DejaVuSans-6f" transform="translate(995.669922 0)"/>
      <use xlink:href="#DejaVuSans-20" transform="translate(1056.851562 0)"/>
      <use xlink:href="#DejaVuSans-30" transform="translate(1088.638672 0)"/>
      <use xlink:href="#DejaVuSans-2e" transform="translate(1152.261719 0)"/>
      <use xlink:href="#DejaVuSans-30" transform="translate(1184.048828 0)"/>
      <use xlink:href="#DejaVuSans-20" transform="translate(1247.671875 0)"/>
      <use xlink:href="#DejaVuSans-70" transform="translate(1279.458984 0)"/>
      <use xlink:href="#DejaVuSans-70" transform="translate(1342.935547 0)"/>
      <use xlink:href="#DejaVuSans-6d" transform="translate(1406.412109 0)"/>
     </g>
    </g>
    <g id="line2d_17">
     <path d="M 299.4725 134.79795
L 323.4725 134.79795
L 347.4725 134.79795
" style="fill: none; stroke-dasharray: 5.55,2.4; stroke-dashoffset: 0; stroke: #ff0000; stroke-width: 1.5"/>
    </g>
    <g id="text_18">
     <!-- Plateau after 6:13:58 -->
     <g transform="translate(366.6725 143.19795) scale(0.24 -0.24)">
      <defs>
       <path id="DejaVuSans-50" d="M 1259 4147
L 1259 2394
L 2053 2394
Q 2494 2394 2734 2622
Q 2975 2850 2975 3272
Q 2975 3691 2734 3919
Q 2494 4147 2053 4147
L 1259 4147
z
M 628 4666
L 2053 4666
Q 2838 4666 3239 4311
Q 3641 3956 3641 3272
Q 3641 2581 3239 2228
Q 2838 1875 2053 1875
L 1259 1875
L 1259 0
L 628 0
L 628 4666
z
" transform="scale(0.015625)"/>
       <path id="DejaVuSans-36" d="M 2113 2584
Q 1688 2584 1439 2293
Q 1191 2003 1191 1497
Q 1191 994 1439 701
Q 1688 409 2113 409
Q 2538 409 2786 701
Q 3034 994 3034 1497
Q 3034 2003 2786 2293
Q 2538 2584 2113 2584
z
M 3366 4563
L 3366 3988
Q 3128 4100 2886 4159
Q 2644 4219 2406 4219
Q 1781 4219 1451 3797
Q 1122 3375 1075 2522
Q 1259 2794 1537 2939
Q 1816 3084 2150 3084
Q 2853 3084 3261 2657
Q 3669 2231 3669 1497
Q 3669 778 3244 343
Q 2819 -91 2113 -91
Q 1303 -91 875 529
Q 447 1150 447 2328
Q 447 3434 972 4092
Q 1497 4750 2381 4750
Q 2619 4750 2861 4703
Q 3103 4656 3366 4563
z
" transform="scale(0.015625)"/>
       <path id="DejaVuSans-3a" d="M 750 794
L 1409 794
L 1409 0
L 750 0
L 750 794
z
M 750 3309
L 1409 3309
L 1409 2516
L 750 2516
L 750 3309
z
" transform="scale(0.015625)"/>
      </defs>
      <use xlink:href="#DejaVuSans-50"/>
      <use xlink:href="#DejaVuSans-6c" transform="translate(60.302734 0)"/>
      <use xlink:href="#DejaVuSans-61" transform="translate(88.085938 0)"/>
      <use xlink:href="#DejaVuSans-74" transform="translate(149.365234 0)"/>
      <use xlink:href="#DejaVuSans-65" transform="translate(188.574219 0)"/>
      <use xlink:href="#DejaVuSans-61" transform="translate(250.097656 0)"/>
      <use xlink:href="#DejaVuSans-75" transform="translate(311.376953 0)"/>
      <use xlink:href="#DejaVuSans-20" transform="translate(374.755859 0)"/>
      <use xlink:href="#DejaVuSans-61" transform="translate(406.542969 0)"/>
      <use xlink:href="#DejaVuSans-66" transform="translate(467.822266 0)"/>
      <use xlink:href="#DejaVuSans-74" transform="translate(501.277344 0)"/>
      <use xlink:href="#DejaVuSans-65" transform="translate(540.486328 0)"/>
      <use xlink:href="#DejaVuSans-72" transform="translate(602.009766 0)"/>
      <use xlink:href="#DejaVuSans-20" transform="translate(643.123047 0)"/>
      <use xlink:href="#DejaVuSans-36" transform="translate(674.910156 0)"/>
      <use xlink:href="#DejaVuSans-3a" transform="translate(738.533203 0)"/>
      <use xlink:href="#DejaVuSans-31" transform="translate(772.224609 0)"/>
      <use xlink:href="#DejaVuSans-33" transform="translate(835.847656 0)"/>
      <use xlink:href="#DejaVuSans-3a" transform="translate(899.470703 0)"/>
      <use xlink:href="#DejaVuSans-35" transform="translate(933.162109 0)"/>
      <use xlink:href="#DejaVuSans-38" transform="translate(996.785156 0)"/>
     </g>
    </g>
   </g>
  </g>
 </g>
 <defs>
  <clipPath id="p47afe3e9c2">
   <rect x="79.595" y="68.1342" width="669.6" height="332.64"/>
  </clipPath>
 </defs>
</svg>
