<?xml version="1.0" encoding="utf-8" standalone="no"?>
<!DOCTYPE svg PUBLIC "-//W3C//DTD SVG 1.1//EN"
  "http://www.w3.org/Graphics/SVG/1.1/DTD/svg11.dtd">
<svg xmlns:xlink="http://www.w3.org/1999/xlink" width="807.04625pt" height="432.3785pt" viewBox="0 0 807.04625 432.3785" xmlns="http://www.w3.org/2000/svg" version="1.1">
 <metadata>
  <rdf:RDF xmlns:dc="http://purl.org/dc/elements/1.1/" xmlns:cc="http://creativecommons.org/ns#" xmlns:rdf="http://www.w3.org/1999/02/22-rdf-syntax-ns#">
   <cc:Work>
    <dc:type rdf:resource="http://purl.org/dc/dcmitype/StillImage"/>
    <dc:date>2025-11-02T13:21:26.456272</dc:date>
    <dc:format>image/svg+xml</dc:format>
    <dc:creator>
     <cc:Agent>
      <dc:title>Matplotlib v3.10.7, https://matplotlib.org/</dc:title>
     </cc:Agent>
    </dc:creator>
   </cc:Work>
  </rdf:RDF>
 </metadata>
 <defs>
  <style type="text/css">*{stroke-linejoin: round; stroke-linecap: butt}</style>
 </defs>
 <g id="figure_1">
  <g id="patch_1">
   <path d="M 0 432.3785
L 807.04625 432.3785
L 807.04625 0
L 0 0
L 0 432.3785
z
" style="fill: none"/>
  </g>
  <g id="axes_1">
   <g id="patch_2">
    <path d="M 130.24625 367.7235
L 799.84625 367.7235
L 799.84625 35.0835
L 130.24625 35.0835
L 130.24625 367.7235
z
" style="fill: none"/>
   </g>
   <g id="matplotlib.axis_1">
    <g id="xtick_1">
     <g id="line2d_1">
      <defs>
       <path id="m5c9ffc232b" d="M 0 0
L 0 3.5
" style="stroke: #000000; stroke-width: 3"/>
      </defs>
      <g>
       <use xlink:href="#m5c9ffc232b" x="150.702155" y="367.7235" style="stroke: #000000; stroke-width: 3"/>
      </g>
     </g>
     <g id="text_1">
      <!-- 0 -->
      <g transform="translate(143.067155 392.95975) scale(0.24 -0.24)">
       <defs>
        <path id="DejaVuSans-30" d="M 2034 4250
Q 1547 4250 1301 3770
Q 1056 3291 1056 2328
Q 1056 1369 1301 889
Q 1547 409 2034 409
Q 2525 409 2770 889
Q 3016 1369 3016 2328
Q 3016 3291 2770 3770
Q 2525 4250 2034 4250
z
M 2034 4750
Q 2819 4750 3233 4129
Q 3647 3509 3647 2328
Q 3647 1150 3233 529
Q 2819 -91 2034 -91
Q 1250 -91 836 529
Q 422 1150 422 2328
Q 422 3509 836 4129
Q 1250 4750 2034 4750
z
" transform="scale(0.015625)"/>
       </defs>
       <use xlink:href="#DejaVuSans-30"/>
      </g>
     </g>
    </g>
    <g id="xtick_2">
     <g id="line2d_2">
      <g>
       <use xlink:href="#m5c9ffc232b" x="238.765028" y="367.7235" style="stroke: #000000; stroke-width: 3"/>
      </g>
     </g>
     <g id="text_2">
      <!-- 200 -->
      <g transform="translate(215.860028 392.95975) scale(0.24 -0.24)">
       <defs>
        <path id="DejaVuSans-32" d="M 1228 531
L 3431 531
L 3431 0
L 469 0
L 469 531
Q 828 903 1448 1529
Q 2069 2156 2228 2338
Q 2531 2678 2651 2914
Q 2772 3150 2772 3378
Q 2772 3750 2511 3984
Q 2250 4219 1831 4219
Q 1534 4219 1204 4116
Q 875 4013 500 3803
L 500 4441
Q 881 4594 1212 4672
Q 1544 4750 1819 4750
Q 2544 4750 2975 4387
Q 3406 4025 3406 3419
Q 3406 3131 3298 2873
Q 3191 2616 2906 2266
Q 2828 2175 2409 1742
Q 1991 1309 1228 531
z
" transform="scale(0.015625)"/>
       </defs>
       <use xlink:href="#DejaVuSans-32"/>
       <use xlink:href="#DejaVuSans-30" transform="translate(63.623047 0)"/>
       <use xlink:href="#DejaVuSans-30" transform="translate(127.246094 0)"/>
      </g>
     </g>
    </g>
    <g id="xtick_3">
     <g id="line2d_3">
      <g>
       <use xlink:href="#m5c9ffc232b" x="326.827901" y="367.7235" style="stroke: #000000; stroke-width: 3"/>
      </g>
     </g>
     <g id="text_3">
      <!-- 400 -->
      <g transform="translate(303.922901 392.95975) scale(0.24 -0.24)">
       <defs>
        <path id="DejaVuSans-34" d="M 2419 4116
L 825 1625
L 2419 1625
L 2419 4116
z
M 2253 4666
L 3047 4666
L 3047 1625
L 3713 1625
L 3713 1100
L 3047 1100
L 3047 0
L 2419 0
L 2419 1100
L 313 1100
L 313 1709
L 2253 4666
z
" transform="scale(0.015625)"/>
       </defs>
       <use xlink:href="#DejaVuSans-34"/>
       <use xlink:href="#DejaVuSans-30" transform="translate(63.623047 0)"/>
       <use xlink:href="#DejaVuSans-30" transform="translate(127.246094 0)"/>
      </g>
     </g>
    </g>
    <g id="xtick_4">
     <g id="line2d_4">
      <g>
       <use xlink:href="#m5c9ffc232b" x="414.890774" y="367.7235" style="stroke: #000000; stroke-width: 3"/>
      </g>
     </g>
     <g id="text_4">
      <!-- 600 -->
      <g transform="translate(391.985774 392.95975) scale(0.24 -0.24)">
       <defs>
        <path id="DejaVuSans-36" d="M 2113 2584
Q 1688 2584 1439 2293
Q 1191 2003 1191 1497
Q 1191 994 1439 701
Q 1688 409 2113 409
Q 2538 409 2786 701
Q 3034 994 3034 1497
Q 3034 2003 2786 2293
Q 2538 2584 2113 2584
z
M 3366 4563
L 3366 3988
Q 3128 4100 2886 4159
Q 2644 4219 2406 4219
Q 1781 4219 1451 3797
Q 1122 3375 1075 2522
Q 1259 2794 1537 2939
Q 1816 3084 2150 3084
Q 2853 3084 3261 2657
Q 3669 2231 3669 1497
Q 3669 778 3244 343
Q 2819 -91 2113 -91
Q 1303 -91 875 529
Q 447 1150 447 2328
Q 447 3434 972 4092
Q 1497 4750 2381 4750
Q 2619 4750 2861 4703
Q 3103 4656 3366 4563
z
" transform="scale(0.015625)"/>
       </defs>
       <use xlink:href="#DejaVuSans-36"/>
       <use xlink:href="#DejaVuSans-30" transform="translate(63.623047 0)"/>
       <use xlink:href="#DejaVuSans-30" transform="translate(127.246094 0)"/>
      </g>
     </g>
    </g>
    <g id="xtick_5">
     <g id="line2d_5">
      <g>
       <use xlink:href="#m5c9ffc232b" x="502.953648" y="367.7235" style="stroke: #000000; stroke-width: 3"/>
      </g>
     </g>
     <g id="text_5">
      <!-- 800 -->
      <g transform="translate(480.048648 392.95975) scale(0.24 -0.24)">
       <defs>
        <path id="DejaVuSans-38" d="M 2034 2216
Q 1584 2216 1326 1975
Q 1069 1734 1069 1313
Q 1069 891 1326 650
Q 1584 409 2034 409
Q 2484 409 2743 651
Q 3003 894 3003 1313
Q 3003 1734 2745 1975
Q 2488 2216 2034 2216
z
M 1403 2484
Q 997 2584 770 2862
Q 544 3141 544 3541
Q 544 4100 942 4425
Q 1341 4750 2034 4750
Q 2731 4750 3128 4425
Q 3525 4100 3525 3541
Q 3525 3141 3298 2862
Q 3072 2584 2669 2484
Q 3125 2378 3379 2068
Q 3634 1759 3634 1313
Q 3634 634 3220 271
Q 2806 -91 2034 -91
Q 1263 -91 848 271
Q 434 634 434 1313
Q 434 1759 690 2068
Q 947 2378 1403 2484
z
M 1172 3481
Q 1172 3119 1398 2916
Q 1625 2713 2034 2713
Q 2441 2713 2670 2916
Q 2900 3119 2900 3481
Q 2900 3844 2670 4047
Q 2441 4250 2034 4250
Q 1625 4250 1398 4047
Q 1172 3844 1172 3481
z
" transform="scale(0.015625)"/>
       </defs>
       <use xlink:href="#DejaVuSans-38"/>
       <use xlink:href="#DejaVuSans-30" transform="translate(63.623047 0)"/>
       <use xlink:href="#DejaVuSans-30" transform="translate(127.246094 0)"/>
      </g>
     </g>
    </g>
    <g id="xtick_6">
     <g id="line2d_6">
      <g>
       <use xlink:href="#m5c9ffc232b" x="591.016521" y="367.7235" style="stroke: #000000; stroke-width: 3"/>
      </g>
     </g>
     <g id="text_6">
      <!-- 1000 -->
      <g transform="translate(560.476521 392.95975) scale(0.24 -0.24)">
       <defs>
        <path id="DejaVuSans-31" d="M 794 531
L 1825 531
L 1825 4091
L 703 3866
L 703 4441
L 1819 4666
L 2450 4666
L 2450 531
L 3481 531
L 3481 0
L 794 0
L 794 531
z
" transform="scale(0.015625)"/>
       </defs>
       <use xlink:href="#DejaVuSans-31"/>
       <use xlink:href="#DejaVuSans-30" transform="translate(63.623047 0)"/>
       <use xlink:href="#DejaVuSans-30" transform="translate(127.246094 0)"/>
       <use xlink:href="#DejaVuSans-30" transform="translate(190.869141 0)"/>
      </g>
     </g>
    </g>
    <g id="xtick_7">
     <g id="line2d_7">
      <g>
       <use xlink:href="#m5c9ffc232b" x="679.079394" y="367.7235" style="stroke: #000000; stroke-width: 3"/>
      </g>
     </g>
     <g id="text_7">
      <!-- 1200 -->
      <g transform="translate(648.539394 392.95975) scale(0.24 -0.24)">
       <use xlink:href="#DejaVuSans-31"/>
       <use xlink:href="#DejaVuSans-32" transform="translate(63.623047 0)"/>
       <use xlink:href="#DejaVuSans-30" transform="translate(127.246094 0)"/>
       <use xlink:href="#DejaVuSans-30" transform="translate(190.869141 0)"/>
      </g>
     </g>
    </g>
    <g id="xtick_8">
     <g id="line2d_8">
      <g>
       <use xlink:href="#m5c9ffc232b" x="767.142267" y="367.7235" style="stroke: #000000; stroke-width: 3"/>
      </g>
     </g>
     <g id="text_8">
      <!-- 1400 -->
      <g transform="translate(736.602267 392.95975) scale(0.24 -0.24)">
       <use xlink:href="#DejaVuSans-31"/>
       <use xlink:href="#DejaVuSans-34" transform="translate(63.623047 0)"/>
       <use xlink:href="#DejaVuSans-30" transform="translate(127.246094 0)"/>
       <use xlink:href="#DejaVuSans-30" transform="translate(190.869141 0)"/>
      </g>
     </g>
    </g>
    <g id="text_9">
     <!-- Time / min -->
     <g transform="translate(401.388125 420.18725) scale(0.24 -0.24)">
      <defs>
       <path id="DejaVuSans-54" d="M -19 4666
L 3928 4666
L 3928 4134
L 2272 4134
L 2272 0
L 1638 0
L 1638 4134
L -19 4134
L -19 4666
z
" transform="scale(0.015625)"/>
       <path id="DejaVuSans-69" d="M 603 3500
L 1178 3500
L 1178 0
L 603 0
L 603 3500
z
M 603 4863
L 1178 4863
L 1178 4134
L 603 4134
L 603 4863
z
" transform="scale(0.015625)"/>
       <path id="DejaVuSans-6d" d="M 3328 2828
Q 3544 3216 3844 3400
Q 4144 3584 4550 3584
Q 5097 3584 5394 3201
Q 5691 2819 5691 2113
L 5691 0
L 5113 0
L 5113 2094
Q 5113 2597 4934 2840
Q 4756 3084 4391 3084
Q 3944 3084 3684 2787
Q 3425 2491 3425 1978
L 3425 0
L 2847 0
L 2847 2094
Q 2847 2600 2669 2842
Q 2491 3084 2119 3084
Q 1678 3084 1418 2786
Q 1159 2488 1159 1978
L 1159 0
L 581 0
L 581 3500
L 1159 3500
L 1159 2956
Q 1356 3278 1631 3431
Q 1906 3584 2284 3584
Q 2666 3584 2933 3390
Q 3200 3197 3328 2828
z
" transform="scale(0.015625)"/>
       <path id="DejaVuSans-65" d="M 3597 1894
L 3597 1613
L 953 1613
Q 991 1019 1311 708
Q 1631 397 2203 397
Q 2534 397 2845 478
Q 3156 559 3463 722
L 3463 178
Q 3153 47 2828 -22
Q 2503 -91 2169 -91
Q 1331 -91 842 396
Q 353 884 353 1716
Q 353 2575 817 3079
Q 1281 3584 2069 3584
Q 2775 3584 3186 3129
Q 3597 2675 3597 1894
z
M 3022 2063
Q 3016 2534 2758 2815
Q 2500 3097 2075 3097
Q 1594 3097 1305 2825
Q 1016 2553 972 2059
L 3022 2063
z
" transform="scale(0.015625)"/>
       <path id="DejaVuSans-20" transform="scale(0.015625)"/>
       <path id="DejaVuSans-2f" d="M 1625 4666
L 2156 4666
L 531 -594
L 0 -594
L 1625 4666
z
" transform="scale(0.015625)"/>
       <path id="DejaVuSans-6e" d="M 3513 2113
L 3513 0
L 2938 0
L 2938 2094
Q 2938 2591 2744 2837
Q 2550 3084 2163 3084
Q 1697 3084 1428 2787
Q 1159 2491 1159 1978
L 1159 0
L 581 0
L 581 3500
L 1159 3500
L 1159 2956
Q 1366 3272 1645 3428
Q 1925 3584 2291 3584
Q 2894 3584 3203 3211
Q 3513 2838 3513 2113
z
" transform="scale(0.015625)"/>
      </defs>
      <use xlink:href="#DejaVuSans-54"/>
      <use xlink:href="#DejaVuSans-69" transform="translate(57.958984 0)"/>
      <use xlink:href="#DejaVuSans-6d" transform="translate(85.742188 0)"/>
      <use xlink:href="#DejaVuSans-65" transform="translate(183.154297 0)"/>
      <use xlink:href="#DejaVuSans-20" transform="translate(244.677734 0)"/>
      <use xlink:href="#DejaVuSans-2f" transform="translate(276.464844 0)"/>
      <use xlink:href="#DejaVuSans-20" transform="translate(310.15625 0)"/>
      <use xlink:href="#DejaVuSans-6d" transform="translate(341.943359 0)"/>
      <use xlink:href="#DejaVuSans-69" transform="translate(439.355469 0)"/>
      <use xlink:href="#DejaVuSans-6e" transform="translate(467.138672 0)"/>
     </g>
    </g>
   </g>
   <g id="matplotlib.axis_2">
    <g id="ytick_1">
     <g id="line2d_9">
      <defs>
       <path id="m5304d89c50" d="M 0 0
L -3.5 0
" style="stroke: #000000; stroke-width: 3"/>
      </defs>
      <g>
       <use xlink:href="#m5304d89c50" x="130.24625" y="352.6035" style="stroke: #000000; stroke-width: 3"/>
      </g>
     </g>
     <g id="text_10">
      <!-- −1.000 -->
      <g transform="translate(34.4275 361.721625) scale(0.24 -0.24)">
       <defs>
        <path id="DejaVuSans-2212" d="M 678 2272
L 4684 2272
L 4684 1741
L 678 1741
L 678 2272
z
" transform="scale(0.015625)"/>
        <path id="DejaVuSans-2e" d="M 684 794
L 1344 794
L 1344 0
L 684 0
L 684 794
z
" transform="scale(0.015625)"/>
       </defs>
       <use xlink:href="#DejaVuSans-2212"/>
       <use xlink:href="#DejaVuSans-31" transform="translate(83.789062 0)"/>
       <use xlink:href="#DejaVuSans-2e" transform="translate(147.412109 0)"/>
       <use xlink:href="#DejaVuSans-30" transform="translate(179.199219 0)"/>
       <use xlink:href="#DejaVuSans-30" transform="translate(242.822266 0)"/>
       <use xlink:href="#DejaVuSans-30" transform="translate(306.445312 0)"/>
      </g>
     </g>
    </g>
    <g id="ytick_2">
     <g id="line2d_10">
      <g>
       <use xlink:href="#m5304d89c50" x="130.24625" y="279.38029" style="stroke: #000000; stroke-width: 3"/>
      </g>
     </g>
     <g id="text_11">
      <!-- −0.999 -->
      <g transform="translate(34.4275 288.498415) scale(0.24 -0.24)">
       <defs>
        <path id="DejaVuSans-39" d="M 703 97
L 703 672
Q 941 559 1184 500
Q 1428 441 1663 441
Q 2288 441 2617 861
Q 2947 1281 2994 2138
Q 2813 1869 2534 1725
Q 2256 1581 1919 1581
Q 1219 1581 811 2004
Q 403 2428 403 3163
Q 403 3881 828 4315
Q 1253 4750 1959 4750
Q 2769 4750 3195 4129
Q 3622 3509 3622 2328
Q 3622 1225 3098 567
Q 2575 -91 1691 -91
Q 1453 -91 1209 -44
Q 966 3 703 97
z
M 1959 2075
Q 2384 2075 2632 2365
Q 2881 2656 2881 3163
Q 2881 3666 2632 3958
Q 2384 4250 1959 4250
Q 1534 4250 1286 3958
Q 1038 3666 1038 3163
Q 1038 2656 1286 2365
Q 1534 2075 1959 2075
z
" transform="scale(0.015625)"/>
       </defs>
       <use xlink:href="#DejaVuSans-2212"/>
       <use xlink:href="#DejaVuSans-30" transform="translate(83.789062 0)"/>
       <use xlink:href="#DejaVuSans-2e" transform="translate(147.412109 0)"/>
       <use xlink:href="#DejaVuSans-39" transform="translate(179.199219 0)"/>
       <use xlink:href="#DejaVuSans-39" transform="translate(242.822266 0)"/>
       <use xlink:href="#DejaVuSans-39" transform="translate(306.445312 0)"/>
      </g>
     </g>
    </g>
    <g id="ytick_3">
     <g id="line2d_11">
      <g>
       <use xlink:href="#m5304d89c50" x="130.24625" y="206.15708" style="stroke: #000000; stroke-width: 3"/>
      </g>
     </g>
     <g id="text_12">
      <!-- −0.998 -->
      <g transform="translate(34.4275 215.275205) scale(0.24 -0.24)">
       <use xlink:href="#DejaVuSans-2212"/>
       <use xlink:href="#DejaVuSans-30" transform="translate(83.789062 0)"/>
       <use xlink:href="#DejaVuSans-2e" transform="translate(147.412109 0)"/>
       <use xlink:href="#DejaVuSans-39" transform="translate(179.199219 0)"/>
       <use xlink:href="#DejaVuSans-39" transform="translate(242.822266 0)"/>
       <use xlink:href="#DejaVuSans-38" transform="translate(306.445312 0)"/>
      </g>
     </g>
    </g>
    <g id="ytick_4">
     <g id="line2d_12">
      <g>
       <use xlink:href="#m5304d89c50" x="130.24625" y="132.933871" style="stroke: #000000; stroke-width: 3"/>
      </g>
     </g>
     <g id="text_13">
      <!-- −0.997 -->
      <g transform="translate(34.4275 142.051996) scale(0.24 -0.24)">
       <defs>
        <path id="DejaVuSans-37" d="M 525 4666
L 3525 4666
L 3525 4397
L 1831 0
L 1172 0
L 2766 4134
L 525 4134
L 525 4666
z
" transform="scale(0.015625)"/>
       </defs>
       <use xlink:href="#DejaVuSans-2212"/>
       <use xlink:href="#DejaVuSans-30" transform="translate(83.789062 0)"/>
       <use xlink:href="#DejaVuSans-2e" transform="translate(147.412109 0)"/>
       <use xlink:href="#DejaVuSans-39" transform="translate(179.199219 0)"/>
       <use xlink:href="#DejaVuSans-39" transform="translate(242.822266 0)"/>
       <use xlink:href="#DejaVuSans-37" transform="translate(306.445312 0)"/>
      </g>
     </g>
    </g>
    <g id="ytick_5">
     <g id="line2d_13">
      <g>
       <use xlink:href="#m5304d89c50" x="130.24625" y="59.710661" style="stroke: #000000; stroke-width: 3"/>
      </g>
     </g>
     <g id="text_14">
      <!-- −0.996 -->
      <g transform="translate(34.4275 68.828786) scale(0.24 -0.24)">
       <use xlink:href="#DejaVuSans-2212"/>
       <use xlink:href="#DejaVuSans-30" transform="translate(83.789062 0)"/>
       <use xlink:href="#DejaVuSans-2e" transform="translate(147.412109 0)"/>
       <use xlink:href="#DejaVuSans-39" transform="translate(179.199219 0)"/>
       <use xlink:href="#DejaVuSans-39" transform="translate(242.822266 0)"/>
       <use xlink:href="#DejaVuSans-36" transform="translate(306.445312 0)"/>
      </g>
     </g>
    </g>
    <g id="text_15">
     <!-- Spearman correlation -->
     <g transform="translate(25.43625 330.945375) rotate(-90) scale(0.24 -0.24)">
      <defs>
       <path id="DejaVuSans-53" d="M 3425 4513
L 3425 3897
Q 3066 4069 2747 4153
Q 2428 4238 2131 4238
Q 1616 4238 1336 4038
Q 1056 3838 1056 3469
Q 1056 3159 1242 3001
Q 1428 2844 1947 2747
L 2328 2669
Q 3034 2534 3370 2195
Q 3706 1856 3706 1288
Q 3706 609 3251 259
Q 2797 -91 1919 -91
Q 1588 -91 1214 -16
Q 841 59 441 206
L 441 856
Q 825 641 1194 531
Q 1563 422 1919 422
Q 2459 422 2753 634
Q 3047 847 3047 1241
Q 3047 1584 2836 1778
Q 2625 1972 2144 2069
L 1759 2144
Q 1053 2284 737 2584
Q 422 2884 422 3419
Q 422 4038 858 4394
Q 1294 4750 2059 4750
Q 2388 4750 2728 4690
Q 3069 4631 3425 4513
z
" transform="scale(0.015625)"/>
       <path id="DejaVuSans-70" d="M 1159 525
L 1159 -1331
L 581 -1331
L 581 3500
L 1159 3500
L 1159 2969
Q 1341 3281 1617 3432
Q 1894 3584 2278 3584
Q 2916 3584 3314 3078
Q 3713 2572 3713 1747
Q 3713 922 3314 415
Q 2916 -91 2278 -91
Q 1894 -91 1617 61
Q 1341 213 1159 525
z
M 3116 1747
Q 3116 2381 2855 2742
Q 2594 3103 2138 3103
Q 1681 3103 1420 2742
Q 1159 2381 1159 1747
Q 1159 1113 1420 752
Q 1681 391 2138 391
Q 2594 391 2855 752
Q 3116 1113 3116 1747
z
" transform="scale(0.015625)"/>
       <path id="DejaVuSans-61" d="M 2194 1759
Q 1497 1759 1228 1600
Q 959 1441 959 1056
Q 959 750 1161 570
Q 1363 391 1709 391
Q 2188 391 2477 730
Q 2766 1069 2766 1631
L 2766 1759
L 2194 1759
z
M 3341 1997
L 3341 0
L 2766 0
L 2766 531
Q 2569 213 2275 61
Q 1981 -91 1556 -91
Q 1019 -91 701 211
Q 384 513 384 1019
Q 384 1609 779 1909
Q 1175 2209 1959 2209
L 2766 2209
L 2766 2266
Q 2766 2663 2505 2880
Q 2244 3097 1772 3097
Q 1472 3097 1187 3025
Q 903 2953 641 2809
L 641 3341
Q 956 3463 1253 3523
Q 1550 3584 1831 3584
Q 2591 3584 2966 3190
Q 3341 2797 3341 1997
z
" transform="scale(0.015625)"/>
       <path id="DejaVuSans-72" d="M 2631 2963
Q 2534 3019 2420 3045
Q 2306 3072 2169 3072
Q 1681 3072 1420 2755
Q 1159 2438 1159 1844
L 1159 0
L 581 0
L 581 3500
L 1159 3500
L 1159 2956
Q 1341 3275 1631 3429
Q 1922 3584 2338 3584
Q 2397 3584 2469 3576
Q 2541 3569 2628 3553
L 2631 2963
z
" transform="scale(0.015625)"/>
       <path id="DejaVuSans-63" d="M 3122 3366
L 3122 2828
Q 2878 2963 2633 3030
Q 2388 3097 2138 3097
Q 1578 3097 1268 2742
Q 959 2388 959 1747
Q 959 1106 1268 751
Q 1578 397 2138 397
Q 2388 397 2633 464
Q 2878 531 3122 666
L 3122 134
Q 2881 22 2623 -34
Q 2366 -91 2075 -91
Q 1284 -91 818 406
Q 353 903 353 1747
Q 353 2603 823 3093
Q 1294 3584 2113 3584
Q 2378 3584 2631 3529
Q 2884 3475 3122 3366
z
" transform="scale(0.015625)"/>
       <path id="DejaVuSans-6f" d="M 1959 3097
Q 1497 3097 1228 2736
Q 959 2375 959 1747
Q 959 1119 1226 758
Q 1494 397 1959 397
Q 2419 397 2687 759
Q 2956 1122 2956 1747
Q 2956 2369 2687 2733
Q 2419 3097 1959 3097
z
M 1959 3584
Q 2709 3584 3137 3096
Q 3566 2609 3566 1747
Q 3566 888 3137 398
Q 2709 -91 1959 -91
Q 1206 -91 779 398
Q 353 888 353 1747
Q 353 2609 779 3096
Q 1206 3584 1959 3584
z
" transform="scale(0.015625)"/>
       <path id="DejaVuSans-6c" d="M 603 4863
L 1178 4863
L 1178 0
L 603 0
L 603 4863
z
" transform="scale(0.015625)"/>
       <path id="DejaVuSans-74" d="M 1172 4494
L 1172 3500
L 2356 3500
L 2356 3053
L 1172 3053
L 1172 1153
Q 1172 725 1289 603
Q 1406 481 1766 481
L 2356 481
L 2356 0
L 1766 0
Q 1100 0 847 248
Q 594 497 594 1153
L 594 3053
L 172 3053
L 172 3500
L 594 3500
L 594 4494
L 1172 4494
z
" transform="scale(0.015625)"/>
      </defs>
      <use xlink:href="#DejaVuSans-53"/>
      <use xlink:href="#DejaVuSans-70" transform="translate(63.476562 0)"/>
      <use xlink:href="#DejaVuSans-65" transform="translate(126.953125 0)"/>
      <use xlink:href="#DejaVuSans-61" transform="translate(188.476562 0)"/>
      <use xlink:href="#DejaVuSans-72" transform="translate(249.755859 0)"/>
      <use xlink:href="#DejaVuSans-6d" transform="translate(289.119141 0)"/>
      <use xlink:href="#DejaVuSans-61" transform="translate(386.53125 0)"/>
      <use xlink:href="#DejaVuSans-6e" transform="translate(447.810547 0)"/>
      <use xlink:href="#DejaVuSans-20" transform="translate(511.189453 0)"/>
      <use xlink:href="#DejaVuSans-63" transform="translate(542.976562 0)"/>
      <use xlink:href="#DejaVuSans-6f" transform="translate(597.957031 0)"/>
      <use xlink:href="#DejaVuSans-72" transform="translate(659.138672 0)"/>
      <use xlink:href="#DejaVuSans-72" transform="translate(698.501953 0)"/>
      <use xlink:href="#DejaVuSans-65" transform="translate(737.365234 0)"/>
      <use xlink:href="#DejaVuSans-6c" transform="translate(798.888672 0)"/>
      <use xlink:href="#DejaVuSans-61" transform="translate(826.671875 0)"/>
      <use xlink:href="#DejaVuSans-74" transform="translate(887.951172 0)"/>
      <use xlink:href="#DejaVuSans-69" transform="translate(927.160156 0)"/>
      <use xlink:href="#DejaVuSans-6f" transform="translate(954.943359 0)"/>
      <use xlink:href="#DejaVuSans-6e" transform="translate(1016.125 0)"/>
     </g>
    </g>
   </g>
   <g id="line2d_14">
    <defs>
     <path id="m61293a3705" d="M 0 3
C 0.795609 3 1.55874 2.683901 2.12132 2.12132
C 2.683901 1.55874 3 0.795609 3 0
C 3 -0.795609 2.683901 -1.55874 2.12132 -2.12132
C 1.55874 -2.683901 0.795609 -3 0 -3
C -0.795609 -3 -1.55874 -2.683901 -2.12132 -2.12132
C -2.683901 -1.55874 -3 -0.795609 -3 0
C -3 0.795609 -2.683901 1.55874 -2.12132 2.12132
C -1.55874 2.683901 -0.795609 3 0 3
z
" style="stroke: #1f77b4"/>
    </defs>
    <g clip-path="url(#p329aa36905)">
     <use xlink:href="#m61293a3705" x="160.682614" y="352.6035" style="fill: #1f77b4; stroke: #1f77b4"/>
     <use xlink:href="#m61293a3705" x="165.658166" y="352.6035" style="fill: #1f77b4; stroke: #1f77b4"/>
     <use xlink:href="#m61293a3705" x="170.648395" y="352.6035" style="fill: #1f77b4; stroke: #1f77b4"/>
     <use xlink:href="#m61293a3705" x="175.631286" y="352.6035" style="fill: #1f77b4; stroke: #1f77b4"/>
     <use xlink:href="#m61293a3705" x="180.614177" y="352.6035" style="fill: #1f77b4; stroke: #1f77b4"/>
     <use xlink:href="#m61293a3705" x="185.597068" y="352.6035" style="fill: #1f77b4; stroke: #1f77b4"/>
     <use xlink:href="#m61293a3705" x="190.579959" y="352.6035" style="fill: #1f77b4; stroke: #1f77b4"/>
     <use xlink:href="#m61293a3705" x="195.577527" y="352.6035" style="fill: #1f77b4; stroke: #1f77b4"/>
     <use xlink:href="#m61293a3705" x="202.747313" y="352.6035" style="fill: #1f77b4; stroke: #1f77b4"/>
     <use xlink:href="#m61293a3705" x="207.730204" y="352.6035" style="fill: #1f77b4; stroke: #1f77b4"/>
     <use xlink:href="#m61293a3705" x="212.705756" y="352.6035" style="fill: #1f77b4; stroke: #1f77b4"/>
     <use xlink:href="#m61293a3705" x="217.695985" y="352.6035" style="fill: #1f77b4; stroke: #1f77b4"/>
     <use xlink:href="#m61293a3705" x="222.678876" y="352.6035" style="fill: #1f77b4; stroke: #1f77b4"/>
     <use xlink:href="#m61293a3705" x="227.669106" y="352.6035" style="fill: #1f77b4; stroke: #1f77b4"/>
     <use xlink:href="#m61293a3705" x="232.651997" y="352.6035" style="fill: #1f77b4; stroke: #1f77b4"/>
     <use xlink:href="#m61293a3705" x="237.642226" y="352.6035" style="fill: #1f77b4; stroke: #1f77b4"/>
     <use xlink:href="#m61293a3705" x="242.632456" y="352.6035" style="fill: #1f77b4; stroke: #1f77b4"/>
     <use xlink:href="#m61293a3705" x="247.622685" y="352.6035" style="fill: #1f77b4; stroke: #1f77b4"/>
     <use xlink:href="#m61293a3705" x="254.836502" y="352.6035" style="fill: #1f77b4; stroke: #1f77b4"/>
     <use xlink:href="#m61293a3705" x="259.826732" y="257.508422" style="fill: #1f77b4; stroke: #1f77b4"/>
     <use xlink:href="#m61293a3705" x="264.816961" y="269.912128" style="fill: #1f77b4; stroke: #1f77b4"/>
     <use xlink:href="#m61293a3705" x="269.807191" y="280.24855" style="fill: #1f77b4; stroke: #1f77b4"/>
     <use xlink:href="#m61293a3705" x="274.790082" y="288.931144" style="fill: #1f77b4; stroke: #1f77b4"/>
     <use xlink:href="#m61293a3705" x="279.780311" y="239.952408" style="fill: #1f77b4; stroke: #1f77b4"/>
     <use xlink:href="#m61293a3705" x="284.763202" y="252.469196" style="fill: #1f77b4; stroke: #1f77b4"/>
     <use xlink:href="#m61293a3705" x="289.76077" y="263.197871" style="fill: #1f77b4; stroke: #1f77b4"/>
     <use xlink:href="#m61293a3705" x="294.751" y="232.368344" style="fill: #1f77b4; stroke: #1f77b4"/>
     <use xlink:href="#m61293a3705" x="299.741229" y="244.39186" style="fill: #1f77b4; stroke: #1f77b4"/>
     <use xlink:href="#m61293a3705" x="306.955046" y="254.863954" style="fill: #1f77b4; stroke: #1f77b4"/>
     <use xlink:href="#m61293a3705" x="311.937937" y="264.027037" style="fill: #1f77b4; stroke: #1f77b4"/>
     <use xlink:href="#m61293a3705" x="316.920828" y="272.079442" style="fill: #1f77b4; stroke: #1f77b4"/>
     <use xlink:href="#m61293a3705" x="321.911057" y="279.184506" style="fill: #1f77b4; stroke: #1f77b4"/>
     <use xlink:href="#m61293a3705" x="326.901287" y="285.477563" style="fill: #1f77b4; stroke: #1f77b4"/>
     <use xlink:href="#m61293a3705" x="331.884178" y="291.071391" style="fill: #1f77b4; stroke: #1f77b4"/>
     <use xlink:href="#m61293a3705" x="336.874407" y="239.517462" style="fill: #1f77b4; stroke: #1f77b4"/>
     <use xlink:href="#m61293a3705" x="341.857298" y="161.646813" style="fill: #1f77b4; stroke: #1f77b4"/>
     <use xlink:href="#m61293a3705" x="346.840189" y="176.335789" style="fill: #1f77b4; stroke: #1f77b4"/>
     <use xlink:href="#m61293a3705" x="351.830419" y="174.733355" style="fill: #1f77b4; stroke: #1f77b4"/>
     <use xlink:href="#m61293a3705" x="359.051574" y="187.748244" style="fill: #1f77b4; stroke: #1f77b4"/>
     <use xlink:href="#m61293a3705" x="364.034465" y="186.766962" style="fill: #1f77b4; stroke: #1f77b4"/>
     <use xlink:href="#m61293a3705" x="369.054049" y="198.336953" style="fill: #1f77b4; stroke: #1f77b4"/>
     <use xlink:href="#m61293a3705" x="374.044278" y="208.855127" style="fill: #1f77b4; stroke: #1f77b4"/>
     <use xlink:href="#m61293a3705" x="379.034508" y="208.117956" style="fill: #1f77b4; stroke: #1f77b4"/>
     <use xlink:href="#m61293a3705" x="384.032076" y="198.246273" style="fill: #1f77b4; stroke: #1f77b4"/>
     <use xlink:href="#m61293a3705" x="389.014967" y="208.098862" style="fill: #1f77b4; stroke: #1f77b4"/>
     <use xlink:href="#m61293a3705" x="393.997858" y="208.663333" style="fill: #1f77b4; stroke: #1f77b4"/>
     <use xlink:href="#m61293a3705" x="398.988087" y="153.886583" style="fill: #1f77b4; stroke: #1f77b4"/>
     <use xlink:href="#m61293a3705" x="403.970978" y="143.394329" style="fill: #1f77b4; stroke: #1f77b4"/>
     <use xlink:href="#m61293a3705" x="411.192134" y="127.571787" style="fill: #1f77b4; stroke: #1f77b4"/>
     <use xlink:href="#m61293a3705" x="416.189702" y="140.554386" style="fill: #1f77b4; stroke: #1f77b4"/>
     <use xlink:href="#m61293a3705" x="421.223963" y="152.557166" style="fill: #1f77b4; stroke: #1f77b4"/>
     <use xlink:href="#m61293a3705" x="426.221531" y="163.670851" style="fill: #1f77b4; stroke: #1f77b4"/>
     <use xlink:href="#m61293a3705" x="431.204422" y="168.394167" style="fill: #1f77b4; stroke: #1f77b4"/>
     <use xlink:href="#m61293a3705" x="436.194651" y="162.413345" style="fill: #1f77b4; stroke: #1f77b4"/>
     <use xlink:href="#m61293a3705" x="441.184881" y="157.408341" style="fill: #1f77b4; stroke: #1f77b4"/>
     <use xlink:href="#m61293a3705" x="446.17511" y="129.535646" style="fill: #1f77b4; stroke: #1f77b4"/>
     <use xlink:href="#m61293a3705" x="451.16534" y="118.354098" style="fill: #1f77b4; stroke: #1f77b4"/>
     <use xlink:href="#m61293a3705" x="456.162908" y="100.109673" style="fill: #1f77b4; stroke: #1f77b4"/>
     <use xlink:href="#m61293a3705" x="463.369386" y="84.043798" style="fill: #1f77b4; stroke: #1f77b4"/>
     <use xlink:href="#m61293a3705" x="468.366954" y="97.038622" style="fill: #1f77b4; stroke: #1f77b4"/>
     <use xlink:href="#m61293a3705" x="473.364522" y="50.2035" style="fill: #1f77b4; stroke: #1f77b4"/>
     <use xlink:href="#m61293a3705" x="478.354752" y="64.3785" style="fill: #1f77b4; stroke: #1f77b4"/>
     <use xlink:href="#m61293a3705" x="483.35232" y="77.681192" style="fill: #1f77b4; stroke: #1f77b4"/>
     <use xlink:href="#m61293a3705" x="488.342549" y="90.177661" style="fill: #1f77b4; stroke: #1f77b4"/>
     <use xlink:href="#m61293a3705" x="493.332779" y="101.928072" style="fill: #1f77b4; stroke: #1f77b4"/>
     <use xlink:href="#m61293a3705" x="498.330347" y="104.220835" style="fill: #1f77b4; stroke: #1f77b4"/>
     <use xlink:href="#m61293a3705" x="503.320576" y="115.020081" style="fill: #1f77b4; stroke: #1f77b4"/>
     <use xlink:href="#m61293a3705" x="508.310806" y="125.202227" style="fill: #1f77b4; stroke: #1f77b4"/>
     <use xlink:href="#m61293a3705" x="515.531961" y="132.248464" style="fill: #1f77b4; stroke: #1f77b4"/>
     <use xlink:href="#m61293a3705" x="520.522191" y="134.063404" style="fill: #1f77b4; stroke: #1f77b4"/>
     <use xlink:href="#m61293a3705" x="525.571129" y="143.044504" style="fill: #1f77b4; stroke: #1f77b4"/>
     <use xlink:href="#m61293a3705" x="530.568697" y="149.281" style="fill: #1f77b4; stroke: #1f77b4"/>
     <use xlink:href="#m61293a3705" x="535.566265" y="157.4139" style="fill: #1f77b4; stroke: #1f77b4"/>
     <use xlink:href="#m61293a3705" x="540.556495" y="156.786097" style="fill: #1f77b4; stroke: #1f77b4"/>
     <use xlink:href="#m61293a3705" x="545.539385" y="150.401335" style="fill: #1f77b4; stroke: #1f77b4"/>
     <use xlink:href="#m61293a3705" x="550.566308" y="129.303318" style="fill: #1f77b4; stroke: #1f77b4"/>
     <use xlink:href="#m61293a3705" x="555.556537" y="137.783072" style="fill: #1f77b4; stroke: #1f77b4"/>
     <use xlink:href="#m61293a3705" x="560.554105" y="145.838838" style="fill: #1f77b4; stroke: #1f77b4"/>
     <use xlink:href="#m61293a3705" x="567.775261" y="151.780351" style="fill: #1f77b4; stroke: #1f77b4"/>
     <use xlink:href="#m61293a3705" x="572.76549" y="154.166617" style="fill: #1f77b4; stroke: #1f77b4"/>
     <use xlink:href="#m61293a3705" x="577.748381" y="156.557423" style="fill: #1f77b4; stroke: #1f77b4"/>
     <use xlink:href="#m61293a3705" x="582.745949" y="163.559069" style="fill: #1f77b4; stroke: #1f77b4"/>
     <use xlink:href="#m61293a3705" x="587.743517" y="170.231225" style="fill: #1f77b4; stroke: #1f77b4"/>
     <use xlink:href="#m61293a3705" x="592.748424" y="172.300111" style="fill: #1f77b4; stroke: #1f77b4"/>
     <use xlink:href="#m61293a3705" x="597.738654" y="175.754199" style="fill: #1f77b4; stroke: #1f77b4"/>
     <use xlink:href="#m61293a3705" x="602.736222" y="181.783152" style="fill: #1f77b4; stroke: #1f77b4"/>
     <use xlink:href="#m61293a3705" x="607.73379" y="186.251592" style="fill: #1f77b4; stroke: #1f77b4"/>
     <use xlink:href="#m61293a3705" x="612.724019" y="181.824138" style="fill: #1f77b4; stroke: #1f77b4"/>
     <use xlink:href="#m61293a3705" x="619.945175" y="183.837819" style="fill: #1f77b4; stroke: #1f77b4"/>
     <use xlink:href="#m61293a3705" x="624.935404" y="180.011765" style="fill: #1f77b4; stroke: #1f77b4"/>
     <use xlink:href="#m61293a3705" x="630.050389" y="177.679444" style="fill: #1f77b4; stroke: #1f77b4"/>
     <use xlink:href="#m61293a3705" x="635.047958" y="173.429402" style="fill: #1f77b4; stroke: #1f77b4"/>
     <use xlink:href="#m61293a3705" x="640.045526" y="179.087531" style="fill: #1f77b4; stroke: #1f77b4"/>
     <use xlink:href="#m61293a3705" x="645.043094" y="170.160452" style="fill: #1f77b4; stroke: #1f77b4"/>
     <use xlink:href="#m61293a3705" x="650.033323" y="175.803021" style="fill: #1f77b4; stroke: #1f77b4"/>
     <use xlink:href="#m61293a3705" x="655.023553" y="180.252425" style="fill: #1f77b4; stroke: #1f77b4"/>
     <use xlink:href="#m61293a3705" x="660.021121" y="178.939441" style="fill: #1f77b4; stroke: #1f77b4"/>
     <use xlink:href="#m61293a3705" x="665.018689" y="174.187021" style="fill: #1f77b4; stroke: #1f77b4"/>
     <use xlink:href="#m61293a3705" x="672.232506" y="179.48652" style="fill: #1f77b4; stroke: #1f77b4"/>
     <use xlink:href="#m61293a3705" x="677.230074" y="184.578196" style="fill: #1f77b4; stroke: #1f77b4"/>
     <use xlink:href="#m61293a3705" x="682.227642" y="189.472137" style="fill: #1f77b4; stroke: #1f77b4"/>
     <use xlink:href="#m61293a3705" x="687.217871" y="193.373658" style="fill: #1f77b4; stroke: #1f77b4"/>
     <use xlink:href="#m61293a3705" x="692.222778" y="193.235797" style="fill: #1f77b4; stroke: #1f77b4"/>
     <use xlink:href="#m61293a3705" x="697.213007" y="173.454863" style="fill: #1f77b4; stroke: #1f77b4"/>
     <use xlink:href="#m61293a3705" x="702.217914" y="169.623869" style="fill: #1f77b4; stroke: #1f77b4"/>
     <use xlink:href="#m61293a3705" x="707.215482" y="174.706637" style="fill: #1f77b4; stroke: #1f77b4"/>
     <use xlink:href="#m61293a3705" x="712.21305" y="140.538225" style="fill: #1f77b4; stroke: #1f77b4"/>
     <use xlink:href="#m61293a3705" x="717.20328" y="144.964707" style="fill: #1f77b4; stroke: #1f77b4"/>
     <use xlink:href="#m61293a3705" x="724.431774" y="147.935691" style="fill: #1f77b4; stroke: #1f77b4"/>
     <use xlink:href="#m61293a3705" x="729.429342" y="143.137316" style="fill: #1f77b4; stroke: #1f77b4"/>
     <use xlink:href="#m61293a3705" x="734.419571" y="143.694558" style="fill: #1f77b4; stroke: #1f77b4"/>
     <use xlink:href="#m61293a3705" x="739.424478" y="143.102002" style="fill: #1f77b4; stroke: #1f77b4"/>
     <use xlink:href="#m61293a3705" x="744.422046" y="139.670329" style="fill: #1f77b4; stroke: #1f77b4"/>
     <use xlink:href="#m61293a3705" x="749.412276" y="137.088174" style="fill: #1f77b4; stroke: #1f77b4"/>
     <use xlink:href="#m61293a3705" x="754.417182" y="133.606625" style="fill: #1f77b4; stroke: #1f77b4"/>
     <use xlink:href="#m61293a3705" x="759.422089" y="139.174342" style="fill: #1f77b4; stroke: #1f77b4"/>
     <use xlink:href="#m61293a3705" x="764.412318" y="133.323494" style="fill: #1f77b4; stroke: #1f77b4"/>
     <use xlink:href="#m61293a3705" x="769.409886" y="122.11882" style="fill: #1f77b4; stroke: #1f77b4"/>
    </g>
   </g>
   <g id="patch_3">
    <path d="M 130.24625 367.7235
L 130.24625 35.0835
" style="fill: none; stroke: #000000; stroke-width: 3; stroke-linejoin: miter; stroke-linecap: square"/>
   </g>
   <g id="patch_4">
    <path d="M 799.84625 367.7235
L 799.84625 35.0835
" style="fill: none; stroke: #000000; stroke-width: 3; stroke-linejoin: miter; stroke-linecap: square"/>
   </g>
   <g id="patch_5">
    <path d="M 130.24625 367.7235
L 799.84625 367.7235
" style="fill: none; stroke: #000000; stroke-width: 3; stroke-linejoin: miter; stroke-linecap: square"/>
   </g>
   <g id="patch_6">
    <path d="M 130.24625 35.0835
L 799.84625 35.0835
" style="fill: none; stroke: #000000; stroke-width: 3; stroke-linejoin: miter; stroke-linecap: square"/>
   </g>
   <g id="text_16">
    <!-- Spearman correlation for formose-v2 -->
    <g transform="translate(199.39325 29.0835) scale(0.288 -0.288)">
     <defs>
      <path id="DejaVuSans-66" d="M 2375 4863
L 2375 4384
L 1825 4384
Q 1516 4384 1395 4259
Q 1275 4134 1275 3809
L 1275 3500
L 2222 3500
L 2222 3053
L 1275 3053
L 1275 0
L 697 0
L 697 3053
L 147 3053
L 147 3500
L 697 3500
L 697 3744
Q 697 4328 969 4595
Q 1241 4863 1831 4863
L 2375 4863
z
" transform="scale(0.015625)"/>
      <path id="DejaVuSans-73" d="M 2834 3397
L 2834 2853
Q 2591 2978 2328 3040
Q 2066 3103 1784 3103
Q 1356 3103 1142 2972
Q 928 2841 928 2578
Q 928 2378 1081 2264
Q 1234 2150 1697 2047
L 1894 2003
Q 2506 1872 2764 1633
Q 3022 1394 3022 966
Q 3022 478 2636 193
Q 2250 -91 1575 -91
Q 1294 -91 989 -36
Q 684 19 347 128
L 347 722
Q 666 556 975 473
Q 1284 391 1588 391
Q 1994 391 2212 530
Q 2431 669 2431 922
Q 2431 1156 2273 1281
Q 2116 1406 1581 1522
L 1381 1569
Q 847 1681 609 1914
Q 372 2147 372 2553
Q 372 3047 722 3315
Q 1072 3584 1716 3584
Q 2034 3584 2315 3537
Q 2597 3491 2834 3397
z
" transform="scale(0.015625)"/>
      <path id="DejaVuSans-2d" d="M 313 2009
L 1997 2009
L 1997 1497
L 313 1497
L 313 2009
z
" transform="scale(0.015625)"/>
      <path id="DejaVuSans-76" d="M 191 3500
L 800 3500
L 1894 563
L 2988 3500
L 3597 3500
L 2284 0
L 1503 0
L 191 3500
z
" transform="scale(0.015625)"/>
     </defs>
     <use xlink:href="#DejaVuSans-53"/>
     <use xlink:href="#DejaVuSans-70" transform="translate(63.476562 0)"/>
     <use xlink:href="#DejaVuSans-65" transform="translate(126.953125 0)"/>
     <use xlink:href="#DejaVuSans-61" transform="translate(188.476562 0)"/>
     <use xlink:href="#DejaVuSans-72" transform="translate(249.755859 0)"/>
     <use xlink:href="#DejaVuSans-6d" transform="translate(289.119141 0)"/>
     <use xlink:href="#DejaVuSans-61" transform="translate(386.53125 0)"/>
     <use xlink:href="#DejaVuSans-6e" transform="translate(447.810547 0)"/>
     <use xlink:href="#DejaVuSans-20" transform="translate(511.189453 0)"/>
     <use xlink:href="#DejaVuSans-63" transform="translate(542.976562 0)"/>
     <use xlink:href="#DejaVuSans-6f" transform="translate(597.957031 0)"/>
     <use xlink:href="#DejaVuSans-72" transform="translate(659.138672 0)"/>
     <use xlink:href="#DejaVuSans-72" transform="translate(698.501953 0)"/>
     <use xlink:href="#DejaVuSans-65" transform="translate(737.365234 0)"/>
     <use xlink:href="#DejaVuSans-6c" transform="translate(798.888672 0)"/>
     <use xlink:href="#DejaVuSans-61" transform="translate(826.671875 0)"/>
     <use xlink:href="#DejaVuSans-74" transform="translate(887.951172 0)"/>
     <use xlink:href="#DejaVuSans-69" transform="translate(927.160156 0)"/>
     <use xlink:href="#DejaVuSans-6f" transform="translate(954.943359 0)"/>
     <use xlink:href="#DejaVuSans-6e" transform="translate(1016.125 0)"/>
     <use xlink:href="#DejaVuSans-20" transform="translate(1079.503906 0)"/>
     <use xlink:href="#DejaVuSans-66" transform="translate(1111.291016 0)"/>
     <use xlink:href="#DejaVuSans-6f" transform="translate(1146.496094 0)"/>
     <use xlink:href="#DejaVuSans-72" transform="translate(1207.677734 0)"/>
     <use xlink:href="#DejaVuSans-20" transform="translate(1248.791016 0)"/>
     <use xlink:href="#DejaVuSans-66" transform="translate(1280.578125 0)"/>
     <use xlink:href="#DejaVuSans-6f" transform="translate(1315.783203 0)"/>
     <use xlink:href="#DejaVuSans-72" transform="translate(1376.964844 0)"/>
     <use xlink:href="#DejaVuSans-6d" transform="translate(1416.328125 0)"/>
     <use xlink:href="#DejaVuSans-6f" transform="translate(1513.740234 0)"/>
     <use xlink:href="#DejaVuSans-73" transform="translate(1574.921875 0)"/>
     <use xlink:href="#DejaVuSans-65" transform="translate(1627.021484 0)"/>
     <use xlink:href="#DejaVuSans-2d" transform="translate(1688.544922 0)"/>
     <use xlink:href="#DejaVuSans-76" transform="translate(1722.003906 0)"/>
     <use xlink:href="#DejaVuSans-32" transform="translate(1781.183594 0)"/>
    </g>
   </g>
  </g>
 </g>
 <defs>
  <clipPath id="p329aa36905">
   <rect x="130.24625" y="35.0835" width="669.6" height="332.64"/>
  </clipPath>
 </defs>
</svg>
