<?xml version="1.0" encoding="utf-8" standalone="no"?>
<!DOCTYPE svg PUBLIC "-//W3C//DTD SVG 1.1//EN"
  "http://www.w3.org/Graphics/SVG/1.1/DTD/svg11.dtd">
<svg xmlns:xlink="http://www.w3.org/1999/xlink" width="776.81675pt" height="433.169pt" viewBox="0 0 776.81675 433.169" xmlns="http://www.w3.org/2000/svg" version="1.1">
 <metadata>
  <rdf:RDF xmlns:dc="http://purl.org/dc/elements/1.1/" xmlns:cc="http://creativecommons.org/ns#" xmlns:rdf="http://www.w3.org/1999/02/22-rdf-syntax-ns#">
   <cc:Work>
    <dc:type rdf:resource="http://purl.org/dc/dcmitype/StillImage"/>
    <dc:date>2025-11-02T13:56:53.200450</dc:date>
    <dc:format>image/svg+xml</dc:format>
    <dc:creator>
     <cc:Agent>
      <dc:title>Matplotlib v3.10.7, https://matplotlib.org/</dc:title>
     </cc:Agent>
    </dc:creator>
   </cc:Work>
  </rdf:RDF>
 </metadata>
 <defs>
  <style type="text/css">*{stroke-linejoin: round; stroke-linecap: butt}</style>
 </defs>
 <g id="figure_1">
  <g id="patch_1">
   <path d="M 0 433.169
L 776.81675 433.169
L 776.81675 0
L 0 0
L 0 433.169
z
" style="fill: none"/>
  </g>
  <g id="axes_1">
   <g id="patch_2">
    <path d="M 99.70625 368.514
L 769.30625 368.514
L 769.30625 35.874
L 99.70625 35.874
L 99.70625 368.514
z
" style="fill: none"/>
   </g>
   <g id="matplotlib.axis_1">
    <g id="xtick_1">
     <g id="line2d_1">
      <defs>
       <path id="m3e0bf53915" d="M 0 0
L 0 3.5
" style="stroke: #000000; stroke-width: 3"/>
      </defs>
      <g>
       <use xlink:href="#m3e0bf53915" x="115.876355" y="368.514" style="stroke: #000000; stroke-width: 3"/>
      </g>
     </g>
     <g id="text_1">
      <!-- 0 -->
      <g transform="translate(108.241355 393.75025) scale(0.24 -0.24)">
       <defs>
        <path id="DejaVuSans-30" d="M 2034 4250
Q 1547 4250 1301 3770
Q 1056 3291 1056 2328
Q 1056 1369 1301 889
Q 1547 409 2034 409
Q 2525 409 2770 889
Q 3016 1369 3016 2328
Q 3016 3291 2770 3770
Q 2525 4250 2034 4250
z
M 2034 4750
Q 2819 4750 3233 4129
Q 3647 3509 3647 2328
Q 3647 1150 3233 529
Q 2819 -91 2034 -91
Q 1250 -91 836 529
Q 422 1150 422 2328
Q 422 3509 836 4129
Q 1250 4750 2034 4750
z
" transform="scale(0.015625)"/>
       </defs>
       <use xlink:href="#DejaVuSans-30"/>
      </g>
     </g>
    </g>
    <g id="xtick_2">
     <g id="line2d_2">
      <g>
       <use xlink:href="#m3e0bf53915" x="202.251279" y="368.514" style="stroke: #000000; stroke-width: 3"/>
      </g>
     </g>
     <g id="text_2">
      <!-- 200 -->
      <g transform="translate(179.346279 393.75025) scale(0.24 -0.24)">
       <defs>
        <path id="DejaVuSans-32" d="M 1228 531
L 3431 531
L 3431 0
L 469 0
L 469 531
Q 828 903 1448 1529
Q 2069 2156 2228 2338
Q 2531 2678 2651 2914
Q 2772 3150 2772 3378
Q 2772 3750 2511 3984
Q 2250 4219 1831 4219
Q 1534 4219 1204 4116
Q 875 4013 500 3803
L 500 4441
Q 881 4594 1212 4672
Q 1544 4750 1819 4750
Q 2544 4750 2975 4387
Q 3406 4025 3406 3419
Q 3406 3131 3298 2873
Q 3191 2616 2906 2266
Q 2828 2175 2409 1742
Q 1991 1309 1228 531
z
" transform="scale(0.015625)"/>
       </defs>
       <use xlink:href="#DejaVuSans-32"/>
       <use xlink:href="#DejaVuSans-30" transform="translate(63.623047 0)"/>
       <use xlink:href="#DejaVuSans-30" transform="translate(127.246094 0)"/>
      </g>
     </g>
    </g>
    <g id="xtick_3">
     <g id="line2d_3">
      <g>
       <use xlink:href="#m3e0bf53915" x="288.626202" y="368.514" style="stroke: #000000; stroke-width: 3"/>
      </g>
     </g>
     <g id="text_3">
      <!-- 400 -->
      <g transform="translate(265.721202 393.75025) scale(0.24 -0.24)">
       <defs>
        <path id="DejaVuSans-34" d="M 2419 4116
L 825 1625
L 2419 1625
L 2419 4116
z
M 2253 4666
L 3047 4666
L 3047 1625
L 3713 1625
L 3713 1100
L 3047 1100
L 3047 0
L 2419 0
L 2419 1100
L 313 1100
L 313 1709
L 2253 4666
z
" transform="scale(0.015625)"/>
       </defs>
       <use xlink:href="#DejaVuSans-34"/>
       <use xlink:href="#DejaVuSans-30" transform="translate(63.623047 0)"/>
       <use xlink:href="#DejaVuSans-30" transform="translate(127.246094 0)"/>
      </g>
     </g>
    </g>
    <g id="xtick_4">
     <g id="line2d_4">
      <g>
       <use xlink:href="#m3e0bf53915" x="375.001126" y="368.514" style="stroke: #000000; stroke-width: 3"/>
      </g>
     </g>
     <g id="text_4">
      <!-- 600 -->
      <g transform="translate(352.096126 393.75025) scale(0.24 -0.24)">
       <defs>
        <path id="DejaVuSans-36" d="M 2113 2584
Q 1688 2584 1439 2293
Q 1191 2003 1191 1497
Q 1191 994 1439 701
Q 1688 409 2113 409
Q 2538 409 2786 701
Q 3034 994 3034 1497
Q 3034 2003 2786 2293
Q 2538 2584 2113 2584
z
M 3366 4563
L 3366 3988
Q 3128 4100 2886 4159
Q 2644 4219 2406 4219
Q 1781 4219 1451 3797
Q 1122 3375 1075 2522
Q 1259 2794 1537 2939
Q 1816 3084 2150 3084
Q 2853 3084 3261 2657
Q 3669 2231 3669 1497
Q 3669 778 3244 343
Q 2819 -91 2113 -91
Q 1303 -91 875 529
Q 447 1150 447 2328
Q 447 3434 972 4092
Q 1497 4750 2381 4750
Q 2619 4750 2861 4703
Q 3103 4656 3366 4563
z
" transform="scale(0.015625)"/>
       </defs>
       <use xlink:href="#DejaVuSans-36"/>
       <use xlink:href="#DejaVuSans-30" transform="translate(63.623047 0)"/>
       <use xlink:href="#DejaVuSans-30" transform="translate(127.246094 0)"/>
      </g>
     </g>
    </g>
    <g id="xtick_5">
     <g id="line2d_5">
      <g>
       <use xlink:href="#m3e0bf53915" x="461.376049" y="368.514" style="stroke: #000000; stroke-width: 3"/>
      </g>
     </g>
     <g id="text_5">
      <!-- 800 -->
      <g transform="translate(438.471049 393.75025) scale(0.24 -0.24)">
       <defs>
        <path id="DejaVuSans-38" d="M 2034 2216
Q 1584 2216 1326 1975
Q 1069 1734 1069 1313
Q 1069 891 1326 650
Q 1584 409 2034 409
Q 2484 409 2743 651
Q 3003 894 3003 1313
Q 3003 1734 2745 1975
Q 2488 2216 2034 2216
z
M 1403 2484
Q 997 2584 770 2862
Q 544 3141 544 3541
Q 544 4100 942 4425
Q 1341 4750 2034 4750
Q 2731 4750 3128 4425
Q 3525 4100 3525 3541
Q 3525 3141 3298 2862
Q 3072 2584 2669 2484
Q 3125 2378 3379 2068
Q 3634 1759 3634 1313
Q 3634 634 3220 271
Q 2806 -91 2034 -91
Q 1263 -91 848 271
Q 434 634 434 1313
Q 434 1759 690 2068
Q 947 2378 1403 2484
z
M 1172 3481
Q 1172 3119 1398 2916
Q 1625 2713 2034 2713
Q 2441 2713 2670 2916
Q 2900 3119 2900 3481
Q 2900 3844 2670 4047
Q 2441 4250 2034 4250
Q 1625 4250 1398 4047
Q 1172 3844 1172 3481
z
" transform="scale(0.015625)"/>
       </defs>
       <use xlink:href="#DejaVuSans-38"/>
       <use xlink:href="#DejaVuSans-30" transform="translate(63.623047 0)"/>
       <use xlink:href="#DejaVuSans-30" transform="translate(127.246094 0)"/>
      </g>
     </g>
    </g>
    <g id="xtick_6">
     <g id="line2d_6">
      <g>
       <use xlink:href="#m3e0bf53915" x="547.750972" y="368.514" style="stroke: #000000; stroke-width: 3"/>
      </g>
     </g>
     <g id="text_6">
      <!-- 1000 -->
      <g transform="translate(517.210972 393.75025) scale(0.24 -0.24)">
       <defs>
        <path id="DejaVuSans-31" d="M 794 531
L 1825 531
L 1825 4091
L 703 3866
L 703 4441
L 1819 4666
L 2450 4666
L 2450 531
L 3481 531
L 3481 0
L 794 0
L 794 531
z
" transform="scale(0.015625)"/>
       </defs>
       <use xlink:href="#DejaVuSans-31"/>
       <use xlink:href="#DejaVuSans-30" transform="translate(63.623047 0)"/>
       <use xlink:href="#DejaVuSans-30" transform="translate(127.246094 0)"/>
       <use xlink:href="#DejaVuSans-30" transform="translate(190.869141 0)"/>
      </g>
     </g>
    </g>
    <g id="xtick_7">
     <g id="line2d_7">
      <g>
       <use xlink:href="#m3e0bf53915" x="634.125896" y="368.514" style="stroke: #000000; stroke-width: 3"/>
      </g>
     </g>
     <g id="text_7">
      <!-- 1200 -->
      <g transform="translate(603.585896 393.75025) scale(0.24 -0.24)">
       <use xlink:href="#DejaVuSans-31"/>
       <use xlink:href="#DejaVuSans-32" transform="translate(63.623047 0)"/>
       <use xlink:href="#DejaVuSans-30" transform="translate(127.246094 0)"/>
       <use xlink:href="#DejaVuSans-30" transform="translate(190.869141 0)"/>
      </g>
     </g>
    </g>
    <g id="xtick_8">
     <g id="line2d_8">
      <g>
       <use xlink:href="#m3e0bf53915" x="720.500819" y="368.514" style="stroke: #000000; stroke-width: 3"/>
      </g>
     </g>
     <g id="text_8">
      <!-- 1400 -->
      <g transform="translate(689.960819 393.75025) scale(0.24 -0.24)">
       <use xlink:href="#DejaVuSans-31"/>
       <use xlink:href="#DejaVuSans-34" transform="translate(63.623047 0)"/>
       <use xlink:href="#DejaVuSans-30" transform="translate(127.246094 0)"/>
       <use xlink:href="#DejaVuSans-30" transform="translate(190.869141 0)"/>
      </g>
     </g>
    </g>
    <g id="text_9">
     <!-- Time / min -->
     <g transform="translate(370.848125 420.97775) scale(0.24 -0.24)">
      <defs>
       <path id="DejaVuSans-54" d="M -19 4666
L 3928 4666
L 3928 4134
L 2272 4134
L 2272 0
L 1638 0
L 1638 4134
L -19 4134
L -19 4666
z
" transform="scale(0.015625)"/>
       <path id="DejaVuSans-69" d="M 603 3500
L 1178 3500
L 1178 0
L 603 0
L 603 3500
z
M 603 4863
L 1178 4863
L 1178 4134
L 603 4134
L 603 4863
z
" transform="scale(0.015625)"/>
       <path id="DejaVuSans-6d" d="M 3328 2828
Q 3544 3216 3844 3400
Q 4144 3584 4550 3584
Q 5097 3584 5394 3201
Q 5691 2819 5691 2113
L 5691 0
L 5113 0
L 5113 2094
Q 5113 2597 4934 2840
Q 4756 3084 4391 3084
Q 3944 3084 3684 2787
Q 3425 2491 3425 1978
L 3425 0
L 2847 0
L 2847 2094
Q 2847 2600 2669 2842
Q 2491 3084 2119 3084
Q 1678 3084 1418 2786
Q 1159 2488 1159 1978
L 1159 0
L 581 0
L 581 3500
L 1159 3500
L 1159 2956
Q 1356 3278 1631 3431
Q 1906 3584 2284 3584
Q 2666 3584 2933 3390
Q 3200 3197 3328 2828
z
" transform="scale(0.015625)"/>
       <path id="DejaVuSans-65" d="M 3597 1894
L 3597 1613
L 953 1613
Q 991 1019 1311 708
Q 1631 397 2203 397
Q 2534 397 2845 478
Q 3156 559 3463 722
L 3463 178
Q 3153 47 2828 -22
Q 2503 -91 2169 -91
Q 1331 -91 842 396
Q 353 884 353 1716
Q 353 2575 817 3079
Q 1281 3584 2069 3584
Q 2775 3584 3186 3129
Q 3597 2675 3597 1894
z
M 3022 2063
Q 3016 2534 2758 2815
Q 2500 3097 2075 3097
Q 1594 3097 1305 2825
Q 1016 2553 972 2059
L 3022 2063
z
" transform="scale(0.015625)"/>
       <path id="DejaVuSans-20" transform="scale(0.015625)"/>
       <path id="DejaVuSans-2f" d="M 1625 4666
L 2156 4666
L 531 -594
L 0 -594
L 1625 4666
z
" transform="scale(0.015625)"/>
       <path id="DejaVuSans-6e" d="M 3513 2113
L 3513 0
L 2938 0
L 2938 2094
Q 2938 2591 2744 2837
Q 2550 3084 2163 3084
Q 1697 3084 1428 2787
Q 1159 2491 1159 1978
L 1159 0
L 581 0
L 581 3500
L 1159 3500
L 1159 2956
Q 1366 3272 1645 3428
Q 1925 3584 2291 3584
Q 2894 3584 3203 3211
Q 3513 2838 3513 2113
z
" transform="scale(0.015625)"/>
      </defs>
      <use xlink:href="#DejaVuSans-54"/>
      <use xlink:href="#DejaVuSans-69" transform="translate(57.958984 0)"/>
      <use xlink:href="#DejaVuSans-6d" transform="translate(85.742188 0)"/>
      <use xlink:href="#DejaVuSans-65" transform="translate(183.154297 0)"/>
      <use xlink:href="#DejaVuSans-20" transform="translate(244.677734 0)"/>
      <use xlink:href="#DejaVuSans-2f" transform="translate(276.464844 0)"/>
      <use xlink:href="#DejaVuSans-20" transform="translate(310.15625 0)"/>
      <use xlink:href="#DejaVuSans-6d" transform="translate(341.943359 0)"/>
      <use xlink:href="#DejaVuSans-69" transform="translate(439.355469 0)"/>
      <use xlink:href="#DejaVuSans-6e" transform="translate(467.138672 0)"/>
     </g>
    </g>
   </g>
   <g id="matplotlib.axis_2">
    <g id="ytick_1">
     <g id="line2d_9">
      <defs>
       <path id="m37db91b33c" d="M 0 0
L -3.5 0
" style="stroke: #000000; stroke-width: 3"/>
      </defs>
      <g>
       <use xlink:href="#m37db91b33c" x="99.70625" y="353.394" style="stroke: #000000; stroke-width: 3"/>
      </g>
     </g>
     <g id="text_10">
      <!-- −1.0 -->
      <g transform="translate(34.4275 362.512125) scale(0.24 -0.24)">
       <defs>
        <path id="DejaVuSans-2212" d="M 678 2272
L 4684 2272
L 4684 1741
L 678 1741
L 678 2272
z
" transform="scale(0.015625)"/>
        <path id="DejaVuSans-2e" d="M 684 794
L 1344 794
L 1344 0
L 684 0
L 684 794
z
" transform="scale(0.015625)"/>
       </defs>
       <use xlink:href="#DejaVuSans-2212"/>
       <use xlink:href="#DejaVuSans-31" transform="translate(83.789062 0)"/>
       <use xlink:href="#DejaVuSans-2e" transform="translate(147.412109 0)"/>
       <use xlink:href="#DejaVuSans-30" transform="translate(179.199219 0)"/>
      </g>
     </g>
    </g>
    <g id="ytick_2">
     <g id="line2d_10">
      <g>
       <use xlink:href="#m37db91b33c" x="99.70625" y="284.743709" style="stroke: #000000; stroke-width: 3"/>
      </g>
     </g>
     <g id="text_11">
      <!-- −0.8 -->
      <g transform="translate(34.4275 293.861834) scale(0.24 -0.24)">
       <use xlink:href="#DejaVuSans-2212"/>
       <use xlink:href="#DejaVuSans-30" transform="translate(83.789062 0)"/>
       <use xlink:href="#DejaVuSans-2e" transform="translate(147.412109 0)"/>
       <use xlink:href="#DejaVuSans-38" transform="translate(179.199219 0)"/>
      </g>
     </g>
    </g>
    <g id="ytick_3">
     <g id="line2d_11">
      <g>
       <use xlink:href="#m37db91b33c" x="99.70625" y="216.093419" style="stroke: #000000; stroke-width: 3"/>
      </g>
     </g>
     <g id="text_12">
      <!-- −0.6 -->
      <g transform="translate(34.4275 225.211544) scale(0.24 -0.24)">
       <use xlink:href="#DejaVuSans-2212"/>
       <use xlink:href="#DejaVuSans-30" transform="translate(83.789062 0)"/>
       <use xlink:href="#DejaVuSans-2e" transform="translate(147.412109 0)"/>
       <use xlink:href="#DejaVuSans-36" transform="translate(179.199219 0)"/>
      </g>
     </g>
    </g>
    <g id="ytick_4">
     <g id="line2d_12">
      <g>
       <use xlink:href="#m37db91b33c" x="99.70625" y="147.443128" style="stroke: #000000; stroke-width: 3"/>
      </g>
     </g>
     <g id="text_13">
      <!-- −0.4 -->
      <g transform="translate(34.4275 156.561253) scale(0.24 -0.24)">
       <use xlink:href="#DejaVuSans-2212"/>
       <use xlink:href="#DejaVuSans-30" transform="translate(83.789062 0)"/>
       <use xlink:href="#DejaVuSans-2e" transform="translate(147.412109 0)"/>
       <use xlink:href="#DejaVuSans-34" transform="translate(179.199219 0)"/>
      </g>
     </g>
    </g>
    <g id="ytick_5">
     <g id="line2d_13">
      <g>
       <use xlink:href="#m37db91b33c" x="99.70625" y="78.792838" style="stroke: #000000; stroke-width: 3"/>
      </g>
     </g>
     <g id="text_14">
      <!-- −0.2 -->
      <g transform="translate(34.4275 87.910963) scale(0.24 -0.24)">
       <use xlink:href="#DejaVuSans-2212"/>
       <use xlink:href="#DejaVuSans-30" transform="translate(83.789062 0)"/>
       <use xlink:href="#DejaVuSans-2e" transform="translate(147.412109 0)"/>
       <use xlink:href="#DejaVuSans-32" transform="translate(179.199219 0)"/>
      </g>
     </g>
    </g>
    <g id="text_15">
     <!-- Spearman correlation -->
     <g transform="translate(25.43625 331.735875) rotate(-90) scale(0.24 -0.24)">
      <defs>
       <path id="DejaVuSans-53" d="M 3425 4513
L 3425 3897
Q 3066 4069 2747 4153
Q 2428 4238 2131 4238
Q 1616 4238 1336 4038
Q 1056 3838 1056 3469
Q 1056 3159 1242 3001
Q 1428 2844 1947 2747
L 2328 2669
Q 3034 2534 3370 2195
Q 3706 1856 3706 1288
Q 3706 609 3251 259
Q 2797 -91 1919 -91
Q 1588 -91 1214 -16
Q 841 59 441 206
L 441 856
Q 825 641 1194 531
Q 1563 422 1919 422
Q 2459 422 2753 634
Q 3047 847 3047 1241
Q 3047 1584 2836 1778
Q 2625 1972 2144 2069
L 1759 2144
Q 1053 2284 737 2584
Q 422 2884 422 3419
Q 422 4038 858 4394
Q 1294 4750 2059 4750
Q 2388 4750 2728 4690
Q 3069 4631 3425 4513
z
" transform="scale(0.015625)"/>
       <path id="DejaVuSans-70" d="M 1159 525
L 1159 -1331
L 581 -1331
L 581 3500
L 1159 3500
L 1159 2969
Q 1341 3281 1617 3432
Q 1894 3584 2278 3584
Q 2916 3584 3314 3078
Q 3713 2572 3713 1747
Q 3713 922 3314 415
Q 2916 -91 2278 -91
Q 1894 -91 1617 61
Q 1341 213 1159 525
z
M 3116 1747
Q 3116 2381 2855 2742
Q 2594 3103 2138 3103
Q 1681 3103 1420 2742
Q 1159 2381 1159 1747
Q 1159 1113 1420 752
Q 1681 391 2138 391
Q 2594 391 2855 752
Q 3116 1113 3116 1747
z
" transform="scale(0.015625)"/>
       <path id="DejaVuSans-61" d="M 2194 1759
Q 1497 1759 1228 1600
Q 959 1441 959 1056
Q 959 750 1161 570
Q 1363 391 1709 391
Q 2188 391 2477 730
Q 2766 1069 2766 1631
L 2766 1759
L 2194 1759
z
M 3341 1997
L 3341 0
L 2766 0
L 2766 531
Q 2569 213 2275 61
Q 1981 -91 1556 -91
Q 1019 -91 701 211
Q 384 513 384 1019
Q 384 1609 779 1909
Q 1175 2209 1959 2209
L 2766 2209
L 2766 2266
Q 2766 2663 2505 2880
Q 2244 3097 1772 3097
Q 1472 3097 1187 3025
Q 903 2953 641 2809
L 641 3341
Q 956 3463 1253 3523
Q 1550 3584 1831 3584
Q 2591 3584 2966 3190
Q 3341 2797 3341 1997
z
" transform="scale(0.015625)"/>
       <path id="DejaVuSans-72" d="M 2631 2963
Q 2534 3019 2420 3045
Q 2306 3072 2169 3072
Q 1681 3072 1420 2755
Q 1159 2438 1159 1844
L 1159 0
L 581 0
L 581 3500
L 1159 3500
L 1159 2956
Q 1341 3275 1631 3429
Q 1922 3584 2338 3584
Q 2397 3584 2469 3576
Q 2541 3569 2628 3553
L 2631 2963
z
" transform="scale(0.015625)"/>
       <path id="DejaVuSans-63" d="M 3122 3366
L 3122 2828
Q 2878 2963 2633 3030
Q 2388 3097 2138 3097
Q 1578 3097 1268 2742
Q 959 2388 959 1747
Q 959 1106 1268 751
Q 1578 397 2138 397
Q 2388 397 2633 464
Q 2878 531 3122 666
L 3122 134
Q 2881 22 2623 -34
Q 2366 -91 2075 -91
Q 1284 -91 818 406
Q 353 903 353 1747
Q 353 2603 823 3093
Q 1294 3584 2113 3584
Q 2378 3584 2631 3529
Q 2884 3475 3122 3366
z
" transform="scale(0.015625)"/>
       <path id="DejaVuSans-6f" d="M 1959 3097
Q 1497 3097 1228 2736
Q 959 2375 959 1747
Q 959 1119 1226 758
Q 1494 397 1959 397
Q 2419 397 2687 759
Q 2956 1122 2956 1747
Q 2956 2369 2687 2733
Q 2419 3097 1959 3097
z
M 1959 3584
Q 2709 3584 3137 3096
Q 3566 2609 3566 1747
Q 3566 888 3137 398
Q 2709 -91 1959 -91
Q 1206 -91 779 398
Q 353 888 353 1747
Q 353 2609 779 3096
Q 1206 3584 1959 3584
z
" transform="scale(0.015625)"/>
       <path id="DejaVuSans-6c" d="M 603 4863
L 1178 4863
L 1178 0
L 603 0
L 603 4863
z
" transform="scale(0.015625)"/>
       <path id="DejaVuSans-74" d="M 1172 4494
L 1172 3500
L 2356 3500
L 2356 3053
L 1172 3053
L 1172 1153
Q 1172 725 1289 603
Q 1406 481 1766 481
L 2356 481
L 2356 0
L 1766 0
Q 1100 0 847 248
Q 594 497 594 1153
L 594 3053
L 172 3053
L 172 3500
L 594 3500
L 594 4494
L 1172 4494
z
" transform="scale(0.015625)"/>
      </defs>
      <use xlink:href="#DejaVuSans-53"/>
      <use xlink:href="#DejaVuSans-70" transform="translate(63.476562 0)"/>
      <use xlink:href="#DejaVuSans-65" transform="translate(126.953125 0)"/>
      <use xlink:href="#DejaVuSans-61" transform="translate(188.476562 0)"/>
      <use xlink:href="#DejaVuSans-72" transform="translate(249.755859 0)"/>
      <use xlink:href="#DejaVuSans-6d" transform="translate(289.119141 0)"/>
      <use xlink:href="#DejaVuSans-61" transform="translate(386.53125 0)"/>
      <use xlink:href="#DejaVuSans-6e" transform="translate(447.810547 0)"/>
      <use xlink:href="#DejaVuSans-20" transform="translate(511.189453 0)"/>
      <use xlink:href="#DejaVuSans-63" transform="translate(542.976562 0)"/>
      <use xlink:href="#DejaVuSans-6f" transform="translate(597.957031 0)"/>
      <use xlink:href="#DejaVuSans-72" transform="translate(659.138672 0)"/>
      <use xlink:href="#DejaVuSans-72" transform="translate(698.501953 0)"/>
      <use xlink:href="#DejaVuSans-65" transform="translate(737.365234 0)"/>
      <use xlink:href="#DejaVuSans-6c" transform="translate(798.888672 0)"/>
      <use xlink:href="#DejaVuSans-61" transform="translate(826.671875 0)"/>
      <use xlink:href="#DejaVuSans-74" transform="translate(887.951172 0)"/>
      <use xlink:href="#DejaVuSans-69" transform="translate(927.160156 0)"/>
      <use xlink:href="#DejaVuSans-6f" transform="translate(954.943359 0)"/>
      <use xlink:href="#DejaVuSans-6e" transform="translate(1016.125 0)"/>
     </g>
    </g>
   </g>
   <g id="line2d_14">
    <defs>
     <path id="mdd20b90525" d="M 0 3
C 0.795609 3 1.55874 2.683901 2.12132 2.12132
C 2.683901 1.55874 3 0.795609 3 0
C 3 -0.795609 2.683901 -1.55874 2.12132 -2.12132
C 1.55874 -2.683901 0.795609 -3 0 -3
C -0.795609 -3 -1.55874 -2.683901 -2.12132 -2.12132
C -2.683901 -1.55874 -3 -0.795609 -3 0
C -3 0.795609 -2.683901 1.55874 -2.12132 2.12132
C -1.55874 2.683901 -0.795609 3 0 3
z
" style="stroke: #1f77b4"/>
    </defs>
    <g clip-path="url(#p0b505e8e13)">
     <use xlink:href="#mdd20b90525" x="130.142614" y="353.394" style="fill: #1f77b4; stroke: #1f77b4"/>
     <use xlink:href="#mdd20b90525" x="137.268545" y="353.394" style="fill: #1f77b4; stroke: #1f77b4"/>
     <use xlink:href="#mdd20b90525" x="144.394476" y="353.394" style="fill: #1f77b4; stroke: #1f77b4"/>
     <use xlink:href="#mdd20b90525" x="151.513209" y="353.394" style="fill: #1f77b4; stroke: #1f77b4"/>
     <use xlink:href="#mdd20b90525" x="158.653536" y="353.394" style="fill: #1f77b4; stroke: #1f77b4"/>
     <use xlink:href="#mdd20b90525" x="165.801061" y="353.394" style="fill: #1f77b4; stroke: #1f77b4"/>
     <use xlink:href="#mdd20b90525" x="175.07197" y="353.394" style="fill: #1f77b4; stroke: #1f77b4"/>
     <use xlink:href="#mdd20b90525" x="182.197901" y="353.394" style="fill: #1f77b4; stroke: #1f77b4"/>
     <use xlink:href="#mdd20b90525" x="189.316634" y="353.394" style="fill: #1f77b4; stroke: #1f77b4"/>
     <use xlink:href="#mdd20b90525" x="196.449763" y="353.394" style="fill: #1f77b4; stroke: #1f77b4"/>
     <use xlink:href="#mdd20b90525" x="203.568496" y="350.99364" style="fill: #1f77b4; stroke: #1f77b4"/>
     <use xlink:href="#mdd20b90525" x="210.723219" y="351.508003" style="fill: #1f77b4; stroke: #1f77b4"/>
     <use xlink:href="#mdd20b90525" x="217.84915" y="345.850012" style="fill: #1f77b4; stroke: #1f77b4"/>
     <use xlink:href="#mdd20b90525" x="224.967884" y="344.812714" style="fill: #1f77b4; stroke: #1f77b4"/>
     <use xlink:href="#mdd20b90525" x="232.093815" y="346.327058" style="fill: #1f77b4; stroke: #1f77b4"/>
     <use xlink:href="#mdd20b90525" x="239.219746" y="346.663579" style="fill: #1f77b4; stroke: #1f77b4"/>
     <use xlink:href="#mdd20b90525" x="248.425873" y="334.973901" style="fill: #1f77b4; stroke: #1f77b4"/>
     <use xlink:href="#mdd20b90525" x="255.551805" y="337.736916" style="fill: #1f77b4; stroke: #1f77b4"/>
     <use xlink:href="#mdd20b90525" x="262.684934" y="332.231128" style="fill: #1f77b4; stroke: #1f77b4"/>
     <use xlink:href="#mdd20b90525" x="269.810865" y="330.213382" style="fill: #1f77b4; stroke: #1f77b4"/>
     <use xlink:href="#mdd20b90525" x="276.943994" y="329.74822" style="fill: #1f77b4; stroke: #1f77b4"/>
     <use xlink:href="#mdd20b90525" x="284.069925" y="322.528504" style="fill: #1f77b4; stroke: #1f77b4"/>
     <use xlink:href="#mdd20b90525" x="291.203054" y="311.308387" style="fill: #1f77b4; stroke: #1f77b4"/>
     <use xlink:href="#mdd20b90525" x="298.328985" y="300.322045" style="fill: #1f77b4; stroke: #1f77b4"/>
     <use xlink:href="#mdd20b90525" x="305.454917" y="289.789799" style="fill: #1f77b4; stroke: #1f77b4"/>
     <use xlink:href="#mdd20b90525" x="312.588046" y="275.858568" style="fill: #1f77b4; stroke: #1f77b4"/>
     <use xlink:href="#mdd20b90525" x="321.801371" y="275.425006" style="fill: #1f77b4; stroke: #1f77b4"/>
     <use xlink:href="#mdd20b90525" x="328.927302" y="283.221905" style="fill: #1f77b4; stroke: #1f77b4"/>
     <use xlink:href="#mdd20b90525" x="336.060431" y="284.820072" style="fill: #1f77b4; stroke: #1f77b4"/>
     <use xlink:href="#mdd20b90525" x="343.186362" y="289.311168" style="fill: #1f77b4; stroke: #1f77b4"/>
     <use xlink:href="#mdd20b90525" x="350.312293" y="286.203283" style="fill: #1f77b4; stroke: #1f77b4"/>
     <use xlink:href="#mdd20b90525" x="357.438225" y="265.516121" style="fill: #1f77b4; stroke: #1f77b4"/>
     <use xlink:href="#mdd20b90525" x="364.571354" y="246.511424" style="fill: #1f77b4; stroke: #1f77b4"/>
     <use xlink:href="#mdd20b90525" x="371.697285" y="236.765425" style="fill: #1f77b4; stroke: #1f77b4"/>
     <use xlink:href="#mdd20b90525" x="378.830414" y="219.627539" style="fill: #1f77b4; stroke: #1f77b4"/>
     <use xlink:href="#mdd20b90525" x="385.956345" y="203.658895" style="fill: #1f77b4; stroke: #1f77b4"/>
     <use xlink:href="#mdd20b90525" x="395.16967" y="196.998437" style="fill: #1f77b4; stroke: #1f77b4"/>
     <use xlink:href="#mdd20b90525" x="402.302799" y="182.532599" style="fill: #1f77b4; stroke: #1f77b4"/>
     <use xlink:href="#mdd20b90525" x="409.428731" y="175.972283" style="fill: #1f77b4; stroke: #1f77b4"/>
     <use xlink:href="#mdd20b90525" x="416.56186" y="162.572504" style="fill: #1f77b4; stroke: #1f77b4"/>
     <use xlink:href="#mdd20b90525" x="423.694989" y="153.300738" style="fill: #1f77b4; stroke: #1f77b4"/>
     <use xlink:href="#mdd20b90525" x="430.813722" y="141.803479" style="fill: #1f77b4; stroke: #1f77b4"/>
     <use xlink:href="#mdd20b90525" x="437.954049" y="131.09091" style="fill: #1f77b4; stroke: #1f77b4"/>
     <use xlink:href="#mdd20b90525" x="445.087178" y="120.172954" style="fill: #1f77b4; stroke: #1f77b4"/>
     <use xlink:href="#mdd20b90525" x="452.213109" y="121.172697" style="fill: #1f77b4; stroke: #1f77b4"/>
     <use xlink:href="#mdd20b90525" x="459.346238" y="116.912484" style="fill: #1f77b4; stroke: #1f77b4"/>
     <use xlink:href="#mdd20b90525" x="468.566761" y="111.008991" style="fill: #1f77b4; stroke: #1f77b4"/>
     <use xlink:href="#mdd20b90525" x="475.699891" y="113.783471" style="fill: #1f77b4; stroke: #1f77b4"/>
     <use xlink:href="#mdd20b90525" x="482.840218" y="105.560682" style="fill: #1f77b4; stroke: #1f77b4"/>
     <use xlink:href="#mdd20b90525" x="489.966149" y="95.598181" style="fill: #1f77b4; stroke: #1f77b4"/>
     <use xlink:href="#mdd20b90525" x="497.099278" y="86.130852" style="fill: #1f77b4; stroke: #1f77b4"/>
     <use xlink:href="#mdd20b90525" x="504.232407" y="80.220977" style="fill: #1f77b4; stroke: #1f77b4"/>
     <use xlink:href="#mdd20b90525" x="511.365536" y="74.710717" style="fill: #1f77b4; stroke: #1f77b4"/>
     <use xlink:href="#mdd20b90525" x="518.491467" y="68.960888" style="fill: #1f77b4; stroke: #1f77b4"/>
     <use xlink:href="#mdd20b90525" x="525.624596" y="63.401659" style="fill: #1f77b4; stroke: #1f77b4"/>
     <use xlink:href="#mdd20b90525" x="532.750527" y="55.863427" style="fill: #1f77b4; stroke: #1f77b4"/>
     <use xlink:href="#mdd20b90525" x="541.971051" y="50.994" style="fill: #1f77b4; stroke: #1f77b4"/>
     <use xlink:href="#mdd20b90525" x="549.10418" y="62.543061" style="fill: #1f77b4; stroke: #1f77b4"/>
     <use xlink:href="#mdd20b90525" x="556.237309" y="55.006533" style="fill: #1f77b4; stroke: #1f77b4"/>
     <use xlink:href="#mdd20b90525" x="563.370438" y="60.477623" style="fill: #1f77b4; stroke: #1f77b4"/>
     <use xlink:href="#mdd20b90525" x="570.496369" y="61.131954" style="fill: #1f77b4; stroke: #1f77b4"/>
     <use xlink:href="#mdd20b90525" x="577.6223" y="65.967044" style="fill: #1f77b4; stroke: #1f77b4"/>
     <use xlink:href="#mdd20b90525" x="584.755429" y="72.144699" style="fill: #1f77b4; stroke: #1f77b4"/>
     <use xlink:href="#mdd20b90525" x="591.888558" y="73.692073" style="fill: #1f77b4; stroke: #1f77b4"/>
     <use xlink:href="#mdd20b90525" x="599.01449" y="77.015855" style="fill: #1f77b4; stroke: #1f77b4"/>
     <use xlink:href="#mdd20b90525" x="606.147619" y="79.853085" style="fill: #1f77b4; stroke: #1f77b4"/>
     <use xlink:href="#mdd20b90525" x="615.360944" y="80.517153" style="fill: #1f77b4; stroke: #1f77b4"/>
     <use xlink:href="#mdd20b90525" x="622.486875" y="91.083171" style="fill: #1f77b4; stroke: #1f77b4"/>
     <use xlink:href="#mdd20b90525" x="629.612806" y="90.64794" style="fill: #1f77b4; stroke: #1f77b4"/>
     <use xlink:href="#mdd20b90525" x="636.738737" y="95.414404" style="fill: #1f77b4; stroke: #1f77b4"/>
     <use xlink:href="#mdd20b90525" x="643.886262" y="101.082438" style="fill: #1f77b4; stroke: #1f77b4"/>
     <use xlink:href="#mdd20b90525" x="651.019391" y="108.038895" style="fill: #1f77b4; stroke: #1f77b4"/>
     <use xlink:href="#mdd20b90525" x="658.15252" y="115.75877" style="fill: #1f77b4; stroke: #1f77b4"/>
     <use xlink:href="#mdd20b90525" x="665.300045" y="123.078623" style="fill: #1f77b4; stroke: #1f77b4"/>
     <use xlink:href="#mdd20b90525" x="672.469164" y="128.87048" style="fill: #1f77b4; stroke: #1f77b4"/>
     <use xlink:href="#mdd20b90525" x="679.602293" y="131.820937" style="fill: #1f77b4; stroke: #1f77b4"/>
     <use xlink:href="#mdd20b90525" x="688.830014" y="138.212378" style="fill: #1f77b4; stroke: #1f77b4"/>
     <use xlink:href="#mdd20b90525" x="695.977539" y="145.362563" style="fill: #1f77b4; stroke: #1f77b4"/>
     <use xlink:href="#mdd20b90525" x="703.146658" y="146.372982" style="fill: #1f77b4; stroke: #1f77b4"/>
     <use xlink:href="#mdd20b90525" x="710.286985" y="149.853951" style="fill: #1f77b4; stroke: #1f77b4"/>
     <use xlink:href="#mdd20b90525" x="717.427312" y="152.765187" style="fill: #1f77b4; stroke: #1f77b4"/>
     <use xlink:href="#mdd20b90525" x="724.589232" y="155.506749" style="fill: #1f77b4; stroke: #1f77b4"/>
     <use xlink:href="#mdd20b90525" x="731.729559" y="160.503156" style="fill: #1f77b4; stroke: #1f77b4"/>
     <use xlink:href="#mdd20b90525" x="738.869886" y="165.440855" style="fill: #1f77b4; stroke: #1f77b4"/>
    </g>
   </g>
   <g id="patch_3">
    <path d="M 99.70625 368.514
L 99.70625 35.874
" style="fill: none; stroke: #000000; stroke-width: 3; stroke-linejoin: miter; stroke-linecap: square"/>
   </g>
   <g id="patch_4">
    <path d="M 769.30625 368.514
L 769.30625 35.874
" style="fill: none; stroke: #000000; stroke-width: 3; stroke-linejoin: miter; stroke-linecap: square"/>
   </g>
   <g id="patch_5">
    <path d="M 99.70625 368.514
L 769.30625 368.514
" style="fill: none; stroke: #000000; stroke-width: 3; stroke-linejoin: miter; stroke-linecap: square"/>
   </g>
   <g id="patch_6">
    <path d="M 99.70625 35.874
L 769.30625 35.874
" style="fill: none; stroke: #000000; stroke-width: 3; stroke-linejoin: miter; stroke-linecap: square"/>
   </g>
   <g id="text_16">
    <!-- Spearman correlation for imine_monitoring_v6 -->
    <g transform="translate(99.39575 29.0835) scale(0.288 -0.288)">
     <defs>
      <path id="DejaVuSans-66" d="M 2375 4863
L 2375 4384
L 1825 4384
Q 1516 4384 1395 4259
Q 1275 4134 1275 3809
L 1275 3500
L 2222 3500
L 2222 3053
L 1275 3053
L 1275 0
L 697 0
L 697 3053
L 147 3053
L 147 3500
L 697 3500
L 697 3744
Q 697 4328 969 4595
Q 1241 4863 1831 4863
L 2375 4863
z
" transform="scale(0.015625)"/>
      <path id="DejaVuSans-5f" d="M 3263 -1063
L 3263 -1509
L -63 -1509
L -63 -1063
L 3263 -1063
z
" transform="scale(0.015625)"/>
      <path id="DejaVuSans-67" d="M 2906 1791
Q 2906 2416 2648 2759
Q 2391 3103 1925 3103
Q 1463 3103 1205 2759
Q 947 2416 947 1791
Q 947 1169 1205 825
Q 1463 481 1925 481
Q 2391 481 2648 825
Q 2906 1169 2906 1791
z
M 3481 434
Q 3481 -459 3084 -895
Q 2688 -1331 1869 -1331
Q 1566 -1331 1297 -1286
Q 1028 -1241 775 -1147
L 775 -588
Q 1028 -725 1275 -790
Q 1522 -856 1778 -856
Q 2344 -856 2625 -561
Q 2906 -266 2906 331
L 2906 616
Q 2728 306 2450 153
Q 2172 0 1784 0
Q 1141 0 747 490
Q 353 981 353 1791
Q 353 2603 747 3093
Q 1141 3584 1784 3584
Q 2172 3584 2450 3431
Q 2728 3278 2906 2969
L 2906 3500
L 3481 3500
L 3481 434
z
" transform="scale(0.015625)"/>
      <path id="DejaVuSans-76" d="M 191 3500
L 800 3500
L 1894 563
L 2988 3500
L 3597 3500
L 2284 0
L 1503 0
L 191 3500
z
" transform="scale(0.015625)"/>
     </defs>
     <use xlink:href="#DejaVuSans-53"/>
     <use xlink:href="#DejaVuSans-70" transform="translate(63.476562 0)"/>
     <use xlink:href="#DejaVuSans-65" transform="translate(126.953125 0)"/>
     <use xlink:href="#DejaVuSans-61" transform="translate(188.476562 0)"/>
     <use xlink:href="#DejaVuSans-72" transform="translate(249.755859 0)"/>
     <use xlink:href="#DejaVuSans-6d" transform="translate(289.119141 0)"/>
     <use xlink:href="#DejaVuSans-61" transform="translate(386.53125 0)"/>
     <use xlink:href="#DejaVuSans-6e" transform="translate(447.810547 0)"/>
     <use xlink:href="#DejaVuSans-20" transform="translate(511.189453 0)"/>
     <use xlink:href="#DejaVuSans-63" transform="translate(542.976562 0)"/>
     <use xlink:href="#DejaVuSans-6f" transform="translate(597.957031 0)"/>
     <use xlink:href="#DejaVuSans-72" transform="translate(659.138672 0)"/>
     <use xlink:href="#DejaVuSans-72" transform="translate(698.501953 0)"/>
     <use xlink:href="#DejaVuSans-65" transform="translate(737.365234 0)"/>
     <use xlink:href="#DejaVuSans-6c" transform="translate(798.888672 0)"/>
     <use xlink:href="#DejaVuSans-61" transform="translate(826.671875 0)"/>
     <use xlink:href="#DejaVuSans-74" transform="translate(887.951172 0)"/>
     <use xlink:href="#DejaVuSans-69" transform="translate(927.160156 0)"/>
     <use xlink:href="#DejaVuSans-6f" transform="translate(954.943359 0)"/>
     <use xlink:href="#DejaVuSans-6e" transform="translate(1016.125 0)"/>
     <use xlink:href="#DejaVuSans-20" transform="translate(1079.503906 0)"/>
     <use xlink:href="#DejaVuSans-66" transform="translate(1111.291016 0)"/>
     <use xlink:href="#DejaVuSans-6f" transform="translate(1146.496094 0)"/>
     <use xlink:href="#DejaVuSans-72" transform="translate(1207.677734 0)"/>
     <use xlink:href="#DejaVuSans-20" transform="translate(1248.791016 0)"/>
     <use xlink:href="#DejaVuSans-69" transform="translate(1280.578125 0)"/>
     <use xlink:href="#DejaVuSans-6d" transform="translate(1308.361328 0)"/>
     <use xlink:href="#DejaVuSans-69" transform="translate(1405.773438 0)"/>
     <use xlink:href="#DejaVuSans-6e" transform="translate(1433.556641 0)"/>
     <use xlink:href="#DejaVuSans-65" transform="translate(1496.935547 0)"/>
     <use xlink:href="#DejaVuSans-5f" transform="translate(1558.458984 0)"/>
     <use xlink:href="#DejaVuSans-6d" transform="translate(1608.458984 0)"/>
     <use xlink:href="#DejaVuSans-6f" transform="translate(1705.871094 0)"/>
     <use xlink:href="#DejaVuSans-6e" transform="translate(1767.052734 0)"/>
     <use xlink:href="#DejaVuSans-69" transform="translate(1830.431641 0)"/>
     <use xlink:href="#DejaVuSans-74" transform="translate(1858.214844 0)"/>
     <use xlink:href="#DejaVuSans-6f" transform="translate(1897.423828 0)"/>
     <use xlink:href="#DejaVuSans-72" transform="translate(1958.605469 0)"/>
     <use xlink:href="#DejaVuSans-69" transform="translate(1999.71875 0)"/>
     <use xlink:href="#DejaVuSans-6e" transform="translate(2027.501953 0)"/>
     <use xlink:href="#DejaVuSans-67" transform="translate(2090.880859 0)"/>
     <use xlink:href="#DejaVuSans-5f" transform="translate(2154.357422 0)"/>
     <use xlink:href="#DejaVuSans-76" transform="translate(2204.357422 0)"/>
     <use xlink:href="#DejaVuSans-36" transform="translate(2263.537109 0)"/>
    </g>
   </g>
  </g>
 </g>
 <defs>
  <clipPath id="p0b505e8e13">
   <rect x="99.70625" y="35.874" width="669.6" height="332.64"/>
  </clipPath>
 </defs>
</svg>
