<?xml version="1.0" encoding="utf-8" standalone="no"?>
<!DOCTYPE svg PUBLIC "-//W3C//DTD SVG 1.1//EN"
  "http://www.w3.org/Graphics/SVG/1.1/DTD/svg11.dtd">
<svg xmlns:xlink="http://www.w3.org/1999/xlink" width="756.395pt" height="433.169pt" viewBox="0 0 756.395 433.169" xmlns="http://www.w3.org/2000/svg" version="1.1">
 <metadata>
  <rdf:RDF xmlns:dc="http://purl.org/dc/elements/1.1/" xmlns:cc="http://creativecommons.org/ns#" xmlns:rdf="http://www.w3.org/1999/02/22-rdf-syntax-ns#">
   <cc:Work>
    <dc:type rdf:resource="http://purl.org/dc/dcmitype/StillImage"/>
    <dc:date>2025-11-02T13:51:56.870075</dc:date>
    <dc:format>image/svg+xml</dc:format>
    <dc:creator>
     <cc:Agent>
      <dc:title>Matplotlib v3.10.7, https://matplotlib.org/</dc:title>
     </cc:Agent>
    </dc:creator>
   </cc:Work>
  </rdf:RDF>
 </metadata>
 <defs>
  <style type="text/css">*{stroke-linejoin: round; stroke-linecap: butt}</style>
 </defs>
 <g id="figure_1">
  <g id="patch_1">
   <path d="M -0 433.169
L 756.395 433.169
L 756.395 0
L -0 0
L -0 433.169
z
" style="fill: none"/>
  </g>
  <g id="axes_1">
   <g id="patch_2">
    <path d="M 79.595 368.514
L 749.195 368.514
L 749.195 35.874
L 79.595 35.874
L 79.595 368.514
z
" style="fill: none"/>
   </g>
   <g id="matplotlib.axis_1">
    <g id="xtick_1">
     <g id="line2d_1">
      <defs>
       <path id="m485f777f9b" d="M 0 0
L 0 3.5
" style="stroke: #000000; stroke-width: 3"/>
      </defs>
      <g>
       <use xlink:href="#m485f777f9b" x="110.031364" y="368.514" style="stroke: #000000; stroke-width: 3"/>
      </g>
     </g>
     <g id="text_1">
      <!-- 0 -->
      <g transform="translate(102.396364 393.75025) scale(0.24 -0.24)">
       <defs>
        <path id="DejaVuSans-30" d="M 2034 4250
Q 1547 4250 1301 3770
Q 1056 3291 1056 2328
Q 1056 1369 1301 889
Q 1547 409 2034 409
Q 2525 409 2770 889
Q 3016 1369 3016 2328
Q 3016 3291 2770 3770
Q 2525 4250 2034 4250
z
M 2034 4750
Q 2819 4750 3233 4129
Q 3647 3509 3647 2328
Q 3647 1150 3233 529
Q 2819 -91 2034 -91
Q 1250 -91 836 529
Q 422 1150 422 2328
Q 422 3509 836 4129
Q 1250 4750 2034 4750
z
" transform="scale(0.015625)"/>
       </defs>
       <use xlink:href="#DejaVuSans-30"/>
      </g>
     </g>
    </g>
    <g id="xtick_2">
     <g id="line2d_2">
      <g>
       <use xlink:href="#m485f777f9b" x="184.978086" y="368.514" style="stroke: #000000; stroke-width: 3"/>
      </g>
     </g>
     <g id="text_2">
      <!-- 250 -->
      <g transform="translate(162.073086 393.75025) scale(0.24 -0.24)">
       <defs>
        <path id="DejaVuSans-32" d="M 1228 531
L 3431 531
L 3431 0
L 469 0
L 469 531
Q 828 903 1448 1529
Q 2069 2156 2228 2338
Q 2531 2678 2651 2914
Q 2772 3150 2772 3378
Q 2772 3750 2511 3984
Q 2250 4219 1831 4219
Q 1534 4219 1204 4116
Q 875 4013 500 3803
L 500 4441
Q 881 4594 1212 4672
Q 1544 4750 1819 4750
Q 2544 4750 2975 4387
Q 3406 4025 3406 3419
Q 3406 3131 3298 2873
Q 3191 2616 2906 2266
Q 2828 2175 2409 1742
Q 1991 1309 1228 531
z
" transform="scale(0.015625)"/>
        <path id="DejaVuSans-35" d="M 691 4666
L 3169 4666
L 3169 4134
L 1269 4134
L 1269 2991
Q 1406 3038 1543 3061
Q 1681 3084 1819 3084
Q 2600 3084 3056 2656
Q 3513 2228 3513 1497
Q 3513 744 3044 326
Q 2575 -91 1722 -91
Q 1428 -91 1123 -41
Q 819 9 494 109
L 494 744
Q 775 591 1075 516
Q 1375 441 1709 441
Q 2250 441 2565 725
Q 2881 1009 2881 1497
Q 2881 1984 2565 2268
Q 2250 2553 1709 2553
Q 1456 2553 1204 2497
Q 953 2441 691 2322
L 691 4666
z
" transform="scale(0.015625)"/>
       </defs>
       <use xlink:href="#DejaVuSans-32"/>
       <use xlink:href="#DejaVuSans-35" transform="translate(63.623047 0)"/>
       <use xlink:href="#DejaVuSans-30" transform="translate(127.246094 0)"/>
      </g>
     </g>
    </g>
    <g id="xtick_3">
     <g id="line2d_3">
      <g>
       <use xlink:href="#m485f777f9b" x="259.924809" y="368.514" style="stroke: #000000; stroke-width: 3"/>
      </g>
     </g>
     <g id="text_3">
      <!-- 500 -->
      <g transform="translate(237.019809 393.75025) scale(0.24 -0.24)">
       <use xlink:href="#DejaVuSans-35"/>
       <use xlink:href="#DejaVuSans-30" transform="translate(63.623047 0)"/>
       <use xlink:href="#DejaVuSans-30" transform="translate(127.246094 0)"/>
      </g>
     </g>
    </g>
    <g id="xtick_4">
     <g id="line2d_4">
      <g>
       <use xlink:href="#m485f777f9b" x="334.871531" y="368.514" style="stroke: #000000; stroke-width: 3"/>
      </g>
     </g>
     <g id="text_4">
      <!-- 750 -->
      <g transform="translate(311.966531 393.75025) scale(0.24 -0.24)">
       <defs>
        <path id="DejaVuSans-37" d="M 525 4666
L 3525 4666
L 3525 4397
L 1831 0
L 1172 0
L 2766 4134
L 525 4134
L 525 4666
z
" transform="scale(0.015625)"/>
       </defs>
       <use xlink:href="#DejaVuSans-37"/>
       <use xlink:href="#DejaVuSans-35" transform="translate(63.623047 0)"/>
       <use xlink:href="#DejaVuSans-30" transform="translate(127.246094 0)"/>
      </g>
     </g>
    </g>
    <g id="xtick_5">
     <g id="line2d_5">
      <g>
       <use xlink:href="#m485f777f9b" x="409.818253" y="368.514" style="stroke: #000000; stroke-width: 3"/>
      </g>
     </g>
     <g id="text_5">
      <!-- 1000 -->
      <g transform="translate(379.278253 393.75025) scale(0.24 -0.24)">
       <defs>
        <path id="DejaVuSans-31" d="M 794 531
L 1825 531
L 1825 4091
L 703 3866
L 703 4441
L 1819 4666
L 2450 4666
L 2450 531
L 3481 531
L 3481 0
L 794 0
L 794 531
z
" transform="scale(0.015625)"/>
       </defs>
       <use xlink:href="#DejaVuSans-31"/>
       <use xlink:href="#DejaVuSans-30" transform="translate(63.623047 0)"/>
       <use xlink:href="#DejaVuSans-30" transform="translate(127.246094 0)"/>
       <use xlink:href="#DejaVuSans-30" transform="translate(190.869141 0)"/>
      </g>
     </g>
    </g>
    <g id="xtick_6">
     <g id="line2d_6">
      <g>
       <use xlink:href="#m485f777f9b" x="484.764976" y="368.514" style="stroke: #000000; stroke-width: 3"/>
      </g>
     </g>
     <g id="text_6">
      <!-- 1250 -->
      <g transform="translate(454.224976 393.75025) scale(0.24 -0.24)">
       <use xlink:href="#DejaVuSans-31"/>
       <use xlink:href="#DejaVuSans-32" transform="translate(63.623047 0)"/>
       <use xlink:href="#DejaVuSans-35" transform="translate(127.246094 0)"/>
       <use xlink:href="#DejaVuSans-30" transform="translate(190.869141 0)"/>
      </g>
     </g>
    </g>
    <g id="xtick_7">
     <g id="line2d_7">
      <g>
       <use xlink:href="#m485f777f9b" x="559.711698" y="368.514" style="stroke: #000000; stroke-width: 3"/>
      </g>
     </g>
     <g id="text_7">
      <!-- 1500 -->
      <g transform="translate(529.171698 393.75025) scale(0.24 -0.24)">
       <use xlink:href="#DejaVuSans-31"/>
       <use xlink:href="#DejaVuSans-35" transform="translate(63.623047 0)"/>
       <use xlink:href="#DejaVuSans-30" transform="translate(127.246094 0)"/>
       <use xlink:href="#DejaVuSans-30" transform="translate(190.869141 0)"/>
      </g>
     </g>
    </g>
    <g id="xtick_8">
     <g id="line2d_8">
      <g>
       <use xlink:href="#m485f777f9b" x="634.658421" y="368.514" style="stroke: #000000; stroke-width: 3"/>
      </g>
     </g>
     <g id="text_8">
      <!-- 1750 -->
      <g transform="translate(604.118421 393.75025) scale(0.24 -0.24)">
       <use xlink:href="#DejaVuSans-31"/>
       <use xlink:href="#DejaVuSans-37" transform="translate(63.623047 0)"/>
       <use xlink:href="#DejaVuSans-35" transform="translate(127.246094 0)"/>
       <use xlink:href="#DejaVuSans-30" transform="translate(190.869141 0)"/>
      </g>
     </g>
    </g>
    <g id="xtick_9">
     <g id="line2d_9">
      <g>
       <use xlink:href="#m485f777f9b" x="709.605143" y="368.514" style="stroke: #000000; stroke-width: 3"/>
      </g>
     </g>
     <g id="text_9">
      <!-- 2000 -->
      <g transform="translate(679.065143 393.75025) scale(0.24 -0.24)">
       <use xlink:href="#DejaVuSans-32"/>
       <use xlink:href="#DejaVuSans-30" transform="translate(63.623047 0)"/>
       <use xlink:href="#DejaVuSans-30" transform="translate(127.246094 0)"/>
       <use xlink:href="#DejaVuSans-30" transform="translate(190.869141 0)"/>
      </g>
     </g>
    </g>
    <g id="text_10">
     <!-- Time / min -->
     <g transform="translate(350.736875 420.97775) scale(0.24 -0.24)">
      <defs>
       <path id="DejaVuSans-54" d="M -19 4666
L 3928 4666
L 3928 4134
L 2272 4134
L 2272 0
L 1638 0
L 1638 4134
L -19 4134
L -19 4666
z
" transform="scale(0.015625)"/>
       <path id="DejaVuSans-69" d="M 603 3500
L 1178 3500
L 1178 0
L 603 0
L 603 3500
z
M 603 4863
L 1178 4863
L 1178 4134
L 603 4134
L 603 4863
z
" transform="scale(0.015625)"/>
       <path id="DejaVuSans-6d" d="M 3328 2828
Q 3544 3216 3844 3400
Q 4144 3584 4550 3584
Q 5097 3584 5394 3201
Q 5691 2819 5691 2113
L 5691 0
L 5113 0
L 5113 2094
Q 5113 2597 4934 2840
Q 4756 3084 4391 3084
Q 3944 3084 3684 2787
Q 3425 2491 3425 1978
L 3425 0
L 2847 0
L 2847 2094
Q 2847 2600 2669 2842
Q 2491 3084 2119 3084
Q 1678 3084 1418 2786
Q 1159 2488 1159 1978
L 1159 0
L 581 0
L 581 3500
L 1159 3500
L 1159 2956
Q 1356 3278 1631 3431
Q 1906 3584 2284 3584
Q 2666 3584 2933 3390
Q 3200 3197 3328 2828
z
" transform="scale(0.015625)"/>
       <path id="DejaVuSans-65" d="M 3597 1894
L 3597 1613
L 953 1613
Q 991 1019 1311 708
Q 1631 397 2203 397
Q 2534 397 2845 478
Q 3156 559 3463 722
L 3463 178
Q 3153 47 2828 -22
Q 2503 -91 2169 -91
Q 1331 -91 842 396
Q 353 884 353 1716
Q 353 2575 817 3079
Q 1281 3584 2069 3584
Q 2775 3584 3186 3129
Q 3597 2675 3597 1894
z
M 3022 2063
Q 3016 2534 2758 2815
Q 2500 3097 2075 3097
Q 1594 3097 1305 2825
Q 1016 2553 972 2059
L 3022 2063
z
" transform="scale(0.015625)"/>
       <path id="DejaVuSans-20" transform="scale(0.015625)"/>
       <path id="DejaVuSans-2f" d="M 1625 4666
L 2156 4666
L 531 -594
L 0 -594
L 1625 4666
z
" transform="scale(0.015625)"/>
       <path id="DejaVuSans-6e" d="M 3513 2113
L 3513 0
L 2938 0
L 2938 2094
Q 2938 2591 2744 2837
Q 2550 3084 2163 3084
Q 1697 3084 1428 2787
Q 1159 2491 1159 1978
L 1159 0
L 581 0
L 581 3500
L 1159 3500
L 1159 2956
Q 1366 3272 1645 3428
Q 1925 3584 2291 3584
Q 2894 3584 3203 3211
Q 3513 2838 3513 2113
z
" transform="scale(0.015625)"/>
      </defs>
      <use xlink:href="#DejaVuSans-54"/>
      <use xlink:href="#DejaVuSans-69" transform="translate(57.958984 0)"/>
      <use xlink:href="#DejaVuSans-6d" transform="translate(85.742188 0)"/>
      <use xlink:href="#DejaVuSans-65" transform="translate(183.154297 0)"/>
      <use xlink:href="#DejaVuSans-20" transform="translate(244.677734 0)"/>
      <use xlink:href="#DejaVuSans-2f" transform="translate(276.464844 0)"/>
      <use xlink:href="#DejaVuSans-20" transform="translate(310.15625 0)"/>
      <use xlink:href="#DejaVuSans-6d" transform="translate(341.943359 0)"/>
      <use xlink:href="#DejaVuSans-69" transform="translate(439.355469 0)"/>
      <use xlink:href="#DejaVuSans-6e" transform="translate(467.138672 0)"/>
     </g>
    </g>
   </g>
   <g id="matplotlib.axis_2">
    <g id="ytick_1">
     <g id="line2d_10">
      <defs>
       <path id="mb8a305e71a" d="M 0 0
L -3.5 0
" style="stroke: #000000; stroke-width: 3"/>
      </defs>
      <g>
       <use xlink:href="#mb8a305e71a" x="79.595" y="274.589911" style="stroke: #000000; stroke-width: 3"/>
      </g>
     </g>
     <g id="text_11">
      <!-- 0.6 -->
      <g transform="translate(34.4275 283.708036) scale(0.24 -0.24)">
       <defs>
        <path id="DejaVuSans-2e" d="M 684 794
L 1344 794
L 1344 0
L 684 0
L 684 794
z
" transform="scale(0.015625)"/>
        <path id="DejaVuSans-36" d="M 2113 2584
Q 1688 2584 1439 2293
Q 1191 2003 1191 1497
Q 1191 994 1439 701
Q 1688 409 2113 409
Q 2538 409 2786 701
Q 3034 994 3034 1497
Q 3034 2003 2786 2293
Q 2538 2584 2113 2584
z
M 3366 4563
L 3366 3988
Q 3128 4100 2886 4159
Q 2644 4219 2406 4219
Q 1781 4219 1451 3797
Q 1122 3375 1075 2522
Q 1259 2794 1537 2939
Q 1816 3084 2150 3084
Q 2853 3084 3261 2657
Q 3669 2231 3669 1497
Q 3669 778 3244 343
Q 2819 -91 2113 -91
Q 1303 -91 875 529
Q 447 1150 447 2328
Q 447 3434 972 4092
Q 1497 4750 2381 4750
Q 2619 4750 2861 4703
Q 3103 4656 3366 4563
z
" transform="scale(0.015625)"/>
       </defs>
       <use xlink:href="#DejaVuSans-30"/>
       <use xlink:href="#DejaVuSans-2e" transform="translate(63.623047 0)"/>
       <use xlink:href="#DejaVuSans-36" transform="translate(95.410156 0)"/>
      </g>
     </g>
    </g>
    <g id="ytick_2">
     <g id="line2d_11">
      <g>
       <use xlink:href="#mb8a305e71a" x="79.595" y="178.033408" style="stroke: #000000; stroke-width: 3"/>
      </g>
     </g>
     <g id="text_12">
      <!-- 0.8 -->
      <g transform="translate(34.4275 187.151533) scale(0.24 -0.24)">
       <defs>
        <path id="DejaVuSans-38" d="M 2034 2216
Q 1584 2216 1326 1975
Q 1069 1734 1069 1313
Q 1069 891 1326 650
Q 1584 409 2034 409
Q 2484 409 2743 651
Q 3003 894 3003 1313
Q 3003 1734 2745 1975
Q 2488 2216 2034 2216
z
M 1403 2484
Q 997 2584 770 2862
Q 544 3141 544 3541
Q 544 4100 942 4425
Q 1341 4750 2034 4750
Q 2731 4750 3128 4425
Q 3525 4100 3525 3541
Q 3525 3141 3298 2862
Q 3072 2584 2669 2484
Q 3125 2378 3379 2068
Q 3634 1759 3634 1313
Q 3634 634 3220 271
Q 2806 -91 2034 -91
Q 1263 -91 848 271
Q 434 634 434 1313
Q 434 1759 690 2068
Q 947 2378 1403 2484
z
M 1172 3481
Q 1172 3119 1398 2916
Q 1625 2713 2034 2713
Q 2441 2713 2670 2916
Q 2900 3119 2900 3481
Q 2900 3844 2670 4047
Q 2441 4250 2034 4250
Q 1625 4250 1398 4047
Q 1172 3844 1172 3481
z
" transform="scale(0.015625)"/>
       </defs>
       <use xlink:href="#DejaVuSans-30"/>
       <use xlink:href="#DejaVuSans-2e" transform="translate(63.623047 0)"/>
       <use xlink:href="#DejaVuSans-38" transform="translate(95.410156 0)"/>
      </g>
     </g>
    </g>
    <g id="ytick_3">
     <g id="line2d_12">
      <g>
       <use xlink:href="#mb8a305e71a" x="79.595" y="81.476904" style="stroke: #000000; stroke-width: 3"/>
      </g>
     </g>
     <g id="text_13">
      <!-- 1.0 -->
      <g transform="translate(34.4275 90.595029) scale(0.24 -0.24)">
       <use xlink:href="#DejaVuSans-31"/>
       <use xlink:href="#DejaVuSans-2e" transform="translate(63.623047 0)"/>
       <use xlink:href="#DejaVuSans-30" transform="translate(95.410156 0)"/>
      </g>
     </g>
    </g>
    <g id="text_14">
     <!-- Jaccard index -->
     <g transform="translate(25.43625 282.625875) rotate(-90) scale(0.24 -0.24)">
      <defs>
       <path id="DejaVuSans-4a" d="M 628 4666
L 1259 4666
L 1259 325
Q 1259 -519 939 -900
Q 619 -1281 -91 -1281
L -331 -1281
L -331 -750
L -134 -750
Q 284 -750 456 -515
Q 628 -281 628 325
L 628 4666
z
" transform="scale(0.015625)"/>
       <path id="DejaVuSans-61" d="M 2194 1759
Q 1497 1759 1228 1600
Q 959 1441 959 1056
Q 959 750 1161 570
Q 1363 391 1709 391
Q 2188 391 2477 730
Q 2766 1069 2766 1631
L 2766 1759
L 2194 1759
z
M 3341 1997
L 3341 0
L 2766 0
L 2766 531
Q 2569 213 2275 61
Q 1981 -91 1556 -91
Q 1019 -91 701 211
Q 384 513 384 1019
Q 384 1609 779 1909
Q 1175 2209 1959 2209
L 2766 2209
L 2766 2266
Q 2766 2663 2505 2880
Q 2244 3097 1772 3097
Q 1472 3097 1187 3025
Q 903 2953 641 2809
L 641 3341
Q 956 3463 1253 3523
Q 1550 3584 1831 3584
Q 2591 3584 2966 3190
Q 3341 2797 3341 1997
z
" transform="scale(0.015625)"/>
       <path id="DejaVuSans-63" d="M 3122 3366
L 3122 2828
Q 2878 2963 2633 3030
Q 2388 3097 2138 3097
Q 1578 3097 1268 2742
Q 959 2388 959 1747
Q 959 1106 1268 751
Q 1578 397 2138 397
Q 2388 397 2633 464
Q 2878 531 3122 666
L 3122 134
Q 2881 22 2623 -34
Q 2366 -91 2075 -91
Q 1284 -91 818 406
Q 353 903 353 1747
Q 353 2603 823 3093
Q 1294 3584 2113 3584
Q 2378 3584 2631 3529
Q 2884 3475 3122 3366
z
" transform="scale(0.015625)"/>
       <path id="DejaVuSans-72" d="M 2631 2963
Q 2534 3019 2420 3045
Q 2306 3072 2169 3072
Q 1681 3072 1420 2755
Q 1159 2438 1159 1844
L 1159 0
L 581 0
L 581 3500
L 1159 3500
L 1159 2956
Q 1341 3275 1631 3429
Q 1922 3584 2338 3584
Q 2397 3584 2469 3576
Q 2541 3569 2628 3553
L 2631 2963
z
" transform="scale(0.015625)"/>
       <path id="DejaVuSans-64" d="M 2906 2969
L 2906 4863
L 3481 4863
L 3481 0
L 2906 0
L 2906 525
Q 2725 213 2448 61
Q 2172 -91 1784 -91
Q 1150 -91 751 415
Q 353 922 353 1747
Q 353 2572 751 3078
Q 1150 3584 1784 3584
Q 2172 3584 2448 3432
Q 2725 3281 2906 2969
z
M 947 1747
Q 947 1113 1208 752
Q 1469 391 1925 391
Q 2381 391 2643 752
Q 2906 1113 2906 1747
Q 2906 2381 2643 2742
Q 2381 3103 1925 3103
Q 1469 3103 1208 2742
Q 947 2381 947 1747
z
" transform="scale(0.015625)"/>
       <path id="DejaVuSans-78" d="M 3513 3500
L 2247 1797
L 3578 0
L 2900 0
L 1881 1375
L 863 0
L 184 0
L 1544 1831
L 300 3500
L 978 3500
L 1906 2253
L 2834 3500
L 3513 3500
z
" transform="scale(0.015625)"/>
      </defs>
      <use xlink:href="#DejaVuSans-4a"/>
      <use xlink:href="#DejaVuSans-61" transform="translate(29.492188 0)"/>
      <use xlink:href="#DejaVuSans-63" transform="translate(90.771484 0)"/>
      <use xlink:href="#DejaVuSans-63" transform="translate(145.751953 0)"/>
      <use xlink:href="#DejaVuSans-61" transform="translate(200.732422 0)"/>
      <use xlink:href="#DejaVuSans-72" transform="translate(262.011719 0)"/>
      <use xlink:href="#DejaVuSans-64" transform="translate(301.375 0)"/>
      <use xlink:href="#DejaVuSans-20" transform="translate(364.851562 0)"/>
      <use xlink:href="#DejaVuSans-69" transform="translate(396.638672 0)"/>
      <use xlink:href="#DejaVuSans-6e" transform="translate(424.421875 0)"/>
      <use xlink:href="#DejaVuSans-64" transform="translate(487.800781 0)"/>
      <use xlink:href="#DejaVuSans-65" transform="translate(551.277344 0)"/>
      <use xlink:href="#DejaVuSans-78" transform="translate(611.050781 0)"/>
     </g>
    </g>
   </g>
   <g id="line2d_13">
    <path d="M 110.031364 50.994
L 114.997833 74.349559
L 119.984288 95.915321
L 124.980737 115.78334
L 129.952202 133.961544
L 134.928665 150.696905
L 139.900131 166.073004
L 144.876593 180.22867
L 149.848059 193.2346
L 154.814529 205.185169
L 161.519762 219.813918
L 166.496224 229.652273
L 171.497669 238.743794
L 176.464138 247.045392
L 181.575505 254.894699
L 186.546971 261.908059
L 191.518437 268.358539
L 196.524878 274.331319
L 201.496344 279.784729
L 206.462813 284.795624
L 212.928217 290.721818
L 217.899683 294.859755
L 222.871149 298.665587
L 227.847611 302.169342
L 232.814081 305.385417
L 237.790543 308.349331
L 242.762009 311.072512
L 247.733475 313.577136
L 252.709937 315.882963
L 257.6864 318.003549
L 264.106836 320.489753
L 269.083298 322.24025
L 274.054764 323.84857
L 279.02623 325.327809
L 283.997696 326.688326
L 288.964165 327.938445
L 293.935631 329.089438
L 298.907097 330.148053
L 303.88356 331.122644
L 308.850029 332.017216
L 315.270465 333.068223
L 320.241931 333.807508
L 325.218393 334.488114
L 330.184863 335.112839
L 335.151332 335.687472
L 340.127794 336.21705
L 345.104257 336.704085
L 350.095709 337.153286
L 355.067174 337.564711
L 360.043637 337.94348
L 366.459076 338.387227
L 371.440535 338.700219
L 376.412001 338.98749
L 381.388463 339.251959
L 386.419887 339.497756
L 391.396349 339.721233
L 396.367815 339.926559
L 401.339281 340.115405
L 406.315743 340.289263
L 411.292206 340.449153
L 417.707645 340.636473
L 422.689104 340.768597
L 427.66057 340.889863
L 432.637032 341.001504
L 437.608498 341.104077
L 442.579964 341.198418
L 447.556426 341.285271
L 452.527892 341.36507
L 457.514348 341.438676
L 462.485814 341.506163
L 468.901253 341.585309
L 473.877715 341.641081
L 478.859174 341.692422
L 483.835637 341.739589
L 488.812099 341.782966
L 493.848519 341.82332
L 498.824981 341.859971
L 503.80644 341.89371
L 508.777906 341.924676
L 513.759365 341.953212
L 520.229765 341.986879
L 525.21622 342.010436
L 530.187686 342.032034
L 535.164149 342.051918
L 540.1556 342.070257
L 545.127066 342.087054
L 550.108525 342.102533
L 555.09498 342.11678
L 560.071443 342.129856
L 565.052901 342.141893
L 571.478334 342.156001
L 576.454796 342.165926
L 581.431259 342.175053
L 586.407721 342.183447
L 591.38918 342.191175
L 596.365642 342.198274
L 601.347101 342.204809
L 606.323563 342.210813
L 611.305022 342.21634
L 616.281485 342.221417
L 622.711913 342.227379
L 627.693372 342.231574
L 632.669834 342.235427
L 637.651293 342.238975
L 642.632752 342.242237
L 647.624204 342.245243
L 652.600666 342.247998
L 657.577129 342.250533
L 662.553591 342.252863
L 667.530053 342.255007
L 673.965479 342.257525
L 678.941941 342.259294
L 683.913407 342.260919
L 688.894866 342.262417
L 693.866332 342.263791
L 698.84779 342.265058
L 703.824253 342.266222
L 708.805712 342.267293
L 713.782174 342.268277
L 718.758636 342.269182
" clip-path="url(#p0cd1e41952)" style="fill: none; stroke: #ff0000; stroke-width: 1.5; stroke-linecap: square"/>
   </g>
   <g id="line2d_14">
    <defs>
     <path id="mc97b2c3e05" d="M 0 3
C 0.795609 3 1.55874 2.683901 2.12132 2.12132
C 2.683901 1.55874 3 0.795609 3 0
C 3 -0.795609 2.683901 -1.55874 2.12132 -2.12132
C 1.55874 -2.683901 0.795609 -3 0 -3
C -0.795609 -3 -1.55874 -2.683901 -2.12132 -2.12132
C -2.683901 -1.55874 -3 -0.795609 -3 0
C -3 0.795609 -2.683901 1.55874 -2.12132 2.12132
C -1.55874 2.683901 -0.795609 3 0 3
z
" style="stroke: #1f77b4"/>
    </defs>
    <g clip-path="url(#p0cd1e41952)">
     <use xlink:href="#mc97b2c3e05" x="110.031364" y="81.476904" style="fill: #1f77b4; stroke: #1f77b4"/>
     <use xlink:href="#mc97b2c3e05" x="114.997833" y="83.825714" style="fill: #1f77b4; stroke: #1f77b4"/>
     <use xlink:href="#mc97b2c3e05" x="119.984288" y="103.143646" style="fill: #1f77b4; stroke: #1f77b4"/>
     <use xlink:href="#mc97b2c3e05" x="124.980737" y="120.751296" style="fill: #1f77b4; stroke: #1f77b4"/>
     <use xlink:href="#mc97b2c3e05" x="129.952202" y="128.711675" style="fill: #1f77b4; stroke: #1f77b4"/>
     <use xlink:href="#mc97b2c3e05" x="134.928665" y="127.48704" style="fill: #1f77b4; stroke: #1f77b4"/>
     <use xlink:href="#mc97b2c3e05" x="139.900131" y="121.764435" style="fill: #1f77b4; stroke: #1f77b4"/>
     <use xlink:href="#mc97b2c3e05" x="144.876593" y="117.358006" style="fill: #1f77b4; stroke: #1f77b4"/>
     <use xlink:href="#mc97b2c3e05" x="149.848059" y="129.58316" style="fill: #1f77b4; stroke: #1f77b4"/>
     <use xlink:href="#mc97b2c3e05" x="154.814529" y="155.116052" style="fill: #1f77b4; stroke: #1f77b4"/>
     <use xlink:href="#mc97b2c3e05" x="161.519762" y="289.19434" style="fill: #1f77b4; stroke: #1f77b4"/>
     <use xlink:href="#mc97b2c3e05" x="166.496224" y="277.236402" style="fill: #1f77b4; stroke: #1f77b4"/>
     <use xlink:href="#mc97b2c3e05" x="171.497669" y="274.45728" style="fill: #1f77b4; stroke: #1f77b4"/>
     <use xlink:href="#mc97b2c3e05" x="176.464138" y="284.6592" style="fill: #1f77b4; stroke: #1f77b4"/>
     <use xlink:href="#mc97b2c3e05" x="181.575505" y="272.078602" style="fill: #1f77b4; stroke: #1f77b4"/>
     <use xlink:href="#mc97b2c3e05" x="186.546971" y="279.948237" style="fill: #1f77b4; stroke: #1f77b4"/>
     <use xlink:href="#mc97b2c3e05" x="191.518437" y="282.329803" style="fill: #1f77b4; stroke: #1f77b4"/>
     <use xlink:href="#mc97b2c3e05" x="196.524878" y="280.301431" style="fill: #1f77b4; stroke: #1f77b4"/>
     <use xlink:href="#mc97b2c3e05" x="201.496344" y="284.685127" style="fill: #1f77b4; stroke: #1f77b4"/>
     <use xlink:href="#mc97b2c3e05" x="206.462813" y="285.2727" style="fill: #1f77b4; stroke: #1f77b4"/>
     <use xlink:href="#mc97b2c3e05" x="212.928217" y="322.328322" style="fill: #1f77b4; stroke: #1f77b4"/>
     <use xlink:href="#mc97b2c3e05" x="217.899683" y="293.268187" style="fill: #1f77b4; stroke: #1f77b4"/>
     <use xlink:href="#mc97b2c3e05" x="222.871149" y="305.394032" style="fill: #1f77b4; stroke: #1f77b4"/>
     <use xlink:href="#mc97b2c3e05" x="227.847611" y="284.921937" style="fill: #1f77b4; stroke: #1f77b4"/>
     <use xlink:href="#mc97b2c3e05" x="232.814081" y="310.846017" style="fill: #1f77b4; stroke: #1f77b4"/>
     <use xlink:href="#mc97b2c3e05" x="237.790543" y="310.348283" style="fill: #1f77b4; stroke: #1f77b4"/>
     <use xlink:href="#mc97b2c3e05" x="242.762009" y="311.231696" style="fill: #1f77b4; stroke: #1f77b4"/>
     <use xlink:href="#mc97b2c3e05" x="247.733475" y="315.265073" style="fill: #1f77b4; stroke: #1f77b4"/>
     <use xlink:href="#mc97b2c3e05" x="252.709937" y="316.133313" style="fill: #1f77b4; stroke: #1f77b4"/>
     <use xlink:href="#mc97b2c3e05" x="257.6864" y="314.171745" style="fill: #1f77b4; stroke: #1f77b4"/>
     <use xlink:href="#mc97b2c3e05" x="264.106836" y="328.498662" style="fill: #1f77b4; stroke: #1f77b4"/>
     <use xlink:href="#mc97b2c3e05" x="269.083298" y="308.847513" style="fill: #1f77b4; stroke: #1f77b4"/>
     <use xlink:href="#mc97b2c3e05" x="274.054764" y="319.449017" style="fill: #1f77b4; stroke: #1f77b4"/>
     <use xlink:href="#mc97b2c3e05" x="279.02623" y="323.52034" style="fill: #1f77b4; stroke: #1f77b4"/>
     <use xlink:href="#mc97b2c3e05" x="283.997696" y="313.600066" style="fill: #1f77b4; stroke: #1f77b4"/>
     <use xlink:href="#mc97b2c3e05" x="288.964165" y="323.642233" style="fill: #1f77b4; stroke: #1f77b4"/>
     <use xlink:href="#mc97b2c3e05" x="293.935631" y="315.466246" style="fill: #1f77b4; stroke: #1f77b4"/>
     <use xlink:href="#mc97b2c3e05" x="298.907097" y="330.117329" style="fill: #1f77b4; stroke: #1f77b4"/>
     <use xlink:href="#mc97b2c3e05" x="303.88356" y="315.45482" style="fill: #1f77b4; stroke: #1f77b4"/>
     <use xlink:href="#mc97b2c3e05" x="308.850029" y="317.732082" style="fill: #1f77b4; stroke: #1f77b4"/>
     <use xlink:href="#mc97b2c3e05" x="315.270465" y="336.422923" style="fill: #1f77b4; stroke: #1f77b4"/>
     <use xlink:href="#mc97b2c3e05" x="320.241931" y="324.868903" style="fill: #1f77b4; stroke: #1f77b4"/>
     <use xlink:href="#mc97b2c3e05" x="325.218393" y="325.550432" style="fill: #1f77b4; stroke: #1f77b4"/>
     <use xlink:href="#mc97b2c3e05" x="330.184863" y="327.090621" style="fill: #1f77b4; stroke: #1f77b4"/>
     <use xlink:href="#mc97b2c3e05" x="335.151332" y="326.741537" style="fill: #1f77b4; stroke: #1f77b4"/>
     <use xlink:href="#mc97b2c3e05" x="340.127794" y="324.432367" style="fill: #1f77b4; stroke: #1f77b4"/>
     <use xlink:href="#mc97b2c3e05" x="345.104257" y="326.939257" style="fill: #1f77b4; stroke: #1f77b4"/>
     <use xlink:href="#mc97b2c3e05" x="350.095709" y="329.641316" style="fill: #1f77b4; stroke: #1f77b4"/>
     <use xlink:href="#mc97b2c3e05" x="355.067174" y="325.387812" style="fill: #1f77b4; stroke: #1f77b4"/>
     <use xlink:href="#mc97b2c3e05" x="360.043637" y="326.625307" style="fill: #1f77b4; stroke: #1f77b4"/>
     <use xlink:href="#mc97b2c3e05" x="366.459076" y="338.541346" style="fill: #1f77b4; stroke: #1f77b4"/>
     <use xlink:href="#mc97b2c3e05" x="371.440535" y="331.331235" style="fill: #1f77b4; stroke: #1f77b4"/>
     <use xlink:href="#mc97b2c3e05" x="376.412001" y="324.733007" style="fill: #1f77b4; stroke: #1f77b4"/>
     <use xlink:href="#mc97b2c3e05" x="381.388463" y="334.808672" style="fill: #1f77b4; stroke: #1f77b4"/>
     <use xlink:href="#mc97b2c3e05" x="386.419887" y="335.632703" style="fill: #1f77b4; stroke: #1f77b4"/>
     <use xlink:href="#mc97b2c3e05" x="391.396349" y="333.731087" style="fill: #1f77b4; stroke: #1f77b4"/>
     <use xlink:href="#mc97b2c3e05" x="396.367815" y="336.666816" style="fill: #1f77b4; stroke: #1f77b4"/>
     <use xlink:href="#mc97b2c3e05" x="401.339281" y="338.062054" style="fill: #1f77b4; stroke: #1f77b4"/>
     <use xlink:href="#mc97b2c3e05" x="406.315743" y="336.021721" style="fill: #1f77b4; stroke: #1f77b4"/>
     <use xlink:href="#mc97b2c3e05" x="411.292206" y="336.127422" style="fill: #1f77b4; stroke: #1f77b4"/>
     <use xlink:href="#mc97b2c3e05" x="417.707645" y="344.585826" style="fill: #1f77b4; stroke: #1f77b4"/>
     <use xlink:href="#mc97b2c3e05" x="422.689104" y="330.590038" style="fill: #1f77b4; stroke: #1f77b4"/>
     <use xlink:href="#mc97b2c3e05" x="427.66057" y="335.381945" style="fill: #1f77b4; stroke: #1f77b4"/>
     <use xlink:href="#mc97b2c3e05" x="432.637032" y="331.651279" style="fill: #1f77b4; stroke: #1f77b4"/>
     <use xlink:href="#mc97b2c3e05" x="437.608498" y="343.418505" style="fill: #1f77b4; stroke: #1f77b4"/>
     <use xlink:href="#mc97b2c3e05" x="442.579964" y="331.139217" style="fill: #1f77b4; stroke: #1f77b4"/>
     <use xlink:href="#mc97b2c3e05" x="447.556426" y="331.080077" style="fill: #1f77b4; stroke: #1f77b4"/>
     <use xlink:href="#mc97b2c3e05" x="452.527892" y="331.481251" style="fill: #1f77b4; stroke: #1f77b4"/>
     <use xlink:href="#mc97b2c3e05" x="457.514348" y="331.237566" style="fill: #1f77b4; stroke: #1f77b4"/>
     <use xlink:href="#mc97b2c3e05" x="462.485814" y="334.866826" style="fill: #1f77b4; stroke: #1f77b4"/>
     <use xlink:href="#mc97b2c3e05" x="468.901253" y="343.467528" style="fill: #1f77b4; stroke: #1f77b4"/>
     <use xlink:href="#mc97b2c3e05" x="473.877715" y="336.39524" style="fill: #1f77b4; stroke: #1f77b4"/>
     <use xlink:href="#mc97b2c3e05" x="478.859174" y="335.374929" style="fill: #1f77b4; stroke: #1f77b4"/>
     <use xlink:href="#mc97b2c3e05" x="483.835637" y="338.344014" style="fill: #1f77b4; stroke: #1f77b4"/>
     <use xlink:href="#mc97b2c3e05" x="488.812099" y="337.760099" style="fill: #1f77b4; stroke: #1f77b4"/>
     <use xlink:href="#mc97b2c3e05" x="493.848519" y="336.159279" style="fill: #1f77b4; stroke: #1f77b4"/>
     <use xlink:href="#mc97b2c3e05" x="498.824981" y="336.43305" style="fill: #1f77b4; stroke: #1f77b4"/>
     <use xlink:href="#mc97b2c3e05" x="503.80644" y="340.442836" style="fill: #1f77b4; stroke: #1f77b4"/>
     <use xlink:href="#mc97b2c3e05" x="508.777906" y="337.930412" style="fill: #1f77b4; stroke: #1f77b4"/>
     <use xlink:href="#mc97b2c3e05" x="513.759365" y="337.443512" style="fill: #1f77b4; stroke: #1f77b4"/>
     <use xlink:href="#mc97b2c3e05" x="520.229765" y="350.626146" style="fill: #1f77b4; stroke: #1f77b4"/>
     <use xlink:href="#mc97b2c3e05" x="525.21622" y="340.46472" style="fill: #1f77b4; stroke: #1f77b4"/>
     <use xlink:href="#mc97b2c3e05" x="530.187686" y="344.240777" style="fill: #1f77b4; stroke: #1f77b4"/>
     <use xlink:href="#mc97b2c3e05" x="535.164149" y="345.180476" style="fill: #1f77b4; stroke: #1f77b4"/>
     <use xlink:href="#mc97b2c3e05" x="540.1556" y="344.171144" style="fill: #1f77b4; stroke: #1f77b4"/>
     <use xlink:href="#mc97b2c3e05" x="545.127066" y="344.052381" style="fill: #1f77b4; stroke: #1f77b4"/>
     <use xlink:href="#mc97b2c3e05" x="550.108525" y="344.064777" style="fill: #1f77b4; stroke: #1f77b4"/>
     <use xlink:href="#mc97b2c3e05" x="555.09498" y="344.411942" style="fill: #1f77b4; stroke: #1f77b4"/>
     <use xlink:href="#mc97b2c3e05" x="560.071443" y="344.458379" style="fill: #1f77b4; stroke: #1f77b4"/>
     <use xlink:href="#mc97b2c3e05" x="565.052901" y="345.536477" style="fill: #1f77b4; stroke: #1f77b4"/>
     <use xlink:href="#mc97b2c3e05" x="571.478334" y="350.799077" style="fill: #1f77b4; stroke: #1f77b4"/>
     <use xlink:href="#mc97b2c3e05" x="576.454796" y="346.837996" style="fill: #1f77b4; stroke: #1f77b4"/>
     <use xlink:href="#mc97b2c3e05" x="581.431259" y="347.294651" style="fill: #1f77b4; stroke: #1f77b4"/>
     <use xlink:href="#mc97b2c3e05" x="586.407721" y="346.445369" style="fill: #1f77b4; stroke: #1f77b4"/>
     <use xlink:href="#mc97b2c3e05" x="591.38918" y="346.587467" style="fill: #1f77b4; stroke: #1f77b4"/>
     <use xlink:href="#mc97b2c3e05" x="596.365642" y="348.306569" style="fill: #1f77b4; stroke: #1f77b4"/>
     <use xlink:href="#mc97b2c3e05" x="601.347101" y="345.432013" style="fill: #1f77b4; stroke: #1f77b4"/>
     <use xlink:href="#mc97b2c3e05" x="606.323563" y="347.921873" style="fill: #1f77b4; stroke: #1f77b4"/>
     <use xlink:href="#mc97b2c3e05" x="611.305022" y="347.317988" style="fill: #1f77b4; stroke: #1f77b4"/>
     <use xlink:href="#mc97b2c3e05" x="616.281485" y="348.244195" style="fill: #1f77b4; stroke: #1f77b4"/>
     <use xlink:href="#mc97b2c3e05" x="622.711913" y="351.224153" style="fill: #1f77b4; stroke: #1f77b4"/>
     <use xlink:href="#mc97b2c3e05" x="627.693372" y="348.548206" style="fill: #1f77b4; stroke: #1f77b4"/>
     <use xlink:href="#mc97b2c3e05" x="632.669834" y="349.939907" style="fill: #1f77b4; stroke: #1f77b4"/>
     <use xlink:href="#mc97b2c3e05" x="637.651293" y="350.159905" style="fill: #1f77b4; stroke: #1f77b4"/>
     <use xlink:href="#mc97b2c3e05" x="642.632752" y="347.198166" style="fill: #1f77b4; stroke: #1f77b4"/>
     <use xlink:href="#mc97b2c3e05" x="647.624204" y="346.427965" style="fill: #1f77b4; stroke: #1f77b4"/>
     <use xlink:href="#mc97b2c3e05" x="652.600666" y="345.400407" style="fill: #1f77b4; stroke: #1f77b4"/>
     <use xlink:href="#mc97b2c3e05" x="657.577129" y="347.396118" style="fill: #1f77b4; stroke: #1f77b4"/>
     <use xlink:href="#mc97b2c3e05" x="662.553591" y="348.473724" style="fill: #1f77b4; stroke: #1f77b4"/>
     <use xlink:href="#mc97b2c3e05" x="667.530053" y="349.094411" style="fill: #1f77b4; stroke: #1f77b4"/>
     <use xlink:href="#mc97b2c3e05" x="673.965479" y="353.394" style="fill: #1f77b4; stroke: #1f77b4"/>
     <use xlink:href="#mc97b2c3e05" x="678.941941" y="350.472809" style="fill: #1f77b4; stroke: #1f77b4"/>
     <use xlink:href="#mc97b2c3e05" x="683.913407" y="350.733562" style="fill: #1f77b4; stroke: #1f77b4"/>
     <use xlink:href="#mc97b2c3e05" x="688.894866" y="352.08582" style="fill: #1f77b4; stroke: #1f77b4"/>
     <use xlink:href="#mc97b2c3e05" x="693.866332" y="350.720416" style="fill: #1f77b4; stroke: #1f77b4"/>
     <use xlink:href="#mc97b2c3e05" x="698.84779" y="350.248637" style="fill: #1f77b4; stroke: #1f77b4"/>
     <use xlink:href="#mc97b2c3e05" x="703.824253" y="352.369569" style="fill: #1f77b4; stroke: #1f77b4"/>
     <use xlink:href="#mc97b2c3e05" x="708.805712" y="352.082347" style="fill: #1f77b4; stroke: #1f77b4"/>
     <use xlink:href="#mc97b2c3e05" x="713.782174" y="349.505178" style="fill: #1f77b4; stroke: #1f77b4"/>
     <use xlink:href="#mc97b2c3e05" x="718.758636" y="351.204234" style="fill: #1f77b4; stroke: #1f77b4"/>
    </g>
   </g>
   <g id="line2d_15">
    <path d="M 550.108525 368.514
L 550.108525 35.874
" clip-path="url(#p0cd1e41952)" style="fill: none; stroke-dasharray: 5.55,2.4; stroke-dashoffset: 0; stroke: #ff0000; stroke-width: 1.5"/>
   </g>
   <g id="patch_3">
    <path d="M 79.595 368.514
L 79.595 35.874
" style="fill: none; stroke: #000000; stroke-width: 3; stroke-linejoin: miter; stroke-linecap: square"/>
   </g>
   <g id="patch_4">
    <path d="M 749.195 368.514
L 749.195 35.874
" style="fill: none; stroke: #000000; stroke-width: 3; stroke-linejoin: miter; stroke-linecap: square"/>
   </g>
   <g id="patch_5">
    <path d="M 79.595 368.514
L 749.195 368.514
" style="fill: none; stroke: #000000; stroke-width: 3; stroke-linejoin: miter; stroke-linecap: square"/>
   </g>
   <g id="patch_6">
    <path d="M 79.595 35.874
L 749.195 35.874
" style="fill: none; stroke: #000000; stroke-width: 3; stroke-linejoin: miter; stroke-linecap: square"/>
   </g>
   <g id="text_15">
    <!-- Jaccard index for imine_monitoring_v5 -->
    <g transform="translate(138.2165 29.0835) scale(0.288 -0.288)">
     <defs>
      <path id="DejaVuSans-66" d="M 2375 4863
L 2375 4384
L 1825 4384
Q 1516 4384 1395 4259
Q 1275 4134 1275 3809
L 1275 3500
L 2222 3500
L 2222 3053
L 1275 3053
L 1275 0
L 697 0
L 697 3053
L 147 3053
L 147 3500
L 697 3500
L 697 3744
Q 697 4328 969 4595
Q 1241 4863 1831 4863
L 2375 4863
z
" transform="scale(0.015625)"/>
      <path id="DejaVuSans-6f" d="M 1959 3097
Q 1497 3097 1228 2736
Q 959 2375 959 1747
Q 959 1119 1226 758
Q 1494 397 1959 397
Q 2419 397 2687 759
Q 2956 1122 2956 1747
Q 2956 2369 2687 2733
Q 2419 3097 1959 3097
z
M 1959 3584
Q 2709 3584 3137 3096
Q 3566 2609 3566 1747
Q 3566 888 3137 398
Q 2709 -91 1959 -91
Q 1206 -91 779 398
Q 353 888 353 1747
Q 353 2609 779 3096
Q 1206 3584 1959 3584
z
" transform="scale(0.015625)"/>
      <path id="DejaVuSans-5f" d="M 3263 -1063
L 3263 -1509
L -63 -1509
L -63 -1063
L 3263 -1063
z
" transform="scale(0.015625)"/>
      <path id="DejaVuSans-74" d="M 1172 4494
L 1172 3500
L 2356 3500
L 2356 3053
L 1172 3053
L 1172 1153
Q 1172 725 1289 603
Q 1406 481 1766 481
L 2356 481
L 2356 0
L 1766 0
Q 1100 0 847 248
Q 594 497 594 1153
L 594 3053
L 172 3053
L 172 3500
L 594 3500
L 594 4494
L 1172 4494
z
" transform="scale(0.015625)"/>
      <path id="DejaVuSans-67" d="M 2906 1791
Q 2906 2416 2648 2759
Q 2391 3103 1925 3103
Q 1463 3103 1205 2759
Q 947 2416 947 1791
Q 947 1169 1205 825
Q 1463 481 1925 481
Q 2391 481 2648 825
Q 2906 1169 2906 1791
z
M 3481 434
Q 3481 -459 3084 -895
Q 2688 -1331 1869 -1331
Q 1566 -1331 1297 -1286
Q 1028 -1241 775 -1147
L 775 -588
Q 1028 -725 1275 -790
Q 1522 -856 1778 -856
Q 2344 -856 2625 -561
Q 2906 -266 2906 331
L 2906 616
Q 2728 306 2450 153
Q 2172 0 1784 0
Q 1141 0 747 490
Q 353 981 353 1791
Q 353 2603 747 3093
Q 1141 3584 1784 3584
Q 2172 3584 2450 3431
Q 2728 3278 2906 2969
L 2906 3500
L 3481 3500
L 3481 434
z
" transform="scale(0.015625)"/>
      <path id="DejaVuSans-76" d="M 191 3500
L 800 3500
L 1894 563
L 2988 3500
L 3597 3500
L 2284 0
L 1503 0
L 191 3500
z
" transform="scale(0.015625)"/>
     </defs>
     <use xlink:href="#DejaVuSans-4a"/>
     <use xlink:href="#DejaVuSans-61" transform="translate(29.492188 0)"/>
     <use xlink:href="#DejaVuSans-63" transform="translate(90.771484 0)"/>
     <use xlink:href="#DejaVuSans-63" transform="translate(145.751953 0)"/>
     <use xlink:href="#DejaVuSans-61" transform="translate(200.732422 0)"/>
     <use xlink:href="#DejaVuSans-72" transform="translate(262.011719 0)"/>
     <use xlink:href="#DejaVuSans-64" transform="translate(301.375 0)"/>
     <use xlink:href="#DejaVuSans-20" transform="translate(364.851562 0)"/>
     <use xlink:href="#DejaVuSans-69" transform="translate(396.638672 0)"/>
     <use xlink:href="#DejaVuSans-6e" transform="translate(424.421875 0)"/>
     <use xlink:href="#DejaVuSans-64" transform="translate(487.800781 0)"/>
     <use xlink:href="#DejaVuSans-65" transform="translate(551.277344 0)"/>
     <use xlink:href="#DejaVuSans-78" transform="translate(611.050781 0)"/>
     <use xlink:href="#DejaVuSans-20" transform="translate(670.230469 0)"/>
     <use xlink:href="#DejaVuSans-66" transform="translate(702.017578 0)"/>
     <use xlink:href="#DejaVuSans-6f" transform="translate(737.222656 0)"/>
     <use xlink:href="#DejaVuSans-72" transform="translate(798.404297 0)"/>
     <use xlink:href="#DejaVuSans-20" transform="translate(839.517578 0)"/>
     <use xlink:href="#DejaVuSans-69" transform="translate(871.304688 0)"/>
     <use xlink:href="#DejaVuSans-6d" transform="translate(899.087891 0)"/>
     <use xlink:href="#DejaVuSans-69" transform="translate(996.5 0)"/>
     <use xlink:href="#DejaVuSans-6e" transform="translate(1024.283203 0)"/>
     <use xlink:href="#DejaVuSans-65" transform="translate(1087.662109 0)"/>
     <use xlink:href="#DejaVuSans-5f" transform="translate(1149.185547 0)"/>
     <use xlink:href="#DejaVuSans-6d" transform="translate(1199.185547 0)"/>
     <use xlink:href="#DejaVuSans-6f" transform="translate(1296.597656 0)"/>
     <use xlink:href="#DejaVuSans-6e" transform="translate(1357.779297 0)"/>
     <use xlink:href="#DejaVuSans-69" transform="translate(1421.158203 0)"/>
     <use xlink:href="#DejaVuSans-74" transform="translate(1448.941406 0)"/>
     <use xlink:href="#DejaVuSans-6f" transform="translate(1488.150391 0)"/>
     <use xlink:href="#DejaVuSans-72" transform="translate(1549.332031 0)"/>
     <use xlink:href="#DejaVuSans-69" transform="translate(1590.445312 0)"/>
     <use xlink:href="#DejaVuSans-6e" transform="translate(1618.228516 0)"/>
     <use xlink:href="#DejaVuSans-67" transform="translate(1681.607422 0)"/>
     <use xlink:href="#DejaVuSans-5f" transform="translate(1745.083984 0)"/>
     <use xlink:href="#DejaVuSans-76" transform="translate(1795.083984 0)"/>
     <use xlink:href="#DejaVuSans-35" transform="translate(1854.263672 0)"/>
    </g>
   </g>
   <g id="legend_1">
    <g id="patch_7">
     <path d="M 176.47625 125.529
L 732.395 125.529
Q 737.195 125.529 737.195 120.729
L 737.195 52.674
Q 737.195 47.874 732.395 47.874
L 176.47625 47.874
Q 171.67625 47.874 171.67625 52.674
L 171.67625 120.729
Q 171.67625 125.529 176.47625 125.529
z
" style="fill: #ffffff; opacity: 0.8; stroke: #cccccc; stroke-linejoin: miter"/>
    </g>
    <g id="line2d_16">
     <path d="M 181.27625 67.31025
L 205.27625 67.31025
L 229.27625 67.31025
" style="fill: none; stroke: #ff0000; stroke-width: 1.5; stroke-linecap: square"/>
    </g>
    <g id="text_16">
     <!-- fit 1st: a=0.603, b=8.408e-05, c=0.460 -->
     <g transform="translate(248.47625 75.71025) scale(0.24 -0.24)">
      <defs>
       <path id="DejaVuSans-73" d="M 2834 3397
L 2834 2853
Q 2591 2978 2328 3040
Q 2066 3103 1784 3103
Q 1356 3103 1142 2972
Q 928 2841 928 2578
Q 928 2378 1081 2264
Q 1234 2150 1697 2047
L 1894 2003
Q 2506 1872 2764 1633
Q 3022 1394 3022 966
Q 3022 478 2636 193
Q 2250 -91 1575 -91
Q 1294 -91 989 -36
Q 684 19 347 128
L 347 722
Q 666 556 975 473
Q 1284 391 1588 391
Q 1994 391 2212 530
Q 2431 669 2431 922
Q 2431 1156 2273 1281
Q 2116 1406 1581 1522
L 1381 1569
Q 847 1681 609 1914
Q 372 2147 372 2553
Q 372 3047 722 3315
Q 1072 3584 1716 3584
Q 2034 3584 2315 3537
Q 2597 3491 2834 3397
z
" transform="scale(0.015625)"/>
       <path id="DejaVuSans-3a" d="M 750 794
L 1409 794
L 1409 0
L 750 0
L 750 794
z
M 750 3309
L 1409 3309
L 1409 2516
L 750 2516
L 750 3309
z
" transform="scale(0.015625)"/>
       <path id="DejaVuSans-3d" d="M 678 2906
L 4684 2906
L 4684 2381
L 678 2381
L 678 2906
z
M 678 1631
L 4684 1631
L 4684 1100
L 678 1100
L 678 1631
z
" transform="scale(0.015625)"/>
       <path id="DejaVuSans-33" d="M 2597 2516
Q 3050 2419 3304 2112
Q 3559 1806 3559 1356
Q 3559 666 3084 287
Q 2609 -91 1734 -91
Q 1441 -91 1130 -33
Q 819 25 488 141
L 488 750
Q 750 597 1062 519
Q 1375 441 1716 441
Q 2309 441 2620 675
Q 2931 909 2931 1356
Q 2931 1769 2642 2001
Q 2353 2234 1838 2234
L 1294 2234
L 1294 2753
L 1863 2753
Q 2328 2753 2575 2939
Q 2822 3125 2822 3475
Q 2822 3834 2567 4026
Q 2313 4219 1838 4219
Q 1578 4219 1281 4162
Q 984 4106 628 3988
L 628 4550
Q 988 4650 1302 4700
Q 1616 4750 1894 4750
Q 2613 4750 3031 4423
Q 3450 4097 3450 3541
Q 3450 3153 3228 2886
Q 3006 2619 2597 2516
z
" transform="scale(0.015625)"/>
       <path id="DejaVuSans-2c" d="M 750 794
L 1409 794
L 1409 256
L 897 -744
L 494 -744
L 750 256
L 750 794
z
" transform="scale(0.015625)"/>
       <path id="DejaVuSans-62" d="M 3116 1747
Q 3116 2381 2855 2742
Q 2594 3103 2138 3103
Q 1681 3103 1420 2742
Q 1159 2381 1159 1747
Q 1159 1113 1420 752
Q 1681 391 2138 391
Q 2594 391 2855 752
Q 3116 1113 3116 1747
z
M 1159 2969
Q 1341 3281 1617 3432
Q 1894 3584 2278 3584
Q 2916 3584 3314 3078
Q 3713 2572 3713 1747
Q 3713 922 3314 415
Q 2916 -91 2278 -91
Q 1894 -91 1617 61
Q 1341 213 1159 525
L 1159 0
L 581 0
L 581 4863
L 1159 4863
L 1159 2969
z
" transform="scale(0.015625)"/>
       <path id="DejaVuSans-34" d="M 2419 4116
L 825 1625
L 2419 1625
L 2419 4116
z
M 2253 4666
L 3047 4666
L 3047 1625
L 3713 1625
L 3713 1100
L 3047 1100
L 3047 0
L 2419 0
L 2419 1100
L 313 1100
L 313 1709
L 2253 4666
z
" transform="scale(0.015625)"/>
       <path id="DejaVuSans-2d" d="M 313 2009
L 1997 2009
L 1997 1497
L 313 1497
L 313 2009
z
" transform="scale(0.015625)"/>
      </defs>
      <use xlink:href="#DejaVuSans-66"/>
      <use xlink:href="#DejaVuSans-69" transform="translate(35.205078 0)"/>
      <use xlink:href="#DejaVuSans-74" transform="translate(62.988281 0)"/>
      <use xlink:href="#DejaVuSans-20" transform="translate(102.197266 0)"/>
      <use xlink:href="#DejaVuSans-31" transform="translate(133.984375 0)"/>
      <use xlink:href="#DejaVuSans-73" transform="translate(197.607422 0)"/>
      <use xlink:href="#DejaVuSans-74" transform="translate(249.707031 0)"/>
      <use xlink:href="#DejaVuSans-3a" transform="translate(288.916016 0)"/>
      <use xlink:href="#DejaVuSans-20" transform="translate(322.607422 0)"/>
      <use xlink:href="#DejaVuSans-61" transform="translate(354.394531 0)"/>
      <use xlink:href="#DejaVuSans-3d" transform="translate(415.673828 0)"/>
      <use xlink:href="#DejaVuSans-30" transform="translate(499.462891 0)"/>
      <use xlink:href="#DejaVuSans-2e" transform="translate(563.085938 0)"/>
      <use xlink:href="#DejaVuSans-36" transform="translate(594.873047 0)"/>
      <use xlink:href="#DejaVuSans-30" transform="translate(658.496094 0)"/>
      <use xlink:href="#DejaVuSans-33" transform="translate(722.119141 0)"/>
      <use xlink:href="#DejaVuSans-2c" transform="translate(785.742188 0)"/>
      <use xlink:href="#DejaVuSans-20" transform="translate(817.529297 0)"/>
      <use xlink:href="#DejaVuSans-62" transform="translate(849.316406 0)"/>
      <use xlink:href="#DejaVuSans-3d" transform="translate(912.792969 0)"/>
      <use xlink:href="#DejaVuSans-38" transform="translate(996.582031 0)"/>
      <use xlink:href="#DejaVuSans-2e" transform="translate(1060.205078 0)"/>
      <use xlink:href="#DejaVuSans-34" transform="translate(1091.992188 0)"/>
      <use xlink:href="#DejaVuSans-30" transform="translate(1155.615234 0)"/>
      <use xlink:href="#DejaVuSans-38" transform="translate(1219.238281 0)"/>
      <use xlink:href="#DejaVuSans-65" transform="translate(1282.861328 0)"/>
      <use xlink:href="#DejaVuSans-2d" transform="translate(1344.384766 0)"/>
      <use xlink:href="#DejaVuSans-30" transform="translate(1380.46875 0)"/>
      <use xlink:href="#DejaVuSans-35" transform="translate(1444.091797 0)"/>
      <use xlink:href="#DejaVuSans-2c" transform="translate(1507.714844 0)"/>
      <use xlink:href="#DejaVuSans-20" transform="translate(1539.501953 0)"/>
      <use xlink:href="#DejaVuSans-63" transform="translate(1571.289062 0)"/>
      <use xlink:href="#DejaVuSans-3d" transform="translate(1626.269531 0)"/>
      <use xlink:href="#DejaVuSans-30" transform="translate(1710.058594 0)"/>
      <use xlink:href="#DejaVuSans-2e" transform="translate(1773.681641 0)"/>
      <use xlink:href="#DejaVuSans-34" transform="translate(1805.46875 0)"/>
      <use xlink:href="#DejaVuSans-36" transform="translate(1869.091797 0)"/>
      <use xlink:href="#DejaVuSans-30" transform="translate(1932.714844 0)"/>
     </g>
    </g>
    <g id="line2d_17">
     <path d="M 181.27625 102.53775
L 205.27625 102.53775
L 229.27625 102.53775
" style="fill: none; stroke-dasharray: 5.55,2.4; stroke-dashoffset: 0; stroke: #ff0000; stroke-width: 1.5"/>
    </g>
    <g id="text_17">
     <!-- Plateau after 1 day, 0:27:58 -->
     <g transform="translate(248.47625 110.93775) scale(0.24 -0.24)">
      <defs>
       <path id="DejaVuSans-50" d="M 1259 4147
L 1259 2394
L 2053 2394
Q 2494 2394 2734 2622
Q 2975 2850 2975 3272
Q 2975 3691 2734 3919
Q 2494 4147 2053 4147
L 1259 4147
z
M 628 4666
L 2053 4666
Q 2838 4666 3239 4311
Q 3641 3956 3641 3272
Q 3641 2581 3239 2228
Q 2838 1875 2053 1875
L 1259 1875
L 1259 0
L 628 0
L 628 4666
z
" transform="scale(0.015625)"/>
       <path id="DejaVuSans-6c" d="M 603 4863
L 1178 4863
L 1178 0
L 603 0
L 603 4863
z
" transform="scale(0.015625)"/>
       <path id="DejaVuSans-75" d="M 544 1381
L 544 3500
L 1119 3500
L 1119 1403
Q 1119 906 1312 657
Q 1506 409 1894 409
Q 2359 409 2629 706
Q 2900 1003 2900 1516
L 2900 3500
L 3475 3500
L 3475 0
L 2900 0
L 2900 538
Q 2691 219 2414 64
Q 2138 -91 1772 -91
Q 1169 -91 856 284
Q 544 659 544 1381
z
M 1991 3584
L 1991 3584
z
" transform="scale(0.015625)"/>
       <path id="DejaVuSans-79" d="M 2059 -325
Q 1816 -950 1584 -1140
Q 1353 -1331 966 -1331
L 506 -1331
L 506 -850
L 844 -850
Q 1081 -850 1212 -737
Q 1344 -625 1503 -206
L 1606 56
L 191 3500
L 800 3500
L 1894 763
L 2988 3500
L 3597 3500
L 2059 -325
z
" transform="scale(0.015625)"/>
      </defs>
      <use xlink:href="#DejaVuSans-50"/>
      <use xlink:href="#DejaVuSans-6c" transform="translate(60.302734 0)"/>
      <use xlink:href="#DejaVuSans-61" transform="translate(88.085938 0)"/>
      <use xlink:href="#DejaVuSans-74" transform="translate(149.365234 0)"/>
      <use xlink:href="#DejaVuSans-65" transform="translate(188.574219 0)"/>
      <use xlink:href="#DejaVuSans-61" transform="translate(250.097656 0)"/>
      <use xlink:href="#DejaVuSans-75" transform="translate(311.376953 0)"/>
      <use xlink:href="#DejaVuSans-20" transform="translate(374.755859 0)"/>
      <use xlink:href="#DejaVuSans-61" transform="translate(406.542969 0)"/>
      <use xlink:href="#DejaVuSans-66" transform="translate(467.822266 0)"/>
      <use xlink:href="#DejaVuSans-74" transform="translate(501.277344 0)"/>
      <use xlink:href="#DejaVuSans-65" transform="translate(540.486328 0)"/>
      <use xlink:href="#DejaVuSans-72" transform="translate(602.009766 0)"/>
      <use xlink:href="#DejaVuSans-20" transform="translate(643.123047 0)"/>
      <use xlink:href="#DejaVuSans-31" transform="translate(674.910156 0)"/>
      <use xlink:href="#DejaVuSans-20" transform="translate(738.533203 0)"/>
      <use xlink:href="#DejaVuSans-64" transform="translate(770.320312 0)"/>
      <use xlink:href="#DejaVuSans-61" transform="translate(833.796875 0)"/>
      <use xlink:href="#DejaVuSans-79" transform="translate(895.076172 0)"/>
      <use xlink:href="#DejaVuSans-2c" transform="translate(954.255859 0)"/>
      <use xlink:href="#DejaVuSans-20" transform="translate(986.042969 0)"/>
      <use xlink:href="#DejaVuSans-30" transform="translate(1017.830078 0)"/>
      <use xlink:href="#DejaVuSans-3a" transform="translate(1081.453125 0)"/>
      <use xlink:href="#DejaVuSans-32" transform="translate(1115.144531 0)"/>
      <use xlink:href="#DejaVuSans-37" transform="translate(1178.767578 0)"/>
      <use xlink:href="#DejaVuSans-3a" transform="translate(1242.390625 0)"/>
      <use xlink:href="#DejaVuSans-35" transform="translate(1276.082031 0)"/>
      <use xlink:href="#DejaVuSans-38" transform="translate(1339.705078 0)"/>
     </g>
    </g>
   </g>
  </g>
 </g>
 <defs>
  <clipPath id="p0cd1e41952">
   <rect x="79.595" y="35.874" width="669.6" height="332.64"/>
  </clipPath>
 </defs>
</svg>
