<?xml version="1.0" encoding="utf-8" standalone="no"?>
<!DOCTYPE svg PUBLIC "-//W3C//DTD SVG 1.1//EN"
  "http://www.w3.org/Graphics/SVG/1.1/DTD/svg11.dtd">
<svg xmlns:xlink="http://www.w3.org/1999/xlink" width="776.81675pt" height="433.169pt" viewBox="0 0 776.81675 433.169" xmlns="http://www.w3.org/2000/svg" version="1.1">
 <metadata>
  <rdf:RDF xmlns:dc="http://purl.org/dc/elements/1.1/" xmlns:cc="http://creativecommons.org/ns#" xmlns:rdf="http://www.w3.org/1999/02/22-rdf-syntax-ns#">
   <cc:Work>
    <dc:type rdf:resource="http://purl.org/dc/dcmitype/StillImage"/>
    <dc:date>2025-11-02T13:50:47.503759</dc:date>
    <dc:format>image/svg+xml</dc:format>
    <dc:creator>
     <cc:Agent>
      <dc:title>Matplotlib v3.10.7, https://matplotlib.org/</dc:title>
     </cc:Agent>
    </dc:creator>
   </cc:Work>
  </rdf:RDF>
 </metadata>
 <defs>
  <style type="text/css">*{stroke-linejoin: round; stroke-linecap: butt}</style>
 </defs>
 <g id="figure_1">
  <g id="patch_1">
   <path d="M 0 433.169
L 776.81675 433.169
L 776.81675 0
L 0 0
L 0 433.169
z
" style="fill: none"/>
  </g>
  <g id="axes_1">
   <g id="patch_2">
    <path d="M 99.70625 368.514
L 769.30625 368.514
L 769.30625 35.874
L 99.70625 35.874
L 99.70625 368.514
z
" style="fill: none"/>
   </g>
   <g id="matplotlib.axis_1">
    <g id="xtick_1">
     <g id="line2d_1">
      <defs>
       <path id="m189851df1e" d="M 0 0
L 0 3.5
" style="stroke: #000000; stroke-width: 3"/>
      </defs>
      <g>
       <use xlink:href="#m189851df1e" x="120.02425" y="368.514" style="stroke: #000000; stroke-width: 3"/>
      </g>
     </g>
     <g id="text_1">
      <!-- 0 -->
      <g transform="translate(112.38925 393.75025) scale(0.24 -0.24)">
       <defs>
        <path id="DejaVuSans-30" d="M 2034 4250
Q 1547 4250 1301 3770
Q 1056 3291 1056 2328
Q 1056 1369 1301 889
Q 1547 409 2034 409
Q 2525 409 2770 889
Q 3016 1369 3016 2328
Q 3016 3291 2770 3770
Q 2525 4250 2034 4250
z
M 2034 4750
Q 2819 4750 3233 4129
Q 3647 3509 3647 2328
Q 3647 1150 3233 529
Q 2819 -91 2034 -91
Q 1250 -91 836 529
Q 422 1150 422 2328
Q 422 3509 836 4129
Q 1250 4750 2034 4750
z
" transform="scale(0.015625)"/>
       </defs>
       <use xlink:href="#DejaVuSans-30"/>
      </g>
     </g>
    </g>
    <g id="xtick_2">
     <g id="line2d_2">
      <g>
       <use xlink:href="#m189851df1e" x="196.216749" y="368.514" style="stroke: #000000; stroke-width: 3"/>
      </g>
     </g>
     <g id="text_2">
      <!-- 250 -->
      <g transform="translate(173.311749 393.75025) scale(0.24 -0.24)">
       <defs>
        <path id="DejaVuSans-32" d="M 1228 531
L 3431 531
L 3431 0
L 469 0
L 469 531
Q 828 903 1448 1529
Q 2069 2156 2228 2338
Q 2531 2678 2651 2914
Q 2772 3150 2772 3378
Q 2772 3750 2511 3984
Q 2250 4219 1831 4219
Q 1534 4219 1204 4116
Q 875 4013 500 3803
L 500 4441
Q 881 4594 1212 4672
Q 1544 4750 1819 4750
Q 2544 4750 2975 4387
Q 3406 4025 3406 3419
Q 3406 3131 3298 2873
Q 3191 2616 2906 2266
Q 2828 2175 2409 1742
Q 1991 1309 1228 531
z
" transform="scale(0.015625)"/>
        <path id="DejaVuSans-35" d="M 691 4666
L 3169 4666
L 3169 4134
L 1269 4134
L 1269 2991
Q 1406 3038 1543 3061
Q 1681 3084 1819 3084
Q 2600 3084 3056 2656
Q 3513 2228 3513 1497
Q 3513 744 3044 326
Q 2575 -91 1722 -91
Q 1428 -91 1123 -41
Q 819 9 494 109
L 494 744
Q 775 591 1075 516
Q 1375 441 1709 441
Q 2250 441 2565 725
Q 2881 1009 2881 1497
Q 2881 1984 2565 2268
Q 2250 2553 1709 2553
Q 1456 2553 1204 2497
Q 953 2441 691 2322
L 691 4666
z
" transform="scale(0.015625)"/>
       </defs>
       <use xlink:href="#DejaVuSans-32"/>
       <use xlink:href="#DejaVuSans-35" transform="translate(63.623047 0)"/>
       <use xlink:href="#DejaVuSans-30" transform="translate(127.246094 0)"/>
      </g>
     </g>
    </g>
    <g id="xtick_3">
     <g id="line2d_3">
      <g>
       <use xlink:href="#m189851df1e" x="272.409248" y="368.514" style="stroke: #000000; stroke-width: 3"/>
      </g>
     </g>
     <g id="text_3">
      <!-- 500 -->
      <g transform="translate(249.504248 393.75025) scale(0.24 -0.24)">
       <use xlink:href="#DejaVuSans-35"/>
       <use xlink:href="#DejaVuSans-30" transform="translate(63.623047 0)"/>
       <use xlink:href="#DejaVuSans-30" transform="translate(127.246094 0)"/>
      </g>
     </g>
    </g>
    <g id="xtick_4">
     <g id="line2d_4">
      <g>
       <use xlink:href="#m189851df1e" x="348.601747" y="368.514" style="stroke: #000000; stroke-width: 3"/>
      </g>
     </g>
     <g id="text_4">
      <!-- 750 -->
      <g transform="translate(325.696747 393.75025) scale(0.24 -0.24)">
       <defs>
        <path id="DejaVuSans-37" d="M 525 4666
L 3525 4666
L 3525 4397
L 1831 0
L 1172 0
L 2766 4134
L 525 4134
L 525 4666
z
" transform="scale(0.015625)"/>
       </defs>
       <use xlink:href="#DejaVuSans-37"/>
       <use xlink:href="#DejaVuSans-35" transform="translate(63.623047 0)"/>
       <use xlink:href="#DejaVuSans-30" transform="translate(127.246094 0)"/>
      </g>
     </g>
    </g>
    <g id="xtick_5">
     <g id="line2d_5">
      <g>
       <use xlink:href="#m189851df1e" x="424.794246" y="368.514" style="stroke: #000000; stroke-width: 3"/>
      </g>
     </g>
     <g id="text_5">
      <!-- 1000 -->
      <g transform="translate(394.254246 393.75025) scale(0.24 -0.24)">
       <defs>
        <path id="DejaVuSans-31" d="M 794 531
L 1825 531
L 1825 4091
L 703 3866
L 703 4441
L 1819 4666
L 2450 4666
L 2450 531
L 3481 531
L 3481 0
L 794 0
L 794 531
z
" transform="scale(0.015625)"/>
       </defs>
       <use xlink:href="#DejaVuSans-31"/>
       <use xlink:href="#DejaVuSans-30" transform="translate(63.623047 0)"/>
       <use xlink:href="#DejaVuSans-30" transform="translate(127.246094 0)"/>
       <use xlink:href="#DejaVuSans-30" transform="translate(190.869141 0)"/>
      </g>
     </g>
    </g>
    <g id="xtick_6">
     <g id="line2d_6">
      <g>
       <use xlink:href="#m189851df1e" x="500.986745" y="368.514" style="stroke: #000000; stroke-width: 3"/>
      </g>
     </g>
     <g id="text_6">
      <!-- 1250 -->
      <g transform="translate(470.446745 393.75025) scale(0.24 -0.24)">
       <use xlink:href="#DejaVuSans-31"/>
       <use xlink:href="#DejaVuSans-32" transform="translate(63.623047 0)"/>
       <use xlink:href="#DejaVuSans-35" transform="translate(127.246094 0)"/>
       <use xlink:href="#DejaVuSans-30" transform="translate(190.869141 0)"/>
      </g>
     </g>
    </g>
    <g id="xtick_7">
     <g id="line2d_7">
      <g>
       <use xlink:href="#m189851df1e" x="577.179244" y="368.514" style="stroke: #000000; stroke-width: 3"/>
      </g>
     </g>
     <g id="text_7">
      <!-- 1500 -->
      <g transform="translate(546.639244 393.75025) scale(0.24 -0.24)">
       <use xlink:href="#DejaVuSans-31"/>
       <use xlink:href="#DejaVuSans-35" transform="translate(63.623047 0)"/>
       <use xlink:href="#DejaVuSans-30" transform="translate(127.246094 0)"/>
       <use xlink:href="#DejaVuSans-30" transform="translate(190.869141 0)"/>
      </g>
     </g>
    </g>
    <g id="xtick_8">
     <g id="line2d_8">
      <g>
       <use xlink:href="#m189851df1e" x="653.371743" y="368.514" style="stroke: #000000; stroke-width: 3"/>
      </g>
     </g>
     <g id="text_8">
      <!-- 1750 -->
      <g transform="translate(622.831743 393.75025) scale(0.24 -0.24)">
       <use xlink:href="#DejaVuSans-31"/>
       <use xlink:href="#DejaVuSans-37" transform="translate(63.623047 0)"/>
       <use xlink:href="#DejaVuSans-35" transform="translate(127.246094 0)"/>
       <use xlink:href="#DejaVuSans-30" transform="translate(190.869141 0)"/>
      </g>
     </g>
    </g>
    <g id="xtick_9">
     <g id="line2d_9">
      <g>
       <use xlink:href="#m189851df1e" x="729.564242" y="368.514" style="stroke: #000000; stroke-width: 3"/>
      </g>
     </g>
     <g id="text_9">
      <!-- 2000 -->
      <g transform="translate(699.024242 393.75025) scale(0.24 -0.24)">
       <use xlink:href="#DejaVuSans-32"/>
       <use xlink:href="#DejaVuSans-30" transform="translate(63.623047 0)"/>
       <use xlink:href="#DejaVuSans-30" transform="translate(127.246094 0)"/>
       <use xlink:href="#DejaVuSans-30" transform="translate(190.869141 0)"/>
      </g>
     </g>
    </g>
    <g id="text_10">
     <!-- Time / min -->
     <g transform="translate(370.848125 420.97775) scale(0.24 -0.24)">
      <defs>
       <path id="DejaVuSans-54" d="M -19 4666
L 3928 4666
L 3928 4134
L 2272 4134
L 2272 0
L 1638 0
L 1638 4134
L -19 4134
L -19 4666
z
" transform="scale(0.015625)"/>
       <path id="DejaVuSans-69" d="M 603 3500
L 1178 3500
L 1178 0
L 603 0
L 603 3500
z
M 603 4863
L 1178 4863
L 1178 4134
L 603 4134
L 603 4863
z
" transform="scale(0.015625)"/>
       <path id="DejaVuSans-6d" d="M 3328 2828
Q 3544 3216 3844 3400
Q 4144 3584 4550 3584
Q 5097 3584 5394 3201
Q 5691 2819 5691 2113
L 5691 0
L 5113 0
L 5113 2094
Q 5113 2597 4934 2840
Q 4756 3084 4391 3084
Q 3944 3084 3684 2787
Q 3425 2491 3425 1978
L 3425 0
L 2847 0
L 2847 2094
Q 2847 2600 2669 2842
Q 2491 3084 2119 3084
Q 1678 3084 1418 2786
Q 1159 2488 1159 1978
L 1159 0
L 581 0
L 581 3500
L 1159 3500
L 1159 2956
Q 1356 3278 1631 3431
Q 1906 3584 2284 3584
Q 2666 3584 2933 3390
Q 3200 3197 3328 2828
z
" transform="scale(0.015625)"/>
       <path id="DejaVuSans-65" d="M 3597 1894
L 3597 1613
L 953 1613
Q 991 1019 1311 708
Q 1631 397 2203 397
Q 2534 397 2845 478
Q 3156 559 3463 722
L 3463 178
Q 3153 47 2828 -22
Q 2503 -91 2169 -91
Q 1331 -91 842 396
Q 353 884 353 1716
Q 353 2575 817 3079
Q 1281 3584 2069 3584
Q 2775 3584 3186 3129
Q 3597 2675 3597 1894
z
M 3022 2063
Q 3016 2534 2758 2815
Q 2500 3097 2075 3097
Q 1594 3097 1305 2825
Q 1016 2553 972 2059
L 3022 2063
z
" transform="scale(0.015625)"/>
       <path id="DejaVuSans-20" transform="scale(0.015625)"/>
       <path id="DejaVuSans-2f" d="M 1625 4666
L 2156 4666
L 531 -594
L 0 -594
L 1625 4666
z
" transform="scale(0.015625)"/>
       <path id="DejaVuSans-6e" d="M 3513 2113
L 3513 0
L 2938 0
L 2938 2094
Q 2938 2591 2744 2837
Q 2550 3084 2163 3084
Q 1697 3084 1428 2787
Q 1159 2491 1159 1978
L 1159 0
L 581 0
L 581 3500
L 1159 3500
L 1159 2956
Q 1366 3272 1645 3428
Q 1925 3584 2291 3584
Q 2894 3584 3203 3211
Q 3513 2838 3513 2113
z
" transform="scale(0.015625)"/>
      </defs>
      <use xlink:href="#DejaVuSans-54"/>
      <use xlink:href="#DejaVuSans-69" transform="translate(57.958984 0)"/>
      <use xlink:href="#DejaVuSans-6d" transform="translate(85.742188 0)"/>
      <use xlink:href="#DejaVuSans-65" transform="translate(183.154297 0)"/>
      <use xlink:href="#DejaVuSans-20" transform="translate(244.677734 0)"/>
      <use xlink:href="#DejaVuSans-2f" transform="translate(276.464844 0)"/>
      <use xlink:href="#DejaVuSans-20" transform="translate(310.15625 0)"/>
      <use xlink:href="#DejaVuSans-6d" transform="translate(341.943359 0)"/>
      <use xlink:href="#DejaVuSans-69" transform="translate(439.355469 0)"/>
      <use xlink:href="#DejaVuSans-6e" transform="translate(467.138672 0)"/>
     </g>
    </g>
   </g>
   <g id="matplotlib.axis_2">
    <g id="ytick_1">
     <g id="line2d_10">
      <defs>
       <path id="m4dc33f29c6" d="M 0 0
L -3.5 0
" style="stroke: #000000; stroke-width: 3"/>
      </defs>
      <g>
       <use xlink:href="#m4dc33f29c6" x="99.70625" y="353.394" style="stroke: #000000; stroke-width: 3"/>
      </g>
     </g>
     <g id="text_11">
      <!-- −1.0 -->
      <g transform="translate(34.4275 362.512125) scale(0.24 -0.24)">
       <defs>
        <path id="DejaVuSans-2212" d="M 678 2272
L 4684 2272
L 4684 1741
L 678 1741
L 678 2272
z
" transform="scale(0.015625)"/>
        <path id="DejaVuSans-2e" d="M 684 794
L 1344 794
L 1344 0
L 684 0
L 684 794
z
" transform="scale(0.015625)"/>
       </defs>
       <use xlink:href="#DejaVuSans-2212"/>
       <use xlink:href="#DejaVuSans-31" transform="translate(83.789062 0)"/>
       <use xlink:href="#DejaVuSans-2e" transform="translate(147.412109 0)"/>
       <use xlink:href="#DejaVuSans-30" transform="translate(179.199219 0)"/>
      </g>
     </g>
    </g>
    <g id="ytick_2">
     <g id="line2d_11">
      <g>
       <use xlink:href="#m4dc33f29c6" x="99.70625" y="262.674" style="stroke: #000000; stroke-width: 3"/>
      </g>
     </g>
     <g id="text_12">
      <!-- −0.9 -->
      <g transform="translate(34.4275 271.792125) scale(0.24 -0.24)">
       <defs>
        <path id="DejaVuSans-39" d="M 703 97
L 703 672
Q 941 559 1184 500
Q 1428 441 1663 441
Q 2288 441 2617 861
Q 2947 1281 2994 2138
Q 2813 1869 2534 1725
Q 2256 1581 1919 1581
Q 1219 1581 811 2004
Q 403 2428 403 3163
Q 403 3881 828 4315
Q 1253 4750 1959 4750
Q 2769 4750 3195 4129
Q 3622 3509 3622 2328
Q 3622 1225 3098 567
Q 2575 -91 1691 -91
Q 1453 -91 1209 -44
Q 966 3 703 97
z
M 1959 2075
Q 2384 2075 2632 2365
Q 2881 2656 2881 3163
Q 2881 3666 2632 3958
Q 2384 4250 1959 4250
Q 1534 4250 1286 3958
Q 1038 3666 1038 3163
Q 1038 2656 1286 2365
Q 1534 2075 1959 2075
z
" transform="scale(0.015625)"/>
       </defs>
       <use xlink:href="#DejaVuSans-2212"/>
       <use xlink:href="#DejaVuSans-30" transform="translate(83.789062 0)"/>
       <use xlink:href="#DejaVuSans-2e" transform="translate(147.412109 0)"/>
       <use xlink:href="#DejaVuSans-39" transform="translate(179.199219 0)"/>
      </g>
     </g>
    </g>
    <g id="ytick_3">
     <g id="line2d_12">
      <g>
       <use xlink:href="#m4dc33f29c6" x="99.70625" y="171.954" style="stroke: #000000; stroke-width: 3"/>
      </g>
     </g>
     <g id="text_13">
      <!-- −0.8 -->
      <g transform="translate(34.4275 181.072125) scale(0.24 -0.24)">
       <defs>
        <path id="DejaVuSans-38" d="M 2034 2216
Q 1584 2216 1326 1975
Q 1069 1734 1069 1313
Q 1069 891 1326 650
Q 1584 409 2034 409
Q 2484 409 2743 651
Q 3003 894 3003 1313
Q 3003 1734 2745 1975
Q 2488 2216 2034 2216
z
M 1403 2484
Q 997 2584 770 2862
Q 544 3141 544 3541
Q 544 4100 942 4425
Q 1341 4750 2034 4750
Q 2731 4750 3128 4425
Q 3525 4100 3525 3541
Q 3525 3141 3298 2862
Q 3072 2584 2669 2484
Q 3125 2378 3379 2068
Q 3634 1759 3634 1313
Q 3634 634 3220 271
Q 2806 -91 2034 -91
Q 1263 -91 848 271
Q 434 634 434 1313
Q 434 1759 690 2068
Q 947 2378 1403 2484
z
M 1172 3481
Q 1172 3119 1398 2916
Q 1625 2713 2034 2713
Q 2441 2713 2670 2916
Q 2900 3119 2900 3481
Q 2900 3844 2670 4047
Q 2441 4250 2034 4250
Q 1625 4250 1398 4047
Q 1172 3844 1172 3481
z
" transform="scale(0.015625)"/>
       </defs>
       <use xlink:href="#DejaVuSans-2212"/>
       <use xlink:href="#DejaVuSans-30" transform="translate(83.789062 0)"/>
       <use xlink:href="#DejaVuSans-2e" transform="translate(147.412109 0)"/>
       <use xlink:href="#DejaVuSans-38" transform="translate(179.199219 0)"/>
      </g>
     </g>
    </g>
    <g id="ytick_4">
     <g id="line2d_13">
      <g>
       <use xlink:href="#m4dc33f29c6" x="99.70625" y="81.234" style="stroke: #000000; stroke-width: 3"/>
      </g>
     </g>
     <g id="text_14">
      <!-- −0.7 -->
      <g transform="translate(34.4275 90.352125) scale(0.24 -0.24)">
       <use xlink:href="#DejaVuSans-2212"/>
       <use xlink:href="#DejaVuSans-30" transform="translate(83.789062 0)"/>
       <use xlink:href="#DejaVuSans-2e" transform="translate(147.412109 0)"/>
       <use xlink:href="#DejaVuSans-37" transform="translate(179.199219 0)"/>
      </g>
     </g>
    </g>
    <g id="text_15">
     <!-- Spearman correlation -->
     <g transform="translate(25.43625 331.735875) rotate(-90) scale(0.24 -0.24)">
      <defs>
       <path id="DejaVuSans-53" d="M 3425 4513
L 3425 3897
Q 3066 4069 2747 4153
Q 2428 4238 2131 4238
Q 1616 4238 1336 4038
Q 1056 3838 1056 3469
Q 1056 3159 1242 3001
Q 1428 2844 1947 2747
L 2328 2669
Q 3034 2534 3370 2195
Q 3706 1856 3706 1288
Q 3706 609 3251 259
Q 2797 -91 1919 -91
Q 1588 -91 1214 -16
Q 841 59 441 206
L 441 856
Q 825 641 1194 531
Q 1563 422 1919 422
Q 2459 422 2753 634
Q 3047 847 3047 1241
Q 3047 1584 2836 1778
Q 2625 1972 2144 2069
L 1759 2144
Q 1053 2284 737 2584
Q 422 2884 422 3419
Q 422 4038 858 4394
Q 1294 4750 2059 4750
Q 2388 4750 2728 4690
Q 3069 4631 3425 4513
z
" transform="scale(0.015625)"/>
       <path id="DejaVuSans-70" d="M 1159 525
L 1159 -1331
L 581 -1331
L 581 3500
L 1159 3500
L 1159 2969
Q 1341 3281 1617 3432
Q 1894 3584 2278 3584
Q 2916 3584 3314 3078
Q 3713 2572 3713 1747
Q 3713 922 3314 415
Q 2916 -91 2278 -91
Q 1894 -91 1617 61
Q 1341 213 1159 525
z
M 3116 1747
Q 3116 2381 2855 2742
Q 2594 3103 2138 3103
Q 1681 3103 1420 2742
Q 1159 2381 1159 1747
Q 1159 1113 1420 752
Q 1681 391 2138 391
Q 2594 391 2855 752
Q 3116 1113 3116 1747
z
" transform="scale(0.015625)"/>
       <path id="DejaVuSans-61" d="M 2194 1759
Q 1497 1759 1228 1600
Q 959 1441 959 1056
Q 959 750 1161 570
Q 1363 391 1709 391
Q 2188 391 2477 730
Q 2766 1069 2766 1631
L 2766 1759
L 2194 1759
z
M 3341 1997
L 3341 0
L 2766 0
L 2766 531
Q 2569 213 2275 61
Q 1981 -91 1556 -91
Q 1019 -91 701 211
Q 384 513 384 1019
Q 384 1609 779 1909
Q 1175 2209 1959 2209
L 2766 2209
L 2766 2266
Q 2766 2663 2505 2880
Q 2244 3097 1772 3097
Q 1472 3097 1187 3025
Q 903 2953 641 2809
L 641 3341
Q 956 3463 1253 3523
Q 1550 3584 1831 3584
Q 2591 3584 2966 3190
Q 3341 2797 3341 1997
z
" transform="scale(0.015625)"/>
       <path id="DejaVuSans-72" d="M 2631 2963
Q 2534 3019 2420 3045
Q 2306 3072 2169 3072
Q 1681 3072 1420 2755
Q 1159 2438 1159 1844
L 1159 0
L 581 0
L 581 3500
L 1159 3500
L 1159 2956
Q 1341 3275 1631 3429
Q 1922 3584 2338 3584
Q 2397 3584 2469 3576
Q 2541 3569 2628 3553
L 2631 2963
z
" transform="scale(0.015625)"/>
       <path id="DejaVuSans-63" d="M 3122 3366
L 3122 2828
Q 2878 2963 2633 3030
Q 2388 3097 2138 3097
Q 1578 3097 1268 2742
Q 959 2388 959 1747
Q 959 1106 1268 751
Q 1578 397 2138 397
Q 2388 397 2633 464
Q 2878 531 3122 666
L 3122 134
Q 2881 22 2623 -34
Q 2366 -91 2075 -91
Q 1284 -91 818 406
Q 353 903 353 1747
Q 353 2603 823 3093
Q 1294 3584 2113 3584
Q 2378 3584 2631 3529
Q 2884 3475 3122 3366
z
" transform="scale(0.015625)"/>
       <path id="DejaVuSans-6f" d="M 1959 3097
Q 1497 3097 1228 2736
Q 959 2375 959 1747
Q 959 1119 1226 758
Q 1494 397 1959 397
Q 2419 397 2687 759
Q 2956 1122 2956 1747
Q 2956 2369 2687 2733
Q 2419 3097 1959 3097
z
M 1959 3584
Q 2709 3584 3137 3096
Q 3566 2609 3566 1747
Q 3566 888 3137 398
Q 2709 -91 1959 -91
Q 1206 -91 779 398
Q 353 888 353 1747
Q 353 2609 779 3096
Q 1206 3584 1959 3584
z
" transform="scale(0.015625)"/>
       <path id="DejaVuSans-6c" d="M 603 4863
L 1178 4863
L 1178 0
L 603 0
L 603 4863
z
" transform="scale(0.015625)"/>
       <path id="DejaVuSans-74" d="M 1172 4494
L 1172 3500
L 2356 3500
L 2356 3053
L 1172 3053
L 1172 1153
Q 1172 725 1289 603
Q 1406 481 1766 481
L 2356 481
L 2356 0
L 1766 0
Q 1100 0 847 248
Q 594 497 594 1153
L 594 3053
L 172 3053
L 172 3500
L 594 3500
L 594 4494
L 1172 4494
z
" transform="scale(0.015625)"/>
      </defs>
      <use xlink:href="#DejaVuSans-53"/>
      <use xlink:href="#DejaVuSans-70" transform="translate(63.476562 0)"/>
      <use xlink:href="#DejaVuSans-65" transform="translate(126.953125 0)"/>
      <use xlink:href="#DejaVuSans-61" transform="translate(188.476562 0)"/>
      <use xlink:href="#DejaVuSans-72" transform="translate(249.755859 0)"/>
      <use xlink:href="#DejaVuSans-6d" transform="translate(289.119141 0)"/>
      <use xlink:href="#DejaVuSans-61" transform="translate(386.53125 0)"/>
      <use xlink:href="#DejaVuSans-6e" transform="translate(447.810547 0)"/>
      <use xlink:href="#DejaVuSans-20" transform="translate(511.189453 0)"/>
      <use xlink:href="#DejaVuSans-63" transform="translate(542.976562 0)"/>
      <use xlink:href="#DejaVuSans-6f" transform="translate(597.957031 0)"/>
      <use xlink:href="#DejaVuSans-72" transform="translate(659.138672 0)"/>
      <use xlink:href="#DejaVuSans-72" transform="translate(698.501953 0)"/>
      <use xlink:href="#DejaVuSans-65" transform="translate(737.365234 0)"/>
      <use xlink:href="#DejaVuSans-6c" transform="translate(798.888672 0)"/>
      <use xlink:href="#DejaVuSans-61" transform="translate(826.671875 0)"/>
      <use xlink:href="#DejaVuSans-74" transform="translate(887.951172 0)"/>
      <use xlink:href="#DejaVuSans-69" transform="translate(927.160156 0)"/>
      <use xlink:href="#DejaVuSans-6f" transform="translate(954.943359 0)"/>
      <use xlink:href="#DejaVuSans-6e" transform="translate(1016.125 0)"/>
     </g>
    </g>
   </g>
   <g id="line2d_14">
    <defs>
     <path id="m859dc568f3" d="M 0 3
C 0.795609 3 1.55874 2.683901 2.12132 2.12132
C 2.683901 1.55874 3 0.795609 3 0
C 3 -0.795609 2.683901 -1.55874 2.12132 -2.12132
C 1.55874 -2.683901 0.795609 -3 0 -3
C -0.795609 -3 -1.55874 -2.683901 -2.12132 -2.12132
C -2.683901 -1.55874 -3 -0.795609 -3 0
C -3 0.795609 -2.683901 1.55874 -2.12132 2.12132
C -1.55874 2.683901 -0.795609 3 0 3
z
" style="stroke: #1f77b4"/>
    </defs>
    <g clip-path="url(#pc35123cec9)">
     <use xlink:href="#m859dc568f3" x="130.142614" y="353.394" style="fill: #1f77b4; stroke: #1f77b4"/>
     <use xlink:href="#m859dc568f3" x="135.222114" y="353.394" style="fill: #1f77b4; stroke: #1f77b4"/>
     <use xlink:href="#m859dc568f3" x="140.276216" y="353.394" style="fill: #1f77b4; stroke: #1f77b4"/>
     <use xlink:href="#m859dc568f3" x="145.335398" y="353.394" style="fill: #1f77b4; stroke: #1f77b4"/>
     <use xlink:href="#m859dc568f3" x="150.3895" y="301.554" style="fill: #1f77b4; stroke: #1f77b4"/>
     <use xlink:href="#m859dc568f3" x="155.448682" y="223.794" style="fill: #1f77b4; stroke: #1f77b4"/>
     <use xlink:href="#m859dc568f3" x="160.502785" y="50.994" style="fill: #1f77b4; stroke: #1f77b4"/>
     <use xlink:href="#m859dc568f3" x="165.551808" y="141.714" style="fill: #1f77b4; stroke: #1f77b4"/>
     <use xlink:href="#m859dc568f3" x="172.368497" y="199.444909" style="fill: #1f77b4; stroke: #1f77b4"/>
     <use xlink:href="#m859dc568f3" x="177.427679" y="237.932182" style="fill: #1f77b4; stroke: #1f77b4"/>
     <use xlink:href="#m859dc568f3" x="182.512258" y="258.233161" style="fill: #1f77b4; stroke: #1f77b4"/>
     <use xlink:href="#m859dc568f3" x="187.561281" y="263.670923" style="fill: #1f77b4; stroke: #1f77b4"/>
     <use xlink:href="#m859dc568f3" x="192.757609" y="269.652462" style="fill: #1f77b4; stroke: #1f77b4"/>
     <use xlink:href="#m859dc568f3" x="197.811712" y="252.954" style="fill: #1f77b4; stroke: #1f77b4"/>
     <use xlink:href="#m859dc568f3" x="202.865814" y="252.001059" style="fill: #1f77b4; stroke: #1f77b4"/>
     <use xlink:href="#m859dc568f3" x="207.955473" y="248.888118" style="fill: #1f77b4; stroke: #1f77b4"/>
     <use xlink:href="#m859dc568f3" x="213.009576" y="242.919697" style="fill: #1f77b4; stroke: #1f77b4"/>
     <use xlink:href="#m859dc568f3" x="218.058599" y="246.758211" style="fill: #1f77b4; stroke: #1f77b4"/>
     <use xlink:href="#m859dc568f3" x="224.631472" y="249.714" style="fill: #1f77b4; stroke: #1f77b4"/>
     <use xlink:href="#m859dc568f3" x="229.685574" y="263.852182" style="fill: #1f77b4; stroke: #1f77b4"/>
     <use xlink:href="#m859dc568f3" x="234.739676" y="274.507043" style="fill: #1f77b4; stroke: #1f77b4"/>
     <use xlink:href="#m859dc568f3" x="239.798858" y="282.575028" style="fill: #1f77b4; stroke: #1f77b4"/>
     <use xlink:href="#m859dc568f3" x="244.847881" y="272.929304" style="fill: #1f77b4; stroke: #1f77b4"/>
     <use xlink:href="#m859dc568f3" x="249.907063" y="279.422308" style="fill: #1f77b4; stroke: #1f77b4"/>
     <use xlink:href="#m859dc568f3" x="254.961166" y="283.919538" style="fill: #1f77b4; stroke: #1f77b4"/>
     <use xlink:href="#m859dc568f3" x="260.015268" y="288.040154" style="fill: #1f77b4; stroke: #1f77b4"/>
     <use xlink:href="#m859dc568f3" x="265.07445" y="291.325034" style="fill: #1f77b4; stroke: #1f77b4"/>
     <use xlink:href="#m859dc568f3" x="270.133632" y="293.956759" style="fill: #1f77b4; stroke: #1f77b4"/>
     <use xlink:href="#m859dc568f3" x="276.660789" y="294.864968" style="fill: #1f77b4; stroke: #1f77b4"/>
     <use xlink:href="#m859dc568f3" x="281.719971" y="300.352065" style="fill: #1f77b4; stroke: #1f77b4"/>
     <use xlink:href="#m859dc568f3" x="286.774074" y="292.204557" style="fill: #1f77b4; stroke: #1f77b4"/>
     <use xlink:href="#m859dc568f3" x="291.828176" y="293.358706" style="fill: #1f77b4; stroke: #1f77b4"/>
     <use xlink:href="#m859dc568f3" x="296.882279" y="297.67293" style="fill: #1f77b4; stroke: #1f77b4"/>
     <use xlink:href="#m859dc568f3" x="301.931302" y="292.405765" style="fill: #1f77b4; stroke: #1f77b4"/>
     <use xlink:href="#m859dc568f3" x="306.985404" y="296.183189" style="fill: #1f77b4; stroke: #1f77b4"/>
     <use xlink:href="#m859dc568f3" x="312.039506" y="292.526859" style="fill: #1f77b4; stroke: #1f77b4"/>
     <use xlink:href="#m859dc568f3" x="317.098688" y="297.208947" style="fill: #1f77b4; stroke: #1f77b4"/>
     <use xlink:href="#m859dc568f3" x="322.147711" y="291.689709" style="fill: #1f77b4; stroke: #1f77b4"/>
     <use xlink:href="#m859dc568f3" x="328.674869" y="288.204957" style="fill: #1f77b4; stroke: #1f77b4"/>
     <use xlink:href="#m859dc568f3" x="333.728971" y="292.861317" style="fill: #1f77b4; stroke: #1f77b4"/>
     <use xlink:href="#m859dc568f3" x="338.788153" y="294.732174" style="fill: #1f77b4; stroke: #1f77b4"/>
     <use xlink:href="#m859dc568f3" x="343.837176" y="296.128884" style="fill: #1f77b4; stroke: #1f77b4"/>
     <use xlink:href="#m859dc568f3" x="348.886199" y="297.133535" style="fill: #1f77b4; stroke: #1f77b4"/>
     <use xlink:href="#m859dc568f3" x="353.945381" y="297.695028" style="fill: #1f77b4; stroke: #1f77b4"/>
     <use xlink:href="#m859dc568f3" x="359.004563" y="296.998218" style="fill: #1f77b4; stroke: #1f77b4"/>
     <use xlink:href="#m859dc568f3" x="364.078983" y="296.956257" style="fill: #1f77b4; stroke: #1f77b4"/>
     <use xlink:href="#m859dc568f3" x="369.133086" y="298.737465" style="fill: #1f77b4; stroke: #1f77b4"/>
     <use xlink:href="#m859dc568f3" x="374.192268" y="296.925429" style="fill: #1f77b4; stroke: #1f77b4"/>
     <use xlink:href="#m859dc568f3" x="380.714346" y="295.36805" style="fill: #1f77b4; stroke: #1f77b4"/>
     <use xlink:href="#m859dc568f3" x="385.778607" y="298.715701" style="fill: #1f77b4; stroke: #1f77b4"/>
     <use xlink:href="#m859dc568f3" x="390.83271" y="300.881271" style="fill: #1f77b4; stroke: #1f77b4"/>
     <use xlink:href="#m859dc568f3" x="395.891891" y="295.898499" style="fill: #1f77b4; stroke: #1f77b4"/>
     <use xlink:href="#m859dc568f3" x="401.006948" y="297.928065" style="fill: #1f77b4; stroke: #1f77b4"/>
     <use xlink:href="#m859dc568f3" x="406.06613" y="299.721273" style="fill: #1f77b4; stroke: #1f77b4"/>
     <use xlink:href="#m859dc568f3" x="411.120232" y="301.119933" style="fill: #1f77b4; stroke: #1f77b4"/>
     <use xlink:href="#m859dc568f3" x="416.174335" y="303.470951" style="fill: #1f77b4; stroke: #1f77b4"/>
     <use xlink:href="#m859dc568f3" x="421.233517" y="305.618725" style="fill: #1f77b4; stroke: #1f77b4"/>
     <use xlink:href="#m859dc568f3" x="426.292699" y="306.469862" style="fill: #1f77b4; stroke: #1f77b4"/>
     <use xlink:href="#m859dc568f3" x="432.814777" y="307.113944" style="fill: #1f77b4; stroke: #1f77b4"/>
     <use xlink:href="#m859dc568f3" x="437.879038" y="309.353302" style="fill: #1f77b4; stroke: #1f77b4"/>
     <use xlink:href="#m859dc568f3" x="442.93314" y="307.886649" style="fill: #1f77b4; stroke: #1f77b4"/>
     <use xlink:href="#m859dc568f3" x="447.992322" y="307.319806" style="fill: #1f77b4; stroke: #1f77b4"/>
     <use xlink:href="#m859dc568f3" x="453.046425" y="305.749385" style="fill: #1f77b4; stroke: #1f77b4"/>
     <use xlink:href="#m859dc568f3" x="458.100527" y="307.756448" style="fill: #1f77b4; stroke: #1f77b4"/>
     <use xlink:href="#m859dc568f3" x="463.159709" y="304.951925" style="fill: #1f77b4; stroke: #1f77b4"/>
     <use xlink:href="#m859dc568f3" x="468.213812" y="301.911902" style="fill: #1f77b4; stroke: #1f77b4"/>
     <use xlink:href="#m859dc568f3" x="473.283153" y="299.302066" style="fill: #1f77b4; stroke: #1f77b4"/>
     <use xlink:href="#m859dc568f3" x="478.337255" y="295.952363" style="fill: #1f77b4; stroke: #1f77b4"/>
     <use xlink:href="#m859dc568f3" x="484.859333" y="294.252592" style="fill: #1f77b4; stroke: #1f77b4"/>
     <use xlink:href="#m859dc568f3" x="489.918515" y="296.412592" style="fill: #1f77b4; stroke: #1f77b4"/>
     <use xlink:href="#m859dc568f3" x="494.982776" y="295.837064" style="fill: #1f77b4; stroke: #1f77b4"/>
     <use xlink:href="#m859dc568f3" x="500.041958" y="293.608143" style="fill: #1f77b4; stroke: #1f77b4"/>
     <use xlink:href="#m859dc568f3" x="505.10114" y="294.709815" style="fill: #1f77b4; stroke: #1f77b4"/>
     <use xlink:href="#m859dc568f3" x="510.221276" y="295.219639" style="fill: #1f77b4; stroke: #1f77b4"/>
     <use xlink:href="#m859dc568f3" x="515.280458" y="294.137656" style="fill: #1f77b4; stroke: #1f77b4"/>
     <use xlink:href="#m859dc568f3" x="520.344719" y="293.936363" style="fill: #1f77b4; stroke: #1f77b4"/>
     <use xlink:href="#m859dc568f3" x="525.398822" y="295.345315" style="fill: #1f77b4; stroke: #1f77b4"/>
     <use xlink:href="#m859dc568f3" x="530.463083" y="295.424185" style="fill: #1f77b4; stroke: #1f77b4"/>
     <use xlink:href="#m859dc568f3" x="537.041036" y="295.274506" style="fill: #1f77b4; stroke: #1f77b4"/>
     <use xlink:href="#m859dc568f3" x="542.110377" y="297.400829" style="fill: #1f77b4; stroke: #1f77b4"/>
     <use xlink:href="#m859dc568f3" x="547.164479" y="298.437315" style="fill: #1f77b4; stroke: #1f77b4"/>
     <use xlink:href="#m859dc568f3" x="552.223661" y="299.943045" style="fill: #1f77b4; stroke: #1f77b4"/>
     <use xlink:href="#m859dc568f3" x="557.298082" y="301.774439" style="fill: #1f77b4; stroke: #1f77b4"/>
     <use xlink:href="#m859dc568f3" x="562.352184" y="303.025518" style="fill: #1f77b4; stroke: #1f77b4"/>
     <use xlink:href="#m859dc568f3" x="567.416445" y="304.146122" style="fill: #1f77b4; stroke: #1f77b4"/>
     <use xlink:href="#m859dc568f3" x="572.485786" y="305.147124" style="fill: #1f77b4; stroke: #1f77b4"/>
     <use xlink:href="#m859dc568f3" x="577.544968" y="306.166301" style="fill: #1f77b4; stroke: #1f77b4"/>
     <use xlink:href="#m859dc568f3" x="582.60923" y="307.10734" style="fill: #1f77b4; stroke: #1f77b4"/>
     <use xlink:href="#m859dc568f3" x="589.141467" y="308.498857" style="fill: #1f77b4; stroke: #1f77b4"/>
     <use xlink:href="#m859dc568f3" x="594.200649" y="309.962829" style="fill: #1f77b4; stroke: #1f77b4"/>
     <use xlink:href="#m859dc568f3" x="599.259831" y="311.19605" style="fill: #1f77b4; stroke: #1f77b4"/>
     <use xlink:href="#m859dc568f3" x="604.319012" y="312.353291" style="fill: #1f77b4; stroke: #1f77b4"/>
     <use xlink:href="#m859dc568f3" x="609.383274" y="313.400254" style="fill: #1f77b4; stroke: #1f77b4"/>
     <use xlink:href="#m859dc568f3" x="614.442456" y="314.357987" style="fill: #1f77b4; stroke: #1f77b4"/>
     <use xlink:href="#m859dc568f3" x="619.506717" y="315.319165" style="fill: #1f77b4; stroke: #1f77b4"/>
     <use xlink:href="#m859dc568f3" x="624.565899" y="315.959832" style="fill: #1f77b4; stroke: #1f77b4"/>
     <use xlink:href="#m859dc568f3" x="629.630161" y="316.793438" style="fill: #1f77b4; stroke: #1f77b4"/>
     <use xlink:href="#m859dc568f3" x="634.689343" y="317.554831" style="fill: #1f77b4; stroke: #1f77b4"/>
     <use xlink:href="#m859dc568f3" x="641.226659" y="318.270961" style="fill: #1f77b4; stroke: #1f77b4"/>
     <use xlink:href="#m859dc568f3" x="646.29092" y="319.303992" style="fill: #1f77b4; stroke: #1f77b4"/>
     <use xlink:href="#m859dc568f3" x="651.350102" y="319.958342" style="fill: #1f77b4; stroke: #1f77b4"/>
     <use xlink:href="#m859dc568f3" x="656.414364" y="320.564145" style="fill: #1f77b4; stroke: #1f77b4"/>
     <use xlink:href="#m859dc568f3" x="661.478625" y="321.124665" style="fill: #1f77b4; stroke: #1f77b4"/>
     <use xlink:href="#m859dc568f3" x="666.553046" y="321.219718" style="fill: #1f77b4; stroke: #1f77b4"/>
     <use xlink:href="#m859dc568f3" x="671.612228" y="320.878592" style="fill: #1f77b4; stroke: #1f77b4"/>
     <use xlink:href="#m859dc568f3" x="676.67141" y="320.190967" style="fill: #1f77b4; stroke: #1f77b4"/>
     <use xlink:href="#m859dc568f3" x="681.730592" y="320.275111" style="fill: #1f77b4; stroke: #1f77b4"/>
     <use xlink:href="#m859dc568f3" x="686.789773" y="320.573049" style="fill: #1f77b4; stroke: #1f77b4"/>
     <use xlink:href="#m859dc568f3" x="693.332169" y="320.887517" style="fill: #1f77b4; stroke: #1f77b4"/>
     <use xlink:href="#m859dc568f3" x="698.391351" y="321.758226" style="fill: #1f77b4; stroke: #1f77b4"/>
     <use xlink:href="#m859dc568f3" x="703.445454" y="322.102156" style="fill: #1f77b4; stroke: #1f77b4"/>
     <use xlink:href="#m859dc568f3" x="708.509715" y="322.653991" style="fill: #1f77b4; stroke: #1f77b4"/>
     <use xlink:href="#m859dc568f3" x="713.563818" y="323.433858" style="fill: #1f77b4; stroke: #1f77b4"/>
     <use xlink:href="#m859dc568f3" x="718.628079" y="323.886556" style="fill: #1f77b4; stroke: #1f77b4"/>
     <use xlink:href="#m859dc568f3" x="723.687261" y="324.015409" style="fill: #1f77b4; stroke: #1f77b4"/>
     <use xlink:href="#m859dc568f3" x="728.751522" y="324.721537" style="fill: #1f77b4; stroke: #1f77b4"/>
     <use xlink:href="#m859dc568f3" x="733.810704" y="325.364857" style="fill: #1f77b4; stroke: #1f77b4"/>
     <use xlink:href="#m859dc568f3" x="738.869886" y="325.090032" style="fill: #1f77b4; stroke: #1f77b4"/>
    </g>
   </g>
   <g id="patch_3">
    <path d="M 99.70625 368.514
L 99.70625 35.874
" style="fill: none; stroke: #000000; stroke-width: 3; stroke-linejoin: miter; stroke-linecap: square"/>
   </g>
   <g id="patch_4">
    <path d="M 769.30625 368.514
L 769.30625 35.874
" style="fill: none; stroke: #000000; stroke-width: 3; stroke-linejoin: miter; stroke-linecap: square"/>
   </g>
   <g id="patch_5">
    <path d="M 99.70625 368.514
L 769.30625 368.514
" style="fill: none; stroke: #000000; stroke-width: 3; stroke-linejoin: miter; stroke-linecap: square"/>
   </g>
   <g id="patch_6">
    <path d="M 99.70625 35.874
L 769.30625 35.874
" style="fill: none; stroke: #000000; stroke-width: 3; stroke-linejoin: miter; stroke-linecap: square"/>
   </g>
   <g id="text_16">
    <!-- Spearman correlation for imine_monitoring_v5 -->
    <g transform="translate(99.39575 29.0835) scale(0.288 -0.288)">
     <defs>
      <path id="DejaVuSans-66" d="M 2375 4863
L 2375 4384
L 1825 4384
Q 1516 4384 1395 4259
Q 1275 4134 1275 3809
L 1275 3500
L 2222 3500
L 2222 3053
L 1275 3053
L 1275 0
L 697 0
L 697 3053
L 147 3053
L 147 3500
L 697 3500
L 697 3744
Q 697 4328 969 4595
Q 1241 4863 1831 4863
L 2375 4863
z
" transform="scale(0.015625)"/>
      <path id="DejaVuSans-5f" d="M 3263 -1063
L 3263 -1509
L -63 -1509
L -63 -1063
L 3263 -1063
z
" transform="scale(0.015625)"/>
      <path id="DejaVuSans-67" d="M 2906 1791
Q 2906 2416 2648 2759
Q 2391 3103 1925 3103
Q 1463 3103 1205 2759
Q 947 2416 947 1791
Q 947 1169 1205 825
Q 1463 481 1925 481
Q 2391 481 2648 825
Q 2906 1169 2906 1791
z
M 3481 434
Q 3481 -459 3084 -895
Q 2688 -1331 1869 -1331
Q 1566 -1331 1297 -1286
Q 1028 -1241 775 -1147
L 775 -588
Q 1028 -725 1275 -790
Q 1522 -856 1778 -856
Q 2344 -856 2625 -561
Q 2906 -266 2906 331
L 2906 616
Q 2728 306 2450 153
Q 2172 0 1784 0
Q 1141 0 747 490
Q 353 981 353 1791
Q 353 2603 747 3093
Q 1141 3584 1784 3584
Q 2172 3584 2450 3431
Q 2728 3278 2906 2969
L 2906 3500
L 3481 3500
L 3481 434
z
" transform="scale(0.015625)"/>
      <path id="DejaVuSans-76" d="M 191 3500
L 800 3500
L 1894 563
L 2988 3500
L 3597 3500
L 2284 0
L 1503 0
L 191 3500
z
" transform="scale(0.015625)"/>
     </defs>
     <use xlink:href="#DejaVuSans-53"/>
     <use xlink:href="#DejaVuSans-70" transform="translate(63.476562 0)"/>
     <use xlink:href="#DejaVuSans-65" transform="translate(126.953125 0)"/>
     <use xlink:href="#DejaVuSans-61" transform="translate(188.476562 0)"/>
     <use xlink:href="#DejaVuSans-72" transform="translate(249.755859 0)"/>
     <use xlink:href="#DejaVuSans-6d" transform="translate(289.119141 0)"/>
     <use xlink:href="#DejaVuSans-61" transform="translate(386.53125 0)"/>
     <use xlink:href="#DejaVuSans-6e" transform="translate(447.810547 0)"/>
     <use xlink:href="#DejaVuSans-20" transform="translate(511.189453 0)"/>
     <use xlink:href="#DejaVuSans-63" transform="translate(542.976562 0)"/>
     <use xlink:href="#DejaVuSans-6f" transform="translate(597.957031 0)"/>
     <use xlink:href="#DejaVuSans-72" transform="translate(659.138672 0)"/>
     <use xlink:href="#DejaVuSans-72" transform="translate(698.501953 0)"/>
     <use xlink:href="#DejaVuSans-65" transform="translate(737.365234 0)"/>
     <use xlink:href="#DejaVuSans-6c" transform="translate(798.888672 0)"/>
     <use xlink:href="#DejaVuSans-61" transform="translate(826.671875 0)"/>
     <use xlink:href="#DejaVuSans-74" transform="translate(887.951172 0)"/>
     <use xlink:href="#DejaVuSans-69" transform="translate(927.160156 0)"/>
     <use xlink:href="#DejaVuSans-6f" transform="translate(954.943359 0)"/>
     <use xlink:href="#DejaVuSans-6e" transform="translate(1016.125 0)"/>
     <use xlink:href="#DejaVuSans-20" transform="translate(1079.503906 0)"/>
     <use xlink:href="#DejaVuSans-66" transform="translate(1111.291016 0)"/>
     <use xlink:href="#DejaVuSans-6f" transform="translate(1146.496094 0)"/>
     <use xlink:href="#DejaVuSans-72" transform="translate(1207.677734 0)"/>
     <use xlink:href="#DejaVuSans-20" transform="translate(1248.791016 0)"/>
     <use xlink:href="#DejaVuSans-69" transform="translate(1280.578125 0)"/>
     <use xlink:href="#DejaVuSans-6d" transform="translate(1308.361328 0)"/>
     <use xlink:href="#DejaVuSans-69" transform="translate(1405.773438 0)"/>
     <use xlink:href="#DejaVuSans-6e" transform="translate(1433.556641 0)"/>
     <use xlink:href="#DejaVuSans-65" transform="translate(1496.935547 0)"/>
     <use xlink:href="#DejaVuSans-5f" transform="translate(1558.458984 0)"/>
     <use xlink:href="#DejaVuSans-6d" transform="translate(1608.458984 0)"/>
     <use xlink:href="#DejaVuSans-6f" transform="translate(1705.871094 0)"/>
     <use xlink:href="#DejaVuSans-6e" transform="translate(1767.052734 0)"/>
     <use xlink:href="#DejaVuSans-69" transform="translate(1830.431641 0)"/>
     <use xlink:href="#DejaVuSans-74" transform="translate(1858.214844 0)"/>
     <use xlink:href="#DejaVuSans-6f" transform="translate(1897.423828 0)"/>
     <use xlink:href="#DejaVuSans-72" transform="translate(1958.605469 0)"/>
     <use xlink:href="#DejaVuSans-69" transform="translate(1999.71875 0)"/>
     <use xlink:href="#DejaVuSans-6e" transform="translate(2027.501953 0)"/>
     <use xlink:href="#DejaVuSans-67" transform="translate(2090.880859 0)"/>
     <use xlink:href="#DejaVuSans-5f" transform="translate(2154.357422 0)"/>
     <use xlink:href="#DejaVuSans-76" transform="translate(2204.357422 0)"/>
     <use xlink:href="#DejaVuSans-35" transform="translate(2263.537109 0)"/>
    </g>
   </g>
  </g>
 </g>
 <defs>
  <clipPath id="pc35123cec9">
   <rect x="99.70625" y="35.874" width="669.6" height="332.64"/>
  </clipPath>
 </defs>
</svg>
