<?xml version="1.0" encoding="utf-8" standalone="no"?>
<!DOCTYPE svg PUBLIC "-//W3C//DTD SVG 1.1//EN"
  "http://www.w3.org/Graphics/SVG/1.1/DTD/svg11.dtd">
<svg xmlns:xlink="http://www.w3.org/1999/xlink" width="756.395pt" height="432.3785pt" viewBox="0 0 756.395 432.3785" xmlns="http://www.w3.org/2000/svg" version="1.1">
 <metadata>
  <rdf:RDF xmlns:dc="http://purl.org/dc/elements/1.1/" xmlns:cc="http://creativecommons.org/ns#" xmlns:rdf="http://www.w3.org/1999/02/22-rdf-syntax-ns#">
   <cc:Work>
    <dc:type rdf:resource="http://purl.org/dc/dcmitype/StillImage"/>
    <dc:date>2025-11-02T14:06:49.461118</dc:date>
    <dc:format>image/svg+xml</dc:format>
    <dc:creator>
     <cc:Agent>
      <dc:title>Matplotlib v3.10.7, https://matplotlib.org/</dc:title>
     </cc:Agent>
    </dc:creator>
   </cc:Work>
  </rdf:RDF>
 </metadata>
 <defs>
  <style type="text/css">*{stroke-linejoin: round; stroke-linecap: butt}</style>
 </defs>
 <g id="figure_1">
  <g id="patch_1">
   <path d="M -0 432.3785
L 756.395 432.3785
L 756.395 0
L -0 0
L -0 432.3785
z
" style="fill: none"/>
  </g>
  <g id="axes_1">
   <g id="patch_2">
    <path d="M 79.595 367.7235
L 749.195 367.7235
L 749.195 35.0835
L 79.595 35.0835
L 79.595 367.7235
z
" style="fill: none"/>
   </g>
   <g id="matplotlib.axis_1">
    <g id="xtick_1">
     <g id="line2d_1">
      <defs>
       <path id="meba047b223" d="M 0 0
L 0 3.5
" style="stroke: #000000; stroke-width: 3"/>
      </defs>
      <g>
       <use xlink:href="#meba047b223" x="110.031364" y="367.7235" style="stroke: #000000; stroke-width: 3"/>
      </g>
     </g>
     <g id="text_1">
      <!-- 0 -->
      <g transform="translate(102.396364 392.95975) scale(0.24 -0.24)">
       <defs>
        <path id="DejaVuSans-30" d="M 2034 4250
Q 1547 4250 1301 3770
Q 1056 3291 1056 2328
Q 1056 1369 1301 889
Q 1547 409 2034 409
Q 2525 409 2770 889
Q 3016 1369 3016 2328
Q 3016 3291 2770 3770
Q 2525 4250 2034 4250
z
M 2034 4750
Q 2819 4750 3233 4129
Q 3647 3509 3647 2328
Q 3647 1150 3233 529
Q 2819 -91 2034 -91
Q 1250 -91 836 529
Q 422 1150 422 2328
Q 422 3509 836 4129
Q 1250 4750 2034 4750
z
" transform="scale(0.015625)"/>
       </defs>
       <use xlink:href="#DejaVuSans-30"/>
      </g>
     </g>
    </g>
    <g id="xtick_2">
     <g id="line2d_2">
      <g>
       <use xlink:href="#meba047b223" x="218.086262" y="367.7235" style="stroke: #000000; stroke-width: 3"/>
      </g>
     </g>
     <g id="text_2">
      <!-- 200 -->
      <g transform="translate(195.181262 392.95975) scale(0.24 -0.24)">
       <defs>
        <path id="DejaVuSans-32" d="M 1228 531
L 3431 531
L 3431 0
L 469 0
L 469 531
Q 828 903 1448 1529
Q 2069 2156 2228 2338
Q 2531 2678 2651 2914
Q 2772 3150 2772 3378
Q 2772 3750 2511 3984
Q 2250 4219 1831 4219
Q 1534 4219 1204 4116
Q 875 4013 500 3803
L 500 4441
Q 881 4594 1212 4672
Q 1544 4750 1819 4750
Q 2544 4750 2975 4387
Q 3406 4025 3406 3419
Q 3406 3131 3298 2873
Q 3191 2616 2906 2266
Q 2828 2175 2409 1742
Q 1991 1309 1228 531
z
" transform="scale(0.015625)"/>
       </defs>
       <use xlink:href="#DejaVuSans-32"/>
       <use xlink:href="#DejaVuSans-30" transform="translate(63.623047 0)"/>
       <use xlink:href="#DejaVuSans-30" transform="translate(127.246094 0)"/>
      </g>
     </g>
    </g>
    <g id="xtick_3">
     <g id="line2d_3">
      <g>
       <use xlink:href="#meba047b223" x="326.141161" y="367.7235" style="stroke: #000000; stroke-width: 3"/>
      </g>
     </g>
     <g id="text_3">
      <!-- 400 -->
      <g transform="translate(303.236161 392.95975) scale(0.24 -0.24)">
       <defs>
        <path id="DejaVuSans-34" d="M 2419 4116
L 825 1625
L 2419 1625
L 2419 4116
z
M 2253 4666
L 3047 4666
L 3047 1625
L 3713 1625
L 3713 1100
L 3047 1100
L 3047 0
L 2419 0
L 2419 1100
L 313 1100
L 313 1709
L 2253 4666
z
" transform="scale(0.015625)"/>
       </defs>
       <use xlink:href="#DejaVuSans-34"/>
       <use xlink:href="#DejaVuSans-30" transform="translate(63.623047 0)"/>
       <use xlink:href="#DejaVuSans-30" transform="translate(127.246094 0)"/>
      </g>
     </g>
    </g>
    <g id="xtick_4">
     <g id="line2d_4">
      <g>
       <use xlink:href="#meba047b223" x="434.19606" y="367.7235" style="stroke: #000000; stroke-width: 3"/>
      </g>
     </g>
     <g id="text_4">
      <!-- 600 -->
      <g transform="translate(411.29106 392.95975) scale(0.24 -0.24)">
       <defs>
        <path id="DejaVuSans-36" d="M 2113 2584
Q 1688 2584 1439 2293
Q 1191 2003 1191 1497
Q 1191 994 1439 701
Q 1688 409 2113 409
Q 2538 409 2786 701
Q 3034 994 3034 1497
Q 3034 2003 2786 2293
Q 2538 2584 2113 2584
z
M 3366 4563
L 3366 3988
Q 3128 4100 2886 4159
Q 2644 4219 2406 4219
Q 1781 4219 1451 3797
Q 1122 3375 1075 2522
Q 1259 2794 1537 2939
Q 1816 3084 2150 3084
Q 2853 3084 3261 2657
Q 3669 2231 3669 1497
Q 3669 778 3244 343
Q 2819 -91 2113 -91
Q 1303 -91 875 529
Q 447 1150 447 2328
Q 447 3434 972 4092
Q 1497 4750 2381 4750
Q 2619 4750 2861 4703
Q 3103 4656 3366 4563
z
" transform="scale(0.015625)"/>
       </defs>
       <use xlink:href="#DejaVuSans-36"/>
       <use xlink:href="#DejaVuSans-30" transform="translate(63.623047 0)"/>
       <use xlink:href="#DejaVuSans-30" transform="translate(127.246094 0)"/>
      </g>
     </g>
    </g>
    <g id="xtick_5">
     <g id="line2d_5">
      <g>
       <use xlink:href="#meba047b223" x="542.250959" y="367.7235" style="stroke: #000000; stroke-width: 3"/>
      </g>
     </g>
     <g id="text_5">
      <!-- 800 -->
      <g transform="translate(519.345959 392.95975) scale(0.24 -0.24)">
       <defs>
        <path id="DejaVuSans-38" d="M 2034 2216
Q 1584 2216 1326 1975
Q 1069 1734 1069 1313
Q 1069 891 1326 650
Q 1584 409 2034 409
Q 2484 409 2743 651
Q 3003 894 3003 1313
Q 3003 1734 2745 1975
Q 2488 2216 2034 2216
z
M 1403 2484
Q 997 2584 770 2862
Q 544 3141 544 3541
Q 544 4100 942 4425
Q 1341 4750 2034 4750
Q 2731 4750 3128 4425
Q 3525 4100 3525 3541
Q 3525 3141 3298 2862
Q 3072 2584 2669 2484
Q 3125 2378 3379 2068
Q 3634 1759 3634 1313
Q 3634 634 3220 271
Q 2806 -91 2034 -91
Q 1263 -91 848 271
Q 434 634 434 1313
Q 434 1759 690 2068
Q 947 2378 1403 2484
z
M 1172 3481
Q 1172 3119 1398 2916
Q 1625 2713 2034 2713
Q 2441 2713 2670 2916
Q 2900 3119 2900 3481
Q 2900 3844 2670 4047
Q 2441 4250 2034 4250
Q 1625 4250 1398 4047
Q 1172 3844 1172 3481
z
" transform="scale(0.015625)"/>
       </defs>
       <use xlink:href="#DejaVuSans-38"/>
       <use xlink:href="#DejaVuSans-30" transform="translate(63.623047 0)"/>
       <use xlink:href="#DejaVuSans-30" transform="translate(127.246094 0)"/>
      </g>
     </g>
    </g>
    <g id="xtick_6">
     <g id="line2d_6">
      <g>
       <use xlink:href="#meba047b223" x="650.305858" y="367.7235" style="stroke: #000000; stroke-width: 3"/>
      </g>
     </g>
     <g id="text_6">
      <!-- 1000 -->
      <g transform="translate(619.765858 392.95975) scale(0.24 -0.24)">
       <defs>
        <path id="DejaVuSans-31" d="M 794 531
L 1825 531
L 1825 4091
L 703 3866
L 703 4441
L 1819 4666
L 2450 4666
L 2450 531
L 3481 531
L 3481 0
L 794 0
L 794 531
z
" transform="scale(0.015625)"/>
       </defs>
       <use xlink:href="#DejaVuSans-31"/>
       <use xlink:href="#DejaVuSans-30" transform="translate(63.623047 0)"/>
       <use xlink:href="#DejaVuSans-30" transform="translate(127.246094 0)"/>
       <use xlink:href="#DejaVuSans-30" transform="translate(190.869141 0)"/>
      </g>
     </g>
    </g>
    <g id="text_7">
     <!-- Time / min -->
     <g transform="translate(350.736875 420.18725) scale(0.24 -0.24)">
      <defs>
       <path id="DejaVuSans-54" d="M -19 4666
L 3928 4666
L 3928 4134
L 2272 4134
L 2272 0
L 1638 0
L 1638 4134
L -19 4134
L -19 4666
z
" transform="scale(0.015625)"/>
       <path id="DejaVuSans-69" d="M 603 3500
L 1178 3500
L 1178 0
L 603 0
L 603 3500
z
M 603 4863
L 1178 4863
L 1178 4134
L 603 4134
L 603 4863
z
" transform="scale(0.015625)"/>
       <path id="DejaVuSans-6d" d="M 3328 2828
Q 3544 3216 3844 3400
Q 4144 3584 4550 3584
Q 5097 3584 5394 3201
Q 5691 2819 5691 2113
L 5691 0
L 5113 0
L 5113 2094
Q 5113 2597 4934 2840
Q 4756 3084 4391 3084
Q 3944 3084 3684 2787
Q 3425 2491 3425 1978
L 3425 0
L 2847 0
L 2847 2094
Q 2847 2600 2669 2842
Q 2491 3084 2119 3084
Q 1678 3084 1418 2786
Q 1159 2488 1159 1978
L 1159 0
L 581 0
L 581 3500
L 1159 3500
L 1159 2956
Q 1356 3278 1631 3431
Q 1906 3584 2284 3584
Q 2666 3584 2933 3390
Q 3200 3197 3328 2828
z
" transform="scale(0.015625)"/>
       <path id="DejaVuSans-65" d="M 3597 1894
L 3597 1613
L 953 1613
Q 991 1019 1311 708
Q 1631 397 2203 397
Q 2534 397 2845 478
Q 3156 559 3463 722
L 3463 178
Q 3153 47 2828 -22
Q 2503 -91 2169 -91
Q 1331 -91 842 396
Q 353 884 353 1716
Q 353 2575 817 3079
Q 1281 3584 2069 3584
Q 2775 3584 3186 3129
Q 3597 2675 3597 1894
z
M 3022 2063
Q 3016 2534 2758 2815
Q 2500 3097 2075 3097
Q 1594 3097 1305 2825
Q 1016 2553 972 2059
L 3022 2063
z
" transform="scale(0.015625)"/>
       <path id="DejaVuSans-20" transform="scale(0.015625)"/>
       <path id="DejaVuSans-2f" d="M 1625 4666
L 2156 4666
L 531 -594
L 0 -594
L 1625 4666
z
" transform="scale(0.015625)"/>
       <path id="DejaVuSans-6e" d="M 3513 2113
L 3513 0
L 2938 0
L 2938 2094
Q 2938 2591 2744 2837
Q 2550 3084 2163 3084
Q 1697 3084 1428 2787
Q 1159 2491 1159 1978
L 1159 0
L 581 0
L 581 3500
L 1159 3500
L 1159 2956
Q 1366 3272 1645 3428
Q 1925 3584 2291 3584
Q 2894 3584 3203 3211
Q 3513 2838 3513 2113
z
" transform="scale(0.015625)"/>
      </defs>
      <use xlink:href="#DejaVuSans-54"/>
      <use xlink:href="#DejaVuSans-69" transform="translate(57.958984 0)"/>
      <use xlink:href="#DejaVuSans-6d" transform="translate(85.742188 0)"/>
      <use xlink:href="#DejaVuSans-65" transform="translate(183.154297 0)"/>
      <use xlink:href="#DejaVuSans-20" transform="translate(244.677734 0)"/>
      <use xlink:href="#DejaVuSans-2f" transform="translate(276.464844 0)"/>
      <use xlink:href="#DejaVuSans-20" transform="translate(310.15625 0)"/>
      <use xlink:href="#DejaVuSans-6d" transform="translate(341.943359 0)"/>
      <use xlink:href="#DejaVuSans-69" transform="translate(439.355469 0)"/>
      <use xlink:href="#DejaVuSans-6e" transform="translate(467.138672 0)"/>
     </g>
    </g>
   </g>
   <g id="matplotlib.axis_2">
    <g id="ytick_1">
     <g id="line2d_7">
      <defs>
       <path id="mb20bc1dda5" d="M 0 0
L -3.5 0
" style="stroke: #000000; stroke-width: 3"/>
      </defs>
      <g>
       <use xlink:href="#mb20bc1dda5" x="79.595" y="334.360288" style="stroke: #000000; stroke-width: 3"/>
      </g>
     </g>
     <g id="text_8">
      <!-- 0.7 -->
      <g transform="translate(34.4275 343.478413) scale(0.24 -0.24)">
       <defs>
        <path id="DejaVuSans-2e" d="M 684 794
L 1344 794
L 1344 0
L 684 0
L 684 794
z
" transform="scale(0.015625)"/>
        <path id="DejaVuSans-37" d="M 525 4666
L 3525 4666
L 3525 4397
L 1831 0
L 1172 0
L 2766 4134
L 525 4134
L 525 4666
z
" transform="scale(0.015625)"/>
       </defs>
       <use xlink:href="#DejaVuSans-30"/>
       <use xlink:href="#DejaVuSans-2e" transform="translate(63.623047 0)"/>
       <use xlink:href="#DejaVuSans-37" transform="translate(95.410156 0)"/>
      </g>
     </g>
    </g>
    <g id="ytick_2">
     <g id="line2d_8">
      <g>
       <use xlink:href="#mb20bc1dda5" x="79.595" y="241.305228" style="stroke: #000000; stroke-width: 3"/>
      </g>
     </g>
     <g id="text_9">
      <!-- 0.8 -->
      <g transform="translate(34.4275 250.423353) scale(0.24 -0.24)">
       <use xlink:href="#DejaVuSans-30"/>
       <use xlink:href="#DejaVuSans-2e" transform="translate(63.623047 0)"/>
       <use xlink:href="#DejaVuSans-38" transform="translate(95.410156 0)"/>
      </g>
     </g>
    </g>
    <g id="ytick_3">
     <g id="line2d_9">
      <g>
       <use xlink:href="#mb20bc1dda5" x="79.595" y="148.250168" style="stroke: #000000; stroke-width: 3"/>
      </g>
     </g>
     <g id="text_10">
      <!-- 0.9 -->
      <g transform="translate(34.4275 157.368293) scale(0.24 -0.24)">
       <defs>
        <path id="DejaVuSans-39" d="M 703 97
L 703 672
Q 941 559 1184 500
Q 1428 441 1663 441
Q 2288 441 2617 861
Q 2947 1281 2994 2138
Q 2813 1869 2534 1725
Q 2256 1581 1919 1581
Q 1219 1581 811 2004
Q 403 2428 403 3163
Q 403 3881 828 4315
Q 1253 4750 1959 4750
Q 2769 4750 3195 4129
Q 3622 3509 3622 2328
Q 3622 1225 3098 567
Q 2575 -91 1691 -91
Q 1453 -91 1209 -44
Q 966 3 703 97
z
M 1959 2075
Q 2384 2075 2632 2365
Q 2881 2656 2881 3163
Q 2881 3666 2632 3958
Q 2384 4250 1959 4250
Q 1534 4250 1286 3958
Q 1038 3666 1038 3163
Q 1038 2656 1286 2365
Q 1534 2075 1959 2075
z
" transform="scale(0.015625)"/>
       </defs>
       <use xlink:href="#DejaVuSans-30"/>
       <use xlink:href="#DejaVuSans-2e" transform="translate(63.623047 0)"/>
       <use xlink:href="#DejaVuSans-39" transform="translate(95.410156 0)"/>
      </g>
     </g>
    </g>
    <g id="ytick_4">
     <g id="line2d_10">
      <g>
       <use xlink:href="#mb20bc1dda5" x="79.595" y="55.195108" style="stroke: #000000; stroke-width: 3"/>
      </g>
     </g>
     <g id="text_11">
      <!-- 1.0 -->
      <g transform="translate(34.4275 64.313233) scale(0.24 -0.24)">
       <use xlink:href="#DejaVuSans-31"/>
       <use xlink:href="#DejaVuSans-2e" transform="translate(63.623047 0)"/>
       <use xlink:href="#DejaVuSans-30" transform="translate(95.410156 0)"/>
      </g>
     </g>
    </g>
    <g id="text_12">
     <!-- Jaccard index -->
     <g transform="translate(25.43625 281.835375) rotate(-90) scale(0.24 -0.24)">
      <defs>
       <path id="DejaVuSans-4a" d="M 628 4666
L 1259 4666
L 1259 325
Q 1259 -519 939 -900
Q 619 -1281 -91 -1281
L -331 -1281
L -331 -750
L -134 -750
Q 284 -750 456 -515
Q 628 -281 628 325
L 628 4666
z
" transform="scale(0.015625)"/>
       <path id="DejaVuSans-61" d="M 2194 1759
Q 1497 1759 1228 1600
Q 959 1441 959 1056
Q 959 750 1161 570
Q 1363 391 1709 391
Q 2188 391 2477 730
Q 2766 1069 2766 1631
L 2766 1759
L 2194 1759
z
M 3341 1997
L 3341 0
L 2766 0
L 2766 531
Q 2569 213 2275 61
Q 1981 -91 1556 -91
Q 1019 -91 701 211
Q 384 513 384 1019
Q 384 1609 779 1909
Q 1175 2209 1959 2209
L 2766 2209
L 2766 2266
Q 2766 2663 2505 2880
Q 2244 3097 1772 3097
Q 1472 3097 1187 3025
Q 903 2953 641 2809
L 641 3341
Q 956 3463 1253 3523
Q 1550 3584 1831 3584
Q 2591 3584 2966 3190
Q 3341 2797 3341 1997
z
" transform="scale(0.015625)"/>
       <path id="DejaVuSans-63" d="M 3122 3366
L 3122 2828
Q 2878 2963 2633 3030
Q 2388 3097 2138 3097
Q 1578 3097 1268 2742
Q 959 2388 959 1747
Q 959 1106 1268 751
Q 1578 397 2138 397
Q 2388 397 2633 464
Q 2878 531 3122 666
L 3122 134
Q 2881 22 2623 -34
Q 2366 -91 2075 -91
Q 1284 -91 818 406
Q 353 903 353 1747
Q 353 2603 823 3093
Q 1294 3584 2113 3584
Q 2378 3584 2631 3529
Q 2884 3475 3122 3366
z
" transform="scale(0.015625)"/>
       <path id="DejaVuSans-72" d="M 2631 2963
Q 2534 3019 2420 3045
Q 2306 3072 2169 3072
Q 1681 3072 1420 2755
Q 1159 2438 1159 1844
L 1159 0
L 581 0
L 581 3500
L 1159 3500
L 1159 2956
Q 1341 3275 1631 3429
Q 1922 3584 2338 3584
Q 2397 3584 2469 3576
Q 2541 3569 2628 3553
L 2631 2963
z
" transform="scale(0.015625)"/>
       <path id="DejaVuSans-64" d="M 2906 2969
L 2906 4863
L 3481 4863
L 3481 0
L 2906 0
L 2906 525
Q 2725 213 2448 61
Q 2172 -91 1784 -91
Q 1150 -91 751 415
Q 353 922 353 1747
Q 353 2572 751 3078
Q 1150 3584 1784 3584
Q 2172 3584 2448 3432
Q 2725 3281 2906 2969
z
M 947 1747
Q 947 1113 1208 752
Q 1469 391 1925 391
Q 2381 391 2643 752
Q 2906 1113 2906 1747
Q 2906 2381 2643 2742
Q 2381 3103 1925 3103
Q 1469 3103 1208 2742
Q 947 2381 947 1747
z
" transform="scale(0.015625)"/>
       <path id="DejaVuSans-78" d="M 3513 3500
L 2247 1797
L 3578 0
L 2900 0
L 1881 1375
L 863 0
L 184 0
L 1544 1831
L 300 3500
L 978 3500
L 1906 2253
L 2834 3500
L 3513 3500
z
" transform="scale(0.015625)"/>
      </defs>
      <use xlink:href="#DejaVuSans-4a"/>
      <use xlink:href="#DejaVuSans-61" transform="translate(29.492188 0)"/>
      <use xlink:href="#DejaVuSans-63" transform="translate(90.771484 0)"/>
      <use xlink:href="#DejaVuSans-63" transform="translate(145.751953 0)"/>
      <use xlink:href="#DejaVuSans-61" transform="translate(200.732422 0)"/>
      <use xlink:href="#DejaVuSans-72" transform="translate(262.011719 0)"/>
      <use xlink:href="#DejaVuSans-64" transform="translate(301.375 0)"/>
      <use xlink:href="#DejaVuSans-20" transform="translate(364.851562 0)"/>
      <use xlink:href="#DejaVuSans-69" transform="translate(396.638672 0)"/>
      <use xlink:href="#DejaVuSans-6e" transform="translate(424.421875 0)"/>
      <use xlink:href="#DejaVuSans-64" transform="translate(487.800781 0)"/>
      <use xlink:href="#DejaVuSans-65" transform="translate(551.277344 0)"/>
      <use xlink:href="#DejaVuSans-78" transform="translate(611.050781 0)"/>
     </g>
    </g>
   </g>
   <g id="line2d_11">
    <path d="M 110.031364 50.2035
L 116.820813 91.618673
L 123.619267 127.158744
L 130.417721 157.613558
L 137.207171 183.678771
L 143.99662 206.019008
L 150.795074 225.190088
L 157.593528 241.61807
L 164.382978 255.678208
L 171.172427 267.729012
L 180.951396 282.124232
L 187.74985 290.405783
L 194.548304 297.502367
L 201.355762 303.590983
L 208.154216 308.80096
L 214.95267 313.265467
L 221.751124 317.091169
L 228.549579 320.36947
L 235.348033 323.178695
L 242.146487 325.585961
L 251.961473 328.466879
L 258.759927 330.117484
L 265.567386 331.533645
L 272.392854 332.749894
L 279.191308 333.787663
L 285.989762 334.676943
L 292.779211 335.438047
L 299.577665 336.091182
L 306.385124 336.651549
L 313.174573 337.130462
L 322.962546 337.703015
L 329.761 338.032067
L 336.559455 338.314036
L 343.357909 338.555659
L 350.156363 338.76271
L 356.954817 338.940135
L 363.762275 339.092359
L 370.551725 339.222456
L 377.359183 339.334235
L 384.157637 339.429883
L 393.936606 339.543976
L 400.73506 339.609613
L 407.542518 339.665928
L 414.331968 339.714056
L 421.139427 339.755408
L 427.937881 339.790793
L 434.736335 339.821114
L 441.534789 339.847097
L 448.324238 339.869335
L 455.131697 339.888442
L 464.901661 339.911181
L 471.700115 339.924277
L 478.498569 339.935499
L 485.306027 339.945127
L 492.104481 339.953365
L 498.902935 339.960425
L 505.746412 339.966512
L 512.544866 339.97169
L 519.343321 339.976128
L 526.13277 339.979926
L 535.911738 339.984463
L 542.710192 339.987073
L 549.517651 339.989313
L 556.316105 339.991229
L 563.114559 339.992871
L 569.913013 339.994278
L 576.711467 339.995484
L 583.509921 339.996517
L 590.308375 339.997402
L 597.106829 339.998161
L 606.885798 339.999066
L 613.684252 339.999587
L 620.49171 340.000033
L 627.389215 340.000421
L 634.196673 340.000748
L 641.004132 340.001028
L 647.802586 340.001268
L 654.60104 340.001474
L 661.399494 340.00165
L 668.206953 340.001801
L 677.976917 340.001981
L 684.775371 340.002084
L 691.573825 340.002173
L 698.372279 340.002249
L 705.170733 340.002314
L 711.960182 340.00237
L 718.758636 340.002418
" clip-path="url(#p15d348eedb)" style="fill: none; stroke: #ff0000; stroke-width: 1.5; stroke-linecap: square"/>
   </g>
   <g id="line2d_12">
    <defs>
     <path id="mad824476d0" d="M 0 3
C 0.795609 3 1.55874 2.683901 2.12132 2.12132
C 2.683901 1.55874 3 0.795609 3 0
C 3 -0.795609 2.683901 -1.55874 2.12132 -2.12132
C 1.55874 -2.683901 0.795609 -3 0 -3
C -0.795609 -3 -1.55874 -2.683901 -2.12132 -2.12132
C -2.683901 -1.55874 -3 -0.795609 -3 0
C -3 0.795609 -2.683901 1.55874 -2.12132 2.12132
C -1.55874 2.683901 -0.795609 3 0 3
z
" style="stroke: #1f77b4"/>
    </defs>
    <g clip-path="url(#p15d348eedb)">
     <use xlink:href="#mad824476d0" x="110.031364" y="55.195108" style="fill: #1f77b4; stroke: #1f77b4"/>
     <use xlink:href="#mad824476d0" x="116.820813" y="89.494627" style="fill: #1f77b4; stroke: #1f77b4"/>
     <use xlink:href="#mad824476d0" x="123.619267" y="107.491591" style="fill: #1f77b4; stroke: #1f77b4"/>
     <use xlink:href="#mad824476d0" x="130.417721" y="151.473711" style="fill: #1f77b4; stroke: #1f77b4"/>
     <use xlink:href="#mad824476d0" x="137.207171" y="192.195551" style="fill: #1f77b4; stroke: #1f77b4"/>
     <use xlink:href="#mad824476d0" x="143.99662" y="212.696325" style="fill: #1f77b4; stroke: #1f77b4"/>
     <use xlink:href="#mad824476d0" x="150.795074" y="237.721889" style="fill: #1f77b4; stroke: #1f77b4"/>
     <use xlink:href="#mad824476d0" x="157.593528" y="244.520614" style="fill: #1f77b4; stroke: #1f77b4"/>
     <use xlink:href="#mad824476d0" x="164.382978" y="265.450112" style="fill: #1f77b4; stroke: #1f77b4"/>
     <use xlink:href="#mad824476d0" x="171.172427" y="272.743861" style="fill: #1f77b4; stroke: #1f77b4"/>
     <use xlink:href="#mad824476d0" x="180.951396" y="289.467451" style="fill: #1f77b4; stroke: #1f77b4"/>
     <use xlink:href="#mad824476d0" x="187.74985" y="297.709146" style="fill: #1f77b4; stroke: #1f77b4"/>
     <use xlink:href="#mad824476d0" x="194.548304" y="288.221158" style="fill: #1f77b4; stroke: #1f77b4"/>
     <use xlink:href="#mad824476d0" x="201.355762" y="298.635205" style="fill: #1f77b4; stroke: #1f77b4"/>
     <use xlink:href="#mad824476d0" x="208.154216" y="303.770185" style="fill: #1f77b4; stroke: #1f77b4"/>
     <use xlink:href="#mad824476d0" x="214.95267" y="306.006187" style="fill: #1f77b4; stroke: #1f77b4"/>
     <use xlink:href="#mad824476d0" x="221.751124" y="322.446078" style="fill: #1f77b4; stroke: #1f77b4"/>
     <use xlink:href="#mad824476d0" x="228.549579" y="311.548044" style="fill: #1f77b4; stroke: #1f77b4"/>
     <use xlink:href="#mad824476d0" x="235.348033" y="317.001269" style="fill: #1f77b4; stroke: #1f77b4"/>
     <use xlink:href="#mad824476d0" x="242.146487" y="317.039626" style="fill: #1f77b4; stroke: #1f77b4"/>
     <use xlink:href="#mad824476d0" x="251.961473" y="322.306596" style="fill: #1f77b4; stroke: #1f77b4"/>
     <use xlink:href="#mad824476d0" x="258.759927" y="329.625261" style="fill: #1f77b4; stroke: #1f77b4"/>
     <use xlink:href="#mad824476d0" x="265.567386" y="322.836307" style="fill: #1f77b4; stroke: #1f77b4"/>
     <use xlink:href="#mad824476d0" x="272.392854" y="340.157052" style="fill: #1f77b4; stroke: #1f77b4"/>
     <use xlink:href="#mad824476d0" x="279.191308" y="324.253377" style="fill: #1f77b4; stroke: #1f77b4"/>
     <use xlink:href="#mad824476d0" x="285.989762" y="328.768151" style="fill: #1f77b4; stroke: #1f77b4"/>
     <use xlink:href="#mad824476d0" x="292.779211" y="321.533105" style="fill: #1f77b4; stroke: #1f77b4"/>
     <use xlink:href="#mad824476d0" x="299.577665" y="330.293868" style="fill: #1f77b4; stroke: #1f77b4"/>
     <use xlink:href="#mad824476d0" x="306.385124" y="332.583189" style="fill: #1f77b4; stroke: #1f77b4"/>
     <use xlink:href="#mad824476d0" x="313.174573" y="336.685042" style="fill: #1f77b4; stroke: #1f77b4"/>
     <use xlink:href="#mad824476d0" x="322.962546" y="337.867366" style="fill: #1f77b4; stroke: #1f77b4"/>
     <use xlink:href="#mad824476d0" x="329.761" y="331.316239" style="fill: #1f77b4; stroke: #1f77b4"/>
     <use xlink:href="#mad824476d0" x="336.559455" y="335.532818" style="fill: #1f77b4; stroke: #1f77b4"/>
     <use xlink:href="#mad824476d0" x="343.357909" y="335.453007" style="fill: #1f77b4; stroke: #1f77b4"/>
     <use xlink:href="#mad824476d0" x="350.156363" y="330.4379" style="fill: #1f77b4; stroke: #1f77b4"/>
     <use xlink:href="#mad824476d0" x="356.954817" y="334.550162" style="fill: #1f77b4; stroke: #1f77b4"/>
     <use xlink:href="#mad824476d0" x="363.762275" y="338.771173" style="fill: #1f77b4; stroke: #1f77b4"/>
     <use xlink:href="#mad824476d0" x="370.551725" y="346.540717" style="fill: #1f77b4; stroke: #1f77b4"/>
     <use xlink:href="#mad824476d0" x="377.359183" y="328.893753" style="fill: #1f77b4; stroke: #1f77b4"/>
     <use xlink:href="#mad824476d0" x="384.157637" y="331.23737" style="fill: #1f77b4; stroke: #1f77b4"/>
     <use xlink:href="#mad824476d0" x="393.936606" y="333.334877" style="fill: #1f77b4; stroke: #1f77b4"/>
     <use xlink:href="#mad824476d0" x="400.73506" y="352.6035" style="fill: #1f77b4; stroke: #1f77b4"/>
     <use xlink:href="#mad824476d0" x="407.542518" y="334.07189" style="fill: #1f77b4; stroke: #1f77b4"/>
     <use xlink:href="#mad824476d0" x="414.331968" y="338.693866" style="fill: #1f77b4; stroke: #1f77b4"/>
     <use xlink:href="#mad824476d0" x="421.139427" y="338.161073" style="fill: #1f77b4; stroke: #1f77b4"/>
     <use xlink:href="#mad824476d0" x="427.937881" y="333.249956" style="fill: #1f77b4; stroke: #1f77b4"/>
     <use xlink:href="#mad824476d0" x="434.736335" y="337.798582" style="fill: #1f77b4; stroke: #1f77b4"/>
     <use xlink:href="#mad824476d0" x="441.534789" y="337.151892" style="fill: #1f77b4; stroke: #1f77b4"/>
     <use xlink:href="#mad824476d0" x="448.324238" y="337.283927" style="fill: #1f77b4; stroke: #1f77b4"/>
     <use xlink:href="#mad824476d0" x="455.131697" y="337.405894" style="fill: #1f77b4; stroke: #1f77b4"/>
     <use xlink:href="#mad824476d0" x="464.901661" y="343.971977" style="fill: #1f77b4; stroke: #1f77b4"/>
     <use xlink:href="#mad824476d0" x="471.700115" y="338.924394" style="fill: #1f77b4; stroke: #1f77b4"/>
     <use xlink:href="#mad824476d0" x="478.498569" y="336.509532" style="fill: #1f77b4; stroke: #1f77b4"/>
     <use xlink:href="#mad824476d0" x="485.306027" y="338.075099" style="fill: #1f77b4; stroke: #1f77b4"/>
     <use xlink:href="#mad824476d0" x="492.104481" y="343.587135" style="fill: #1f77b4; stroke: #1f77b4"/>
     <use xlink:href="#mad824476d0" x="498.902935" y="336.139263" style="fill: #1f77b4; stroke: #1f77b4"/>
     <use xlink:href="#mad824476d0" x="505.746412" y="338.030354" style="fill: #1f77b4; stroke: #1f77b4"/>
     <use xlink:href="#mad824476d0" x="512.544866" y="340.738219" style="fill: #1f77b4; stroke: #1f77b4"/>
     <use xlink:href="#mad824476d0" x="519.343321" y="338.888627" style="fill: #1f77b4; stroke: #1f77b4"/>
     <use xlink:href="#mad824476d0" x="526.13277" y="344.120468" style="fill: #1f77b4; stroke: #1f77b4"/>
     <use xlink:href="#mad824476d0" x="535.911738" y="344.988178" style="fill: #1f77b4; stroke: #1f77b4"/>
     <use xlink:href="#mad824476d0" x="542.710192" y="338.574039" style="fill: #1f77b4; stroke: #1f77b4"/>
     <use xlink:href="#mad824476d0" x="549.517651" y="349.322618" style="fill: #1f77b4; stroke: #1f77b4"/>
     <use xlink:href="#mad824476d0" x="556.316105" y="351.863769" style="fill: #1f77b4; stroke: #1f77b4"/>
     <use xlink:href="#mad824476d0" x="563.114559" y="336.168303" style="fill: #1f77b4; stroke: #1f77b4"/>
     <use xlink:href="#mad824476d0" x="569.913013" y="341.793126" style="fill: #1f77b4; stroke: #1f77b4"/>
     <use xlink:href="#mad824476d0" x="576.711467" y="344.560742" style="fill: #1f77b4; stroke: #1f77b4"/>
     <use xlink:href="#mad824476d0" x="583.509921" y="339.24001" style="fill: #1f77b4; stroke: #1f77b4"/>
     <use xlink:href="#mad824476d0" x="590.308375" y="341.047544" style="fill: #1f77b4; stroke: #1f77b4"/>
     <use xlink:href="#mad824476d0" x="597.106829" y="344.39081" style="fill: #1f77b4; stroke: #1f77b4"/>
     <use xlink:href="#mad824476d0" x="606.885798" y="343.697354" style="fill: #1f77b4; stroke: #1f77b4"/>
     <use xlink:href="#mad824476d0" x="613.684252" y="344.513156" style="fill: #1f77b4; stroke: #1f77b4"/>
     <use xlink:href="#mad824476d0" x="620.49171" y="350.768212" style="fill: #1f77b4; stroke: #1f77b4"/>
     <use xlink:href="#mad824476d0" x="627.389215" y="341.066791" style="fill: #1f77b4; stroke: #1f77b4"/>
     <use xlink:href="#mad824476d0" x="634.196673" y="343.075495" style="fill: #1f77b4; stroke: #1f77b4"/>
     <use xlink:href="#mad824476d0" x="641.004132" y="344.300756" style="fill: #1f77b4; stroke: #1f77b4"/>
     <use xlink:href="#mad824476d0" x="647.802586" y="337.936671" style="fill: #1f77b4; stroke: #1f77b4"/>
     <use xlink:href="#mad824476d0" x="654.60104" y="345.338045" style="fill: #1f77b4; stroke: #1f77b4"/>
     <use xlink:href="#mad824476d0" x="661.399494" y="346.617136" style="fill: #1f77b4; stroke: #1f77b4"/>
     <use xlink:href="#mad824476d0" x="668.206953" y="342.652328" style="fill: #1f77b4; stroke: #1f77b4"/>
     <use xlink:href="#mad824476d0" x="677.976917" y="342.562196" style="fill: #1f77b4; stroke: #1f77b4"/>
     <use xlink:href="#mad824476d0" x="684.775371" y="343.081777" style="fill: #1f77b4; stroke: #1f77b4"/>
     <use xlink:href="#mad824476d0" x="691.573825" y="345.289253" style="fill: #1f77b4; stroke: #1f77b4"/>
     <use xlink:href="#mad824476d0" x="698.372279" y="346.849607" style="fill: #1f77b4; stroke: #1f77b4"/>
     <use xlink:href="#mad824476d0" x="705.170733" y="345.699302" style="fill: #1f77b4; stroke: #1f77b4"/>
     <use xlink:href="#mad824476d0" x="711.960182" y="350.521057" style="fill: #1f77b4; stroke: #1f77b4"/>
     <use xlink:href="#mad824476d0" x="718.758636" y="344.303383" style="fill: #1f77b4; stroke: #1f77b4"/>
    </g>
   </g>
   <g id="line2d_13">
    <path d="M 343.357909 367.7235
L 343.357909 35.0835
" clip-path="url(#p15d348eedb)" style="fill: none; stroke-dasharray: 5.55,2.4; stroke-dashoffset: 0; stroke: #ff0000; stroke-width: 1.5"/>
   </g>
   <g id="patch_3">
    <path d="M 79.595 367.7235
L 79.595 35.0835
" style="fill: none; stroke: #000000; stroke-width: 3; stroke-linejoin: miter; stroke-linecap: square"/>
   </g>
   <g id="patch_4">
    <path d="M 749.195 367.7235
L 749.195 35.0835
" style="fill: none; stroke: #000000; stroke-width: 3; stroke-linejoin: miter; stroke-linecap: square"/>
   </g>
   <g id="patch_5">
    <path d="M 79.595 367.7235
L 749.195 367.7235
" style="fill: none; stroke: #000000; stroke-width: 3; stroke-linejoin: miter; stroke-linecap: square"/>
   </g>
   <g id="patch_6">
    <path d="M 79.595 35.0835
L 749.195 35.0835
" style="fill: none; stroke: #000000; stroke-width: 3; stroke-linejoin: miter; stroke-linecap: square"/>
   </g>
   <g id="text_13">
    <!-- Jaccard index for loph-3-v7 -->
    <g transform="translate(220.985 29.0835) scale(0.288 -0.288)">
     <defs>
      <path id="DejaVuSans-66" d="M 2375 4863
L 2375 4384
L 1825 4384
Q 1516 4384 1395 4259
Q 1275 4134 1275 3809
L 1275 3500
L 2222 3500
L 2222 3053
L 1275 3053
L 1275 0
L 697 0
L 697 3053
L 147 3053
L 147 3500
L 697 3500
L 697 3744
Q 697 4328 969 4595
Q 1241 4863 1831 4863
L 2375 4863
z
" transform="scale(0.015625)"/>
      <path id="DejaVuSans-6f" d="M 1959 3097
Q 1497 3097 1228 2736
Q 959 2375 959 1747
Q 959 1119 1226 758
Q 1494 397 1959 397
Q 2419 397 2687 759
Q 2956 1122 2956 1747
Q 2956 2369 2687 2733
Q 2419 3097 1959 3097
z
M 1959 3584
Q 2709 3584 3137 3096
Q 3566 2609 3566 1747
Q 3566 888 3137 398
Q 2709 -91 1959 -91
Q 1206 -91 779 398
Q 353 888 353 1747
Q 353 2609 779 3096
Q 1206 3584 1959 3584
z
" transform="scale(0.015625)"/>
      <path id="DejaVuSans-6c" d="M 603 4863
L 1178 4863
L 1178 0
L 603 0
L 603 4863
z
" transform="scale(0.015625)"/>
      <path id="DejaVuSans-70" d="M 1159 525
L 1159 -1331
L 581 -1331
L 581 3500
L 1159 3500
L 1159 2969
Q 1341 3281 1617 3432
Q 1894 3584 2278 3584
Q 2916 3584 3314 3078
Q 3713 2572 3713 1747
Q 3713 922 3314 415
Q 2916 -91 2278 -91
Q 1894 -91 1617 61
Q 1341 213 1159 525
z
M 3116 1747
Q 3116 2381 2855 2742
Q 2594 3103 2138 3103
Q 1681 3103 1420 2742
Q 1159 2381 1159 1747
Q 1159 1113 1420 752
Q 1681 391 2138 391
Q 2594 391 2855 752
Q 3116 1113 3116 1747
z
" transform="scale(0.015625)"/>
      <path id="DejaVuSans-68" d="M 3513 2113
L 3513 0
L 2938 0
L 2938 2094
Q 2938 2591 2744 2837
Q 2550 3084 2163 3084
Q 1697 3084 1428 2787
Q 1159 2491 1159 1978
L 1159 0
L 581 0
L 581 4863
L 1159 4863
L 1159 2956
Q 1366 3272 1645 3428
Q 1925 3584 2291 3584
Q 2894 3584 3203 3211
Q 3513 2838 3513 2113
z
" transform="scale(0.015625)"/>
      <path id="DejaVuSans-2d" d="M 313 2009
L 1997 2009
L 1997 1497
L 313 1497
L 313 2009
z
" transform="scale(0.015625)"/>
      <path id="DejaVuSans-33" d="M 2597 2516
Q 3050 2419 3304 2112
Q 3559 1806 3559 1356
Q 3559 666 3084 287
Q 2609 -91 1734 -91
Q 1441 -91 1130 -33
Q 819 25 488 141
L 488 750
Q 750 597 1062 519
Q 1375 441 1716 441
Q 2309 441 2620 675
Q 2931 909 2931 1356
Q 2931 1769 2642 2001
Q 2353 2234 1838 2234
L 1294 2234
L 1294 2753
L 1863 2753
Q 2328 2753 2575 2939
Q 2822 3125 2822 3475
Q 2822 3834 2567 4026
Q 2313 4219 1838 4219
Q 1578 4219 1281 4162
Q 984 4106 628 3988
L 628 4550
Q 988 4650 1302 4700
Q 1616 4750 1894 4750
Q 2613 4750 3031 4423
Q 3450 4097 3450 3541
Q 3450 3153 3228 2886
Q 3006 2619 2597 2516
z
" transform="scale(0.015625)"/>
      <path id="DejaVuSans-76" d="M 191 3500
L 800 3500
L 1894 563
L 2988 3500
L 3597 3500
L 2284 0
L 1503 0
L 191 3500
z
" transform="scale(0.015625)"/>
     </defs>
     <use xlink:href="#DejaVuSans-4a"/>
     <use xlink:href="#DejaVuSans-61" transform="translate(29.492188 0)"/>
     <use xlink:href="#DejaVuSans-63" transform="translate(90.771484 0)"/>
     <use xlink:href="#DejaVuSans-63" transform="translate(145.751953 0)"/>
     <use xlink:href="#DejaVuSans-61" transform="translate(200.732422 0)"/>
     <use xlink:href="#DejaVuSans-72" transform="translate(262.011719 0)"/>
     <use xlink:href="#DejaVuSans-64" transform="translate(301.375 0)"/>
     <use xlink:href="#DejaVuSans-20" transform="translate(364.851562 0)"/>
     <use xlink:href="#DejaVuSans-69" transform="translate(396.638672 0)"/>
     <use xlink:href="#DejaVuSans-6e" transform="translate(424.421875 0)"/>
     <use xlink:href="#DejaVuSans-64" transform="translate(487.800781 0)"/>
     <use xlink:href="#DejaVuSans-65" transform="translate(551.277344 0)"/>
     <use xlink:href="#DejaVuSans-78" transform="translate(611.050781 0)"/>
     <use xlink:href="#DejaVuSans-20" transform="translate(670.230469 0)"/>
     <use xlink:href="#DejaVuSans-66" transform="translate(702.017578 0)"/>
     <use xlink:href="#DejaVuSans-6f" transform="translate(737.222656 0)"/>
     <use xlink:href="#DejaVuSans-72" transform="translate(798.404297 0)"/>
     <use xlink:href="#DejaVuSans-20" transform="translate(839.517578 0)"/>
     <use xlink:href="#DejaVuSans-6c" transform="translate(871.304688 0)"/>
     <use xlink:href="#DejaVuSans-6f" transform="translate(899.087891 0)"/>
     <use xlink:href="#DejaVuSans-70" transform="translate(960.269531 0)"/>
     <use xlink:href="#DejaVuSans-68" transform="translate(1023.746094 0)"/>
     <use xlink:href="#DejaVuSans-2d" transform="translate(1087.125 0)"/>
     <use xlink:href="#DejaVuSans-33" transform="translate(1123.208984 0)"/>
     <use xlink:href="#DejaVuSans-2d" transform="translate(1186.832031 0)"/>
     <use xlink:href="#DejaVuSans-76" transform="translate(1220.291016 0)"/>
     <use xlink:href="#DejaVuSans-37" transform="translate(1279.470703 0)"/>
    </g>
   </g>
   <g id="legend_1">
    <g id="patch_7">
     <path d="M 176.47625 124.7385
L 732.395 124.7385
Q 737.195 124.7385 737.195 119.9385
L 737.195 51.8835
Q 737.195 47.0835 732.395 47.0835
L 176.47625 47.0835
Q 171.67625 47.0835 171.67625 51.8835
L 171.67625 119.9385
Q 171.67625 124.7385 176.47625 124.7385
z
" style="fill: #ffffff; opacity: 0.8; stroke: #cccccc; stroke-linejoin: miter"/>
    </g>
    <g id="line2d_14">
     <path d="M 181.27625 66.51975
L 205.27625 66.51975
L 229.27625 66.51975
" style="fill: none; stroke: #ff0000; stroke-width: 1.5; stroke-linecap: square"/>
    </g>
    <g id="text_14">
     <!-- fit 1st: a=0.311, b=2.045e-04, c=0.694 -->
     <g transform="translate(248.47625 74.91975) scale(0.24 -0.24)">
      <defs>
       <path id="DejaVuSans-74" d="M 1172 4494
L 1172 3500
L 2356 3500
L 2356 3053
L 1172 3053
L 1172 1153
Q 1172 725 1289 603
Q 1406 481 1766 481
L 2356 481
L 2356 0
L 1766 0
Q 1100 0 847 248
Q 594 497 594 1153
L 594 3053
L 172 3053
L 172 3500
L 594 3500
L 594 4494
L 1172 4494
z
" transform="scale(0.015625)"/>
       <path id="DejaVuSans-73" d="M 2834 3397
L 2834 2853
Q 2591 2978 2328 3040
Q 2066 3103 1784 3103
Q 1356 3103 1142 2972
Q 928 2841 928 2578
Q 928 2378 1081 2264
Q 1234 2150 1697 2047
L 1894 2003
Q 2506 1872 2764 1633
Q 3022 1394 3022 966
Q 3022 478 2636 193
Q 2250 -91 1575 -91
Q 1294 -91 989 -36
Q 684 19 347 128
L 347 722
Q 666 556 975 473
Q 1284 391 1588 391
Q 1994 391 2212 530
Q 2431 669 2431 922
Q 2431 1156 2273 1281
Q 2116 1406 1581 1522
L 1381 1569
Q 847 1681 609 1914
Q 372 2147 372 2553
Q 372 3047 722 3315
Q 1072 3584 1716 3584
Q 2034 3584 2315 3537
Q 2597 3491 2834 3397
z
" transform="scale(0.015625)"/>
       <path id="DejaVuSans-3a" d="M 750 794
L 1409 794
L 1409 0
L 750 0
L 750 794
z
M 750 3309
L 1409 3309
L 1409 2516
L 750 2516
L 750 3309
z
" transform="scale(0.015625)"/>
       <path id="DejaVuSans-3d" d="M 678 2906
L 4684 2906
L 4684 2381
L 678 2381
L 678 2906
z
M 678 1631
L 4684 1631
L 4684 1100
L 678 1100
L 678 1631
z
" transform="scale(0.015625)"/>
       <path id="DejaVuSans-2c" d="M 750 794
L 1409 794
L 1409 256
L 897 -744
L 494 -744
L 750 256
L 750 794
z
" transform="scale(0.015625)"/>
       <path id="DejaVuSans-62" d="M 3116 1747
Q 3116 2381 2855 2742
Q 2594 3103 2138 3103
Q 1681 3103 1420 2742
Q 1159 2381 1159 1747
Q 1159 1113 1420 752
Q 1681 391 2138 391
Q 2594 391 2855 752
Q 3116 1113 3116 1747
z
M 1159 2969
Q 1341 3281 1617 3432
Q 1894 3584 2278 3584
Q 2916 3584 3314 3078
Q 3713 2572 3713 1747
Q 3713 922 3314 415
Q 2916 -91 2278 -91
Q 1894 -91 1617 61
Q 1341 213 1159 525
L 1159 0
L 581 0
L 581 4863
L 1159 4863
L 1159 2969
z
" transform="scale(0.015625)"/>
       <path id="DejaVuSans-35" d="M 691 4666
L 3169 4666
L 3169 4134
L 1269 4134
L 1269 2991
Q 1406 3038 1543 3061
Q 1681 3084 1819 3084
Q 2600 3084 3056 2656
Q 3513 2228 3513 1497
Q 3513 744 3044 326
Q 2575 -91 1722 -91
Q 1428 -91 1123 -41
Q 819 9 494 109
L 494 744
Q 775 591 1075 516
Q 1375 441 1709 441
Q 2250 441 2565 725
Q 2881 1009 2881 1497
Q 2881 1984 2565 2268
Q 2250 2553 1709 2553
Q 1456 2553 1204 2497
Q 953 2441 691 2322
L 691 4666
z
" transform="scale(0.015625)"/>
      </defs>
      <use xlink:href="#DejaVuSans-66"/>
      <use xlink:href="#DejaVuSans-69" transform="translate(35.205078 0)"/>
      <use xlink:href="#DejaVuSans-74" transform="translate(62.988281 0)"/>
      <use xlink:href="#DejaVuSans-20" transform="translate(102.197266 0)"/>
      <use xlink:href="#DejaVuSans-31" transform="translate(133.984375 0)"/>
      <use xlink:href="#DejaVuSans-73" transform="translate(197.607422 0)"/>
      <use xlink:href="#DejaVuSans-74" transform="translate(249.707031 0)"/>
      <use xlink:href="#DejaVuSans-3a" transform="translate(288.916016 0)"/>
      <use xlink:href="#DejaVuSans-20" transform="translate(322.607422 0)"/>
      <use xlink:href="#DejaVuSans-61" transform="translate(354.394531 0)"/>
      <use xlink:href="#DejaVuSans-3d" transform="translate(415.673828 0)"/>
      <use xlink:href="#DejaVuSans-30" transform="translate(499.462891 0)"/>
      <use xlink:href="#DejaVuSans-2e" transform="translate(563.085938 0)"/>
      <use xlink:href="#DejaVuSans-33" transform="translate(594.873047 0)"/>
      <use xlink:href="#DejaVuSans-31" transform="translate(658.496094 0)"/>
      <use xlink:href="#DejaVuSans-31" transform="translate(722.119141 0)"/>
      <use xlink:href="#DejaVuSans-2c" transform="translate(785.742188 0)"/>
      <use xlink:href="#DejaVuSans-20" transform="translate(817.529297 0)"/>
      <use xlink:href="#DejaVuSans-62" transform="translate(849.316406 0)"/>
      <use xlink:href="#DejaVuSans-3d" transform="translate(912.792969 0)"/>
      <use xlink:href="#DejaVuSans-32" transform="translate(996.582031 0)"/>
      <use xlink:href="#DejaVuSans-2e" transform="translate(1060.205078 0)"/>
      <use xlink:href="#DejaVuSans-30" transform="translate(1091.992188 0)"/>
      <use xlink:href="#DejaVuSans-34" transform="translate(1155.615234 0)"/>
      <use xlink:href="#DejaVuSans-35" transform="translate(1219.238281 0)"/>
      <use xlink:href="#DejaVuSans-65" transform="translate(1282.861328 0)"/>
      <use xlink:href="#DejaVuSans-2d" transform="translate(1344.384766 0)"/>
      <use xlink:href="#DejaVuSans-30" transform="translate(1380.46875 0)"/>
      <use xlink:href="#DejaVuSans-34" transform="translate(1444.091797 0)"/>
      <use xlink:href="#DejaVuSans-2c" transform="translate(1507.714844 0)"/>
      <use xlink:href="#DejaVuSans-20" transform="translate(1539.501953 0)"/>
      <use xlink:href="#DejaVuSans-63" transform="translate(1571.289062 0)"/>
      <use xlink:href="#DejaVuSans-3d" transform="translate(1626.269531 0)"/>
      <use xlink:href="#DejaVuSans-30" transform="translate(1710.058594 0)"/>
      <use xlink:href="#DejaVuSans-2e" transform="translate(1773.681641 0)"/>
      <use xlink:href="#DejaVuSans-36" transform="translate(1805.46875 0)"/>
      <use xlink:href="#DejaVuSans-39" transform="translate(1869.091797 0)"/>
      <use xlink:href="#DejaVuSans-34" transform="translate(1932.714844 0)"/>
     </g>
    </g>
    <g id="line2d_15">
     <path d="M 181.27625 101.74725
L 205.27625 101.74725
L 229.27625 101.74725
" style="fill: none; stroke-dasharray: 5.55,2.4; stroke-dashoffset: 0; stroke: #ff0000; stroke-width: 1.5"/>
    </g>
    <g id="text_15">
     <!-- Plateau after 7:11:52 -->
     <g transform="translate(248.47625 110.14725) scale(0.24 -0.24)">
      <defs>
       <path id="DejaVuSans-50" d="M 1259 4147
L 1259 2394
L 2053 2394
Q 2494 2394 2734 2622
Q 2975 2850 2975 3272
Q 2975 3691 2734 3919
Q 2494 4147 2053 4147
L 1259 4147
z
M 628 4666
L 2053 4666
Q 2838 4666 3239 4311
Q 3641 3956 3641 3272
Q 3641 2581 3239 2228
Q 2838 1875 2053 1875
L 1259 1875
L 1259 0
L 628 0
L 628 4666
z
" transform="scale(0.015625)"/>
       <path id="DejaVuSans-75" d="M 544 1381
L 544 3500
L 1119 3500
L 1119 1403
Q 1119 906 1312 657
Q 1506 409 1894 409
Q 2359 409 2629 706
Q 2900 1003 2900 1516
L 2900 3500
L 3475 3500
L 3475 0
L 2900 0
L 2900 538
Q 2691 219 2414 64
Q 2138 -91 1772 -91
Q 1169 -91 856 284
Q 544 659 544 1381
z
M 1991 3584
L 1991 3584
z
" transform="scale(0.015625)"/>
      </defs>
      <use xlink:href="#DejaVuSans-50"/>
      <use xlink:href="#DejaVuSans-6c" transform="translate(60.302734 0)"/>
      <use xlink:href="#DejaVuSans-61" transform="translate(88.085938 0)"/>
      <use xlink:href="#DejaVuSans-74" transform="translate(149.365234 0)"/>
      <use xlink:href="#DejaVuSans-65" transform="translate(188.574219 0)"/>
      <use xlink:href="#DejaVuSans-61" transform="translate(250.097656 0)"/>
      <use xlink:href="#DejaVuSans-75" transform="translate(311.376953 0)"/>
      <use xlink:href="#DejaVuSans-20" transform="translate(374.755859 0)"/>
      <use xlink:href="#DejaVuSans-61" transform="translate(406.542969 0)"/>
      <use xlink:href="#DejaVuSans-66" transform="translate(467.822266 0)"/>
      <use xlink:href="#DejaVuSans-74" transform="translate(501.277344 0)"/>
      <use xlink:href="#DejaVuSans-65" transform="translate(540.486328 0)"/>
      <use xlink:href="#DejaVuSans-72" transform="translate(602.009766 0)"/>
      <use xlink:href="#DejaVuSans-20" transform="translate(643.123047 0)"/>
      <use xlink:href="#DejaVuSans-37" transform="translate(674.910156 0)"/>
      <use xlink:href="#DejaVuSans-3a" transform="translate(738.533203 0)"/>
      <use xlink:href="#DejaVuSans-31" transform="translate(772.224609 0)"/>
      <use xlink:href="#DejaVuSans-31" transform="translate(835.847656 0)"/>
      <use xlink:href="#DejaVuSans-3a" transform="translate(899.470703 0)"/>
      <use xlink:href="#DejaVuSans-35" transform="translate(933.162109 0)"/>
      <use xlink:href="#DejaVuSans-32" transform="translate(996.785156 0)"/>
     </g>
    </g>
   </g>
  </g>
 </g>
 <defs>
  <clipPath id="p15d348eedb">
   <rect x="79.595" y="35.0835" width="669.6" height="332.64"/>
  </clipPath>
 </defs>
</svg>
