<?xml version="1.0" encoding="utf-8" standalone="no"?>
<!DOCTYPE svg PUBLIC "-//W3C//DTD SVG 1.1//EN"
  "http://www.w3.org/Graphics/SVG/1.1/DTD/svg11.dtd">
<svg xmlns:xlink="http://www.w3.org/1999/xlink" width="563.735pt" height="404.495pt" viewBox="0 0 563.735 404.495" xmlns="http://www.w3.org/2000/svg" version="1.1">
 <metadata>
  <rdf:RDF xmlns:dc="http://purl.org/dc/elements/1.1/" xmlns:cc="http://creativecommons.org/ns#" xmlns:rdf="http://www.w3.org/1999/02/22-rdf-syntax-ns#">
   <cc:Work>
    <dc:type rdf:resource="http://purl.org/dc/dcmitype/StillImage"/>
    <dc:date>2025-11-02T23:45:39.526804</dc:date>
    <dc:format>image/svg+xml</dc:format>
    <dc:creator>
     <cc:Agent>
      <dc:title>Matplotlib v3.10.7, https://matplotlib.org/</dc:title>
     </cc:Agent>
    </dc:creator>
   </cc:Work>
  </rdf:RDF>
 </metadata>
 <defs>
  <style type="text/css">*{stroke-linejoin: round; stroke-linecap: butt}</style>
 </defs>
 <g id="figure_1">
  <g id="patch_1">
   <path d="M 0 404.495
L 563.735 404.495
L 563.735 0
L 0 0
L 0 404.495
z
" style="fill: none"/>
  </g>
  <g id="axes_1">
   <g id="patch_2">
    <path d="M 94.865 339.84
L 541.265 339.84
L 541.265 7.2
L 94.865 7.2
L 94.865 339.84
z
" style="fill: none"/>
   </g>
   <g id="matplotlib.axis_1">
    <g id="xtick_1">
     <g id="line2d_1">
      <defs>
       <path id="m558dff21d2" d="M 0 0
L 0 3.5
" style="stroke: #000000; stroke-width: 3"/>
      </defs>
      <g>
       <use xlink:href="#m558dff21d2" x="94.865" y="339.84" style="stroke: #000000; stroke-width: 3"/>
      </g>
     </g>
     <g id="text_1">
      <!-- 0 -->
      <g transform="translate(87.23 365.07625) scale(0.24 -0.24)">
       <defs>
        <path id="DejaVuSans-30" d="M 2034 4250
Q 1547 4250 1301 3770
Q 1056 3291 1056 2328
Q 1056 1369 1301 889
Q 1547 409 2034 409
Q 2525 409 2770 889
Q 3016 1369 3016 2328
Q 3016 3291 2770 3770
Q 2525 4250 2034 4250
z
M 2034 4750
Q 2819 4750 3233 4129
Q 3647 3509 3647 2328
Q 3647 1150 3233 529
Q 2819 -91 2034 -91
Q 1250 -91 836 529
Q 422 1150 422 2328
Q 422 3509 836 4129
Q 1250 4750 2034 4750
z
" transform="scale(0.015625)"/>
       </defs>
       <use xlink:href="#DejaVuSans-30"/>
      </g>
     </g>
    </g>
    <g id="xtick_2">
     <g id="line2d_2">
      <g>
       <use xlink:href="#m558dff21d2" x="184.145" y="339.84" style="stroke: #000000; stroke-width: 3"/>
      </g>
     </g>
     <g id="text_2">
      <!-- 10 -->
      <g transform="translate(168.875 365.07625) scale(0.24 -0.24)">
       <defs>
        <path id="DejaVuSans-31" d="M 794 531
L 1825 531
L 1825 4091
L 703 3866
L 703 4441
L 1819 4666
L 2450 4666
L 2450 531
L 3481 531
L 3481 0
L 794 0
L 794 531
z
" transform="scale(0.015625)"/>
       </defs>
       <use xlink:href="#DejaVuSans-31"/>
       <use xlink:href="#DejaVuSans-30" transform="translate(63.623047 0)"/>
      </g>
     </g>
    </g>
    <g id="xtick_3">
     <g id="line2d_3">
      <g>
       <use xlink:href="#m558dff21d2" x="273.425" y="339.84" style="stroke: #000000; stroke-width: 3"/>
      </g>
     </g>
     <g id="text_3">
      <!-- 20 -->
      <g transform="translate(258.155 365.07625) scale(0.24 -0.24)">
       <defs>
        <path id="DejaVuSans-32" d="M 1228 531
L 3431 531
L 3431 0
L 469 0
L 469 531
Q 828 903 1448 1529
Q 2069 2156 2228 2338
Q 2531 2678 2651 2914
Q 2772 3150 2772 3378
Q 2772 3750 2511 3984
Q 2250 4219 1831 4219
Q 1534 4219 1204 4116
Q 875 4013 500 3803
L 500 4441
Q 881 4594 1212 4672
Q 1544 4750 1819 4750
Q 2544 4750 2975 4387
Q 3406 4025 3406 3419
Q 3406 3131 3298 2873
Q 3191 2616 2906 2266
Q 2828 2175 2409 1742
Q 1991 1309 1228 531
z
" transform="scale(0.015625)"/>
       </defs>
       <use xlink:href="#DejaVuSans-32"/>
       <use xlink:href="#DejaVuSans-30" transform="translate(63.623047 0)"/>
      </g>
     </g>
    </g>
    <g id="xtick_4">
     <g id="line2d_4">
      <g>
       <use xlink:href="#m558dff21d2" x="362.705" y="339.84" style="stroke: #000000; stroke-width: 3"/>
      </g>
     </g>
     <g id="text_4">
      <!-- 30 -->
      <g transform="translate(347.435 365.07625) scale(0.24 -0.24)">
       <defs>
        <path id="DejaVuSans-33" d="M 2597 2516
Q 3050 2419 3304 2112
Q 3559 1806 3559 1356
Q 3559 666 3084 287
Q 2609 -91 1734 -91
Q 1441 -91 1130 -33
Q 819 25 488 141
L 488 750
Q 750 597 1062 519
Q 1375 441 1716 441
Q 2309 441 2620 675
Q 2931 909 2931 1356
Q 2931 1769 2642 2001
Q 2353 2234 1838 2234
L 1294 2234
L 1294 2753
L 1863 2753
Q 2328 2753 2575 2939
Q 2822 3125 2822 3475
Q 2822 3834 2567 4026
Q 2313 4219 1838 4219
Q 1578 4219 1281 4162
Q 984 4106 628 3988
L 628 4550
Q 988 4650 1302 4700
Q 1616 4750 1894 4750
Q 2613 4750 3031 4423
Q 3450 4097 3450 3541
Q 3450 3153 3228 2886
Q 3006 2619 2597 2516
z
" transform="scale(0.015625)"/>
       </defs>
       <use xlink:href="#DejaVuSans-33"/>
       <use xlink:href="#DejaVuSans-30" transform="translate(63.623047 0)"/>
      </g>
     </g>
    </g>
    <g id="xtick_5">
     <g id="line2d_5">
      <g>
       <use xlink:href="#m558dff21d2" x="451.985" y="339.84" style="stroke: #000000; stroke-width: 3"/>
      </g>
     </g>
     <g id="text_5">
      <!-- 40 -->
      <g transform="translate(436.715 365.07625) scale(0.24 -0.24)">
       <defs>
        <path id="DejaVuSans-34" d="M 2419 4116
L 825 1625
L 2419 1625
L 2419 4116
z
M 2253 4666
L 3047 4666
L 3047 1625
L 3713 1625
L 3713 1100
L 3047 1100
L 3047 0
L 2419 0
L 2419 1100
L 313 1100
L 313 1709
L 2253 4666
z
" transform="scale(0.015625)"/>
       </defs>
       <use xlink:href="#DejaVuSans-34"/>
       <use xlink:href="#DejaVuSans-30" transform="translate(63.623047 0)"/>
      </g>
     </g>
    </g>
    <g id="xtick_6">
     <g id="line2d_6">
      <g>
       <use xlink:href="#m558dff21d2" x="541.265" y="339.84" style="stroke: #000000; stroke-width: 3"/>
      </g>
     </g>
     <g id="text_6">
      <!-- 50 -->
      <g transform="translate(525.995 365.07625) scale(0.24 -0.24)">
       <defs>
        <path id="DejaVuSans-35" d="M 691 4666
L 3169 4666
L 3169 4134
L 1269 4134
L 1269 2991
Q 1406 3038 1543 3061
Q 1681 3084 1819 3084
Q 2600 3084 3056 2656
Q 3513 2228 3513 1497
Q 3513 744 3044 326
Q 2575 -91 1722 -91
Q 1428 -91 1123 -41
Q 819 9 494 109
L 494 744
Q 775 591 1075 516
Q 1375 441 1709 441
Q 2250 441 2565 725
Q 2881 1009 2881 1497
Q 2881 1984 2565 2268
Q 2250 2553 1709 2553
Q 1456 2553 1204 2497
Q 953 2441 691 2322
L 691 4666
z
" transform="scale(0.015625)"/>
       </defs>
       <use xlink:href="#DejaVuSans-35"/>
       <use xlink:href="#DejaVuSans-30" transform="translate(63.623047 0)"/>
      </g>
     </g>
    </g>
    <g id="text_7">
     <!-- Time / min -->
     <g transform="translate(254.406875 392.30375) scale(0.24 -0.24)">
      <defs>
       <path id="DejaVuSans-54" d="M -19 4666
L 3928 4666
L 3928 4134
L 2272 4134
L 2272 0
L 1638 0
L 1638 4134
L -19 4134
L -19 4666
z
" transform="scale(0.015625)"/>
       <path id="DejaVuSans-69" d="M 603 3500
L 1178 3500
L 1178 0
L 603 0
L 603 3500
z
M 603 4863
L 1178 4863
L 1178 4134
L 603 4134
L 603 4863
z
" transform="scale(0.015625)"/>
       <path id="DejaVuSans-6d" d="M 3328 2828
Q 3544 3216 3844 3400
Q 4144 3584 4550 3584
Q 5097 3584 5394 3201
Q 5691 2819 5691 2113
L 5691 0
L 5113 0
L 5113 2094
Q 5113 2597 4934 2840
Q 4756 3084 4391 3084
Q 3944 3084 3684 2787
Q 3425 2491 3425 1978
L 3425 0
L 2847 0
L 2847 2094
Q 2847 2600 2669 2842
Q 2491 3084 2119 3084
Q 1678 3084 1418 2786
Q 1159 2488 1159 1978
L 1159 0
L 581 0
L 581 3500
L 1159 3500
L 1159 2956
Q 1356 3278 1631 3431
Q 1906 3584 2284 3584
Q 2666 3584 2933 3390
Q 3200 3197 3328 2828
z
" transform="scale(0.015625)"/>
       <path id="DejaVuSans-65" d="M 3597 1894
L 3597 1613
L 953 1613
Q 991 1019 1311 708
Q 1631 397 2203 397
Q 2534 397 2845 478
Q 3156 559 3463 722
L 3463 178
Q 3153 47 2828 -22
Q 2503 -91 2169 -91
Q 1331 -91 842 396
Q 353 884 353 1716
Q 353 2575 817 3079
Q 1281 3584 2069 3584
Q 2775 3584 3186 3129
Q 3597 2675 3597 1894
z
M 3022 2063
Q 3016 2534 2758 2815
Q 2500 3097 2075 3097
Q 1594 3097 1305 2825
Q 1016 2553 972 2059
L 3022 2063
z
" transform="scale(0.015625)"/>
       <path id="DejaVuSans-20" transform="scale(0.015625)"/>
       <path id="DejaVuSans-2f" d="M 1625 4666
L 2156 4666
L 531 -594
L 0 -594
L 1625 4666
z
" transform="scale(0.015625)"/>
       <path id="DejaVuSans-6e" d="M 3513 2113
L 3513 0
L 2938 0
L 2938 2094
Q 2938 2591 2744 2837
Q 2550 3084 2163 3084
Q 1697 3084 1428 2787
Q 1159 2491 1159 1978
L 1159 0
L 581 0
L 581 3500
L 1159 3500
L 1159 2956
Q 1366 3272 1645 3428
Q 1925 3584 2291 3584
Q 2894 3584 3203 3211
Q 3513 2838 3513 2113
z
" transform="scale(0.015625)"/>
      </defs>
      <use xlink:href="#DejaVuSans-54"/>
      <use xlink:href="#DejaVuSans-69" transform="translate(57.958984 0)"/>
      <use xlink:href="#DejaVuSans-6d" transform="translate(85.742188 0)"/>
      <use xlink:href="#DejaVuSans-65" transform="translate(183.154297 0)"/>
      <use xlink:href="#DejaVuSans-20" transform="translate(244.677734 0)"/>
      <use xlink:href="#DejaVuSans-2f" transform="translate(276.464844 0)"/>
      <use xlink:href="#DejaVuSans-20" transform="translate(310.15625 0)"/>
      <use xlink:href="#DejaVuSans-6d" transform="translate(341.943359 0)"/>
      <use xlink:href="#DejaVuSans-69" transform="translate(439.355469 0)"/>
      <use xlink:href="#DejaVuSans-6e" transform="translate(467.138672 0)"/>
     </g>
    </g>
   </g>
   <g id="matplotlib.axis_2">
    <g id="ytick_1">
     <g id="line2d_7">
      <defs>
       <path id="m72c06abc45" d="M 0 0
L -3.5 0
" style="stroke: #000000; stroke-width: 3"/>
      </defs>
      <g>
       <use xlink:href="#m72c06abc45" x="94.865" y="317.260125" style="stroke: #000000; stroke-width: 3"/>
      </g>
     </g>
     <g id="text_8">
      <!-- 0.96 -->
      <g transform="translate(34.4275 326.37825) scale(0.24 -0.24)">
       <defs>
        <path id="DejaVuSans-2e" d="M 684 794
L 1344 794
L 1344 0
L 684 0
L 684 794
z
" transform="scale(0.015625)"/>
        <path id="DejaVuSans-39" d="M 703 97
L 703 672
Q 941 559 1184 500
Q 1428 441 1663 441
Q 2288 441 2617 861
Q 2947 1281 2994 2138
Q 2813 1869 2534 1725
Q 2256 1581 1919 1581
Q 1219 1581 811 2004
Q 403 2428 403 3163
Q 403 3881 828 4315
Q 1253 4750 1959 4750
Q 2769 4750 3195 4129
Q 3622 3509 3622 2328
Q 3622 1225 3098 567
Q 2575 -91 1691 -91
Q 1453 -91 1209 -44
Q 966 3 703 97
z
M 1959 2075
Q 2384 2075 2632 2365
Q 2881 2656 2881 3163
Q 2881 3666 2632 3958
Q 2384 4250 1959 4250
Q 1534 4250 1286 3958
Q 1038 3666 1038 3163
Q 1038 2656 1286 2365
Q 1534 2075 1959 2075
z
" transform="scale(0.015625)"/>
        <path id="DejaVuSans-36" d="M 2113 2584
Q 1688 2584 1439 2293
Q 1191 2003 1191 1497
Q 1191 994 1439 701
Q 1688 409 2113 409
Q 2538 409 2786 701
Q 3034 994 3034 1497
Q 3034 2003 2786 2293
Q 2538 2584 2113 2584
z
M 3366 4563
L 3366 3988
Q 3128 4100 2886 4159
Q 2644 4219 2406 4219
Q 1781 4219 1451 3797
Q 1122 3375 1075 2522
Q 1259 2794 1537 2939
Q 1816 3084 2150 3084
Q 2853 3084 3261 2657
Q 3669 2231 3669 1497
Q 3669 778 3244 343
Q 2819 -91 2113 -91
Q 1303 -91 875 529
Q 447 1150 447 2328
Q 447 3434 972 4092
Q 1497 4750 2381 4750
Q 2619 4750 2861 4703
Q 3103 4656 3366 4563
z
" transform="scale(0.015625)"/>
       </defs>
       <use xlink:href="#DejaVuSans-30"/>
       <use xlink:href="#DejaVuSans-2e" transform="translate(63.623047 0)"/>
       <use xlink:href="#DejaVuSans-39" transform="translate(95.410156 0)"/>
       <use xlink:href="#DejaVuSans-36" transform="translate(159.033203 0)"/>
      </g>
     </g>
    </g>
    <g id="ytick_2">
     <g id="line2d_8">
      <g>
       <use xlink:href="#m72c06abc45" x="94.865" y="243.525094" style="stroke: #000000; stroke-width: 3"/>
      </g>
     </g>
     <g id="text_9">
      <!-- 0.97 -->
      <g transform="translate(34.4275 252.643219) scale(0.24 -0.24)">
       <defs>
        <path id="DejaVuSans-37" d="M 525 4666
L 3525 4666
L 3525 4397
L 1831 0
L 1172 0
L 2766 4134
L 525 4134
L 525 4666
z
" transform="scale(0.015625)"/>
       </defs>
       <use xlink:href="#DejaVuSans-30"/>
       <use xlink:href="#DejaVuSans-2e" transform="translate(63.623047 0)"/>
       <use xlink:href="#DejaVuSans-39" transform="translate(95.410156 0)"/>
       <use xlink:href="#DejaVuSans-37" transform="translate(159.033203 0)"/>
      </g>
     </g>
    </g>
    <g id="ytick_3">
     <g id="line2d_9">
      <g>
       <use xlink:href="#m72c06abc45" x="94.865" y="169.790063" style="stroke: #000000; stroke-width: 3"/>
      </g>
     </g>
     <g id="text_10">
      <!-- 0.98 -->
      <g transform="translate(34.4275 178.908188) scale(0.24 -0.24)">
       <defs>
        <path id="DejaVuSans-38" d="M 2034 2216
Q 1584 2216 1326 1975
Q 1069 1734 1069 1313
Q 1069 891 1326 650
Q 1584 409 2034 409
Q 2484 409 2743 651
Q 3003 894 3003 1313
Q 3003 1734 2745 1975
Q 2488 2216 2034 2216
z
M 1403 2484
Q 997 2584 770 2862
Q 544 3141 544 3541
Q 544 4100 942 4425
Q 1341 4750 2034 4750
Q 2731 4750 3128 4425
Q 3525 4100 3525 3541
Q 3525 3141 3298 2862
Q 3072 2584 2669 2484
Q 3125 2378 3379 2068
Q 3634 1759 3634 1313
Q 3634 634 3220 271
Q 2806 -91 2034 -91
Q 1263 -91 848 271
Q 434 634 434 1313
Q 434 1759 690 2068
Q 947 2378 1403 2484
z
M 1172 3481
Q 1172 3119 1398 2916
Q 1625 2713 2034 2713
Q 2441 2713 2670 2916
Q 2900 3119 2900 3481
Q 2900 3844 2670 4047
Q 2441 4250 2034 4250
Q 1625 4250 1398 4047
Q 1172 3844 1172 3481
z
" transform="scale(0.015625)"/>
       </defs>
       <use xlink:href="#DejaVuSans-30"/>
       <use xlink:href="#DejaVuSans-2e" transform="translate(63.623047 0)"/>
       <use xlink:href="#DejaVuSans-39" transform="translate(95.410156 0)"/>
       <use xlink:href="#DejaVuSans-38" transform="translate(159.033203 0)"/>
      </g>
     </g>
    </g>
    <g id="ytick_4">
     <g id="line2d_10">
      <g>
       <use xlink:href="#m72c06abc45" x="94.865" y="96.055031" style="stroke: #000000; stroke-width: 3"/>
      </g>
     </g>
     <g id="text_11">
      <!-- 0.99 -->
      <g transform="translate(34.4275 105.173156) scale(0.24 -0.24)">
       <use xlink:href="#DejaVuSans-30"/>
       <use xlink:href="#DejaVuSans-2e" transform="translate(63.623047 0)"/>
       <use xlink:href="#DejaVuSans-39" transform="translate(95.410156 0)"/>
       <use xlink:href="#DejaVuSans-39" transform="translate(159.033203 0)"/>
      </g>
     </g>
    </g>
    <g id="ytick_5">
     <g id="line2d_11">
      <g>
       <use xlink:href="#m72c06abc45" x="94.865" y="22.32" style="stroke: #000000; stroke-width: 3"/>
      </g>
     </g>
     <g id="text_12">
      <!-- 1.00 -->
      <g transform="translate(34.4275 31.438125) scale(0.24 -0.24)">
       <use xlink:href="#DejaVuSans-31"/>
       <use xlink:href="#DejaVuSans-2e" transform="translate(63.623047 0)"/>
       <use xlink:href="#DejaVuSans-30" transform="translate(95.410156 0)"/>
       <use xlink:href="#DejaVuSans-30" transform="translate(159.033203 0)"/>
      </g>
     </g>
    </g>
    <g id="text_13">
     <!-- Jaccard index -->
     <g transform="translate(25.43625 253.951875) rotate(-90) scale(0.24 -0.24)">
      <defs>
       <path id="DejaVuSans-4a" d="M 628 4666
L 1259 4666
L 1259 325
Q 1259 -519 939 -900
Q 619 -1281 -91 -1281
L -331 -1281
L -331 -750
L -134 -750
Q 284 -750 456 -515
Q 628 -281 628 325
L 628 4666
z
" transform="scale(0.015625)"/>
       <path id="DejaVuSans-61" d="M 2194 1759
Q 1497 1759 1228 1600
Q 959 1441 959 1056
Q 959 750 1161 570
Q 1363 391 1709 391
Q 2188 391 2477 730
Q 2766 1069 2766 1631
L 2766 1759
L 2194 1759
z
M 3341 1997
L 3341 0
L 2766 0
L 2766 531
Q 2569 213 2275 61
Q 1981 -91 1556 -91
Q 1019 -91 701 211
Q 384 513 384 1019
Q 384 1609 779 1909
Q 1175 2209 1959 2209
L 2766 2209
L 2766 2266
Q 2766 2663 2505 2880
Q 2244 3097 1772 3097
Q 1472 3097 1187 3025
Q 903 2953 641 2809
L 641 3341
Q 956 3463 1253 3523
Q 1550 3584 1831 3584
Q 2591 3584 2966 3190
Q 3341 2797 3341 1997
z
" transform="scale(0.015625)"/>
       <path id="DejaVuSans-63" d="M 3122 3366
L 3122 2828
Q 2878 2963 2633 3030
Q 2388 3097 2138 3097
Q 1578 3097 1268 2742
Q 959 2388 959 1747
Q 959 1106 1268 751
Q 1578 397 2138 397
Q 2388 397 2633 464
Q 2878 531 3122 666
L 3122 134
Q 2881 22 2623 -34
Q 2366 -91 2075 -91
Q 1284 -91 818 406
Q 353 903 353 1747
Q 353 2603 823 3093
Q 1294 3584 2113 3584
Q 2378 3584 2631 3529
Q 2884 3475 3122 3366
z
" transform="scale(0.015625)"/>
       <path id="DejaVuSans-72" d="M 2631 2963
Q 2534 3019 2420 3045
Q 2306 3072 2169 3072
Q 1681 3072 1420 2755
Q 1159 2438 1159 1844
L 1159 0
L 581 0
L 581 3500
L 1159 3500
L 1159 2956
Q 1341 3275 1631 3429
Q 1922 3584 2338 3584
Q 2397 3584 2469 3576
Q 2541 3569 2628 3553
L 2631 2963
z
" transform="scale(0.015625)"/>
       <path id="DejaVuSans-64" d="M 2906 2969
L 2906 4863
L 3481 4863
L 3481 0
L 2906 0
L 2906 525
Q 2725 213 2448 61
Q 2172 -91 1784 -91
Q 1150 -91 751 415
Q 353 922 353 1747
Q 353 2572 751 3078
Q 1150 3584 1784 3584
Q 2172 3584 2448 3432
Q 2725 3281 2906 2969
z
M 947 1747
Q 947 1113 1208 752
Q 1469 391 1925 391
Q 2381 391 2643 752
Q 2906 1113 2906 1747
Q 2906 2381 2643 2742
Q 2381 3103 1925 3103
Q 1469 3103 1208 2742
Q 947 2381 947 1747
z
" transform="scale(0.015625)"/>
       <path id="DejaVuSans-78" d="M 3513 3500
L 2247 1797
L 3578 0
L 2900 0
L 1881 1375
L 863 0
L 184 0
L 1544 1831
L 300 3500
L 978 3500
L 1906 2253
L 2834 3500
L 3513 3500
z
" transform="scale(0.015625)"/>
      </defs>
      <use xlink:href="#DejaVuSans-4a"/>
      <use xlink:href="#DejaVuSans-61" transform="translate(29.492188 0)"/>
      <use xlink:href="#DejaVuSans-63" transform="translate(90.771484 0)"/>
      <use xlink:href="#DejaVuSans-63" transform="translate(145.751953 0)"/>
      <use xlink:href="#DejaVuSans-61" transform="translate(200.732422 0)"/>
      <use xlink:href="#DejaVuSans-72" transform="translate(262.011719 0)"/>
      <use xlink:href="#DejaVuSans-64" transform="translate(301.375 0)"/>
      <use xlink:href="#DejaVuSans-20" transform="translate(364.851562 0)"/>
      <use xlink:href="#DejaVuSans-69" transform="translate(396.638672 0)"/>
      <use xlink:href="#DejaVuSans-6e" transform="translate(424.421875 0)"/>
      <use xlink:href="#DejaVuSans-64" transform="translate(487.800781 0)"/>
      <use xlink:href="#DejaVuSans-65" transform="translate(551.277344 0)"/>
      <use xlink:href="#DejaVuSans-78" transform="translate(611.050781 0)"/>
     </g>
    </g>
   </g>
   <g id="line2d_12">
    <defs>
     <path id="m082bb279e0" d="M 0 1.5
C 0.397805 1.5 0.77937 1.341951 1.06066 1.06066
C 1.341951 0.77937 1.5 0.397805 1.5 0
C 1.5 -0.397805 1.341951 -0.77937 1.06066 -1.06066
C 0.77937 -1.341951 0.397805 -1.5 0 -1.5
C -0.397805 -1.5 -0.77937 -1.341951 -1.06066 -1.06066
C -1.341951 -0.77937 -1.5 -0.397805 -1.5 0
C -1.5 0.397805 -1.341951 0.77937 -1.06066 1.06066
C -0.77937 1.341951 -0.397805 1.5 0 1.5
z
" style="stroke: #1f77b4"/>
    </defs>
    <g clip-path="url(#p6652be847b)">
     <use xlink:href="#m082bb279e0" x="94.865" y="22.32" style="fill: #1f77b4; stroke: #1f77b4"/>
     <use xlink:href="#m082bb279e0" x="130.2794" y="22.32" style="fill: #1f77b4; stroke: #1f77b4"/>
     <use xlink:href="#m082bb279e0" x="165.545" y="22.32" style="fill: #1f77b4; stroke: #1f77b4"/>
     <use xlink:href="#m082bb279e0" x="201.1082" y="22.32" style="fill: #1f77b4; stroke: #1f77b4"/>
     <use xlink:href="#m082bb279e0" x="249.0218" y="22.32" style="fill: #1f77b4; stroke: #1f77b4"/>
     <use xlink:href="#m082bb279e0" x="300.3578" y="22.32" style="fill: #1f77b4; stroke: #1f77b4"/>
     <use xlink:href="#m082bb279e0" x="351.6938" y="22.32" style="fill: #1f77b4; stroke: #1f77b4"/>
     <use xlink:href="#m082bb279e0" x="403.0298" y="22.32" style="fill: #1f77b4; stroke: #1f77b4"/>
     <use xlink:href="#m082bb279e0" x="528.0218" y="22.32" style="fill: #1f77b4; stroke: #1f77b4"/>
     <use xlink:href="#m082bb279e0" x="563.4362" y="22.32" style="fill: #1f77b4; stroke: #1f77b4"/>
     <use xlink:href="#m082bb279e0" x="598.9994" y="22.32" style="fill: #1f77b4; stroke: #1f77b4"/>
     <use xlink:href="#m082bb279e0" x="635.009" y="22.32" style="fill: #1f77b4; stroke: #1f77b4"/>
     <use xlink:href="#m082bb279e0" x="682.7738" y="22.32" style="fill: #1f77b4; stroke: #1f77b4"/>
     <use xlink:href="#m082bb279e0" x="735.1514" y="22.32" style="fill: #1f77b4; stroke: #1f77b4"/>
     <use xlink:href="#m082bb279e0" x="786.6362" y="22.32" style="fill: #1f77b4; stroke: #1f77b4"/>
     <use xlink:href="#m082bb279e0" x="837.9722" y="22.32" style="fill: #1f77b4; stroke: #1f77b4"/>
     <use xlink:href="#m082bb279e0" x="963.113" y="22.32" style="fill: #1f77b4; stroke: #1f77b4"/>
     <use xlink:href="#m082bb279e0" x="998.6762" y="22.32" style="fill: #1f77b4; stroke: #1f77b4"/>
     <use xlink:href="#m082bb279e0" x="1033.9418" y="22.32" style="fill: #1f77b4; stroke: #1f77b4"/>
     <use xlink:href="#m082bb279e0" x="1069.3562" y="22.32" style="fill: #1f77b4; stroke: #1f77b4"/>
     <use xlink:href="#m082bb279e0" x="1117.2698" y="22.32" style="fill: #1f77b4; stroke: #1f77b4"/>
     <use xlink:href="#m082bb279e0" x="1168.7546" y="22.32" style="fill: #1f77b4; stroke: #1f77b4"/>
     <use xlink:href="#m082bb279e0" x="1220.2394" y="22.32" style="fill: #1f77b4; stroke: #1f77b4"/>
     <use xlink:href="#m082bb279e0" x="1271.7242" y="22.32" style="fill: #1f77b4; stroke: #1f77b4"/>
     <use xlink:href="#m082bb279e0" x="1396.4186" y="26.258227" style="fill: #1f77b4; stroke: #1f77b4"/>
     <use xlink:href="#m082bb279e0" x="1431.9818" y="64.922202" style="fill: #1f77b4; stroke: #1f77b4"/>
     <use xlink:href="#m082bb279e0" x="1467.3962" y="71.437758" style="fill: #1f77b4; stroke: #1f77b4"/>
     <use xlink:href="#m082bb279e0" x="1502.9594" y="22.32" style="fill: #1f77b4; stroke: #1f77b4"/>
     <use xlink:href="#m082bb279e0" x="1550.873" y="23.891181" style="fill: #1f77b4; stroke: #1f77b4"/>
     <use xlink:href="#m082bb279e0" x="1602.5066" y="62.214942" style="fill: #1f77b4; stroke: #1f77b4"/>
     <use xlink:href="#m082bb279e0" x="1653.9914" y="47.496744" style="fill: #1f77b4; stroke: #1f77b4"/>
     <use xlink:href="#m082bb279e0" x="1705.4762" y="50.298395" style="fill: #1f77b4; stroke: #1f77b4"/>
     <use xlink:href="#m082bb279e0" x="1830.3194" y="96.745242" style="fill: #1f77b4; stroke: #1f77b4"/>
     <use xlink:href="#m082bb279e0" x="1865.8826" y="132.592672" style="fill: #1f77b4; stroke: #1f77b4"/>
     <use xlink:href="#m082bb279e0" x="1901.4458" y="135.782288" style="fill: #1f77b4; stroke: #1f77b4"/>
     <use xlink:href="#m082bb279e0" x="1937.009" y="52.728918" style="fill: #1f77b4; stroke: #1f77b4"/>
     <use xlink:href="#m082bb279e0" x="1984.9226" y="79.086435" style="fill: #1f77b4; stroke: #1f77b4"/>
     <use xlink:href="#m082bb279e0" x="2036.5562" y="130.653167" style="fill: #1f77b4; stroke: #1f77b4"/>
     <use xlink:href="#m082bb279e0" x="2088.041" y="120.129759" style="fill: #1f77b4; stroke: #1f77b4"/>
     <use xlink:href="#m082bb279e0" x="2139.5258" y="122.130248" style="fill: #1f77b4; stroke: #1f77b4"/>
     <use xlink:href="#m082bb279e0" x="2264.5178" y="140.68717" style="fill: #1f77b4; stroke: #1f77b4"/>
     <use xlink:href="#m082bb279e0" x="2299.9322" y="196.28968" style="fill: #1f77b4; stroke: #1f77b4"/>
     <use xlink:href="#m082bb279e0" x="2335.4954" y="197.642913" style="fill: #1f77b4; stroke: #1f77b4"/>
     <use xlink:href="#m082bb279e0" x="2371.0586" y="107.400743" style="fill: #1f77b4; stroke: #1f77b4"/>
     <use xlink:href="#m082bb279e0" x="2419.121" y="123.178488" style="fill: #1f77b4; stroke: #1f77b4"/>
     <use xlink:href="#m082bb279e0" x="2470.6058" y="179.544654" style="fill: #1f77b4; stroke: #1f77b4"/>
     <use xlink:href="#m082bb279e0" x="2522.0906" y="160.793921" style="fill: #1f77b4; stroke: #1f77b4"/>
     <use xlink:href="#m082bb279e0" x="2573.5754" y="166.236751" style="fill: #1f77b4; stroke: #1f77b4"/>
     <use xlink:href="#m082bb279e0" x="2698.4186" y="202.128664" style="fill: #1f77b4; stroke: #1f77b4"/>
     <use xlink:href="#m082bb279e0" x="2733.9818" y="233.372691" style="fill: #1f77b4; stroke: #1f77b4"/>
     <use xlink:href="#m082bb279e0" x="2769.3962" y="232.43954" style="fill: #1f77b4; stroke: #1f77b4"/>
     <use xlink:href="#m082bb279e0" x="2804.9594" y="154.309525" style="fill: #1f77b4; stroke: #1f77b4"/>
     <use xlink:href="#m082bb279e0" x="2853.0218" y="172.866906" style="fill: #1f77b4; stroke: #1f77b4"/>
     <use xlink:href="#m082bb279e0" x="2904.5066" y="226.617063" style="fill: #1f77b4; stroke: #1f77b4"/>
     <use xlink:href="#m082bb279e0" x="2956.1402" y="212.125985" style="fill: #1f77b4; stroke: #1f77b4"/>
     <use xlink:href="#m082bb279e0" x="3007.7738" y="211.434945" style="fill: #1f77b4; stroke: #1f77b4"/>
     <use xlink:href="#m082bb279e0" x="3132.9146" y="230.148692" style="fill: #1f77b4; stroke: #1f77b4"/>
     <use xlink:href="#m082bb279e0" x="3168.4778" y="252.088241" style="fill: #1f77b4; stroke: #1f77b4"/>
     <use xlink:href="#m082bb279e0" x="3204.041" y="250.708493" style="fill: #1f77b4; stroke: #1f77b4"/>
     <use xlink:href="#m082bb279e0" x="3239.753" y="186.75191" style="fill: #1f77b4; stroke: #1f77b4"/>
     <use xlink:href="#m082bb279e0" x="3287.6666" y="202.796819" style="fill: #1f77b4; stroke: #1f77b4"/>
     <use xlink:href="#m082bb279e0" x="3339.1514" y="251.749467" style="fill: #1f77b4; stroke: #1f77b4"/>
     <use xlink:href="#m082bb279e0" x="3390.785" y="242.985911" style="fill: #1f77b4; stroke: #1f77b4"/>
     <use xlink:href="#m082bb279e0" x="3442.2698" y="236.163633" style="fill: #1f77b4; stroke: #1f77b4"/>
     <use xlink:href="#m082bb279e0" x="3567.2618" y="258.760118" style="fill: #1f77b4; stroke: #1f77b4"/>
     <use xlink:href="#m082bb279e0" x="3602.9738" y="269.551276" style="fill: #1f77b4; stroke: #1f77b4"/>
     <use xlink:href="#m082bb279e0" x="3638.3882" y="273.554345" style="fill: #1f77b4; stroke: #1f77b4"/>
     <use xlink:href="#m082bb279e0" x="3674.1002" y="210.64865" style="fill: #1f77b4; stroke: #1f77b4"/>
     <use xlink:href="#m082bb279e0" x="3722.1626" y="219.973465" style="fill: #1f77b4; stroke: #1f77b4"/>
     <use xlink:href="#m082bb279e0" x="3773.7962" y="265.068725" style="fill: #1f77b4; stroke: #1f77b4"/>
     <use xlink:href="#m082bb279e0" x="3825.281" y="256.384262" style="fill: #1f77b4; stroke: #1f77b4"/>
     <use xlink:href="#m082bb279e0" x="3876.9146" y="259.301857" style="fill: #1f77b4; stroke: #1f77b4"/>
     <use xlink:href="#m082bb279e0" x="4001.9066" y="272.001939" style="fill: #1f77b4; stroke: #1f77b4"/>
     <use xlink:href="#m082bb279e0" x="4037.4698" y="282.687052" style="fill: #1f77b4; stroke: #1f77b4"/>
     <use xlink:href="#m082bb279e0" x="4072.8842" y="284.467524" style="fill: #1f77b4; stroke: #1f77b4"/>
     <use xlink:href="#m082bb279e0" x="4108.4474" y="220.431926" style="fill: #1f77b4; stroke: #1f77b4"/>
     <use xlink:href="#m082bb279e0" x="4156.361" y="231.688337" style="fill: #1f77b4; stroke: #1f77b4"/>
     <use xlink:href="#m082bb279e0" x="4207.9946" y="281.195755" style="fill: #1f77b4; stroke: #1f77b4"/>
     <use xlink:href="#m082bb279e0" x="4259.6282" y="272.952939" style="fill: #1f77b4; stroke: #1f77b4"/>
     <use xlink:href="#m082bb279e0" x="4311.113" y="270.632211" style="fill: #1f77b4; stroke: #1f77b4"/>
     <use xlink:href="#m082bb279e0" x="4436.2538" y="279.299336" style="fill: #1f77b4; stroke: #1f77b4"/>
     <use xlink:href="#m082bb279e0" x="4471.817" y="297.407656" style="fill: #1f77b4; stroke: #1f77b4"/>
     <use xlink:href="#m082bb279e0" x="4507.3802" y="295.194873" style="fill: #1f77b4; stroke: #1f77b4"/>
     <use xlink:href="#m082bb279e0" x="4542.9434" y="231.669618" style="fill: #1f77b4; stroke: #1f77b4"/>
     <use xlink:href="#m082bb279e0" x="4591.0058" y="245.469003" style="fill: #1f77b4; stroke: #1f77b4"/>
     <use xlink:href="#m082bb279e0" x="4642.6394" y="291.304238" style="fill: #1f77b4; stroke: #1f77b4"/>
     <use xlink:href="#m082bb279e0" x="4694.1242" y="285.064879" style="fill: #1f77b4; stroke: #1f77b4"/>
     <use xlink:href="#m082bb279e0" x="4745.609" y="283.664134" style="fill: #1f77b4; stroke: #1f77b4"/>
     <use xlink:href="#m082bb279e0" x="4870.7498" y="283.89495" style="fill: #1f77b4; stroke: #1f77b4"/>
     <use xlink:href="#m082bb279e0" x="4906.313" y="294.111811" style="fill: #1f77b4; stroke: #1f77b4"/>
     <use xlink:href="#m082bb279e0" x="4949.9114" y="296.999537" style="fill: #1f77b4; stroke: #1f77b4"/>
     <use xlink:href="#m082bb279e0" x="4985.4746" y="246.731957" style="fill: #1f77b4; stroke: #1f77b4"/>
     <use xlink:href="#m082bb279e0" x="5033.537" y="251.142046" style="fill: #1f77b4; stroke: #1f77b4"/>
     <use xlink:href="#m082bb279e0" x="5085.0218" y="298.013946" style="fill: #1f77b4; stroke: #1f77b4"/>
     <use xlink:href="#m082bb279e0" x="5136.6554" y="303.059934" style="fill: #1f77b4; stroke: #1f77b4"/>
     <use xlink:href="#m082bb279e0" x="5188.1402" y="292.443945" style="fill: #1f77b4; stroke: #1f77b4"/>
     <use xlink:href="#m082bb279e0" x="5313.4298" y="299.046747" style="fill: #1f77b4; stroke: #1f77b4"/>
     <use xlink:href="#m082bb279e0" x="5348.993" y="298.418373" style="fill: #1f77b4; stroke: #1f77b4"/>
     <use xlink:href="#m082bb279e0" x="5384.5562" y="299.245638" style="fill: #1f77b4; stroke: #1f77b4"/>
     <use xlink:href="#m082bb279e0" x="5420.1194" y="248.5454" style="fill: #1f77b4; stroke: #1f77b4"/>
     <use xlink:href="#m082bb279e0" x="5468.9258" y="263.2719" style="fill: #1f77b4; stroke: #1f77b4"/>
     <use xlink:href="#m082bb279e0" x="5520.4106" y="307.211089" style="fill: #1f77b4; stroke: #1f77b4"/>
     <use xlink:href="#m082bb279e0" x="5572.0442" y="303.438883" style="fill: #1f77b4; stroke: #1f77b4"/>
     <use xlink:href="#m082bb279e0" x="5623.529" y="290.791831" style="fill: #1f77b4; stroke: #1f77b4"/>
     <use xlink:href="#m082bb279e0" x="5748.6698" y="297.642228" style="fill: #1f77b4; stroke: #1f77b4"/>
     <use xlink:href="#m082bb279e0" x="5784.0842" y="308.565256" style="fill: #1f77b4; stroke: #1f77b4"/>
     <use xlink:href="#m082bb279e0" x="5819.6474" y="300.937786" style="fill: #1f77b4; stroke: #1f77b4"/>
     <use xlink:href="#m082bb279e0" x="5855.2106" y="255.307383" style="fill: #1f77b4; stroke: #1f77b4"/>
     <use xlink:href="#m082bb279e0" x="5903.1242" y="266.074155" style="fill: #1f77b4; stroke: #1f77b4"/>
     <use xlink:href="#m082bb279e0" x="5954.7578" y="311.058362" style="fill: #1f77b4; stroke: #1f77b4"/>
     <use xlink:href="#m082bb279e0" x="6006.689" y="306.87942" style="fill: #1f77b4; stroke: #1f77b4"/>
     <use xlink:href="#m082bb279e0" x="6059.6618" y="302.894396" style="fill: #1f77b4; stroke: #1f77b4"/>
     <use xlink:href="#m082bb279e0" x="6185.993" y="297.409969" style="fill: #1f77b4; stroke: #1f77b4"/>
     <use xlink:href="#m082bb279e0" x="6221.5562" y="308.601712" style="fill: #1f77b4; stroke: #1f77b4"/>
     <use xlink:href="#m082bb279e0" x="6257.2682" y="304.272791" style="fill: #1f77b4; stroke: #1f77b4"/>
     <use xlink:href="#m082bb279e0" x="6292.8314" y="261.573338" style="fill: #1f77b4; stroke: #1f77b4"/>
     <use xlink:href="#m082bb279e0" x="6340.745" y="266.581017" style="fill: #1f77b4; stroke: #1f77b4"/>
     <use xlink:href="#m082bb279e0" x="6392.2298" y="309.955464" style="fill: #1f77b4; stroke: #1f77b4"/>
     <use xlink:href="#m082bb279e0" x="6443.7146" y="304.577579" style="fill: #1f77b4; stroke: #1f77b4"/>
     <use xlink:href="#m082bb279e0" x="6495.3482" y="299.698213" style="fill: #1f77b4; stroke: #1f77b4"/>
     <use xlink:href="#m082bb279e0" x="6620.489" y="304.416821" style="fill: #1f77b4; stroke: #1f77b4"/>
     <use xlink:href="#m082bb279e0" x="6656.0522" y="306.428813" style="fill: #1f77b4; stroke: #1f77b4"/>
     <use xlink:href="#m082bb279e0" x="6691.6154" y="310.963651" style="fill: #1f77b4; stroke: #1f77b4"/>
     <use xlink:href="#m082bb279e0" x="6727.3274" y="262.742902" style="fill: #1f77b4; stroke: #1f77b4"/>
     <use xlink:href="#m082bb279e0" x="6775.241" y="269.575013" style="fill: #1f77b4; stroke: #1f77b4"/>
     <use xlink:href="#m082bb279e0" x="6826.8746" y="312.140236" style="fill: #1f77b4; stroke: #1f77b4"/>
     <use xlink:href="#m082bb279e0" x="6878.3594" y="316.571061" style="fill: #1f77b4; stroke: #1f77b4"/>
     <use xlink:href="#m082bb279e0" x="6929.8442" y="304.988555" style="fill: #1f77b4; stroke: #1f77b4"/>
     <use xlink:href="#m082bb279e0" x="7055.1338" y="304.482457" style="fill: #1f77b4; stroke: #1f77b4"/>
     <use xlink:href="#m082bb279e0" x="7091.441" y="308.867351" style="fill: #1f77b4; stroke: #1f77b4"/>
     <use xlink:href="#m082bb279e0" x="7127.153" y="307.211967" style="fill: #1f77b4; stroke: #1f77b4"/>
     <use xlink:href="#m082bb279e0" x="7162.7162" y="262.109694" style="fill: #1f77b4; stroke: #1f77b4"/>
     <use xlink:href="#m082bb279e0" x="7210.6298" y="276.708912" style="fill: #1f77b4; stroke: #1f77b4"/>
     <use xlink:href="#m082bb279e0" x="7262.2634" y="314.356378" style="fill: #1f77b4; stroke: #1f77b4"/>
     <use xlink:href="#m082bb279e0" x="7313.897" y="313.732037" style="fill: #1f77b4; stroke: #1f77b4"/>
     <use xlink:href="#m082bb279e0" x="7365.5306" y="306.033606" style="fill: #1f77b4; stroke: #1f77b4"/>
     <use xlink:href="#m082bb279e0" x="7490.5226" y="302.224834" style="fill: #1f77b4; stroke: #1f77b4"/>
     <use xlink:href="#m082bb279e0" x="7526.0858" y="310.862596" style="fill: #1f77b4; stroke: #1f77b4"/>
     <use xlink:href="#m082bb279e0" x="7561.649" y="305.546716" style="fill: #1f77b4; stroke: #1f77b4"/>
     <use xlink:href="#m082bb279e0" x="7597.0634" y="266.104333" style="fill: #1f77b4; stroke: #1f77b4"/>
     <use xlink:href="#m082bb279e0" x="7645.1258" y="273.329051" style="fill: #1f77b4; stroke: #1f77b4"/>
     <use xlink:href="#m082bb279e0" x="7696.7594" y="321.117173" style="fill: #1f77b4; stroke: #1f77b4"/>
     <use xlink:href="#m082bb279e0" x="7748.393" y="319.930945" style="fill: #1f77b4; stroke: #1f77b4"/>
     <use xlink:href="#m082bb279e0" x="7800.0266" y="308.357731" style="fill: #1f77b4; stroke: #1f77b4"/>
     <use xlink:href="#m082bb279e0" x="7925.3162" y="304.618678" style="fill: #1f77b4; stroke: #1f77b4"/>
     <use xlink:href="#m082bb279e0" x="7960.8794" y="313.507388" style="fill: #1f77b4; stroke: #1f77b4"/>
     <use xlink:href="#m082bb279e0" x="7996.4426" y="308.583027" style="fill: #1f77b4; stroke: #1f77b4"/>
     <use xlink:href="#m082bb279e0" x="8031.857" y="269.255042" style="fill: #1f77b4; stroke: #1f77b4"/>
     <use xlink:href="#m082bb279e0" x="8079.9194" y="275.57137" style="fill: #1f77b4; stroke: #1f77b4"/>
     <use xlink:href="#m082bb279e0" x="8131.553" y="320.857868" style="fill: #1f77b4; stroke: #1f77b4"/>
     <use xlink:href="#m082bb279e0" x="8183.1866" y="316.695501" style="fill: #1f77b4; stroke: #1f77b4"/>
     <use xlink:href="#m082bb279e0" x="8234.6714" y="305.553681" style="fill: #1f77b4; stroke: #1f77b4"/>
     <use xlink:href="#m082bb279e0" x="8359.8122" y="309.887153" style="fill: #1f77b4; stroke: #1f77b4"/>
     <use xlink:href="#m082bb279e0" x="8395.3754" y="315.852794" style="fill: #1f77b4; stroke: #1f77b4"/>
     <use xlink:href="#m082bb279e0" x="8430.9386" y="310.933144" style="fill: #1f77b4; stroke: #1f77b4"/>
     <use xlink:href="#m082bb279e0" x="8466.6506" y="266.729584" style="fill: #1f77b4; stroke: #1f77b4"/>
     <use xlink:href="#m082bb279e0" x="8514.713" y="273.638354" style="fill: #1f77b4; stroke: #1f77b4"/>
     <use xlink:href="#m082bb279e0" x="8566.3466" y="317.715336" style="fill: #1f77b4; stroke: #1f77b4"/>
     <use xlink:href="#m082bb279e0" x="8617.8314" y="320.150041" style="fill: #1f77b4; stroke: #1f77b4"/>
     <use xlink:href="#m082bb279e0" x="8669.465" y="311.460875" style="fill: #1f77b4; stroke: #1f77b4"/>
     <use xlink:href="#m082bb279e0" x="8794.457" y="304.258726" style="fill: #1f77b4; stroke: #1f77b4"/>
     <use xlink:href="#m082bb279e0" x="8830.0202" y="309.854749" style="fill: #1f77b4; stroke: #1f77b4"/>
     <use xlink:href="#m082bb279e0" x="8865.7322" y="309.356927" style="fill: #1f77b4; stroke: #1f77b4"/>
     <use xlink:href="#m082bb279e0" x="8901.2954" y="264.893172" style="fill: #1f77b4; stroke: #1f77b4"/>
     <use xlink:href="#m082bb279e0" x="8949.5066" y="282.00321" style="fill: #1f77b4; stroke: #1f77b4"/>
     <use xlink:href="#m082bb279e0" x="9000.9914" y="315.325304" style="fill: #1f77b4; stroke: #1f77b4"/>
     <use xlink:href="#m082bb279e0" x="9052.4762" y="323.630958" style="fill: #1f77b4; stroke: #1f77b4"/>
     <use xlink:href="#m082bb279e0" x="9103.961" y="314.282119" style="fill: #1f77b4; stroke: #1f77b4"/>
     <use xlink:href="#m082bb279e0" x="9229.2506" y="302.958227" style="fill: #1f77b4; stroke: #1f77b4"/>
     <use xlink:href="#m082bb279e0" x="9264.9626" y="308.403573" style="fill: #1f77b4; stroke: #1f77b4"/>
     <use xlink:href="#m082bb279e0" x="9300.6746" y="305.447233" style="fill: #1f77b4; stroke: #1f77b4"/>
     <use xlink:href="#m082bb279e0" x="9336.2378" y="270.318053" style="fill: #1f77b4; stroke: #1f77b4"/>
     <use xlink:href="#m082bb279e0" x="9384.1514" y="277.07187" style="fill: #1f77b4; stroke: #1f77b4"/>
     <use xlink:href="#m082bb279e0" x="9435.9338" y="319.839307" style="fill: #1f77b4; stroke: #1f77b4"/>
     <use xlink:href="#m082bb279e0" x="9487.4186" y="324.72" style="fill: #1f77b4; stroke: #1f77b4"/>
     <use xlink:href="#m082bb279e0" x="9539.0522" y="313.172498" style="fill: #1f77b4; stroke: #1f77b4"/>
     <use xlink:href="#m082bb279e0" x="9664.4906" y="305.608007" style="fill: #1f77b4; stroke: #1f77b4"/>
     <use xlink:href="#m082bb279e0" x="9700.2026" y="304.776792" style="fill: #1f77b4; stroke: #1f77b4"/>
     <use xlink:href="#m082bb279e0" x="9735.7658" y="303.96229" style="fill: #1f77b4; stroke: #1f77b4"/>
     <use xlink:href="#m082bb279e0" x="9771.329" y="268.304949" style="fill: #1f77b4; stroke: #1f77b4"/>
     <use xlink:href="#m082bb279e0" x="9819.3914" y="278.728838" style="fill: #1f77b4; stroke: #1f77b4"/>
     <use xlink:href="#m082bb279e0" x="9870.8762" y="315.165596" style="fill: #1f77b4; stroke: #1f77b4"/>
     <use xlink:href="#m082bb279e0" x="9922.6586" y="316.97887" style="fill: #1f77b4; stroke: #1f77b4"/>
     <use xlink:href="#m082bb279e0" x="9974.1434" y="310.129588" style="fill: #1f77b4; stroke: #1f77b4"/>
    </g>
   </g>
   <g id="line2d_13">
    <path clip-path="url(#p6652be847b)" style="fill: none; stroke-dasharray: 5.55,2.4; stroke-dashoffset: 0; stroke: #ff0000; stroke-width: 1.5"/>
   </g>
   <g id="patch_3">
    <path d="M 94.865 339.84
L 94.865 7.2
" style="fill: none; stroke: #000000; stroke-width: 3; stroke-linejoin: miter; stroke-linecap: square"/>
   </g>
   <g id="patch_4">
    <path d="M 541.265 339.84
L 541.265 7.2
" style="fill: none; stroke: #000000; stroke-width: 3; stroke-linejoin: miter; stroke-linecap: square"/>
   </g>
   <g id="patch_5">
    <path d="M 94.865 339.84
L 541.265 339.84
" style="fill: none; stroke: #000000; stroke-width: 3; stroke-linejoin: miter; stroke-linecap: square"/>
   </g>
   <g id="patch_6">
    <path d="M 94.865 7.2
L 541.265 7.2
" style="fill: none; stroke: #000000; stroke-width: 3; stroke-linejoin: miter; stroke-linecap: square"/>
   </g>
   <g id="legend_1">
    <g id="patch_7">
     <path d="M 186.99875 96.855
L 524.465 96.855
Q 529.265 96.855 529.265 92.055
L 529.265 24
Q 529.265 19.2 524.465 19.2
L 186.99875 19.2
Q 182.19875 19.2 182.19875 24
L 182.19875 92.055
Q 182.19875 96.855 186.99875 96.855
z
" style="fill: #ffffff; opacity: 0.8; stroke: #cccccc; stroke-width: 3; stroke-linejoin: miter"/>
    </g>
    <g id="line2d_14">
     <g>
      <use xlink:href="#m082bb279e0" x="215.79875" y="38.63625" style="fill: #1f77b4; stroke: #1f77b4"/>
     </g>
    </g>
    <g id="text_14">
     <!-- Jaccard index -->
     <g transform="translate(258.99875 47.03625) scale(0.24 -0.24)">
      <use xlink:href="#DejaVuSans-4a"/>
      <use xlink:href="#DejaVuSans-61" transform="translate(29.492188 0)"/>
      <use xlink:href="#DejaVuSans-63" transform="translate(90.771484 0)"/>
      <use xlink:href="#DejaVuSans-63" transform="translate(145.751953 0)"/>
      <use xlink:href="#DejaVuSans-61" transform="translate(200.732422 0)"/>
      <use xlink:href="#DejaVuSans-72" transform="translate(262.011719 0)"/>
      <use xlink:href="#DejaVuSans-64" transform="translate(301.375 0)"/>
      <use xlink:href="#DejaVuSans-20" transform="translate(364.851562 0)"/>
      <use xlink:href="#DejaVuSans-69" transform="translate(396.638672 0)"/>
      <use xlink:href="#DejaVuSans-6e" transform="translate(424.421875 0)"/>
      <use xlink:href="#DejaVuSans-64" transform="translate(487.800781 0)"/>
      <use xlink:href="#DejaVuSans-65" transform="translate(551.277344 0)"/>
      <use xlink:href="#DejaVuSans-78" transform="translate(611.050781 0)"/>
     </g>
    </g>
    <g id="line2d_15">
     <path d="M 191.79875 73.86375
L 215.79875 73.86375
L 239.79875 73.86375
" style="fill: none; stroke-dasharray: 5.55,2.4; stroke-dashoffset: 0; stroke: #ff0000; stroke-width: 1.5"/>
    </g>
    <g id="text_15">
     <!-- Plateau after 115 min -->
     <g transform="translate(258.99875 82.26375) scale(0.24 -0.24)">
      <defs>
       <path id="DejaVuSans-50" d="M 1259 4147
L 1259 2394
L 2053 2394
Q 2494 2394 2734 2622
Q 2975 2850 2975 3272
Q 2975 3691 2734 3919
Q 2494 4147 2053 4147
L 1259 4147
z
M 628 4666
L 2053 4666
Q 2838 4666 3239 4311
Q 3641 3956 3641 3272
Q 3641 2581 3239 2228
Q 2838 1875 2053 1875
L 1259 1875
L 1259 0
L 628 0
L 628 4666
z
" transform="scale(0.015625)"/>
       <path id="DejaVuSans-6c" d="M 603 4863
L 1178 4863
L 1178 0
L 603 0
L 603 4863
z
" transform="scale(0.015625)"/>
       <path id="DejaVuSans-74" d="M 1172 4494
L 1172 3500
L 2356 3500
L 2356 3053
L 1172 3053
L 1172 1153
Q 1172 725 1289 603
Q 1406 481 1766 481
L 2356 481
L 2356 0
L 1766 0
Q 1100 0 847 248
Q 594 497 594 1153
L 594 3053
L 172 3053
L 172 3500
L 594 3500
L 594 4494
L 1172 4494
z
" transform="scale(0.015625)"/>
       <path id="DejaVuSans-75" d="M 544 1381
L 544 3500
L 1119 3500
L 1119 1403
Q 1119 906 1312 657
Q 1506 409 1894 409
Q 2359 409 2629 706
Q 2900 1003 2900 1516
L 2900 3500
L 3475 3500
L 3475 0
L 2900 0
L 2900 538
Q 2691 219 2414 64
Q 2138 -91 1772 -91
Q 1169 -91 856 284
Q 544 659 544 1381
z
M 1991 3584
L 1991 3584
z
" transform="scale(0.015625)"/>
       <path id="DejaVuSans-66" d="M 2375 4863
L 2375 4384
L 1825 4384
Q 1516 4384 1395 4259
Q 1275 4134 1275 3809
L 1275 3500
L 2222 3500
L 2222 3053
L 1275 3053
L 1275 0
L 697 0
L 697 3053
L 147 3053
L 147 3500
L 697 3500
L 697 3744
Q 697 4328 969 4595
Q 1241 4863 1831 4863
L 2375 4863
z
" transform="scale(0.015625)"/>
      </defs>
      <use xlink:href="#DejaVuSans-50"/>
      <use xlink:href="#DejaVuSans-6c" transform="translate(60.302734 0)"/>
      <use xlink:href="#DejaVuSans-61" transform="translate(88.085938 0)"/>
      <use xlink:href="#DejaVuSans-74" transform="translate(149.365234 0)"/>
      <use xlink:href="#DejaVuSans-65" transform="translate(188.574219 0)"/>
      <use xlink:href="#DejaVuSans-61" transform="translate(250.097656 0)"/>
      <use xlink:href="#DejaVuSans-75" transform="translate(311.376953 0)"/>
      <use xlink:href="#DejaVuSans-20" transform="translate(374.755859 0)"/>
      <use xlink:href="#DejaVuSans-61" transform="translate(406.542969 0)"/>
      <use xlink:href="#DejaVuSans-66" transform="translate(467.822266 0)"/>
      <use xlink:href="#DejaVuSans-74" transform="translate(501.277344 0)"/>
      <use xlink:href="#DejaVuSans-65" transform="translate(540.486328 0)"/>
      <use xlink:href="#DejaVuSans-72" transform="translate(602.009766 0)"/>
      <use xlink:href="#DejaVuSans-20" transform="translate(643.123047 0)"/>
      <use xlink:href="#DejaVuSans-31" transform="translate(674.910156 0)"/>
      <use xlink:href="#DejaVuSans-31" transform="translate(738.533203 0)"/>
      <use xlink:href="#DejaVuSans-35" transform="translate(802.15625 0)"/>
      <use xlink:href="#DejaVuSans-20" transform="translate(865.779297 0)"/>
      <use xlink:href="#DejaVuSans-6d" transform="translate(897.566406 0)"/>
      <use xlink:href="#DejaVuSans-69" transform="translate(994.978516 0)"/>
      <use xlink:href="#DejaVuSans-6e" transform="translate(1022.761719 0)"/>
     </g>
    </g>
   </g>
  </g>
 </g>
 <defs>
  <clipPath id="p6652be847b">
   <rect x="94.865" y="7.2" width="446.4" height="332.64"/>
  </clipPath>
 </defs>
</svg>
