<?xml version="1.0" encoding="utf-8" standalone="no"?>
<!DOCTYPE svg PUBLIC "-//W3C//DTD SVG 1.1//EN"
  "http://www.w3.org/Graphics/SVG/1.1/DTD/svg11.dtd">
<svg xmlns:xlink="http://www.w3.org/1999/xlink" width="733.722906pt" height="432.3785pt" viewBox="0 0 733.722906 432.3785" xmlns="http://www.w3.org/2000/svg" version="1.1">
 <metadata>
  <rdf:RDF xmlns:dc="http://purl.org/dc/elements/1.1/" xmlns:cc="http://creativecommons.org/ns#" xmlns:rdf="http://www.w3.org/1999/02/22-rdf-syntax-ns#">
   <cc:Work>
    <dc:type rdf:resource="http://purl.org/dc/dcmitype/StillImage"/>
    <dc:date>2025-11-02T19:02:10.724063</dc:date>
    <dc:format>image/svg+xml</dc:format>
    <dc:creator>
     <cc:Agent>
      <dc:title>Matplotlib v3.10.7, https://matplotlib.org/</dc:title>
     </cc:Agent>
    </dc:creator>
   </cc:Work>
  </rdf:RDF>
 </metadata>
 <defs>
  <style type="text/css">*{stroke-linejoin: round; stroke-linecap: butt}</style>
 </defs>
 <g id="figure_1">
  <g id="patch_1">
   <path d="M 0 432.3785
L 733.722906 432.3785
L 733.722906 0
L 0 0
L 0 432.3785
z
" style="fill: none"/>
  </g>
  <g id="axes_1">
   <g id="patch_2">
    <path d="M 56.6975 367.7235
L 726.2975 367.7235
L 726.2975 35.0835
L 56.6975 35.0835
L 56.6975 367.7235
z
" style="fill: none"/>
   </g>
   <g id="matplotlib.axis_1">
    <g id="xtick_1">
     <g id="line2d_1">
      <defs>
       <path id="m7e3f03952a" d="M 0 0
L 0 3.5
" style="stroke: #000000; stroke-width: 3"/>
      </defs>
      <g>
       <use xlink:href="#m7e3f03952a" x="87.133864" y="367.7235" style="stroke: #000000; stroke-width: 3"/>
      </g>
     </g>
     <g id="text_1">
      <!-- 0 -->
      <g transform="translate(79.498864 392.95975) scale(0.24 -0.24)">
       <defs>
        <path id="DejaVuSans-30" d="M 2034 4250
Q 1547 4250 1301 3770
Q 1056 3291 1056 2328
Q 1056 1369 1301 889
Q 1547 409 2034 409
Q 2525 409 2770 889
Q 3016 1369 3016 2328
Q 3016 3291 2770 3770
Q 2525 4250 2034 4250
z
M 2034 4750
Q 2819 4750 3233 4129
Q 3647 3509 3647 2328
Q 3647 1150 3233 529
Q 2819 -91 2034 -91
Q 1250 -91 836 529
Q 422 1150 422 2328
Q 422 3509 836 4129
Q 1250 4750 2034 4750
z
" transform="scale(0.015625)"/>
       </defs>
       <use xlink:href="#DejaVuSans-30"/>
      </g>
     </g>
    </g>
    <g id="xtick_2">
     <g id="line2d_2">
      <g>
       <use xlink:href="#m7e3f03952a" x="208.903672" y="367.7235" style="stroke: #000000; stroke-width: 3"/>
      </g>
     </g>
     <g id="text_2">
      <!-- 1000 -->
      <g transform="translate(178.363672 392.95975) scale(0.24 -0.24)">
       <defs>
        <path id="DejaVuSans-31" d="M 794 531
L 1825 531
L 1825 4091
L 703 3866
L 703 4441
L 1819 4666
L 2450 4666
L 2450 531
L 3481 531
L 3481 0
L 794 0
L 794 531
z
" transform="scale(0.015625)"/>
       </defs>
       <use xlink:href="#DejaVuSans-31"/>
       <use xlink:href="#DejaVuSans-30" transform="translate(63.623047 0)"/>
       <use xlink:href="#DejaVuSans-30" transform="translate(127.246094 0)"/>
       <use xlink:href="#DejaVuSans-30" transform="translate(190.869141 0)"/>
      </g>
     </g>
    </g>
    <g id="xtick_3">
     <g id="line2d_3">
      <g>
       <use xlink:href="#m7e3f03952a" x="330.673481" y="367.7235" style="stroke: #000000; stroke-width: 3"/>
      </g>
     </g>
     <g id="text_3">
      <!-- 2000 -->
      <g transform="translate(300.133481 392.95975) scale(0.24 -0.24)">
       <defs>
        <path id="DejaVuSans-32" d="M 1228 531
L 3431 531
L 3431 0
L 469 0
L 469 531
Q 828 903 1448 1529
Q 2069 2156 2228 2338
Q 2531 2678 2651 2914
Q 2772 3150 2772 3378
Q 2772 3750 2511 3984
Q 2250 4219 1831 4219
Q 1534 4219 1204 4116
Q 875 4013 500 3803
L 500 4441
Q 881 4594 1212 4672
Q 1544 4750 1819 4750
Q 2544 4750 2975 4387
Q 3406 4025 3406 3419
Q 3406 3131 3298 2873
Q 3191 2616 2906 2266
Q 2828 2175 2409 1742
Q 1991 1309 1228 531
z
" transform="scale(0.015625)"/>
       </defs>
       <use xlink:href="#DejaVuSans-32"/>
       <use xlink:href="#DejaVuSans-30" transform="translate(63.623047 0)"/>
       <use xlink:href="#DejaVuSans-30" transform="translate(127.246094 0)"/>
       <use xlink:href="#DejaVuSans-30" transform="translate(190.869141 0)"/>
      </g>
     </g>
    </g>
    <g id="xtick_4">
     <g id="line2d_4">
      <g>
       <use xlink:href="#m7e3f03952a" x="452.443289" y="367.7235" style="stroke: #000000; stroke-width: 3"/>
      </g>
     </g>
     <g id="text_4">
      <!-- 3000 -->
      <g transform="translate(421.903289 392.95975) scale(0.24 -0.24)">
       <defs>
        <path id="DejaVuSans-33" d="M 2597 2516
Q 3050 2419 3304 2112
Q 3559 1806 3559 1356
Q 3559 666 3084 287
Q 2609 -91 1734 -91
Q 1441 -91 1130 -33
Q 819 25 488 141
L 488 750
Q 750 597 1062 519
Q 1375 441 1716 441
Q 2309 441 2620 675
Q 2931 909 2931 1356
Q 2931 1769 2642 2001
Q 2353 2234 1838 2234
L 1294 2234
L 1294 2753
L 1863 2753
Q 2328 2753 2575 2939
Q 2822 3125 2822 3475
Q 2822 3834 2567 4026
Q 2313 4219 1838 4219
Q 1578 4219 1281 4162
Q 984 4106 628 3988
L 628 4550
Q 988 4650 1302 4700
Q 1616 4750 1894 4750
Q 2613 4750 3031 4423
Q 3450 4097 3450 3541
Q 3450 3153 3228 2886
Q 3006 2619 2597 2516
z
" transform="scale(0.015625)"/>
       </defs>
       <use xlink:href="#DejaVuSans-33"/>
       <use xlink:href="#DejaVuSans-30" transform="translate(63.623047 0)"/>
       <use xlink:href="#DejaVuSans-30" transform="translate(127.246094 0)"/>
       <use xlink:href="#DejaVuSans-30" transform="translate(190.869141 0)"/>
      </g>
     </g>
    </g>
    <g id="xtick_5">
     <g id="line2d_5">
      <g>
       <use xlink:href="#m7e3f03952a" x="574.213098" y="367.7235" style="stroke: #000000; stroke-width: 3"/>
      </g>
     </g>
     <g id="text_5">
      <!-- 4000 -->
      <g transform="translate(543.673098 392.95975) scale(0.24 -0.24)">
       <defs>
        <path id="DejaVuSans-34" d="M 2419 4116
L 825 1625
L 2419 1625
L 2419 4116
z
M 2253 4666
L 3047 4666
L 3047 1625
L 3713 1625
L 3713 1100
L 3047 1100
L 3047 0
L 2419 0
L 2419 1100
L 313 1100
L 313 1709
L 2253 4666
z
" transform="scale(0.015625)"/>
       </defs>
       <use xlink:href="#DejaVuSans-34"/>
       <use xlink:href="#DejaVuSans-30" transform="translate(63.623047 0)"/>
       <use xlink:href="#DejaVuSans-30" transform="translate(127.246094 0)"/>
       <use xlink:href="#DejaVuSans-30" transform="translate(190.869141 0)"/>
      </g>
     </g>
    </g>
    <g id="xtick_6">
     <g id="line2d_6">
      <g>
       <use xlink:href="#m7e3f03952a" x="695.982906" y="367.7235" style="stroke: #000000; stroke-width: 3"/>
      </g>
     </g>
     <g id="text_6">
      <!-- 5000 -->
      <g transform="translate(665.442906 392.95975) scale(0.24 -0.24)">
       <defs>
        <path id="DejaVuSans-35" d="M 691 4666
L 3169 4666
L 3169 4134
L 1269 4134
L 1269 2991
Q 1406 3038 1543 3061
Q 1681 3084 1819 3084
Q 2600 3084 3056 2656
Q 3513 2228 3513 1497
Q 3513 744 3044 326
Q 2575 -91 1722 -91
Q 1428 -91 1123 -41
Q 819 9 494 109
L 494 744
Q 775 591 1075 516
Q 1375 441 1709 441
Q 2250 441 2565 725
Q 2881 1009 2881 1497
Q 2881 1984 2565 2268
Q 2250 2553 1709 2553
Q 1456 2553 1204 2497
Q 953 2441 691 2322
L 691 4666
z
" transform="scale(0.015625)"/>
       </defs>
       <use xlink:href="#DejaVuSans-35"/>
       <use xlink:href="#DejaVuSans-30" transform="translate(63.623047 0)"/>
       <use xlink:href="#DejaVuSans-30" transform="translate(127.246094 0)"/>
       <use xlink:href="#DejaVuSans-30" transform="translate(190.869141 0)"/>
      </g>
     </g>
    </g>
    <g id="text_7">
     <!-- Time step -->
     <g transform="translate(332.365625 420.18725) scale(0.24 -0.24)">
      <defs>
       <path id="DejaVuSans-54" d="M -19 4666
L 3928 4666
L 3928 4134
L 2272 4134
L 2272 0
L 1638 0
L 1638 4134
L -19 4134
L -19 4666
z
" transform="scale(0.015625)"/>
       <path id="DejaVuSans-69" d="M 603 3500
L 1178 3500
L 1178 0
L 603 0
L 603 3500
z
M 603 4863
L 1178 4863
L 1178 4134
L 603 4134
L 603 4863
z
" transform="scale(0.015625)"/>
       <path id="DejaVuSans-6d" d="M 3328 2828
Q 3544 3216 3844 3400
Q 4144 3584 4550 3584
Q 5097 3584 5394 3201
Q 5691 2819 5691 2113
L 5691 0
L 5113 0
L 5113 2094
Q 5113 2597 4934 2840
Q 4756 3084 4391 3084
Q 3944 3084 3684 2787
Q 3425 2491 3425 1978
L 3425 0
L 2847 0
L 2847 2094
Q 2847 2600 2669 2842
Q 2491 3084 2119 3084
Q 1678 3084 1418 2786
Q 1159 2488 1159 1978
L 1159 0
L 581 0
L 581 3500
L 1159 3500
L 1159 2956
Q 1356 3278 1631 3431
Q 1906 3584 2284 3584
Q 2666 3584 2933 3390
Q 3200 3197 3328 2828
z
" transform="scale(0.015625)"/>
       <path id="DejaVuSans-65" d="M 3597 1894
L 3597 1613
L 953 1613
Q 991 1019 1311 708
Q 1631 397 2203 397
Q 2534 397 2845 478
Q 3156 559 3463 722
L 3463 178
Q 3153 47 2828 -22
Q 2503 -91 2169 -91
Q 1331 -91 842 396
Q 353 884 353 1716
Q 353 2575 817 3079
Q 1281 3584 2069 3584
Q 2775 3584 3186 3129
Q 3597 2675 3597 1894
z
M 3022 2063
Q 3016 2534 2758 2815
Q 2500 3097 2075 3097
Q 1594 3097 1305 2825
Q 1016 2553 972 2059
L 3022 2063
z
" transform="scale(0.015625)"/>
       <path id="DejaVuSans-20" transform="scale(0.015625)"/>
       <path id="DejaVuSans-73" d="M 2834 3397
L 2834 2853
Q 2591 2978 2328 3040
Q 2066 3103 1784 3103
Q 1356 3103 1142 2972
Q 928 2841 928 2578
Q 928 2378 1081 2264
Q 1234 2150 1697 2047
L 1894 2003
Q 2506 1872 2764 1633
Q 3022 1394 3022 966
Q 3022 478 2636 193
Q 2250 -91 1575 -91
Q 1294 -91 989 -36
Q 684 19 347 128
L 347 722
Q 666 556 975 473
Q 1284 391 1588 391
Q 1994 391 2212 530
Q 2431 669 2431 922
Q 2431 1156 2273 1281
Q 2116 1406 1581 1522
L 1381 1569
Q 847 1681 609 1914
Q 372 2147 372 2553
Q 372 3047 722 3315
Q 1072 3584 1716 3584
Q 2034 3584 2315 3537
Q 2597 3491 2834 3397
z
" transform="scale(0.015625)"/>
       <path id="DejaVuSans-74" d="M 1172 4494
L 1172 3500
L 2356 3500
L 2356 3053
L 1172 3053
L 1172 1153
Q 1172 725 1289 603
Q 1406 481 1766 481
L 2356 481
L 2356 0
L 1766 0
Q 1100 0 847 248
Q 594 497 594 1153
L 594 3053
L 172 3053
L 172 3500
L 594 3500
L 594 4494
L 1172 4494
z
" transform="scale(0.015625)"/>
       <path id="DejaVuSans-70" d="M 1159 525
L 1159 -1331
L 581 -1331
L 581 3500
L 1159 3500
L 1159 2969
Q 1341 3281 1617 3432
Q 1894 3584 2278 3584
Q 2916 3584 3314 3078
Q 3713 2572 3713 1747
Q 3713 922 3314 415
Q 2916 -91 2278 -91
Q 1894 -91 1617 61
Q 1341 213 1159 525
z
M 3116 1747
Q 3116 2381 2855 2742
Q 2594 3103 2138 3103
Q 1681 3103 1420 2742
Q 1159 2381 1159 1747
Q 1159 1113 1420 752
Q 1681 391 2138 391
Q 2594 391 2855 752
Q 3116 1113 3116 1747
z
" transform="scale(0.015625)"/>
      </defs>
      <use xlink:href="#DejaVuSans-54"/>
      <use xlink:href="#DejaVuSans-69" transform="translate(57.958984 0)"/>
      <use xlink:href="#DejaVuSans-6d" transform="translate(85.742188 0)"/>
      <use xlink:href="#DejaVuSans-65" transform="translate(183.154297 0)"/>
      <use xlink:href="#DejaVuSans-20" transform="translate(244.677734 0)"/>
      <use xlink:href="#DejaVuSans-73" transform="translate(276.464844 0)"/>
      <use xlink:href="#DejaVuSans-74" transform="translate(328.564453 0)"/>
      <use xlink:href="#DejaVuSans-65" transform="translate(367.773438 0)"/>
      <use xlink:href="#DejaVuSans-70" transform="translate(429.296875 0)"/>
     </g>
    </g>
   </g>
   <g id="matplotlib.axis_2">
    <g id="ytick_1">
     <g id="line2d_7">
      <defs>
       <path id="mc68ea2d95c" d="M 0 0
L -3.5 0
" style="stroke: #000000; stroke-width: 3"/>
      </defs>
      <g>
       <use xlink:href="#mc68ea2d95c" x="56.6975" y="352.6035" style="stroke: #000000; stroke-width: 3"/>
      </g>
     </g>
     <g id="text_8">
      <!-- 0 -->
      <g transform="translate(34.4275 361.721625) scale(0.24 -0.24)">
       <use xlink:href="#DejaVuSans-30"/>
      </g>
     </g>
    </g>
    <g id="ytick_2">
     <g id="line2d_8">
      <g>
       <use xlink:href="#mc68ea2d95c" x="56.6975" y="291.973678" style="stroke: #000000; stroke-width: 3"/>
      </g>
     </g>
     <g id="text_9">
      <!-- 1 -->
      <g transform="translate(34.4275 301.091803) scale(0.24 -0.24)">
       <use xlink:href="#DejaVuSans-31"/>
      </g>
     </g>
    </g>
    <g id="ytick_3">
     <g id="line2d_9">
      <g>
       <use xlink:href="#mc68ea2d95c" x="56.6975" y="231.343856" style="stroke: #000000; stroke-width: 3"/>
      </g>
     </g>
     <g id="text_10">
      <!-- 2 -->
      <g transform="translate(34.4275 240.461981) scale(0.24 -0.24)">
       <use xlink:href="#DejaVuSans-32"/>
      </g>
     </g>
    </g>
    <g id="ytick_4">
     <g id="line2d_10">
      <g>
       <use xlink:href="#mc68ea2d95c" x="56.6975" y="170.714033" style="stroke: #000000; stroke-width: 3"/>
      </g>
     </g>
     <g id="text_11">
      <!-- 3 -->
      <g transform="translate(34.4275 179.832158) scale(0.24 -0.24)">
       <use xlink:href="#DejaVuSans-33"/>
      </g>
     </g>
    </g>
    <g id="ytick_5">
     <g id="line2d_11">
      <g>
       <use xlink:href="#mc68ea2d95c" x="56.6975" y="110.084211" style="stroke: #000000; stroke-width: 3"/>
      </g>
     </g>
     <g id="text_12">
      <!-- 4 -->
      <g transform="translate(34.4275 119.202336) scale(0.24 -0.24)">
       <use xlink:href="#DejaVuSans-34"/>
      </g>
     </g>
    </g>
    <g id="ytick_6">
     <g id="line2d_12">
      <g>
       <use xlink:href="#mc68ea2d95c" x="56.6975" y="49.454389" style="stroke: #000000; stroke-width: 3"/>
      </g>
     </g>
     <g id="text_13">
      <!-- 5 -->
      <g transform="translate(34.4275 58.572514) scale(0.24 -0.24)">
       <use xlink:href="#DejaVuSans-35"/>
      </g>
     </g>
    </g>
    <g id="text_14">
     <!-- Concentration (mmol/L) -->
     <g transform="translate(25.43625 344.254125) rotate(-90) scale(0.24 -0.24)">
      <defs>
       <path id="DejaVuSans-43" d="M 4122 4306
L 4122 3641
Q 3803 3938 3442 4084
Q 3081 4231 2675 4231
Q 1875 4231 1450 3742
Q 1025 3253 1025 2328
Q 1025 1406 1450 917
Q 1875 428 2675 428
Q 3081 428 3442 575
Q 3803 722 4122 1019
L 4122 359
Q 3791 134 3420 21
Q 3050 -91 2638 -91
Q 1578 -91 968 557
Q 359 1206 359 2328
Q 359 3453 968 4101
Q 1578 4750 2638 4750
Q 3056 4750 3426 4639
Q 3797 4528 4122 4306
z
" transform="scale(0.015625)"/>
       <path id="DejaVuSans-6f" d="M 1959 3097
Q 1497 3097 1228 2736
Q 959 2375 959 1747
Q 959 1119 1226 758
Q 1494 397 1959 397
Q 2419 397 2687 759
Q 2956 1122 2956 1747
Q 2956 2369 2687 2733
Q 2419 3097 1959 3097
z
M 1959 3584
Q 2709 3584 3137 3096
Q 3566 2609 3566 1747
Q 3566 888 3137 398
Q 2709 -91 1959 -91
Q 1206 -91 779 398
Q 353 888 353 1747
Q 353 2609 779 3096
Q 1206 3584 1959 3584
z
" transform="scale(0.015625)"/>
       <path id="DejaVuSans-6e" d="M 3513 2113
L 3513 0
L 2938 0
L 2938 2094
Q 2938 2591 2744 2837
Q 2550 3084 2163 3084
Q 1697 3084 1428 2787
Q 1159 2491 1159 1978
L 1159 0
L 581 0
L 581 3500
L 1159 3500
L 1159 2956
Q 1366 3272 1645 3428
Q 1925 3584 2291 3584
Q 2894 3584 3203 3211
Q 3513 2838 3513 2113
z
" transform="scale(0.015625)"/>
       <path id="DejaVuSans-63" d="M 3122 3366
L 3122 2828
Q 2878 2963 2633 3030
Q 2388 3097 2138 3097
Q 1578 3097 1268 2742
Q 959 2388 959 1747
Q 959 1106 1268 751
Q 1578 397 2138 397
Q 2388 397 2633 464
Q 2878 531 3122 666
L 3122 134
Q 2881 22 2623 -34
Q 2366 -91 2075 -91
Q 1284 -91 818 406
Q 353 903 353 1747
Q 353 2603 823 3093
Q 1294 3584 2113 3584
Q 2378 3584 2631 3529
Q 2884 3475 3122 3366
z
" transform="scale(0.015625)"/>
       <path id="DejaVuSans-72" d="M 2631 2963
Q 2534 3019 2420 3045
Q 2306 3072 2169 3072
Q 1681 3072 1420 2755
Q 1159 2438 1159 1844
L 1159 0
L 581 0
L 581 3500
L 1159 3500
L 1159 2956
Q 1341 3275 1631 3429
Q 1922 3584 2338 3584
Q 2397 3584 2469 3576
Q 2541 3569 2628 3553
L 2631 2963
z
" transform="scale(0.015625)"/>
       <path id="DejaVuSans-61" d="M 2194 1759
Q 1497 1759 1228 1600
Q 959 1441 959 1056
Q 959 750 1161 570
Q 1363 391 1709 391
Q 2188 391 2477 730
Q 2766 1069 2766 1631
L 2766 1759
L 2194 1759
z
M 3341 1997
L 3341 0
L 2766 0
L 2766 531
Q 2569 213 2275 61
Q 1981 -91 1556 -91
Q 1019 -91 701 211
Q 384 513 384 1019
Q 384 1609 779 1909
Q 1175 2209 1959 2209
L 2766 2209
L 2766 2266
Q 2766 2663 2505 2880
Q 2244 3097 1772 3097
Q 1472 3097 1187 3025
Q 903 2953 641 2809
L 641 3341
Q 956 3463 1253 3523
Q 1550 3584 1831 3584
Q 2591 3584 2966 3190
Q 3341 2797 3341 1997
z
" transform="scale(0.015625)"/>
       <path id="DejaVuSans-28" d="M 1984 4856
Q 1566 4138 1362 3434
Q 1159 2731 1159 2009
Q 1159 1288 1364 580
Q 1569 -128 1984 -844
L 1484 -844
Q 1016 -109 783 600
Q 550 1309 550 2009
Q 550 2706 781 3412
Q 1013 4119 1484 4856
L 1984 4856
z
" transform="scale(0.015625)"/>
       <path id="DejaVuSans-6c" d="M 603 4863
L 1178 4863
L 1178 0
L 603 0
L 603 4863
z
" transform="scale(0.015625)"/>
       <path id="DejaVuSans-2f" d="M 1625 4666
L 2156 4666
L 531 -594
L 0 -594
L 1625 4666
z
" transform="scale(0.015625)"/>
       <path id="DejaVuSans-4c" d="M 628 4666
L 1259 4666
L 1259 531
L 3531 531
L 3531 0
L 628 0
L 628 4666
z
" transform="scale(0.015625)"/>
       <path id="DejaVuSans-29" d="M 513 4856
L 1013 4856
Q 1481 4119 1714 3412
Q 1947 2706 1947 2009
Q 1947 1309 1714 600
Q 1481 -109 1013 -844
L 513 -844
Q 928 -128 1133 580
Q 1338 1288 1338 2009
Q 1338 2731 1133 3434
Q 928 4138 513 4856
z
" transform="scale(0.015625)"/>
      </defs>
      <use xlink:href="#DejaVuSans-43"/>
      <use xlink:href="#DejaVuSans-6f" transform="translate(69.824219 0)"/>
      <use xlink:href="#DejaVuSans-6e" transform="translate(131.005859 0)"/>
      <use xlink:href="#DejaVuSans-63" transform="translate(194.384766 0)"/>
      <use xlink:href="#DejaVuSans-65" transform="translate(249.365234 0)"/>
      <use xlink:href="#DejaVuSans-6e" transform="translate(310.888672 0)"/>
      <use xlink:href="#DejaVuSans-74" transform="translate(374.267578 0)"/>
      <use xlink:href="#DejaVuSans-72" transform="translate(413.476562 0)"/>
      <use xlink:href="#DejaVuSans-61" transform="translate(454.589844 0)"/>
      <use xlink:href="#DejaVuSans-74" transform="translate(515.869141 0)"/>
      <use xlink:href="#DejaVuSans-69" transform="translate(555.078125 0)"/>
      <use xlink:href="#DejaVuSans-6f" transform="translate(582.861328 0)"/>
      <use xlink:href="#DejaVuSans-6e" transform="translate(644.042969 0)"/>
      <use xlink:href="#DejaVuSans-20" transform="translate(707.421875 0)"/>
      <use xlink:href="#DejaVuSans-28" transform="translate(739.208984 0)"/>
      <use xlink:href="#DejaVuSans-6d" transform="translate(778.222656 0)"/>
      <use xlink:href="#DejaVuSans-6d" transform="translate(875.634766 0)"/>
      <use xlink:href="#DejaVuSans-6f" transform="translate(973.046875 0)"/>
      <use xlink:href="#DejaVuSans-6c" transform="translate(1034.228516 0)"/>
      <use xlink:href="#DejaVuSans-2f" transform="translate(1062.011719 0)"/>
      <use xlink:href="#DejaVuSans-4c" transform="translate(1095.703125 0)"/>
      <use xlink:href="#DejaVuSans-29" transform="translate(1151.416016 0)"/>
     </g>
    </g>
   </g>
   <g id="line2d_13">
    <path d="M 87.133864 291.973678
L 123.664806 292.148075
L 145.948681 292.457092
L 161.413447 292.885161
L 173.346888 293.431259
L 183.088473 294.093113
L 191.36882 294.871792
L 198.675008 295.778339
L 205.128808 296.796723
L 211.095529 297.961322
L 216.57517 299.256201
L 221.689502 300.691688
L 226.560294 302.291318
L 231.187547 304.046214
L 235.69303 305.99721
L 240.076743 308.143438
L 244.338686 310.478826
L 248.60063 313.069319
L 252.862573 315.91908
L 257.246286 319.117223
L 261.873539 322.770623
L 266.987871 327.09793
L 273.80698 333.189504
L 282.087327 340.551247
L 285.862191 343.604687
L 288.906436 345.793599
L 291.585372 347.459485
L 294.142538 348.792839
L 296.577934 349.822111
L 299.1351 350.661591
L 301.814036 351.306672
L 304.858281 351.804719
L 308.511376 352.165766
L 313.382168 352.406887
L 321.297205 352.54449
L 341.145684 352.597502
L 549.615596 352.6035
L 695.861136 352.6035
L 695.861136 352.6035
" clip-path="url(#p689dfa54f5)" style="fill: none; stroke: #1f77b4; stroke-width: 1.5; stroke-linecap: square"/>
   </g>
   <g id="line2d_14">
    <path d="M 87.133864 201.028944
L 102.11155 201.13939
L 121.594719 201.472772
L 135.841787 201.929527
L 146.92284 202.498403
L 156.055575 203.181162
L 163.848843 203.978699
L 170.667952 204.892888
L 176.756443 205.92779
L 182.236084 207.078484
L 187.228646 208.34635
L 191.855899 209.743699
L 196.239612 211.298501
L 200.379786 213.005568
L 204.276419 214.854325
L 207.929514 216.82854
L 211.460838 218.985049
L 214.870393 221.323917
L 218.158178 223.842195
L 221.445962 226.642731
L 224.611977 229.629143
L 227.777992 232.921984
L 230.944007 236.542922
L 234.110023 240.512616
L 237.276038 244.849873
L 240.442053 249.570602
L 243.608068 254.686506
L 246.895852 260.423696
L 250.305407 266.827638
L 253.958501 274.183755
L 257.855135 282.546364
L 262.360618 292.75997
L 277.094765 326.658227
L 279.895471 332.248699
L 282.330867 336.613932
L 284.400953 339.896702
L 286.34927 342.593283
L 288.175817 344.762049
L 290.002365 346.585121
L 291.707142 347.988286
L 293.533689 349.197541
L 295.360236 350.137556
L 297.308553 350.889594
L 299.50041 351.488503
L 302.057576 351.942695
L 305.223591 352.264433
L 309.607304 352.469413
L 317.400572 352.574685
L 344.06816 352.602571
L 695.861136 352.6035
L 695.861136 352.6035
" clip-path="url(#p689dfa54f5)" style="fill: none; stroke: #ff7f0e; stroke-width: 1.5; stroke-linecap: square"/>
   </g>
   <g id="line2d_15">
    <path d="M 87.133864 352.6035
L 226.316755 352.24817
L 245.434615 351.886666
L 259.072833 351.415412
L 269.910346 350.822146
L 287.566968 349.77351
L 291.585372 349.853271
L 295.482006 350.162413
L 300.474568 350.808286
L 308.511376 351.849817
L 313.503938 352.242792
L 319.470658 352.472472
L 328.846934 352.579202
L 360.750623 352.603109
L 695.861136 352.6035
L 695.861136 352.6035
" clip-path="url(#p689dfa54f5)" style="fill: none; stroke: #2ca02c; stroke-width: 1.5; stroke-linecap: square"/>
   </g>
   <g id="line2d_16">
    <path d="M 87.133864 352.6035
L 152.76779 352.492415
L 183.453782 352.253701
L 202.693412 351.893533
L 217.184019 351.407484
L 228.995691 350.795094
L 239.224354 350.046536
L 248.35709 349.159654
L 256.880977 348.10972
L 265.161324 346.865983
L 283.913874 343.916105
L 287.201659 343.743381
L 290.002365 343.818252
L 292.559531 344.102906
L 295.116697 344.608069
L 297.917402 345.398658
L 301.326957 346.613879
L 310.337923 349.963757
L 313.503938 350.832668
L 316.669953 351.474477
L 320.201277 351.954121
L 324.341451 352.281305
L 329.942862 352.484852
L 339.684446 352.581973
L 377.311317 352.603184
L 695.861136 352.6035
L 695.861136 352.6035
" clip-path="url(#p689dfa54f5)" style="fill: none; stroke: #d62728; stroke-width: 1.5; stroke-linecap: square"/>
   </g>
   <g id="line2d_17">
    <path d="M 87.133864 352.6035
L 226.925604 352.248518
L 242.390369 351.907374
L 252.740803 351.468797
L 260.290531 350.935413
L 266.135482 350.307182
L 270.884505 349.581493
L 275.024678 348.725914
L 278.677772 347.747508
L 282.087327 346.610423
L 285.496882 345.243602
L 289.393516 343.431598
L 299.25687 338.696932
L 301.814036 337.80545
L 304.127662 337.236945
L 306.319519 336.935133
L 308.389606 336.868066
L 310.581462 337.017018
L 313.016858 337.415094
L 315.817564 338.108264
L 319.714198 339.326798
L 329.942862 342.625179
L 334.691884 343.860408
L 339.562677 344.896973
L 345.042318 345.830077
L 351.374348 346.674547
L 358.924076 347.448157
L 368.178582 348.162097
L 379.624944 348.813113
L 394.237321 349.411345
L 413.233411 349.955161
L 438.561531 350.445514
L 473.387696 350.883452
L 522.948008 351.268865
L 596.618742 351.602302
L 695.861136 351.854389
L 695.861136 351.854389
" clip-path="url(#p689dfa54f5)" style="fill: none; stroke: #9467bd; stroke-width: 1.5; stroke-linecap: square"/>
   </g>
   <g id="line2d_18">
    <path d="M 87.133864 352.54287
L 113.436142 352.4784
L 142.417357 352.23088
L 160.682828 351.864029
L 174.199277 351.379179
L 185.03679 350.774811
L 194.169525 350.047294
L 202.084563 349.197628
L 209.147212 348.218766
L 215.601012 347.100364
L 221.567732 345.840578
L 227.169143 344.431071
L 232.527015 342.853911
L 237.763117 341.079473
L 242.999219 339.066021
L 248.35709 336.762484
L 254.202041 333.998265
L 261.873539 330.098459
L 271.128044 325.426719
L 275.633527 323.410651
L 279.408391 321.960207
L 283.061486 320.796075
L 287.201659 319.724012
L 296.090855 317.517958
L 299.37864 316.402665
L 302.544655 315.088463
L 306.075979 313.372049
L 311.190311 310.601307
L 318.13119 306.870738
L 322.149594 304.970468
L 325.924458 303.429139
L 329.699322 302.125835
L 333.717726 300.974147
L 338.101439 299.949404
L 343.094001 299.013696
L 348.938952 298.151503
L 355.879831 297.359925
L 364.281948 296.631946
L 374.754151 295.956704
L 388.02706 295.335186
L 405.074834 294.770629
L 427.602248 294.259029
L 458.16647 293.800515
L 501.029443 293.394487
L 563.619124 293.040403
L 659.817273 292.737554
L 695.861136 292.662159
L 695.861136 292.662159
" clip-path="url(#p689dfa54f5)" style="fill: none; stroke: #8c564b; stroke-width: 1.5; stroke-linecap: square"/>
   </g>
   <g id="line2d_19">
    <path d="M 87.133864 352.6035
L 98.336686 352.494076
L 115.14092 352.135024
L 128.170289 351.645523
L 138.642493 351.035615
L 147.288149 350.316527
L 154.716107 349.483226
L 161.291677 348.526495
L 167.136628 347.456422
L 172.494499 346.250677
L 177.365292 344.928587
L 181.870775 343.47781
L 186.132718 341.869341
L 190.029352 340.166542
L 193.804216 338.275041
L 197.33554 336.261638
L 200.745095 334.066398
L 204.03288 331.689052
L 207.198895 329.132146
L 210.36491 326.286129
L 213.409155 323.251013
L 216.4534 319.89682
L 219.375876 316.351485
L 222.298351 312.462544
L 225.220826 308.205086
L 228.143302 303.554299
L 231.065777 298.485991
L 233.988253 292.977215
L 237.032498 286.747977
L 240.076743 279.99779
L 243.120988 272.71103
L 246.287003 264.553482
L 249.574788 255.455395
L 252.984343 245.357797
L 256.637437 233.825499
L 260.655841 220.366925
L 265.283093 204.044982
L 272.102203 179.046672
L 279.286621 152.924641
L 283.426795 138.710704
L 286.958119 127.359223
L 290.245904 117.517026
L 293.411919 108.72006
L 296.456164 100.897871
L 299.37864 94.002243
L 302.057576 88.251914
L 304.492972 83.535307
L 306.806598 79.526978
L 308.998455 76.158588
L 311.190311 73.197015
L 313.382168 70.619121
L 315.574024 68.392407
L 317.765881 66.47894
L 320.079507 64.75516
L 322.514903 63.220231
L 325.072069 61.865418
L 327.872775 60.627347
L 331.03879 59.473546
L 334.570115 58.424632
L 338.710288 57.435007
L 343.459311 56.533335
L 349.182492 55.682073
L 356.001601 54.900072
L 364.403718 54.169639
L 374.875921 53.493888
L 388.02706 52.877619
L 405.074834 52.312371
L 427.602248 51.800492
L 458.16647 51.341884
L 501.029443 50.935832
L 563.619124 50.581744
L 659.817273 50.278895
L 695.861136 50.2035
L 695.861136 50.2035
" clip-path="url(#p689dfa54f5)" style="fill: none; stroke: #e377c2; stroke-width: 1.5; stroke-linecap: square"/>
   </g>
   <g id="line2d_20">
    <path d="M 87.133864 352.6035
L 111.366056 352.493129
L 134.867629 352.201525
L 150.819473 351.792763
L 162.996454 351.267352
L 172.859809 350.627242
L 181.261926 349.863353
L 188.446344 348.994079
L 194.900144 347.993136
L 200.745095 346.861618
L 205.981197 345.626764
L 210.851989 344.254667
L 215.479242 342.718244
L 219.741185 341.072481
L 223.881359 339.233987
L 227.777992 337.262926
L 231.552857 335.108589
L 235.327721 332.692872
L 238.980815 330.089333
L 242.633909 327.211837
L 246.287003 324.054233
L 250.061867 320.500945
L 254.202041 316.288719
L 259.072833 310.994353
L 269.788576 299.20431
L 272.589282 296.532337
L 274.781139 294.727022
L 276.729455 293.404466
L 278.434233 292.515255
L 279.895471 291.985447
L 281.356708 291.697064
L 282.696176 291.664797
L 284.035644 291.870442
L 285.253342 292.273886
L 286.59281 292.962758
L 287.932278 293.910487
L 289.393516 295.234873
L 290.976523 296.995446
L 292.6813 299.236054
L 294.629617 302.166889
L 297.186783 306.450478
L 306.684828 322.828632
L 309.120225 326.371327
L 311.433851 329.349475
L 313.625707 331.821052
L 315.817564 333.97017
L 318.13119 335.920696
L 320.444817 337.583839
L 322.880213 339.068862
L 325.559149 340.439886
L 328.481624 341.680894
L 331.769409 342.82645
L 335.422503 343.860162
L 339.684446 344.828468
L 344.677009 345.726133
L 350.643729 346.562688
L 357.828148 347.335812
L 366.595574 348.048107
L 377.554857 348.707095
L 391.558385 349.315105
L 409.702086 349.868167
L 433.812508 350.367804
L 466.690357 350.813586
L 513.206424 351.207379
L 581.884596 351.549648
L 688.798487 351.840722
L 695.861136 351.854389
L 695.861136 351.854389
" clip-path="url(#p689dfa54f5)" style="fill: none; stroke: #7f7f7f; stroke-width: 1.5; stroke-linecap: square"/>
   </g>
   <g id="patch_3">
    <path d="M 56.6975 367.7235
L 56.6975 35.0835
" style="fill: none; stroke: #000000; stroke-width: 3; stroke-linejoin: miter; stroke-linecap: square"/>
   </g>
   <g id="patch_4">
    <path d="M 726.2975 367.7235
L 726.2975 35.0835
" style="fill: none; stroke: #000000; stroke-width: 3; stroke-linejoin: miter; stroke-linecap: square"/>
   </g>
   <g id="patch_5">
    <path d="M 56.6975 367.7235
L 726.2975 367.7235
" style="fill: none; stroke: #000000; stroke-width: 3; stroke-linejoin: miter; stroke-linecap: square"/>
   </g>
   <g id="patch_6">
    <path d="M 56.6975 35.0835
L 726.2975 35.0835
" style="fill: none; stroke: #000000; stroke-width: 3; stroke-linejoin: miter; stroke-linecap: square"/>
   </g>
   <g id="text_15">
    <!-- Concentration vs Time -->
    <g transform="translate(229.2185 29.0835) scale(0.288 -0.288)">
     <defs>
      <path id="DejaVuSans-76" d="M 191 3500
L 800 3500
L 1894 563
L 2988 3500
L 3597 3500
L 2284 0
L 1503 0
L 191 3500
z
" transform="scale(0.015625)"/>
     </defs>
     <use xlink:href="#DejaVuSans-43"/>
     <use xlink:href="#DejaVuSans-6f" transform="translate(69.824219 0)"/>
     <use xlink:href="#DejaVuSans-6e" transform="translate(131.005859 0)"/>
     <use xlink:href="#DejaVuSans-63" transform="translate(194.384766 0)"/>
     <use xlink:href="#DejaVuSans-65" transform="translate(249.365234 0)"/>
     <use xlink:href="#DejaVuSans-6e" transform="translate(310.888672 0)"/>
     <use xlink:href="#DejaVuSans-74" transform="translate(374.267578 0)"/>
     <use xlink:href="#DejaVuSans-72" transform="translate(413.476562 0)"/>
     <use xlink:href="#DejaVuSans-61" transform="translate(454.589844 0)"/>
     <use xlink:href="#DejaVuSans-74" transform="translate(515.869141 0)"/>
     <use xlink:href="#DejaVuSans-69" transform="translate(555.078125 0)"/>
     <use xlink:href="#DejaVuSans-6f" transform="translate(582.861328 0)"/>
     <use xlink:href="#DejaVuSans-6e" transform="translate(644.042969 0)"/>
     <use xlink:href="#DejaVuSans-20" transform="translate(707.421875 0)"/>
     <use xlink:href="#DejaVuSans-76" transform="translate(739.208984 0)"/>
     <use xlink:href="#DejaVuSans-73" transform="translate(798.388672 0)"/>
     <use xlink:href="#DejaVuSans-20" transform="translate(850.488281 0)"/>
     <use xlink:href="#DejaVuSans-54" transform="translate(882.275391 0)"/>
     <use xlink:href="#DejaVuSans-69" transform="translate(940.234375 0)"/>
     <use xlink:href="#DejaVuSans-6d" transform="translate(968.017578 0)"/>
     <use xlink:href="#DejaVuSans-65" transform="translate(1065.429688 0)"/>
    </g>
   </g>
   <g id="legend_1">
    <g id="patch_7">
     <path d="M 457.55 345.9135
L 709.4975 345.9135
Q 714.2975 345.9135 714.2975 341.1135
L 714.2975 61.6935
Q 714.2975 56.8935 709.4975 56.8935
L 457.55 56.8935
Q 452.75 56.8935 452.75 61.6935
L 452.75 341.1135
Q 452.75 345.9135 457.55 345.9135
z
" style="fill: #ffffff; opacity: 0.8; stroke: #cccccc; stroke-linejoin: miter"/>
    </g>
    <g id="line2d_21">
     <path d="M 462.35 76.32975
L 486.35 76.32975
L 510.35 76.32975
" style="fill: none; stroke: #1f77b4; stroke-width: 1.5; stroke-linecap: square"/>
    </g>
    <g id="text_16">
     <!-- Permanganate -->
     <g transform="translate(529.55 84.72975) scale(0.24 -0.24)">
      <defs>
       <path id="DejaVuSans-50" d="M 1259 4147
L 1259 2394
L 2053 2394
Q 2494 2394 2734 2622
Q 2975 2850 2975 3272
Q 2975 3691 2734 3919
Q 2494 4147 2053 4147
L 1259 4147
z
M 628 4666
L 2053 4666
Q 2838 4666 3239 4311
Q 3641 3956 3641 3272
Q 3641 2581 3239 2228
Q 2838 1875 2053 1875
L 1259 1875
L 1259 0
L 628 0
L 628 4666
z
" transform="scale(0.015625)"/>
       <path id="DejaVuSans-67" d="M 2906 1791
Q 2906 2416 2648 2759
Q 2391 3103 1925 3103
Q 1463 3103 1205 2759
Q 947 2416 947 1791
Q 947 1169 1205 825
Q 1463 481 1925 481
Q 2391 481 2648 825
Q 2906 1169 2906 1791
z
M 3481 434
Q 3481 -459 3084 -895
Q 2688 -1331 1869 -1331
Q 1566 -1331 1297 -1286
Q 1028 -1241 775 -1147
L 775 -588
Q 1028 -725 1275 -790
Q 1522 -856 1778 -856
Q 2344 -856 2625 -561
Q 2906 -266 2906 331
L 2906 616
Q 2728 306 2450 153
Q 2172 0 1784 0
Q 1141 0 747 490
Q 353 981 353 1791
Q 353 2603 747 3093
Q 1141 3584 1784 3584
Q 2172 3584 2450 3431
Q 2728 3278 2906 2969
L 2906 3500
L 3481 3500
L 3481 434
z
" transform="scale(0.015625)"/>
      </defs>
      <use xlink:href="#DejaVuSans-50"/>
      <use xlink:href="#DejaVuSans-65" transform="translate(56.677734 0)"/>
      <use xlink:href="#DejaVuSans-72" transform="translate(118.201172 0)"/>
      <use xlink:href="#DejaVuSans-6d" transform="translate(157.564453 0)"/>
      <use xlink:href="#DejaVuSans-61" transform="translate(254.976562 0)"/>
      <use xlink:href="#DejaVuSans-6e" transform="translate(316.255859 0)"/>
      <use xlink:href="#DejaVuSans-67" transform="translate(379.634766 0)"/>
      <use xlink:href="#DejaVuSans-61" transform="translate(443.111328 0)"/>
      <use xlink:href="#DejaVuSans-6e" transform="translate(504.390625 0)"/>
      <use xlink:href="#DejaVuSans-61" transform="translate(567.769531 0)"/>
      <use xlink:href="#DejaVuSans-74" transform="translate(629.048828 0)"/>
      <use xlink:href="#DejaVuSans-65" transform="translate(668.257812 0)"/>
     </g>
    </g>
    <g id="line2d_22">
     <path d="M 462.35 111.55725
L 486.35 111.55725
L 510.35 111.55725
" style="fill: none; stroke: #ff7f0e; stroke-width: 1.5; stroke-linecap: square"/>
    </g>
    <g id="text_17">
     <!-- Oxalic acid -->
     <g transform="translate(529.55 119.95725) scale(0.24 -0.24)">
      <defs>
       <path id="DejaVuSans-4f" d="M 2522 4238
Q 1834 4238 1429 3725
Q 1025 3213 1025 2328
Q 1025 1447 1429 934
Q 1834 422 2522 422
Q 3209 422 3611 934
Q 4013 1447 4013 2328
Q 4013 3213 3611 3725
Q 3209 4238 2522 4238
z
M 2522 4750
Q 3503 4750 4090 4092
Q 4678 3434 4678 2328
Q 4678 1225 4090 567
Q 3503 -91 2522 -91
Q 1538 -91 948 565
Q 359 1222 359 2328
Q 359 3434 948 4092
Q 1538 4750 2522 4750
z
" transform="scale(0.015625)"/>
       <path id="DejaVuSans-78" d="M 3513 3500
L 2247 1797
L 3578 0
L 2900 0
L 1881 1375
L 863 0
L 184 0
L 1544 1831
L 300 3500
L 978 3500
L 1906 2253
L 2834 3500
L 3513 3500
z
" transform="scale(0.015625)"/>
       <path id="DejaVuSans-64" d="M 2906 2969
L 2906 4863
L 3481 4863
L 3481 0
L 2906 0
L 2906 525
Q 2725 213 2448 61
Q 2172 -91 1784 -91
Q 1150 -91 751 415
Q 353 922 353 1747
Q 353 2572 751 3078
Q 1150 3584 1784 3584
Q 2172 3584 2448 3432
Q 2725 3281 2906 2969
z
M 947 1747
Q 947 1113 1208 752
Q 1469 391 1925 391
Q 2381 391 2643 752
Q 2906 1113 2906 1747
Q 2906 2381 2643 2742
Q 2381 3103 1925 3103
Q 1469 3103 1208 2742
Q 947 2381 947 1747
z
" transform="scale(0.015625)"/>
      </defs>
      <use xlink:href="#DejaVuSans-4f"/>
      <use xlink:href="#DejaVuSans-78" transform="translate(78.710938 0)"/>
      <use xlink:href="#DejaVuSans-61" transform="translate(137.890625 0)"/>
      <use xlink:href="#DejaVuSans-6c" transform="translate(199.169922 0)"/>
      <use xlink:href="#DejaVuSans-69" transform="translate(226.953125 0)"/>
      <use xlink:href="#DejaVuSans-63" transform="translate(254.736328 0)"/>
      <use xlink:href="#DejaVuSans-20" transform="translate(309.716797 0)"/>
      <use xlink:href="#DejaVuSans-61" transform="translate(341.503906 0)"/>
      <use xlink:href="#DejaVuSans-63" transform="translate(402.783203 0)"/>
      <use xlink:href="#DejaVuSans-69" transform="translate(457.763672 0)"/>
      <use xlink:href="#DejaVuSans-64" transform="translate(485.546875 0)"/>
     </g>
    </g>
    <g id="line2d_23">
     <path d="M 462.35 146.78475
L 486.35 146.78475
L 510.35 146.78475
" style="fill: none; stroke: #2ca02c; stroke-width: 1.5; stroke-linecap: square"/>
    </g>
    <g id="text_18">
     <!-- Mn6+ -->
     <g transform="translate(529.55 155.18475) scale(0.24 -0.24)">
      <defs>
       <path id="DejaVuSans-4d" d="M 628 4666
L 1569 4666
L 2759 1491
L 3956 4666
L 4897 4666
L 4897 0
L 4281 0
L 4281 4097
L 3078 897
L 2444 897
L 1241 4097
L 1241 0
L 628 0
L 628 4666
z
" transform="scale(0.015625)"/>
       <path id="DejaVuSans-36" d="M 2113 2584
Q 1688 2584 1439 2293
Q 1191 2003 1191 1497
Q 1191 994 1439 701
Q 1688 409 2113 409
Q 2538 409 2786 701
Q 3034 994 3034 1497
Q 3034 2003 2786 2293
Q 2538 2584 2113 2584
z
M 3366 4563
L 3366 3988
Q 3128 4100 2886 4159
Q 2644 4219 2406 4219
Q 1781 4219 1451 3797
Q 1122 3375 1075 2522
Q 1259 2794 1537 2939
Q 1816 3084 2150 3084
Q 2853 3084 3261 2657
Q 3669 2231 3669 1497
Q 3669 778 3244 343
Q 2819 -91 2113 -91
Q 1303 -91 875 529
Q 447 1150 447 2328
Q 447 3434 972 4092
Q 1497 4750 2381 4750
Q 2619 4750 2861 4703
Q 3103 4656 3366 4563
z
" transform="scale(0.015625)"/>
       <path id="DejaVuSans-2b" d="M 2944 4013
L 2944 2272
L 4684 2272
L 4684 1741
L 2944 1741
L 2944 0
L 2419 0
L 2419 1741
L 678 1741
L 678 2272
L 2419 2272
L 2419 4013
L 2944 4013
z
" transform="scale(0.015625)"/>
      </defs>
      <use xlink:href="#DejaVuSans-4d"/>
      <use xlink:href="#DejaVuSans-6e" transform="translate(86.279297 0)"/>
      <use xlink:href="#DejaVuSans-36" transform="translate(149.658203 0)"/>
      <use xlink:href="#DejaVuSans-2b" transform="translate(213.28125 0)"/>
     </g>
    </g>
    <g id="line2d_24">
     <path d="M 462.35 182.01225
L 486.35 182.01225
L 510.35 182.01225
" style="fill: none; stroke: #d62728; stroke-width: 1.5; stroke-linecap: square"/>
    </g>
    <g id="text_19">
     <!-- Mn4+ -->
     <g transform="translate(529.55 190.41225) scale(0.24 -0.24)">
      <use xlink:href="#DejaVuSans-4d"/>
      <use xlink:href="#DejaVuSans-6e" transform="translate(86.279297 0)"/>
      <use xlink:href="#DejaVuSans-34" transform="translate(149.658203 0)"/>
      <use xlink:href="#DejaVuSans-2b" transform="translate(213.28125 0)"/>
     </g>
    </g>
    <g id="line2d_25">
     <path d="M 462.35 217.23975
L 486.35 217.23975
L 510.35 217.23975
" style="fill: none; stroke: #9467bd; stroke-width: 1.5; stroke-linecap: square"/>
    </g>
    <g id="text_20">
     <!-- Mn3+ -->
     <g transform="translate(529.55 225.63975) scale(0.24 -0.24)">
      <use xlink:href="#DejaVuSans-4d"/>
      <use xlink:href="#DejaVuSans-6e" transform="translate(86.279297 0)"/>
      <use xlink:href="#DejaVuSans-33" transform="translate(149.658203 0)"/>
      <use xlink:href="#DejaVuSans-2b" transform="translate(213.28125 0)"/>
     </g>
    </g>
    <g id="line2d_26">
     <path d="M 462.35 252.46725
L 486.35 252.46725
L 510.35 252.46725
" style="fill: none; stroke: #8c564b; stroke-width: 1.5; stroke-linecap: square"/>
    </g>
    <g id="text_21">
     <!-- Mn2+ -->
     <g transform="translate(529.55 260.86725) scale(0.24 -0.24)">
      <use xlink:href="#DejaVuSans-4d"/>
      <use xlink:href="#DejaVuSans-6e" transform="translate(86.279297 0)"/>
      <use xlink:href="#DejaVuSans-32" transform="translate(149.658203 0)"/>
      <use xlink:href="#DejaVuSans-2b" transform="translate(213.28125 0)"/>
     </g>
    </g>
    <g id="line2d_27">
     <path d="M 462.35 287.69475
L 486.35 287.69475
L 510.35 287.69475
" style="fill: none; stroke: #e377c2; stroke-width: 1.5; stroke-linecap: square"/>
    </g>
    <g id="text_22">
     <!-- CO2 -->
     <g transform="translate(529.55 296.09475) scale(0.24 -0.24)">
      <use xlink:href="#DejaVuSans-43"/>
      <use xlink:href="#DejaVuSans-4f" transform="translate(69.824219 0)"/>
      <use xlink:href="#DejaVuSans-32" transform="translate(148.535156 0)"/>
     </g>
    </g>
    <g id="line2d_28">
     <path d="M 462.35 322.92225
L 486.35 322.92225
L 510.35 322.92225
" style="fill: none; stroke: #7f7f7f; stroke-width: 1.5; stroke-linecap: square"/>
    </g>
    <g id="text_23">
     <!-- CO2- -->
     <g transform="translate(529.55 331.32225) scale(0.24 -0.24)">
      <defs>
       <path id="DejaVuSans-2d" d="M 313 2009
L 1997 2009
L 1997 1497
L 313 1497
L 313 2009
z
" transform="scale(0.015625)"/>
      </defs>
      <use xlink:href="#DejaVuSans-43"/>
      <use xlink:href="#DejaVuSans-4f" transform="translate(69.824219 0)"/>
      <use xlink:href="#DejaVuSans-32" transform="translate(148.535156 0)"/>
      <use xlink:href="#DejaVuSans-2d" transform="translate(212.158203 0)"/>
     </g>
    </g>
   </g>
  </g>
 </g>
 <defs>
  <clipPath id="p689dfa54f5">
   <rect x="56.6975" y="35.0835" width="669.6" height="332.64"/>
  </clipPath>
 </defs>
</svg>
