<?xml version="1.0" encoding="utf-8" standalone="no"?>
<!DOCTYPE svg PUBLIC "-//W3C//DTD SVG 1.1//EN"
  "http://www.w3.org/Graphics/SVG/1.1/DTD/svg11.dtd">
<svg xmlns:xlink="http://www.w3.org/1999/xlink" width="797.325959pt" height="432.3785pt" viewBox="0 0 797.325959 432.3785" xmlns="http://www.w3.org/2000/svg" version="1.1">
 <metadata>
  <rdf:RDF xmlns:dc="http://purl.org/dc/elements/1.1/" xmlns:cc="http://creativecommons.org/ns#" xmlns:rdf="http://www.w3.org/1999/02/22-rdf-syntax-ns#">
   <cc:Work>
    <dc:type rdf:resource="http://purl.org/dc/dcmitype/StillImage"/>
    <dc:date>2025-11-02T13:07:33.793910</dc:date>
    <dc:format>image/svg+xml</dc:format>
    <dc:creator>
     <cc:Agent>
      <dc:title>Matplotlib v3.10.7, https://matplotlib.org/</dc:title>
     </cc:Agent>
    </dc:creator>
   </cc:Work>
  </rdf:RDF>
 </metadata>
 <defs>
  <style type="text/css">*{stroke-linejoin: round; stroke-linecap: butt}</style>
 </defs>
 <g id="figure_1">
  <g id="patch_1">
   <path d="M 0 432.3785
L 797.325959 432.3785
L 797.325959 0
L 0 0
L 0 432.3785
z
" style="fill: none"/>
  </g>
  <g id="axes_1">
   <g id="patch_2">
    <path d="M 99.70625 367.7235
L 769.30625 367.7235
L 769.30625 35.0835
L 99.70625 35.0835
L 99.70625 367.7235
z
" style="fill: none"/>
   </g>
   <g id="matplotlib.axis_1">
    <g id="xtick_1">
     <g id="line2d_1">
      <defs>
       <path id="m0044636f36" d="M 0 0
L 0 3.5
" style="stroke: #000000; stroke-width: 3"/>
      </defs>
      <g>
       <use xlink:href="#m0044636f36" x="120.012996" y="367.7235" style="stroke: #000000; stroke-width: 3"/>
      </g>
     </g>
     <g id="text_1">
      <!-- 0 -->
      <g transform="translate(112.377996 392.95975) scale(0.24 -0.24)">
       <defs>
        <path id="DejaVuSans-30" d="M 2034 4250
Q 1547 4250 1301 3770
Q 1056 3291 1056 2328
Q 1056 1369 1301 889
Q 1547 409 2034 409
Q 2525 409 2770 889
Q 3016 1369 3016 2328
Q 3016 3291 2770 3770
Q 2525 4250 2034 4250
z
M 2034 4750
Q 2819 4750 3233 4129
Q 3647 3509 3647 2328
Q 3647 1150 3233 529
Q 2819 -91 2034 -91
Q 1250 -91 836 529
Q 422 1150 422 2328
Q 422 3509 836 4129
Q 1250 4750 2034 4750
z
" transform="scale(0.015625)"/>
       </defs>
       <use xlink:href="#DejaVuSans-30"/>
      </g>
     </g>
    </g>
    <g id="xtick_2">
     <g id="line2d_2">
      <g>
       <use xlink:href="#m0044636f36" x="211.380562" y="367.7235" style="stroke: #000000; stroke-width: 3"/>
      </g>
     </g>
     <g id="text_2">
      <!-- 250 -->
      <g transform="translate(188.475562 392.95975) scale(0.24 -0.24)">
       <defs>
        <path id="DejaVuSans-32" d="M 1228 531
L 3431 531
L 3431 0
L 469 0
L 469 531
Q 828 903 1448 1529
Q 2069 2156 2228 2338
Q 2531 2678 2651 2914
Q 2772 3150 2772 3378
Q 2772 3750 2511 3984
Q 2250 4219 1831 4219
Q 1534 4219 1204 4116
Q 875 4013 500 3803
L 500 4441
Q 881 4594 1212 4672
Q 1544 4750 1819 4750
Q 2544 4750 2975 4387
Q 3406 4025 3406 3419
Q 3406 3131 3298 2873
Q 3191 2616 2906 2266
Q 2828 2175 2409 1742
Q 1991 1309 1228 531
z
" transform="scale(0.015625)"/>
        <path id="DejaVuSans-35" d="M 691 4666
L 3169 4666
L 3169 4134
L 1269 4134
L 1269 2991
Q 1406 3038 1543 3061
Q 1681 3084 1819 3084
Q 2600 3084 3056 2656
Q 3513 2228 3513 1497
Q 3513 744 3044 326
Q 2575 -91 1722 -91
Q 1428 -91 1123 -41
Q 819 9 494 109
L 494 744
Q 775 591 1075 516
Q 1375 441 1709 441
Q 2250 441 2565 725
Q 2881 1009 2881 1497
Q 2881 1984 2565 2268
Q 2250 2553 1709 2553
Q 1456 2553 1204 2497
Q 953 2441 691 2322
L 691 4666
z
" transform="scale(0.015625)"/>
       </defs>
       <use xlink:href="#DejaVuSans-32"/>
       <use xlink:href="#DejaVuSans-35" transform="translate(63.623047 0)"/>
       <use xlink:href="#DejaVuSans-30" transform="translate(127.246094 0)"/>
      </g>
     </g>
    </g>
    <g id="xtick_3">
     <g id="line2d_3">
      <g>
       <use xlink:href="#m0044636f36" x="302.748128" y="367.7235" style="stroke: #000000; stroke-width: 3"/>
      </g>
     </g>
     <g id="text_3">
      <!-- 500 -->
      <g transform="translate(279.843128 392.95975) scale(0.24 -0.24)">
       <use xlink:href="#DejaVuSans-35"/>
       <use xlink:href="#DejaVuSans-30" transform="translate(63.623047 0)"/>
       <use xlink:href="#DejaVuSans-30" transform="translate(127.246094 0)"/>
      </g>
     </g>
    </g>
    <g id="xtick_4">
     <g id="line2d_4">
      <g>
       <use xlink:href="#m0044636f36" x="394.115695" y="367.7235" style="stroke: #000000; stroke-width: 3"/>
      </g>
     </g>
     <g id="text_4">
      <!-- 750 -->
      <g transform="translate(371.210695 392.95975) scale(0.24 -0.24)">
       <defs>
        <path id="DejaVuSans-37" d="M 525 4666
L 3525 4666
L 3525 4397
L 1831 0
L 1172 0
L 2766 4134
L 525 4134
L 525 4666
z
" transform="scale(0.015625)"/>
       </defs>
       <use xlink:href="#DejaVuSans-37"/>
       <use xlink:href="#DejaVuSans-35" transform="translate(63.623047 0)"/>
       <use xlink:href="#DejaVuSans-30" transform="translate(127.246094 0)"/>
      </g>
     </g>
    </g>
    <g id="xtick_5">
     <g id="line2d_5">
      <g>
       <use xlink:href="#m0044636f36" x="485.483261" y="367.7235" style="stroke: #000000; stroke-width: 3"/>
      </g>
     </g>
     <g id="text_5">
      <!-- 1000 -->
      <g transform="translate(454.943261 392.95975) scale(0.24 -0.24)">
       <defs>
        <path id="DejaVuSans-31" d="M 794 531
L 1825 531
L 1825 4091
L 703 3866
L 703 4441
L 1819 4666
L 2450 4666
L 2450 531
L 3481 531
L 3481 0
L 794 0
L 794 531
z
" transform="scale(0.015625)"/>
       </defs>
       <use xlink:href="#DejaVuSans-31"/>
       <use xlink:href="#DejaVuSans-30" transform="translate(63.623047 0)"/>
       <use xlink:href="#DejaVuSans-30" transform="translate(127.246094 0)"/>
       <use xlink:href="#DejaVuSans-30" transform="translate(190.869141 0)"/>
      </g>
     </g>
    </g>
    <g id="xtick_6">
     <g id="line2d_6">
      <g>
       <use xlink:href="#m0044636f36" x="576.850827" y="367.7235" style="stroke: #000000; stroke-width: 3"/>
      </g>
     </g>
     <g id="text_6">
      <!-- 1250 -->
      <g transform="translate(546.310827 392.95975) scale(0.24 -0.24)">
       <use xlink:href="#DejaVuSans-31"/>
       <use xlink:href="#DejaVuSans-32" transform="translate(63.623047 0)"/>
       <use xlink:href="#DejaVuSans-35" transform="translate(127.246094 0)"/>
       <use xlink:href="#DejaVuSans-30" transform="translate(190.869141 0)"/>
      </g>
     </g>
    </g>
    <g id="xtick_7">
     <g id="line2d_7">
      <g>
       <use xlink:href="#m0044636f36" x="668.218393" y="367.7235" style="stroke: #000000; stroke-width: 3"/>
      </g>
     </g>
     <g id="text_7">
      <!-- 1500 -->
      <g transform="translate(637.678393 392.95975) scale(0.24 -0.24)">
       <use xlink:href="#DejaVuSans-31"/>
       <use xlink:href="#DejaVuSans-35" transform="translate(63.623047 0)"/>
       <use xlink:href="#DejaVuSans-30" transform="translate(127.246094 0)"/>
       <use xlink:href="#DejaVuSans-30" transform="translate(190.869141 0)"/>
      </g>
     </g>
    </g>
    <g id="xtick_8">
     <g id="line2d_8">
      <g>
       <use xlink:href="#m0044636f36" x="759.585959" y="367.7235" style="stroke: #000000; stroke-width: 3"/>
      </g>
     </g>
     <g id="text_8">
      <!-- 1750 -->
      <g transform="translate(729.045959 392.95975) scale(0.24 -0.24)">
       <use xlink:href="#DejaVuSans-31"/>
       <use xlink:href="#DejaVuSans-37" transform="translate(63.623047 0)"/>
       <use xlink:href="#DejaVuSans-35" transform="translate(127.246094 0)"/>
       <use xlink:href="#DejaVuSans-30" transform="translate(190.869141 0)"/>
      </g>
     </g>
    </g>
    <g id="text_9">
     <!-- Time / min -->
     <g transform="translate(370.848125 420.18725) scale(0.24 -0.24)">
      <defs>
       <path id="DejaVuSans-54" d="M -19 4666
L 3928 4666
L 3928 4134
L 2272 4134
L 2272 0
L 1638 0
L 1638 4134
L -19 4134
L -19 4666
z
" transform="scale(0.015625)"/>
       <path id="DejaVuSans-69" d="M 603 3500
L 1178 3500
L 1178 0
L 603 0
L 603 3500
z
M 603 4863
L 1178 4863
L 1178 4134
L 603 4134
L 603 4863
z
" transform="scale(0.015625)"/>
       <path id="DejaVuSans-6d" d="M 3328 2828
Q 3544 3216 3844 3400
Q 4144 3584 4550 3584
Q 5097 3584 5394 3201
Q 5691 2819 5691 2113
L 5691 0
L 5113 0
L 5113 2094
Q 5113 2597 4934 2840
Q 4756 3084 4391 3084
Q 3944 3084 3684 2787
Q 3425 2491 3425 1978
L 3425 0
L 2847 0
L 2847 2094
Q 2847 2600 2669 2842
Q 2491 3084 2119 3084
Q 1678 3084 1418 2786
Q 1159 2488 1159 1978
L 1159 0
L 581 0
L 581 3500
L 1159 3500
L 1159 2956
Q 1356 3278 1631 3431
Q 1906 3584 2284 3584
Q 2666 3584 2933 3390
Q 3200 3197 3328 2828
z
" transform="scale(0.015625)"/>
       <path id="DejaVuSans-65" d="M 3597 1894
L 3597 1613
L 953 1613
Q 991 1019 1311 708
Q 1631 397 2203 397
Q 2534 397 2845 478
Q 3156 559 3463 722
L 3463 178
Q 3153 47 2828 -22
Q 2503 -91 2169 -91
Q 1331 -91 842 396
Q 353 884 353 1716
Q 353 2575 817 3079
Q 1281 3584 2069 3584
Q 2775 3584 3186 3129
Q 3597 2675 3597 1894
z
M 3022 2063
Q 3016 2534 2758 2815
Q 2500 3097 2075 3097
Q 1594 3097 1305 2825
Q 1016 2553 972 2059
L 3022 2063
z
" transform="scale(0.015625)"/>
       <path id="DejaVuSans-20" transform="scale(0.015625)"/>
       <path id="DejaVuSans-2f" d="M 1625 4666
L 2156 4666
L 531 -594
L 0 -594
L 1625 4666
z
" transform="scale(0.015625)"/>
       <path id="DejaVuSans-6e" d="M 3513 2113
L 3513 0
L 2938 0
L 2938 2094
Q 2938 2591 2744 2837
Q 2550 3084 2163 3084
Q 1697 3084 1428 2787
Q 1159 2491 1159 1978
L 1159 0
L 581 0
L 581 3500
L 1159 3500
L 1159 2956
Q 1366 3272 1645 3428
Q 1925 3584 2291 3584
Q 2894 3584 3203 3211
Q 3513 2838 3513 2113
z
" transform="scale(0.015625)"/>
      </defs>
      <use xlink:href="#DejaVuSans-54"/>
      <use xlink:href="#DejaVuSans-69" transform="translate(57.958984 0)"/>
      <use xlink:href="#DejaVuSans-6d" transform="translate(85.742188 0)"/>
      <use xlink:href="#DejaVuSans-65" transform="translate(183.154297 0)"/>
      <use xlink:href="#DejaVuSans-20" transform="translate(244.677734 0)"/>
      <use xlink:href="#DejaVuSans-2f" transform="translate(276.464844 0)"/>
      <use xlink:href="#DejaVuSans-20" transform="translate(310.15625 0)"/>
      <use xlink:href="#DejaVuSans-6d" transform="translate(341.943359 0)"/>
      <use xlink:href="#DejaVuSans-69" transform="translate(439.355469 0)"/>
      <use xlink:href="#DejaVuSans-6e" transform="translate(467.138672 0)"/>
     </g>
    </g>
   </g>
   <g id="matplotlib.axis_2">
    <g id="ytick_1">
     <g id="line2d_9">
      <defs>
       <path id="m24beed6236" d="M 0 0
L -3.5 0
" style="stroke: #000000; stroke-width: 3"/>
      </defs>
      <g>
       <use xlink:href="#m24beed6236" x="99.70625" y="352.6035" style="stroke: #000000; stroke-width: 3"/>
      </g>
     </g>
     <g id="text_10">
      <!-- −1.0 -->
      <g transform="translate(34.4275 361.721625) scale(0.24 -0.24)">
       <defs>
        <path id="DejaVuSans-2212" d="M 678 2272
L 4684 2272
L 4684 1741
L 678 1741
L 678 2272
z
" transform="scale(0.015625)"/>
        <path id="DejaVuSans-2e" d="M 684 794
L 1344 794
L 1344 0
L 684 0
L 684 794
z
" transform="scale(0.015625)"/>
       </defs>
       <use xlink:href="#DejaVuSans-2212"/>
       <use xlink:href="#DejaVuSans-31" transform="translate(83.789062 0)"/>
       <use xlink:href="#DejaVuSans-2e" transform="translate(147.412109 0)"/>
       <use xlink:href="#DejaVuSans-30" transform="translate(179.199219 0)"/>
      </g>
     </g>
    </g>
    <g id="ytick_2">
     <g id="line2d_10">
      <g>
       <use xlink:href="#m24beed6236" x="99.70625" y="294.585512" style="stroke: #000000; stroke-width: 3"/>
      </g>
     </g>
     <g id="text_11">
      <!-- −0.9 -->
      <g transform="translate(34.4275 303.703637) scale(0.24 -0.24)">
       <defs>
        <path id="DejaVuSans-39" d="M 703 97
L 703 672
Q 941 559 1184 500
Q 1428 441 1663 441
Q 2288 441 2617 861
Q 2947 1281 2994 2138
Q 2813 1869 2534 1725
Q 2256 1581 1919 1581
Q 1219 1581 811 2004
Q 403 2428 403 3163
Q 403 3881 828 4315
Q 1253 4750 1959 4750
Q 2769 4750 3195 4129
Q 3622 3509 3622 2328
Q 3622 1225 3098 567
Q 2575 -91 1691 -91
Q 1453 -91 1209 -44
Q 966 3 703 97
z
M 1959 2075
Q 2384 2075 2632 2365
Q 2881 2656 2881 3163
Q 2881 3666 2632 3958
Q 2384 4250 1959 4250
Q 1534 4250 1286 3958
Q 1038 3666 1038 3163
Q 1038 2656 1286 2365
Q 1534 2075 1959 2075
z
" transform="scale(0.015625)"/>
       </defs>
       <use xlink:href="#DejaVuSans-2212"/>
       <use xlink:href="#DejaVuSans-30" transform="translate(83.789062 0)"/>
       <use xlink:href="#DejaVuSans-2e" transform="translate(147.412109 0)"/>
       <use xlink:href="#DejaVuSans-39" transform="translate(179.199219 0)"/>
      </g>
     </g>
    </g>
    <g id="ytick_3">
     <g id="line2d_11">
      <g>
       <use xlink:href="#m24beed6236" x="99.70625" y="236.567524" style="stroke: #000000; stroke-width: 3"/>
      </g>
     </g>
     <g id="text_12">
      <!-- −0.8 -->
      <g transform="translate(34.4275 245.685649) scale(0.24 -0.24)">
       <defs>
        <path id="DejaVuSans-38" d="M 2034 2216
Q 1584 2216 1326 1975
Q 1069 1734 1069 1313
Q 1069 891 1326 650
Q 1584 409 2034 409
Q 2484 409 2743 651
Q 3003 894 3003 1313
Q 3003 1734 2745 1975
Q 2488 2216 2034 2216
z
M 1403 2484
Q 997 2584 770 2862
Q 544 3141 544 3541
Q 544 4100 942 4425
Q 1341 4750 2034 4750
Q 2731 4750 3128 4425
Q 3525 4100 3525 3541
Q 3525 3141 3298 2862
Q 3072 2584 2669 2484
Q 3125 2378 3379 2068
Q 3634 1759 3634 1313
Q 3634 634 3220 271
Q 2806 -91 2034 -91
Q 1263 -91 848 271
Q 434 634 434 1313
Q 434 1759 690 2068
Q 947 2378 1403 2484
z
M 1172 3481
Q 1172 3119 1398 2916
Q 1625 2713 2034 2713
Q 2441 2713 2670 2916
Q 2900 3119 2900 3481
Q 2900 3844 2670 4047
Q 2441 4250 2034 4250
Q 1625 4250 1398 4047
Q 1172 3844 1172 3481
z
" transform="scale(0.015625)"/>
       </defs>
       <use xlink:href="#DejaVuSans-2212"/>
       <use xlink:href="#DejaVuSans-30" transform="translate(83.789062 0)"/>
       <use xlink:href="#DejaVuSans-2e" transform="translate(147.412109 0)"/>
       <use xlink:href="#DejaVuSans-38" transform="translate(179.199219 0)"/>
      </g>
     </g>
    </g>
    <g id="ytick_4">
     <g id="line2d_12">
      <g>
       <use xlink:href="#m24beed6236" x="99.70625" y="178.549536" style="stroke: #000000; stroke-width: 3"/>
      </g>
     </g>
     <g id="text_13">
      <!-- −0.7 -->
      <g transform="translate(34.4275 187.667661) scale(0.24 -0.24)">
       <use xlink:href="#DejaVuSans-2212"/>
       <use xlink:href="#DejaVuSans-30" transform="translate(83.789062 0)"/>
       <use xlink:href="#DejaVuSans-2e" transform="translate(147.412109 0)"/>
       <use xlink:href="#DejaVuSans-37" transform="translate(179.199219 0)"/>
      </g>
     </g>
    </g>
    <g id="ytick_5">
     <g id="line2d_13">
      <g>
       <use xlink:href="#m24beed6236" x="99.70625" y="120.531548" style="stroke: #000000; stroke-width: 3"/>
      </g>
     </g>
     <g id="text_14">
      <!-- −0.6 -->
      <g transform="translate(34.4275 129.649673) scale(0.24 -0.24)">
       <defs>
        <path id="DejaVuSans-36" d="M 2113 2584
Q 1688 2584 1439 2293
Q 1191 2003 1191 1497
Q 1191 994 1439 701
Q 1688 409 2113 409
Q 2538 409 2786 701
Q 3034 994 3034 1497
Q 3034 2003 2786 2293
Q 2538 2584 2113 2584
z
M 3366 4563
L 3366 3988
Q 3128 4100 2886 4159
Q 2644 4219 2406 4219
Q 1781 4219 1451 3797
Q 1122 3375 1075 2522
Q 1259 2794 1537 2939
Q 1816 3084 2150 3084
Q 2853 3084 3261 2657
Q 3669 2231 3669 1497
Q 3669 778 3244 343
Q 2819 -91 2113 -91
Q 1303 -91 875 529
Q 447 1150 447 2328
Q 447 3434 972 4092
Q 1497 4750 2381 4750
Q 2619 4750 2861 4703
Q 3103 4656 3366 4563
z
" transform="scale(0.015625)"/>
       </defs>
       <use xlink:href="#DejaVuSans-2212"/>
       <use xlink:href="#DejaVuSans-30" transform="translate(83.789062 0)"/>
       <use xlink:href="#DejaVuSans-2e" transform="translate(147.412109 0)"/>
       <use xlink:href="#DejaVuSans-36" transform="translate(179.199219 0)"/>
      </g>
     </g>
    </g>
    <g id="ytick_6">
     <g id="line2d_14">
      <g>
       <use xlink:href="#m24beed6236" x="99.70625" y="62.513561" style="stroke: #000000; stroke-width: 3"/>
      </g>
     </g>
     <g id="text_15">
      <!-- −0.5 -->
      <g transform="translate(34.4275 71.631686) scale(0.24 -0.24)">
       <use xlink:href="#DejaVuSans-2212"/>
       <use xlink:href="#DejaVuSans-30" transform="translate(83.789062 0)"/>
       <use xlink:href="#DejaVuSans-2e" transform="translate(147.412109 0)"/>
       <use xlink:href="#DejaVuSans-35" transform="translate(179.199219 0)"/>
      </g>
     </g>
    </g>
    <g id="text_16">
     <!-- Spearman correlation -->
     <g transform="translate(25.43625 330.945375) rotate(-90) scale(0.24 -0.24)">
      <defs>
       <path id="DejaVuSans-53" d="M 3425 4513
L 3425 3897
Q 3066 4069 2747 4153
Q 2428 4238 2131 4238
Q 1616 4238 1336 4038
Q 1056 3838 1056 3469
Q 1056 3159 1242 3001
Q 1428 2844 1947 2747
L 2328 2669
Q 3034 2534 3370 2195
Q 3706 1856 3706 1288
Q 3706 609 3251 259
Q 2797 -91 1919 -91
Q 1588 -91 1214 -16
Q 841 59 441 206
L 441 856
Q 825 641 1194 531
Q 1563 422 1919 422
Q 2459 422 2753 634
Q 3047 847 3047 1241
Q 3047 1584 2836 1778
Q 2625 1972 2144 2069
L 1759 2144
Q 1053 2284 737 2584
Q 422 2884 422 3419
Q 422 4038 858 4394
Q 1294 4750 2059 4750
Q 2388 4750 2728 4690
Q 3069 4631 3425 4513
z
" transform="scale(0.015625)"/>
       <path id="DejaVuSans-70" d="M 1159 525
L 1159 -1331
L 581 -1331
L 581 3500
L 1159 3500
L 1159 2969
Q 1341 3281 1617 3432
Q 1894 3584 2278 3584
Q 2916 3584 3314 3078
Q 3713 2572 3713 1747
Q 3713 922 3314 415
Q 2916 -91 2278 -91
Q 1894 -91 1617 61
Q 1341 213 1159 525
z
M 3116 1747
Q 3116 2381 2855 2742
Q 2594 3103 2138 3103
Q 1681 3103 1420 2742
Q 1159 2381 1159 1747
Q 1159 1113 1420 752
Q 1681 391 2138 391
Q 2594 391 2855 752
Q 3116 1113 3116 1747
z
" transform="scale(0.015625)"/>
       <path id="DejaVuSans-61" d="M 2194 1759
Q 1497 1759 1228 1600
Q 959 1441 959 1056
Q 959 750 1161 570
Q 1363 391 1709 391
Q 2188 391 2477 730
Q 2766 1069 2766 1631
L 2766 1759
L 2194 1759
z
M 3341 1997
L 3341 0
L 2766 0
L 2766 531
Q 2569 213 2275 61
Q 1981 -91 1556 -91
Q 1019 -91 701 211
Q 384 513 384 1019
Q 384 1609 779 1909
Q 1175 2209 1959 2209
L 2766 2209
L 2766 2266
Q 2766 2663 2505 2880
Q 2244 3097 1772 3097
Q 1472 3097 1187 3025
Q 903 2953 641 2809
L 641 3341
Q 956 3463 1253 3523
Q 1550 3584 1831 3584
Q 2591 3584 2966 3190
Q 3341 2797 3341 1997
z
" transform="scale(0.015625)"/>
       <path id="DejaVuSans-72" d="M 2631 2963
Q 2534 3019 2420 3045
Q 2306 3072 2169 3072
Q 1681 3072 1420 2755
Q 1159 2438 1159 1844
L 1159 0
L 581 0
L 581 3500
L 1159 3500
L 1159 2956
Q 1341 3275 1631 3429
Q 1922 3584 2338 3584
Q 2397 3584 2469 3576
Q 2541 3569 2628 3553
L 2631 2963
z
" transform="scale(0.015625)"/>
       <path id="DejaVuSans-63" d="M 3122 3366
L 3122 2828
Q 2878 2963 2633 3030
Q 2388 3097 2138 3097
Q 1578 3097 1268 2742
Q 959 2388 959 1747
Q 959 1106 1268 751
Q 1578 397 2138 397
Q 2388 397 2633 464
Q 2878 531 3122 666
L 3122 134
Q 2881 22 2623 -34
Q 2366 -91 2075 -91
Q 1284 -91 818 406
Q 353 903 353 1747
Q 353 2603 823 3093
Q 1294 3584 2113 3584
Q 2378 3584 2631 3529
Q 2884 3475 3122 3366
z
" transform="scale(0.015625)"/>
       <path id="DejaVuSans-6f" d="M 1959 3097
Q 1497 3097 1228 2736
Q 959 2375 959 1747
Q 959 1119 1226 758
Q 1494 397 1959 397
Q 2419 397 2687 759
Q 2956 1122 2956 1747
Q 2956 2369 2687 2733
Q 2419 3097 1959 3097
z
M 1959 3584
Q 2709 3584 3137 3096
Q 3566 2609 3566 1747
Q 3566 888 3137 398
Q 2709 -91 1959 -91
Q 1206 -91 779 398
Q 353 888 353 1747
Q 353 2609 779 3096
Q 1206 3584 1959 3584
z
" transform="scale(0.015625)"/>
       <path id="DejaVuSans-6c" d="M 603 4863
L 1178 4863
L 1178 0
L 603 0
L 603 4863
z
" transform="scale(0.015625)"/>
       <path id="DejaVuSans-74" d="M 1172 4494
L 1172 3500
L 2356 3500
L 2356 3053
L 1172 3053
L 1172 1153
Q 1172 725 1289 603
Q 1406 481 1766 481
L 2356 481
L 2356 0
L 1766 0
Q 1100 0 847 248
Q 594 497 594 1153
L 594 3053
L 172 3053
L 172 3500
L 594 3500
L 594 4494
L 1172 4494
z
" transform="scale(0.015625)"/>
      </defs>
      <use xlink:href="#DejaVuSans-53"/>
      <use xlink:href="#DejaVuSans-70" transform="translate(63.476562 0)"/>
      <use xlink:href="#DejaVuSans-65" transform="translate(126.953125 0)"/>
      <use xlink:href="#DejaVuSans-61" transform="translate(188.476562 0)"/>
      <use xlink:href="#DejaVuSans-72" transform="translate(249.755859 0)"/>
      <use xlink:href="#DejaVuSans-6d" transform="translate(289.119141 0)"/>
      <use xlink:href="#DejaVuSans-61" transform="translate(386.53125 0)"/>
      <use xlink:href="#DejaVuSans-6e" transform="translate(447.810547 0)"/>
      <use xlink:href="#DejaVuSans-20" transform="translate(511.189453 0)"/>
      <use xlink:href="#DejaVuSans-63" transform="translate(542.976562 0)"/>
      <use xlink:href="#DejaVuSans-6f" transform="translate(597.957031 0)"/>
      <use xlink:href="#DejaVuSans-72" transform="translate(659.138672 0)"/>
      <use xlink:href="#DejaVuSans-72" transform="translate(698.501953 0)"/>
      <use xlink:href="#DejaVuSans-65" transform="translate(737.365234 0)"/>
      <use xlink:href="#DejaVuSans-6c" transform="translate(798.888672 0)"/>
      <use xlink:href="#DejaVuSans-61" transform="translate(826.671875 0)"/>
      <use xlink:href="#DejaVuSans-74" transform="translate(887.951172 0)"/>
      <use xlink:href="#DejaVuSans-69" transform="translate(927.160156 0)"/>
      <use xlink:href="#DejaVuSans-6f" transform="translate(954.943359 0)"/>
      <use xlink:href="#DejaVuSans-6e" transform="translate(1016.125 0)"/>
     </g>
    </g>
   </g>
   <g id="line2d_15">
    <defs>
     <path id="m5bd03ae3f4" d="M 0 3
C 0.795609 3 1.55874 2.683901 2.12132 2.12132
C 2.683901 1.55874 3 0.795609 3 0
C 3 -0.795609 2.683901 -1.55874 2.12132 -2.12132
C 1.55874 -2.683901 0.795609 -3 0 -3
C -0.795609 -3 -1.55874 -2.683901 -2.12132 -2.12132
C -2.683901 -1.55874 -3 -0.795609 -3 0
C -3 0.795609 -2.683901 1.55874 -2.12132 2.12132
C -1.55874 2.683901 -0.795609 3 0 3
z
" style="stroke: #1f77b4"/>
    </defs>
    <g clip-path="url(#pf8eccc5c04)">
     <use xlink:href="#m5bd03ae3f4" x="130.142614" y="352.6035" style="fill: #1f77b4; stroke: #1f77b4"/>
     <use xlink:href="#m5bd03ae3f4" x="135.210468" y="62.513561" style="fill: #1f77b4; stroke: #1f77b4"/>
     <use xlink:href="#m5bd03ae3f4" x="140.278322" y="236.567524" style="fill: #1f77b4; stroke: #1f77b4"/>
     <use xlink:href="#m5bd03ae3f4" x="145.333994" y="236.567524" style="fill: #1f77b4; stroke: #1f77b4"/>
     <use xlink:href="#m5bd03ae3f4" x="150.401849" y="219.990956" style="fill: #1f77b4; stroke: #1f77b4"/>
     <use xlink:href="#m5bd03ae3f4" x="155.463612" y="207.55853" style="fill: #1f77b4; stroke: #1f77b4"/>
     <use xlink:href="#m5bd03ae3f4" x="160.531466" y="200.651627" style="fill: #1f77b4; stroke: #1f77b4"/>
     <use xlink:href="#m5bd03ae3f4" x="167.189116" y="168.879872" style="fill: #1f77b4; stroke: #1f77b4"/>
     <use xlink:href="#m5bd03ae3f4" x="172.250879" y="176.791415" style="fill: #1f77b4; stroke: #1f77b4"/>
     <use xlink:href="#m5bd03ae3f4" x="177.318734" y="220.744437" style="fill: #1f77b4; stroke: #1f77b4"/>
     <use xlink:href="#m5bd03ae3f4" x="182.380497" y="247.116249" style="fill: #1f77b4; stroke: #1f77b4"/>
     <use xlink:href="#m5bd03ae3f4" x="187.44226" y="186.83782" style="fill: #1f77b4; stroke: #1f77b4"/>
     <use xlink:href="#m5bd03ae3f4" x="192.510114" y="207.23975" style="fill: #1f77b4; stroke: #1f77b4"/>
     <use xlink:href="#m5bd03ae3f4" x="197.577969" y="195.126104" style="fill: #1f77b4; stroke: #1f77b4"/>
     <use xlink:href="#m5bd03ae3f4" x="202.645823" y="137.595663" style="fill: #1f77b4; stroke: #1f77b4"/>
     <use xlink:href="#m5bd03ae3f4" x="207.713677" y="173.430302" style="fill: #1f77b4; stroke: #1f77b4"/>
     <use xlink:href="#m5bd03ae3f4" x="212.781532" y="192.140954" style="fill: #1f77b4; stroke: #1f77b4"/>
     <use xlink:href="#m5bd03ae3f4" x="220.10921" y="140.888737" style="fill: #1f77b4; stroke: #1f77b4"/>
     <use xlink:href="#m5bd03ae3f4" x="225.201429" y="146.705077" style="fill: #1f77b4; stroke: #1f77b4"/>
     <use xlink:href="#m5bd03ae3f4" x="230.293648" y="123.54547" style="fill: #1f77b4; stroke: #1f77b4"/>
     <use xlink:href="#m5bd03ae3f4" x="235.385868" y="153.422604" style="fill: #1f77b4; stroke: #1f77b4"/>
     <use xlink:href="#m5bd03ae3f4" x="240.471995" y="178.320216" style="fill: #1f77b4; stroke: #1f77b4"/>
     <use xlink:href="#m5bd03ae3f4" x="245.564214" y="149.792795" style="fill: #1f77b4; stroke: #1f77b4"/>
     <use xlink:href="#m5bd03ae3f4" x="250.656433" y="114.72975" style="fill: #1f77b4; stroke: #1f77b4"/>
     <use xlink:href="#m5bd03ae3f4" x="255.748652" y="134.812899" style="fill: #1f77b4; stroke: #1f77b4"/>
     <use xlink:href="#m5bd03ae3f4" x="260.853054" y="101.475579" style="fill: #1f77b4; stroke: #1f77b4"/>
     <use xlink:href="#m5bd03ae3f4" x="265.939182" y="119.832919" style="fill: #1f77b4; stroke: #1f77b4"/>
     <use xlink:href="#m5bd03ae3f4" x="272.53592" y="107.670418" style="fill: #1f77b4; stroke: #1f77b4"/>
     <use xlink:href="#m5bd03ae3f4" x="277.622048" y="129.566608" style="fill: #1f77b4; stroke: #1f77b4"/>
     <use xlink:href="#m5bd03ae3f4" x="282.720358" y="146.265333" style="fill: #1f77b4; stroke: #1f77b4"/>
     <use xlink:href="#m5bd03ae3f4" x="287.818668" y="147.583924" style="fill: #1f77b4; stroke: #1f77b4"/>
     <use xlink:href="#m5bd03ae3f4" x="292.910887" y="131.157838" style="fill: #1f77b4; stroke: #1f77b4"/>
     <use xlink:href="#m5bd03ae3f4" x="298.033562" y="132.409945" style="fill: #1f77b4; stroke: #1f77b4"/>
     <use xlink:href="#m5bd03ae3f4" x="303.162328" y="122.806764" style="fill: #1f77b4; stroke: #1f77b4"/>
     <use xlink:href="#m5bd03ae3f4" x="308.254547" y="92.007904" style="fill: #1f77b4; stroke: #1f77b4"/>
     <use xlink:href="#m5bd03ae3f4" x="313.407678" y="107.629492" style="fill: #1f77b4; stroke: #1f77b4"/>
     <use xlink:href="#m5bd03ae3f4" x="318.505988" y="120.506155" style="fill: #1f77b4; stroke: #1f77b4"/>
     <use xlink:href="#m5bd03ae3f4" x="325.127091" y="105.028766" style="fill: #1f77b4; stroke: #1f77b4"/>
     <use xlink:href="#m5bd03ae3f4" x="330.213219" y="121.293511" style="fill: #1f77b4; stroke: #1f77b4"/>
     <use xlink:href="#m5bd03ae3f4" x="335.323711" y="137.815653" style="fill: #1f77b4; stroke: #1f77b4"/>
     <use xlink:href="#m5bd03ae3f4" x="340.409839" y="133.807847" style="fill: #1f77b4; stroke: #1f77b4"/>
     <use xlink:href="#m5bd03ae3f4" x="345.508149" y="145.3964" style="fill: #1f77b4; stroke: #1f77b4"/>
     <use xlink:href="#m5bd03ae3f4" x="350.643007" y="151.768858" style="fill: #1f77b4; stroke: #1f77b4"/>
     <use xlink:href="#m5bd03ae3f4" x="355.741317" y="157.222766" style="fill: #1f77b4; stroke: #1f77b4"/>
     <use xlink:href="#m5bd03ae3f4" x="360.827445" y="124.252714" style="fill: #1f77b4; stroke: #1f77b4"/>
     <use xlink:href="#m5bd03ae3f4" x="365.931846" y="120.343701" style="fill: #1f77b4; stroke: #1f77b4"/>
     <use xlink:href="#m5bd03ae3f4" x="371.030156" y="134.122823" style="fill: #1f77b4; stroke: #1f77b4"/>
     <use xlink:href="#m5bd03ae3f4" x="377.639077" y="131.839136" style="fill: #1f77b4; stroke: #1f77b4"/>
     <use xlink:href="#m5bd03ae3f4" x="382.725205" y="122.983209" style="fill: #1f77b4; stroke: #1f77b4"/>
     <use xlink:href="#m5bd03ae3f4" x="387.823515" y="119.061409" style="fill: #1f77b4; stroke: #1f77b4"/>
     <use xlink:href="#m5bd03ae3f4" x="392.958372" y="113.012441" style="fill: #1f77b4; stroke: #1f77b4"/>
     <use xlink:href="#m5bd03ae3f4" x="398.068865" y="107.04922" style="fill: #1f77b4; stroke: #1f77b4"/>
     <use xlink:href="#m5bd03ae3f4" x="403.167175" y="105.183927" style="fill: #1f77b4; stroke: #1f77b4"/>
     <use xlink:href="#m5bd03ae3f4" x="408.265485" y="116.219966" style="fill: #1f77b4; stroke: #1f77b4"/>
     <use xlink:href="#m5bd03ae3f4" x="413.369886" y="102.884245" style="fill: #1f77b4; stroke: #1f77b4"/>
     <use xlink:href="#m5bd03ae3f4" x="418.468197" y="94.252724" style="fill: #1f77b4; stroke: #1f77b4"/>
     <use xlink:href="#m5bd03ae3f4" x="423.566507" y="85.937415" style="fill: #1f77b4; stroke: #1f77b4"/>
     <use xlink:href="#m5bd03ae3f4" x="430.175427" y="96.286743" style="fill: #1f77b4; stroke: #1f77b4"/>
     <use xlink:href="#m5bd03ae3f4" x="435.267646" y="94.287235" style="fill: #1f77b4; stroke: #1f77b4"/>
     <use xlink:href="#m5bd03ae3f4" x="440.347683" y="92.059474" style="fill: #1f77b4; stroke: #1f77b4"/>
     <use xlink:href="#m5bd03ae3f4" x="445.445993" y="83.340193" style="fill: #1f77b4; stroke: #1f77b4"/>
     <use xlink:href="#m5bd03ae3f4" x="450.544303" y="91.366592" style="fill: #1f77b4; stroke: #1f77b4"/>
     <use xlink:href="#m5bd03ae3f4" x="455.636522" y="79.382344" style="fill: #1f77b4; stroke: #1f77b4"/>
     <use xlink:href="#m5bd03ae3f4" x="460.728741" y="81.557052" style="fill: #1f77b4; stroke: #1f77b4"/>
     <use xlink:href="#m5bd03ae3f4" x="465.820961" y="72.983564" style="fill: #1f77b4; stroke: #1f77b4"/>
     <use xlink:href="#m5bd03ae3f4" x="470.91318" y="64.944676" style="fill: #1f77b4; stroke: #1f77b4"/>
     <use xlink:href="#m5bd03ae3f4" x="476.017581" y="71.781999" style="fill: #1f77b4; stroke: #1f77b4"/>
     <use xlink:href="#m5bd03ae3f4" x="482.626502" y="79.302105" style="fill: #1f77b4; stroke: #1f77b4"/>
     <use xlink:href="#m5bd03ae3f4" x="487.712629" y="70.101426" style="fill: #1f77b4; stroke: #1f77b4"/>
     <use xlink:href="#m5bd03ae3f4" x="492.798757" y="77.416907" style="fill: #1f77b4; stroke: #1f77b4"/>
     <use xlink:href="#m5bd03ae3f4" x="497.897067" y="73.408957" style="fill: #1f77b4; stroke: #1f77b4"/>
     <use xlink:href="#m5bd03ae3f4" x="503.001469" y="84.727655" style="fill: #1f77b4; stroke: #1f77b4"/>
     <use xlink:href="#m5bd03ae3f4" x="508.093688" y="95.442689" style="fill: #1f77b4; stroke: #1f77b4"/>
     <use xlink:href="#m5bd03ae3f4" x="513.185907" y="97.423388" style="fill: #1f77b4; stroke: #1f77b4"/>
     <use xlink:href="#m5bd03ae3f4" x="518.290308" y="85.617648" style="fill: #1f77b4; stroke: #1f77b4"/>
     <use xlink:href="#m5bd03ae3f4" x="523.382527" y="76.423967" style="fill: #1f77b4; stroke: #1f77b4"/>
     <use xlink:href="#m5bd03ae3f4" x="528.480837" y="59.369779" style="fill: #1f77b4; stroke: #1f77b4"/>
     <use xlink:href="#m5bd03ae3f4" x="535.089758" y="60.875273" style="fill: #1f77b4; stroke: #1f77b4"/>
     <use xlink:href="#m5bd03ae3f4" x="540.194159" y="56.991924" style="fill: #1f77b4; stroke: #1f77b4"/>
     <use xlink:href="#m5bd03ae3f4" x="545.29247" y="50.236493" style="fill: #1f77b4; stroke: #1f77b4"/>
     <use xlink:href="#m5bd03ae3f4" x="550.384689" y="50.2035" style="fill: #1f77b4; stroke: #1f77b4"/>
     <use xlink:href="#m5bd03ae3f4" x="555.482999" y="59.834421" style="fill: #1f77b4; stroke: #1f77b4"/>
     <use xlink:href="#m5bd03ae3f4" x="560.581309" y="62.789641" style="fill: #1f77b4; stroke: #1f77b4"/>
     <use xlink:href="#m5bd03ae3f4" x="565.923266" y="71.697569" style="fill: #1f77b4; stroke: #1f77b4"/>
     <use xlink:href="#m5bd03ae3f4" x="571.021576" y="76.643796" style="fill: #1f77b4; stroke: #1f77b4"/>
     <use xlink:href="#m5bd03ae3f4" x="576.119886" y="79.294662" style="fill: #1f77b4; stroke: #1f77b4"/>
     <use xlink:href="#m5bd03ae3f4" x="581.212105" y="87.240328" style="fill: #1f77b4; stroke: #1f77b4"/>
     <use xlink:href="#m5bd03ae3f4" x="587.930667" y="95.305477" style="fill: #1f77b4; stroke: #1f77b4"/>
     <use xlink:href="#m5bd03ae3f4" x="593.022886" y="91.390028" style="fill: #1f77b4; stroke: #1f77b4"/>
     <use xlink:href="#m5bd03ae3f4" x="598.121196" y="87.905093" style="fill: #1f77b4; stroke: #1f77b4"/>
     <use xlink:href="#m5bd03ae3f4" x="603.225598" y="77.95182" style="fill: #1f77b4; stroke: #1f77b4"/>
     <use xlink:href="#m5bd03ae3f4" x="608.317817" y="82.449615" style="fill: #1f77b4; stroke: #1f77b4"/>
     <use xlink:href="#m5bd03ae3f4" x="613.428309" y="89.765228" style="fill: #1f77b4; stroke: #1f77b4"/>
     <use xlink:href="#m5bd03ae3f4" x="618.526619" y="86.860975" style="fill: #1f77b4; stroke: #1f77b4"/>
     <use xlink:href="#m5bd03ae3f4" x="623.631021" y="84.006659" style="fill: #1f77b4; stroke: #1f77b4"/>
     <use xlink:href="#m5bd03ae3f4" x="628.729331" y="87.399774" style="fill: #1f77b4; stroke: #1f77b4"/>
     <use xlink:href="#m5bd03ae3f4" x="633.833732" y="88.238053" style="fill: #1f77b4; stroke: #1f77b4"/>
     <use xlink:href="#m5bd03ae3f4" x="640.448744" y="91.949527" style="fill: #1f77b4; stroke: #1f77b4"/>
     <use xlink:href="#m5bd03ae3f4" x="645.547054" y="82.528287" style="fill: #1f77b4; stroke: #1f77b4"/>
     <use xlink:href="#m5bd03ae3f4" x="650.651456" y="77.665142" style="fill: #1f77b4; stroke: #1f77b4"/>
     <use xlink:href="#m5bd03ae3f4" x="655.749766" y="82.563033" style="fill: #1f77b4; stroke: #1f77b4"/>
     <use xlink:href="#m5bd03ae3f4" x="660.841985" y="89.084642" style="fill: #1f77b4; stroke: #1f77b4"/>
     <use xlink:href="#m5bd03ae3f4" x="665.946386" y="91.890854" style="fill: #1f77b4; stroke: #1f77b4"/>
     <use xlink:href="#m5bd03ae3f4" x="671.050788" y="96.839567" style="fill: #1f77b4; stroke: #1f77b4"/>
     <use xlink:href="#m5bd03ae3f4" x="676.149098" y="100.912094" style="fill: #1f77b4; stroke: #1f77b4"/>
     <use xlink:href="#m5bd03ae3f4" x="681.253499" y="100.406733" style="fill: #1f77b4; stroke: #1f77b4"/>
     <use xlink:href="#m5bd03ae3f4" x="686.357901" y="90.826949" style="fill: #1f77b4; stroke: #1f77b4"/>
     <use xlink:href="#m5bd03ae3f4" x="692.972912" y="91.944611" style="fill: #1f77b4; stroke: #1f77b4"/>
     <use xlink:href="#m5bd03ae3f4" x="698.071222" y="91.503591" style="fill: #1f77b4; stroke: #1f77b4"/>
     <use xlink:href="#m5bd03ae3f4" x="703.15735" y="88.019889" style="fill: #1f77b4; stroke: #1f77b4"/>
     <use xlink:href="#m5bd03ae3f4" x="708.255661" y="94.662627" style="fill: #1f77b4; stroke: #1f77b4"/>
     <use xlink:href="#m5bd03ae3f4" x="713.360062" y="92.600572" style="fill: #1f77b4; stroke: #1f77b4"/>
     <use xlink:href="#m5bd03ae3f4" x="718.458372" y="99.002588" style="fill: #1f77b4; stroke: #1f77b4"/>
     <use xlink:href="#m5bd03ae3f4" x="723.562773" y="98.098964" style="fill: #1f77b4; stroke: #1f77b4"/>
     <use xlink:href="#m5bd03ae3f4" x="728.661084" y="104.218799" style="fill: #1f77b4; stroke: #1f77b4"/>
     <use xlink:href="#m5bd03ae3f4" x="733.765485" y="110.346731" style="fill: #1f77b4; stroke: #1f77b4"/>
     <use xlink:href="#m5bd03ae3f4" x="738.869886" y="106.190361" style="fill: #1f77b4; stroke: #1f77b4"/>
    </g>
   </g>
   <g id="patch_3">
    <path d="M 99.70625 367.7235
L 99.70625 35.0835
" style="fill: none; stroke: #000000; stroke-width: 3; stroke-linejoin: miter; stroke-linecap: square"/>
   </g>
   <g id="patch_4">
    <path d="M 769.30625 367.7235
L 769.30625 35.0835
" style="fill: none; stroke: #000000; stroke-width: 3; stroke-linejoin: miter; stroke-linecap: square"/>
   </g>
   <g id="patch_5">
    <path d="M 99.70625 367.7235
L 769.30625 367.7235
" style="fill: none; stroke: #000000; stroke-width: 3; stroke-linejoin: miter; stroke-linecap: square"/>
   </g>
   <g id="patch_6">
    <path d="M 99.70625 35.0835
L 769.30625 35.0835
" style="fill: none; stroke: #000000; stroke-width: 3; stroke-linejoin: miter; stroke-linecap: square"/>
   </g>
   <g id="text_17">
    <!-- Spearman correlation for terp-GA-acid-v1 -->
    <g transform="translate(136.55225 29.0835) scale(0.288 -0.288)">
     <defs>
      <path id="DejaVuSans-66" d="M 2375 4863
L 2375 4384
L 1825 4384
Q 1516 4384 1395 4259
Q 1275 4134 1275 3809
L 1275 3500
L 2222 3500
L 2222 3053
L 1275 3053
L 1275 0
L 697 0
L 697 3053
L 147 3053
L 147 3500
L 697 3500
L 697 3744
Q 697 4328 969 4595
Q 1241 4863 1831 4863
L 2375 4863
z
" transform="scale(0.015625)"/>
      <path id="DejaVuSans-2d" d="M 313 2009
L 1997 2009
L 1997 1497
L 313 1497
L 313 2009
z
" transform="scale(0.015625)"/>
      <path id="DejaVuSans-47" d="M 3809 666
L 3809 1919
L 2778 1919
L 2778 2438
L 4434 2438
L 4434 434
Q 4069 175 3628 42
Q 3188 -91 2688 -91
Q 1594 -91 976 548
Q 359 1188 359 2328
Q 359 3472 976 4111
Q 1594 4750 2688 4750
Q 3144 4750 3555 4637
Q 3966 4525 4313 4306
L 4313 3634
Q 3963 3931 3569 4081
Q 3175 4231 2741 4231
Q 1884 4231 1454 3753
Q 1025 3275 1025 2328
Q 1025 1384 1454 906
Q 1884 428 2741 428
Q 3075 428 3337 486
Q 3600 544 3809 666
z
" transform="scale(0.015625)"/>
      <path id="DejaVuSans-41" d="M 2188 4044
L 1331 1722
L 3047 1722
L 2188 4044
z
M 1831 4666
L 2547 4666
L 4325 0
L 3669 0
L 3244 1197
L 1141 1197
L 716 0
L 50 0
L 1831 4666
z
" transform="scale(0.015625)"/>
      <path id="DejaVuSans-64" d="M 2906 2969
L 2906 4863
L 3481 4863
L 3481 0
L 2906 0
L 2906 525
Q 2725 213 2448 61
Q 2172 -91 1784 -91
Q 1150 -91 751 415
Q 353 922 353 1747
Q 353 2572 751 3078
Q 1150 3584 1784 3584
Q 2172 3584 2448 3432
Q 2725 3281 2906 2969
z
M 947 1747
Q 947 1113 1208 752
Q 1469 391 1925 391
Q 2381 391 2643 752
Q 2906 1113 2906 1747
Q 2906 2381 2643 2742
Q 2381 3103 1925 3103
Q 1469 3103 1208 2742
Q 947 2381 947 1747
z
" transform="scale(0.015625)"/>
      <path id="DejaVuSans-76" d="M 191 3500
L 800 3500
L 1894 563
L 2988 3500
L 3597 3500
L 2284 0
L 1503 0
L 191 3500
z
" transform="scale(0.015625)"/>
     </defs>
     <use xlink:href="#DejaVuSans-53"/>
     <use xlink:href="#DejaVuSans-70" transform="translate(63.476562 0)"/>
     <use xlink:href="#DejaVuSans-65" transform="translate(126.953125 0)"/>
     <use xlink:href="#DejaVuSans-61" transform="translate(188.476562 0)"/>
     <use xlink:href="#DejaVuSans-72" transform="translate(249.755859 0)"/>
     <use xlink:href="#DejaVuSans-6d" transform="translate(289.119141 0)"/>
     <use xlink:href="#DejaVuSans-61" transform="translate(386.53125 0)"/>
     <use xlink:href="#DejaVuSans-6e" transform="translate(447.810547 0)"/>
     <use xlink:href="#DejaVuSans-20" transform="translate(511.189453 0)"/>
     <use xlink:href="#DejaVuSans-63" transform="translate(542.976562 0)"/>
     <use xlink:href="#DejaVuSans-6f" transform="translate(597.957031 0)"/>
     <use xlink:href="#DejaVuSans-72" transform="translate(659.138672 0)"/>
     <use xlink:href="#DejaVuSans-72" transform="translate(698.501953 0)"/>
     <use xlink:href="#DejaVuSans-65" transform="translate(737.365234 0)"/>
     <use xlink:href="#DejaVuSans-6c" transform="translate(798.888672 0)"/>
     <use xlink:href="#DejaVuSans-61" transform="translate(826.671875 0)"/>
     <use xlink:href="#DejaVuSans-74" transform="translate(887.951172 0)"/>
     <use xlink:href="#DejaVuSans-69" transform="translate(927.160156 0)"/>
     <use xlink:href="#DejaVuSans-6f" transform="translate(954.943359 0)"/>
     <use xlink:href="#DejaVuSans-6e" transform="translate(1016.125 0)"/>
     <use xlink:href="#DejaVuSans-20" transform="translate(1079.503906 0)"/>
     <use xlink:href="#DejaVuSans-66" transform="translate(1111.291016 0)"/>
     <use xlink:href="#DejaVuSans-6f" transform="translate(1146.496094 0)"/>
     <use xlink:href="#DejaVuSans-72" transform="translate(1207.677734 0)"/>
     <use xlink:href="#DejaVuSans-20" transform="translate(1248.791016 0)"/>
     <use xlink:href="#DejaVuSans-74" transform="translate(1280.578125 0)"/>
     <use xlink:href="#DejaVuSans-65" transform="translate(1319.787109 0)"/>
     <use xlink:href="#DejaVuSans-72" transform="translate(1381.310547 0)"/>
     <use xlink:href="#DejaVuSans-70" transform="translate(1422.423828 0)"/>
     <use xlink:href="#DejaVuSans-2d" transform="translate(1485.900391 0)"/>
     <use xlink:href="#DejaVuSans-47" transform="translate(1525.609375 0)"/>
     <use xlink:href="#DejaVuSans-41" transform="translate(1603.099609 0)"/>
     <use xlink:href="#DejaVuSans-2d" transform="translate(1669.257812 0)"/>
     <use xlink:href="#DejaVuSans-61" transform="translate(1705.341797 0)"/>
     <use xlink:href="#DejaVuSans-63" transform="translate(1766.621094 0)"/>
     <use xlink:href="#DejaVuSans-69" transform="translate(1821.601562 0)"/>
     <use xlink:href="#DejaVuSans-64" transform="translate(1849.384766 0)"/>
     <use xlink:href="#DejaVuSans-2d" transform="translate(1912.861328 0)"/>
     <use xlink:href="#DejaVuSans-76" transform="translate(1946.320312 0)"/>
     <use xlink:href="#DejaVuSans-31" transform="translate(2005.5 0)"/>
    </g>
   </g>
  </g>
 </g>
 <defs>
  <clipPath id="pf8eccc5c04">
   <rect x="99.70625" y="35.0835" width="669.6" height="332.64"/>
  </clipPath>
 </defs>
</svg>
